<svg xmlns="http://www.w3.org/2000/svg" width="375.165" height="163.424" viewBox="0 0 375.165 163.424">
  <path id="CDBC" d="M315.165,520.262v-.194h.194v.194h.775v.194h.194v.387h.194v.194l.194-.194h.194v0h.194v0h.194l.194.194h.194v.194h.387v.387h.194v.387h.194v.194h.194v.194l.194.194.194.194v.775h.194l-.194.388.194.194V525.3l-.194.194v.387h.194l.194.194v.775l-.387.387V528.4l-.194.194.194.194h.194v.194l.194.194-.194.194v.194h-.194v.194l.194.194h-.194v.775h.387v.194h.969l.387.194h.581l.194.194h.387l.194.194.194.194h-.194l.194.194v.194l.194.194v.387l.194.387h.194l.194.194.387.194h.388l.387.194.194.194h.194v.387h.194l.194.387.194.581.194.194.194.581.581.194h.194l.194-.194h1.162l.387.194.194.194.387.194h1.356l.194.194.387-.194h.194l.194.194h.581l.387.194.387.388.581.194.194.194.387.581-.194.194.194.194.387.194h.581l.581.194.581-.194h.387v-.387h.194v.194h.194v-.194h.387l.194-.387h.581v-.194l.194.194h.194l-.194-.194v-.194h.194l.194-.194v-.194h.388v-.387h.387v-.387h.194v-.387h0v-.387l.194-.194h.194v-.581h.194l.194-.194h.194V534.6h.194l-.194-.194h.194v-.387l.194-.194h-.194v-.194h.194l.194-.194v-.194h-.194v-.581h-.194v-.194l.194-.194v-.194l-.194-.194h0V531.5l.194-.194v-.194h-.194v-.194h-.194l.194-.194.194-.194v-.387h.194v-.194h.387v-.194h.581v-.194h.194v-.194h.194v.194h.775v0h.194v0h.194v0h.194v.387h.194v.581l.194.194h.194v.387h.194v.194h.194v.194l.194.194v.387h-.194v.194h.194v.581h.194v0H345v.194h.194v.194h.388v.194h.194v.194l.194.194-.194.194h.194v.387h.194v.387h.194l.194.194h.194l.194.194v.194l.194-.194.194.194h.581l.194-.194h.388v-.194h.775v-.194h.581v.194h.194l.194-.194h.194V534.6h.194v-.387l.194-.194h.194v-.194l.194-.194.194-.194h.194l.387.194h.194l.194.194v.194h.387l.194.194h.388l.194.387.194.194.194.194h2.325l.581.194.969-.194.194-.194h3.681l1.162.194.194-.775v-.194l.194-.775v-.194l.387-.387-.194-.194.194-.194v-.194l.194.194h.194v.194h.194v-.581h.194l.194-.194h.194v.194h-.194v.194h.194v-.194h.194v1.356l.581.775,1.937,1.356,1.744.581,1.356.387,1.162.969.581,1.744-.387,1.356-.775,1.55-1.162,1.55-.581,1.356-.387,1.55v1.356l-.194,1.937-.387,1.162-.969,1.55-1.356,1.356-1.356.194-1.937-.194-1.162.194-.969.775L360.3,556.1l-.581,2.712.194,1.55.775,1.162,1.356,1.162.581.194,1.162.581.969.387.775.581.194.194.387.194h.194v.969l1.162.969,1.744.775,1.55.581.969.581v1.744l.387.969.581,1.937h.969l1.162.388h.581l.775-.388.581.388.581.194.775-.387h.194l.387.387h1.162v-.194h.194v-.194l-.194-.194h.194v-.194h.581l.194-.194h.194l-.194-.194h0l-.194-.194h.194l-.194-.194h.194v-.194l.194.194v-.194h.194v-.194h0v-.194h.194V571.6h.194V571.4h.194v-.581h-.194v-.194h-.194l.194-.194h-.194v0h.194v-.194h0v-.194h.194v-.387H382v-.194h.194v-.194H382l.194-.194H382v-.387h.194V568.5H382l.194-.194h0v-.581h.194v-.194h.194v0l.194-.194v-.387h.194v-.194h-.194v-.194h-.194v-.194h-.194v-.194H382.2v-.194H382v-.775h0l-.194-.194h-.194v-.194h.194v-.194h0v0H382v-.194l-.194-.194H382v-.387h-.194l.194-.194h-.194l.194-.194h-.387v-.194h-.388v-.194h-.194v-.387h-.194v-.194h0v-.387l.194-.194v-.194h-.194v-.387h0v-.387h.194v-.387h.194v0l.194-.194v.194h.194v-.194h.194v-.194H382v.194h.194v0h.194l.194-.194h.194v-.194h.194v-.387h-.194V559.2h-.194l-.194-.194H382.2v-.387h.387l1.55.581.775.969.969,1.55.581,1.162v1.162l.194,1.356.387.969.581,1.162.969.194.775-.581.775-.194.969-.388h2.325l1.162.775.387.775.969.775,1.356-.388.581-.194.581-.387.387-.194,1.356.387h2.712l1.162.194,5.231.387H415.9l1.162.194H419l.969.969.194.581-.194.388-.387.581-.194.194-.387.194-.194.775.194.581h.194l-.194.387-.581.775h-.387v.388l.387.581v.194l-.194.581.194.194-.581.388-.194,1.356v.775l-.194.387v.388l-.387.387-.387,1.55-.194.581.194.388.775.194.581.775v.194l.387.775v1.356l.194.581v1.356H419l-.194.387h-.194v.194l-.194.194h-.194l-.194,2.906-.387.775-.194.387-.387.969v.387l-.387.387v.387l-.387,1.55v.581l-.194.387v.387l-.387,1.356v.775l-.387.387v1.162l-.194.775-.194.387v.581l.387.387v.969l-.194.388-.194,1.744.194.581v1.162l-.387.194-.387,1.937.194.775-.194.969-.387.388.387,1.55v.194l-.387.969-.194,2.131.387,1.55.194.775-.387.581-.194.581.194.387v.194l.194.194.387,1.55.387.969-.387.581v.387l.194.581v1.162l.194.387.387.581v.194h-.194v.194l.194.194v.194l-.194.194-.387-.194v.194l.387.581-.194.387.194.387h.194l.194.194-.387.581v.581l-.387.581.194.387-.194.387v1.162h-.387v.387l.581.969v.581h-.581v1.162l-.194.581.387,1.356-.387.387v.775l-.387.969.387.387.387-.194v.775l-.194.194.194.194.194.387v.387l-.194.194-.194.194v1.55l-.387.775-.387.387-.387.194H410.48l-.387.194-.581.387-.387.194-.194.581-.387.775-.194.969-.194.581v.775H402.15l-8.33.194-8.524.194-8.33.194h-8.524l-8.33.194-8.524.194-8.33.194h-8.33l-8.524.194h-1.744L321.366,652H313.23l-2.131-.387-.581-.387-.775-.194h-.194l-8.136.969-14.917-.775h-4.068l-2.131.194L277,652.19l-1.744.387-1.744.581-1.55.775h-.194l-1.937.775-.969.581-.969.194-.581.387-.194.581v.775l-3.1-.388-3.1-.969-1.55-.387-1.356-.194-1.162-.194-.969-.194-.581-.387-.387.194-.969.194h-.387l-1.55.388-2.325-.194-2.131-.194-1.744-.194-1.162-.387-1.356-.194h-.387l-1.356-.194-1.356-.194-.581-.194-.387-.775-.194-.194-.194-.194-.387-.775-.387.194h-.775l-.194-.387-.387.194-.387.387-.194.388h-.775v.194l-.194.581h-.387l-.194-.387h-.194l-1.356.775h-.194v-.581l-.387-.581-.194-.388-.194-.194-.194.194-.194.388-.194-.194-.194-.194H230.7l-.194.581h-.194l-.194-.387L229.54,652l-.387-.581v-.775l-.581-1.162-.387.194-.194-.194H227.6l-.194.387h-.194l-.194.194h-.581v.194l-.194.194h-.194v-.194l-.194-.387-.194.194-.775.194-.194-.194-.194-.581h-.387v-.194l-.194-.387-.581.581-.194-.194h-.194l-.387.194-.581.194H221.6l-.581-.387h-.387l-.194.194-.581.194-.969-.194-.581.194-.775.581-.194-.194-.387.194-.194-.194-.194-.194h-.194v.194l-.387.388-.775.194-.775-.581-.194.194-.194-.387h.194l.194-.194v-.194l-.194-.194h-1.162l-.775-.194-.581-.194-1.162.581-.775.387-1.162.387h-.581l-1.55.194-1.937.194-.969.194-1.356.194-1.162.388-2.131.387-1.162.387-.969.194-.775.387h-.775l-1.356.194-1.356.194h-1.356l-1.162.194h-1.356l-.581.194H187.5l-.775,1.744-.775.194-1.937-.194-.581.194h-1.55l-.775-.194-1.356-.581h-.775l-.969.387-.969.194-.581.387v-.194h-.387l-.387.194-.194-.387-.581-.581-1.356-.387-.581-.194h-.194l-.194-.194h-.194l-.775-.194-.194.194h-.581l-.775.388-.581.194h-1.937l-.581-.194-.775-.388-.581-.194-.194-.194-.775-.387-.387-.194-.387-.194-.387-.194h-2.712l-.387.194h-.387l-.387.194h-.387l-.969-.194v-.581l-.387-.775h-.387v.194h-.194l-.194.194h-1.162l-.194.194h-.387V651.8h-.387V652l-.194-.194-.387-.194H153.6l-.194.194h-.194l-.194.194h-.194l-.194.194v.194l-.194.194v.194l-.194.194v.581l-.194.194v.775l-.194.194v.387l-.194.194h-.387l-.194-.194h-.194l-.194-.194-.194-.194-.194-.194h-.194l-.194-.194h-.194v.194h-.194l-.194-.194h-.969v-.387l-.194.194v-.194h-.194l-.194-.194h-.581l-.194-.194h-.194v-.194l-.194-.194-.387-.194-.387-.387h-.194l-.194-.194-.194-.194h-1.356V652h-.581V651.8h-.387v-.194h-.194l-.194.194-.194-.194-.194-.194h-1.55v-.194l-.194.194h-.194l-.194-.194-1.937-.194-.194.194h-.194l-.194.194h-.194l-.194.194h-.387v.194l-.194.194h-.194l-.194-.194h-.194V652l-.194.194H135l-.194.194h-.775l-.194.194h-.387l-.387.194-.194.194h-.387l-.194.194H132.1l-.194.194-.194.194h-.194v.387h-.194v.194h-.387l-.194.194-.387.194h-.194l-.194.194h-.387v.194h-.194l-.194-.194v.194l-.194-.194-.194-.194-.194-.194-.194-.194v-.194l-.194-.194-.194-.194v-.581h-.194l-.194-.387v-.194l-.194-.388h-.194V651.8l-.194-.194h-.581l-.194-.194-.194.194H125.9v-.194l-.194.194h-.969l-.194-.194-.194-.194v.194h-.581l-.194-.194h-.387l-.387-.194h-.775l-.581.194h-.775l-.387-.194h-.387l-.387-.194h-.581l-.581.387h-.387l-.194-.194h-.581v.194l1.744.387v.194l-.194.194-.387.194.194.387v.194l-.194.194-.194.388-.194.194h-.194l-.194.387h-.194l-.387-.194-.194.194v.194l-.194.194-.194.194h-.387v-.194l-.194.194-.387.194-.194.194h-.194l-.387.194h-.581l-.387.194h-2.518l-.387-.194h-.194l-.194.194-.194.194h-.194l-.194.194-1.162.194h-1.937l-.387.194h-1.162l-.387.194-.387.387-.194.194v.194l-.194.194v.194l-.194.194-.194.194V658l-.194.194v.194l-.194.194v.387h-.194v.194h-.194v.387l-.387.194-.194.194h-.581l-.387.194-.194.194-.387.194h-.194v.194l-.581.194-.387.388h-.194V661.1h-.969L98,660.906l-.581-.194H94.707v.194l-.387.194-.387.194v.581l-.194.194v.194l-.387.387-.194.194h-.194l-.387.388-.194.194-.387.194-.581.387h-.581l-.194.194h-.194l-.387.194h-.194l-.194.194-.387-.194-.387.194-.387-.194H84.246l-.581.194-.194.194h-.387l-.194.194-.194.194-.194.194h-.581v.194l-.194.194-.581-.194-.194.194v.194l-.194.194h-.969l-.194.194-.387.194-.775.194-.387.194H77.66l-.387.194h-.387l-.194.194H76.11l-.775.387-.387.387H72.817l-.581.194v.194l-.387.194-1.937.581-1.937.387H66.811l-2.906-2.906h-.194v-.581l-.387-.969-.387-.775L62.549,664l-.387-.581h-.194l-.387-.388-.194-.194-.581-.775-.387-.387-.387-.775h-.387v-.194l-.194-.387-.581-.969-.581-.581-.194-.194v-.387l-.581-.581-1.162-1.162-.969-.775-.969-.775-.387-.387-.581-.581-.387-.581-.387-.387-.194-.194-.194-.387-.775-.775-.387-.194v-.194l-.194-.581-.969-.969L48.6,648.313l-.969-1.162-.581-.775-.387-.775-.581-.775-.387-.775-.194-.387,1.356-.581,1.55-.194,1.744-.194h2.325l3.293-.194,3.1-.194,2.712-.194,5.231-.194,3.681-.194,2.712-.194.194-2.712v-52.5H71.073l-.775-.387-.194-.387.194-.387.775-.581.581-.194.969-.194L73.2,584H74.56l-.775-.387-.387-.194-.775-.387-.581-.194-.581-.581-.387-.387v-.194l-.387-.387-.194-.387L70.3,580.7l-.387-.581v-.387l.387-1.162.387-.581,1.162-.388,1.744.388.775.194.969-.387h.194l.581-.387,1.356-1.162.194-.194,1.744.194H79.6l.387-.194.581-.775h.969l.387-.194.387-.969.775-.581.775.194h.581v-.194l.194-.194.387-.775.194-.969.387-.775v-1.356l-.581-.969-.194-.387.194-.775.387-.387h.969l.969.581.581.194.775-.194,1.356-.387,1.162.194.387-.194H91.8l.581-.581.387-.581.194-.387.194-.775v-.581l-.194-.581.194-.775v-.194l.194-.194.387-.387.387-.387.194-.194.387-.387.194-.581.775-.387.581-.194h.581l.581-.388.387-.194.387-.387.581-.969.194-.194.194-.194.775-.194.387-.194.194-.194-.194-.194v-.194l-.581-.387-.194-.194.194-.581.581-.581.194-.387.387-1.356.387-.581.387-.775v-.194l.194-.194.387-.194v-.194l.775-.387.581-.775v-.581l.194-.388h.387l.387-.194.581.194h.387v-.387l.194-.969h.194v-.194h.969l.194-.387h.194l1.356-.194.581.194h1.55l.581-.194h.194l.581-.387,1.356-.581h.387l.581-.194.969-.387.194-.194.387-.194h.194l.194-.194.581-.194.387-.387h.194l.775-.194,1.55-.194.775-.387v-.194h.775l.387-.194.969-.969.775-.194.387.194,1.55.581.387.194h1.356l.581-.581h.194l.194-.775.194-.581-.387-.775-.194-.194v-.387l.581-.581.387.194h.387l.387.194h.581l.581.194H131.9l.581-.194h.581l.581-.194.581-.194.581-.387.775-.388.194.194.194.194.387.775v.194l.194.194.581.194.194.194.387.581v.194l.194.194.969.581h.387l.387.194.387.194h.194v.194l.775.969.194.194.194.194.969,2.131.194.194.581.581v.194l-.581-.194-.194.194h-.194v.387h-.194l.194.194v.194l.194.194.194.194.194.194h.194l.194.387.387.194v.194l.387.581.194.194.581.388.194.387v.194l.581-.194.387.387h.387v.194l.194.194.194.387.194.194h.387l.387.194h.194l.387-.388.387.194.775.387.775-.387h.387l.387.194.969.969.387.194h.775l.194.194.387.387.194.969v.194l-.194.194-.194.387v.194l.194.581.387.387-.194.194v.194l.387.581.387.581.387.581.387.387.581.581.194.194.194.194.387.387.387,1.356.969-.969.969-.775.581-.581h.969l.775.194.775-.387.775-.775,1.162-.969.969-.775.387-.775-.387-.775-.387-.969L165.03,553l.775-.775.775-.775.775-.581h.387l.775.194.194.388.387.775.387.969.581.581.775.387.581.387.969.387h.581l.969.194.775-.194.775-1.162.387-.969v-.969l.194-.387.194-.969v-.388l.387-.581.581-.581.775-.581h.581l.775.775.969.581.775.581.775.194h.387l.194-1.162v-.969l-.194-.775-.387-.581-.581-.581v-.581l.194-.194h.775l.969.194.969.194.581.194.581-.581.387-.969.194-.775.194-.387v-.969l-.775-.581-1.356-.775-.194-.194-.387-.194.194-.581v-.194l1.162-.775v-.775l.387-1.162.775-2.712.387-2.131v-2.712l-.194-.775-.194-3.1.194-1.937-.194-1.55.581-.969,1.162-.775,1.162-.581.969-.581.581-.387h2.906l.775.387.969.194.581.775v.581l.194.387v.194h.194l.194-.194v-.194h.194l.194.194v.194l.581.969.581.969.387.387.387.387.387.581.194.194.775.581.775.388.969.194,1.356.387.775.194h1.937l.969-.387.969-.969.775-.969.387-.775.775-1.162.775-.969.581-.969.775-.969.775-.581,1.162-.581,1.162-.387.969-.194,1.356-.194,1.356-.387,1.744.194h2.518l1.356-.387,1.162-.194,1.356-.775,1.356-.387,1.162-.581.775-.387.969-.581,1.162-.581.775-.581L234,512.51l1.162-.775,1.356-.775.775-.775,1.356-.581,1.162-1.162.581-.387,1.356.387.775-.581.775-.388.581-.387,1.162-.194.969-.194h.581l.775.387.581.194.581.194.387.775.581,1.162v.581l-.194.969-.581.775-.581.775-.387.194-.194.194.194.581.581.775.581.775.969.581.775.775.775.969.581.775.969.581.581.194.581.388h.194l.194.194h.581l-.581.581-.387.194-.387.581v.581l-.194.581-.194.194v.387l-1.162.969-.387.194h-.194l-.387.775-.387.194.194.581-.194,1.162-.194.775-.194-.194.194.775-.387.581-.775.581-.969.194-1.162.581v2.325l.194,1.744-.194,1.356-.194,1.162-.387.969-.387.969-.387.581v1.55l.581.581.775.775.581.581.387.387.194.388v1.744l.194.581.194.969.581,1.162.194.775.194.581.194.775-.194,1.162-.387,1.937-.194.775-.387,1.162-.387,1.162-.194.969v.775l-.387.969v1.55l.194.581.194.194.194.387.194.194.194.194.387.387.969-.194.194-.194v.194l.387-.581.194-.387h.194l.775-.581v.194h.387l.387-.387.194-.194h.387l.969-1.162.581-.775.775-.387.194.194h.581l.194.194.194.194v.194l.194.388h.581v-.194h.194l.194.194.387.194v.194h.581l.387.387h.387l.194.194.387-.194h.581l.969-.194.194.388h.388l.387.581.194.194.581.387.194.387.387.388.194.775h.194l.194.387,1.162.387h.775l.387.194.387.387v.194l.775-.194,1.356.581h.194l.387.387h.581l.194-.194h.969l.194-.194.387-.194.969.194.194.194.581-.581.581-.387.387-.194.194-.194,1.356-1.356.387-.194.387-.194.387-.387.387-.581h.775l.387-.581.775-.194.387-.387.581-.387.194-.194.581-.387.581-.194.387-.194h.194l.194-.387.969-.387h.581l.387-.194.775.194.387-.194.387-.581h.194l.387-.194.387-.388,1.743-2.325,1.356-1.744.194-.194.194-1.162v-.388l.194-.969v-.194l.581-1.162,1.356-1.937.194-.775.581-1.356v-.194l.775-1.356,1.162-1.162,1.55-1.356.387-.388,1.162-1.162.194-.194,1.162-.969.387-.387.581-.581.775-.969h.194l.194-.387.581-.581.194-.387.387-.387.387-.775.969-1.162.775-.775.775-.969,1.162-.581.775-.581v-.387l.387-.194.581-.387v-.194l.194-.194.194-.194.581-.194.194-.194.775-.581v-.194l.194-.194.194-.194V525.1l.194-.194h.194l.194-.581v-.194h.194l.194-.194v-.387h.194v-.194h.194l.194-.194v-.387l.194-.194v-.194h.194l.194-.194V522h.194l.194-.194h-.194v-.194h.194v0l.194-.194h-.194v-.387h.194v-.581h.194v-.194h.194Z" transform="translate(-45.251 -506.449)" fill="#1876d2" stroke="#fff" stroke-linecap="round" stroke-linejoin="round" stroke-width="0.5"/>
</svg>
