<svg xmlns="http://www.w3.org/2000/svg" width="485.584" height="318.791" viewBox="0 0 485.584 318.791">
  <path id="CDBU" d="M950.083,66.7l.581.969.581.969.581.969-.194,2.325-.581.387H949.7l-1.937.387-.775.581v2.131l.387.969v.387l-.387.387-.387.581-.387.775.194,1.356.387.194v.194l.969.387v.194l.194.194.775.387h.969v.581L948.34,83.17l.581.969,1.356,1.55.969.969.387,1.55v2.131l.194,1.162.969,1.937,1.356.969,1.162.387,1.162.387.775.581-.194,1.937-.194.387-.775,1.55H955.7l-1.937.969h-.775l-.388-.194h-1.162l-.387.194-.194.194.387,1.162.581,1.744,1.55,1.744.581.969.387.581.387.581.581,1.356.194.387-.387.387-.775.969-.194.194-.969.581v.194l-.969,1.55-1.162.775-.388.581.194.581.194.387v1.937l-.388.581-.194.194-.387.387-.194.581.387.775v.194l.194.194.387.387.194.581-.775.969-.194.387v.969l-.775,2.325-.194.194.969.387.969-.387.194.194.581.194h.581l.969-.387h.969l1.356.775.194-.194h.387l.194-.194v-.194l1.55.969,1.356.969.194.194.387.387,1.162-.194,2.131.775h.194l1.55.194.581.387.581.194.581.581.388.387.969.387h.775l.581.194.775.387.581.194,1.356-.775.775-.581,3.487-.387.775-.387.387-.194.387-.194h.775l.969.581.194.194.194.194-.194.387-.194.387-1.744,2.325-.581.775-.194,1.162.194,1.937v1.744l-1.162,1.937-.581,1.356-.581,1.744v1.162l-.194,2.712v.775l.194,1.162v2.131H974.3l-.387.387-.194.581v.194l.194.969-1.356,4.649.194.581v.194l-.194.775-.194.387-.194.194h-.194l-.194.194h-.194l-.194.387v.194l-.194.581v.775l-.387,1.162-.387,1.356.581,1.744.387.581h.387l.194.194h.969l.194.387.387.969-.387.581.194.775h.194l.388.969v.969l-.388.581v.775l.194,1.744.581.969.581.387,1.162.775.194.387.194.387v1.162l.194.775.581.775.194.194.388.581.581,1.55v.194l-1.55.581-.388.387-.194,1.162,2.131.387.969.775.775.775.775,1.356.581.581.581,1.356.387.194.194.387.581,1.162.388,2.325h.387v1.55l.387.775-.775,1.744v1.356l-1.162,3.875.581.775.387.387,1.356.194,1.55.969.387.581.194,2.906v1.55l.387,2.518-.581.775-1.55,1.744-1.162,1.55-1.744,2.325-.581,1.937-1.356.581v1.162l-.387,1.162-.387.387-.775.969.387,1.162v2.518l-1.162,3.681-1.744,1.162-.969,2.131.387,1.744h.969l1.55-.387.775.387.387.581.388.775.194.969.581,2.325h.387l.194.194h.194l.388-.775.581-.387.388-.194h.387l.194.387v.387l.194.775.194.194v-.194l.775-.581h.969l.581-.581.194-.969.387-.194.775-.387.387.581.388-.194h.194l.387.194h.388l.194-.194-.194-.581-.775-.387v-.581l.969-.581.775-.194.194.387-.194.581.194.581.581.581h.581l.194-.194h.194l.387-.387v-.581l-.387-1.55V239.7l.387-.194.969.194.581-.194.387-.194h.969l.194-.194.194-.581v-.387l-.581-.387.581-.387h.194l.194.194h.194l.194.387.194.387v1.55l.388.194h.387l.194-.581.388.194.194.194.194-.969.194-.194h.581l.581-.581h1.162l.387.194.387.775.194.194.775-.194.775-.775h.194l.387.581.194.194.194-.387.194-.387.581.581,1.55-.387.581-.775.194-1.162.194-.194.581.775.969.387.387.194.387-.775h.387l.387-.194.194.194.194.387.581.194.775.581,1.162-.387.388.969.387,1.356-.387.969-.581,1.937.581,5.618-.388,1.356-.775,1.356-.194,1.356.775,2.325.387,1.356-.969,2.131,1.356.387,2.712-.775,1.162.194v.775l-1.356,1.55-1.55,3.875-1.356.387-2.325.775-1.55.387-1.356.387-2.131.775-.969-.581v-.194h-1.356l-.775.194v.581l.775,1.162v.581l-.194.581.581.387,1.744.775.969.387,1.55.581,3.1.775,2.131,1.356v1.55l-.194.387v.387l-.387.775-.969,1.162-.581.194-1.356.194-1.162-.194-.775.387v.581l.194,1.162.388,1.356-.388.775-.969-.194-1.162-.387-1.356-.581-.775-.581-1.937-1.162H1002l-.387.194-.581.581-.387.969v1.356H998.9v.775l.581.581v.969l-.194.194h-1.356l-1.356.581-1.162,1.937-.969-.194-.969-.387-.388.194-1.162.581-1.744.775-.969.194-.969,1.162h-.969l-1.162-.387-1.55-.775-1.55-.387-.581-.581-1.55-1.55-1.744-.969-1.162-1.937-.194-.581-.775-.581-.388-.581-.581-.969-.388-.581-.775-.387-.581-.387-.775-.194-.581-.581h-.194l-1.55-.969h-1.162l-.387-.194v-.969l-.581-.387v.194h-.581l-.581-.969-.775-.194-.387-.194-.775-.581-.194-.387-.581.775-.194.581-.387,1.356-.194,1.55-.194.775.387.775-.194,1.744-.387.775-.194.969v.194l-.775,1.162-1.162,2.131-.775.581-.775.775-.775.969-.969.969-1.55,1.356h-.775l-.775-.194h-.969l-.775-.194-.969.387v.775l.194.387.194.581-.775.581-.775-.775-.775.194-.194.194-.581.969-.775.775-.387.194v.581l.581,1.743-.194.387-.581.194-.969.194-.387.387h-.387l-.194.194-.194,1.162.194.775-.194.581-1.162.969-.969,1.162v1.743l-.388.969-.194.969-.969,1.356.775-.194.194.194,1.162.581h.581l.581-.194h.194l.775-.581h1.162l.387-.194,1.55.387.775-.194.387.387h.387l.581-.194.581.194.387-.194h.775l.387-.194.581-1.744.775-.969.969.387h1.162l1.162-.194h.969l1.55-.194h.387l.194.194.775-.581.194.194h1.55l.581-.581.775,1.162.387,1.744v5.424l.387.581.775,2.131.581,1.356v.387l-.194,1.937-.194.194h-.194v-.387h-.194l-.194-.194h-.581l-.581.775-.581.387.581.194.775.969v.387l1.356,1.356.969.969h.387l.581.387.194.775v.775l-.194,1.55-.387,1.356-.581,2.131h-.194l-.387-.194-.194.194h-.194l-.194.194H967.9l-.387,1.356-1.162,1.937v.194l-.387.581-.581,1.162-.194.581-.581.194-.194.194v1.55l-.387.581v1.162l-.581,1.744-.387.194-.194-.194h-.194l-.194.581-.194.194-.775-.194-.194.775-.387.387-.194.969h-.194v.194l-.775-.194h-.194l-1.55,1.356-.194.581v3.1l.194.969.194.387.194.387-.387.969v.387l-.388,1.55v.775l-.581.581-.194.387v1.937l-.194.775-.194.387-.388.387v.581l.194.387.194.194v.194l.387.194.194.194v.387l-.194.969h-.775l-.194-.194-.194-.194v-.387h-.194v-.387l-1.356.581-.581.194-.775-.969h-1.55v-.194l.194-.387v-.194l-.194-.194-.387-.194-.387-.194-.387-.775-.387-.194-.194-.387h-.387l-.194-.387h-.387v-.194l-.194-.387h-.581l-.194-.194-.194-.194v-.194l-.194-.194v-.194l-.194-.194v-.581l.387-.194-.194-.194v-.194l.194-.581-.194-.775v-.194l-.194-.387.194-.194V353.8l-.387-.581.194-.194v-.387H946.6v-.194l-.387-.194-.194-.775.387-.194V350.9l.194-.194-.194-.581h-.194v-.387l.194-.194-.194-.387h-.194l-.194.194-.387-.969-.387-.969v-.194h-.387l-.387-.775h-.194l-.387-.194.194-.581H943.3l-.194-.194v-1.162l-.194-.194-.581-.775-.388-.969-.581-.194h-.194l-.387-.194v.969l-.387.969-.388.581h-.194l-.387.194-.775-.387-.775-.194h-.969l-.581.581-.581,1.356-.581.194-.775-.194-.387-.775-.581-.969-.775-.194-.581-.581-.194-.969.194-.969-.387-1.356H931.1l-.775-.194-.387.194h-.581l-.387.387-.581.387-1.356.969-1.356.969L921.8,346.83l-.775.775-1.162.969-1.55.581.194-1.356-.581-.775-.581-.194-1.162.387-.388.581.194.969.387.581-.387,2.518-1.55,1.356h-.775l-.969.194-5.618.387-.775-.581v-.581l-.194-.581-.387-1.937-.194-1.356-.388-1.162-.775-.194-.194.194-1.356.969-1.162.969-.969.581-.775,1.937-2.518.581-2.712-.387-1.162-.581-1.356-1.744v-.581l-.194-.194-.388-.194-.194-.775h-.194v-.969h-.581v-1.55l-.775-6.974.969-.581.194-.969v-1.162l-1.55-.969v-1.937l.581-2.325.775-.969V328.62l-.969-4.262-1.55.194h-2.712l-.775.581-.581.775-.969.387h-.388l-1.162.194h-.969l-.387.387-.775.969-.775.387-.194.581-.194.387h-.194l-1.356-.969h-.387l-.581-.581-.775.194h-.387l-.194.194-.387.194-.775.775-.969.194-.194.194-1.162.969v.387l.194.387-.194.387-.775.387h-.581l-.969.387-1.744-.194h-.194l-1.162-.387h-1.356l-1.162.775h-1.356l-1.937.581-.581,1.162-.387,1.162v.581h-.194l-.194.387-.388.387-.194.581-.387.775.194.387-.194.387-.775.387h-.387l-1.937-1.162h-.969l-.581-.194-.581-1.356-1.356-2.131-1.356.387-1.356-.194-1.356-.775-.969-.194h-1.744l-.969-.969-.387-.387-1.356.387-1.356.969-1.356.581-.969,1.55-.969,1.356-1.162.194-.775.387-1.356,1.162-1.162.775-1.162.775L829.2,341.6l-1.55.387H825.9l-1.55.581-.387-.581h-.581l-.194-.194h-.581l-.387-.194-.194.194h-.194l-.969.194-.387-.194h-.969l-.775.194h-.194l-.194.194-.581-.194h-.775l-.194-.194h-.194l-.194-.194-.194-.194-.388-.775-.194-.194-.387-.387-.775-.194h-.194l-.775-.194h-.969l-.581-.194h-.775v.194h-.194l-.387-.194h-.194l-.387.194h-1.356l-.969-.581h-.581l-.387-.194-.194-.194.194-.194v-.387h-.194l-.969-.194-.194-.194h-.194v-.194l-1.356-.194-.194-.387-.194-.194-.387-.194-.581-.387-.581-.194-.969-.387V335.4l-.194-.194-.387-.387v-.581l-.194-.194-.388-.581v-.387l-.581-.387H798.4l-.581-.194-.387-.387-.194-.194-.581-.194h-.194l-.775.194-.387.194H795.1l-.387.194h-.194l-1.744-.969h-1.356l-3.487-1.744-1.744.194-.387.387-.581.194-.194.194-.194.387h-.194l-.194.194h-.194l-.194.194v.387l-.194.194v.581h-.194l-.194.194-.775.775-.387.194-.387.194-.387.194-.387.387-.775.194-.194.387-.194.194v.969H779.8v.581h-.194v.194h-.194l-.194.581-.388.969-.581.194h-.969v-.775l-.194-.194h-.194l-.194-.194-.194-.194h-.387l-.194-.194-.969-.969-.194-.194-.388-1.356-.194-.194H773.6l-.194-.194-.194.194-.194.194v.387l-.387.194-.387-.775h-.194v.194l-.194.194-.194.194-.194-.194-.194-.387-.194-.387-.194-.194-.388.194v.581l-.387-.194-.194-.581-.194-.194-.194-.194v.194h-.194l-.194.387v.194h-.775l-.581.194-.194-.194-.194-.194h-.581l-.387.194-.388.581-.194-.194-.581-.581h-.387v.775l-.194.194-.194.194h-.581v-.387l.194-.387-.194-.775-.194-.194v.194l-.581.387h-.775l-.775-.581-.388.194-.194.387v.194h-.194l-.387.194-.581.387-.194.194h-.194l-.194.775-.387.194v-.194l-.387-.194-.387-.775v-.194l-.775-.775-.194-.194.194-.387v-.194l-.194-.387-.388-.194-.387-.194-.194-.387-.388.194-.194.581.194.581v.194l-.194.194h-3.1l-8.136-.387-3.681-.194-10.461-.387-.969-.194-7.943-.387-2.906-.194-.775.194-.194.387-.581.581-1.356.969h-1.55l-1.744.775-1.744.969-.581.194-.775-.387-.387-.581-.388-.969-.969-1.356-.581-.194-1.162-.387h-.775l-.581.387-.969.581-1.162.581-.775.387h-.775l-.969-.194-1.55-.194h-1.162l-.775.387-.388.581-.775.775v.775l-.775.775-2.131.775h-.969l-.775.387-1.744.194-1.744.387-.969.387-.969-.194-.775-.387-.969-.387-.775.194-.581.387-.194.194.775.194-.194.194-.581.581v1.162l.194.775.775.581.775.581.775.775-.581.581-.969.775-.969.581-.387-.194h-.581l-.387.194h-.194l-.388.387-.387.581h-.775l-1.162-.387-.969.387-.775.387-.387.387h-.581l-.387.194-.388.194-.194,1.162-.387.581-.388.387v.194l-.194.581v.194h-.194l-1.162.194-1.55-.387-.969.194V350.7l-.581-.194-.194-.194h-.581l-.388-.387-.387-.581-.387-.387-.194-.969-.194-.194-.387-.775-.775-.387v-.194l-.775-.194h-3.875l-1.937.194-.387.194h-1.162l-1.162-.194-.775-.194-.775-.775-.969-.581-.388-.194-.969-.581-.969-.969-.387-.194h-.581l-1.162-1.162-1.162-.387h-.581l-1.356-.775-.775-.194h-3.1l-.387-.194-.581.194h-1.744l.581-.969.194-.775v-.969l.387-1.937.388-.775.194-.387-.775-2.131v-.581l.194-.194v-.387l-.969-1.55-.969-1.55v-1.356H637.8l-.194-.194-.387-1.356-.581-2.131.194-1.744-.581-1.743-1.744-1.937-.194-.194-.194-.581-.581-.581-.775-.194-.775-.194-.194-.194-2.518-1.55-.387-.194-.387-.387-.194-.194-.194-.194-.581-.387-.581-.387-.387-.194-.387-.387L625.6,310.8h-1.744l-.194.194-.194.581-.387-.581-.387-.581-.581-.969-.387-.194v-.194h-.387l-.387-.194-.775.387-.387-.581-.387-.775h-.581l-.387-.194-.969-1.55-.387-.194h-.194v.194l-.581.969v.775l-.194,1.356-.775.969v.194l-.194.194.581.969v.581l-.194.387-.194.387h-.194v.194h-1.162l-.581-.581-.194.194H613l.194.775-.194.581.194.775v.775l-.194.194-.194.387-.387.194h-1.55l-.387-.387-.387-1.162h-.581l-.194.194v-.387l.388-.194h.581v.194l.388.194.387.194.194-.194v-.194l.388-.387h-.194V313.9l-2.325-1.937-1.55-.969-.969-.581-.387-.194-.581-.194-1.744-.387H603.7v-.194h-.194l-1.356-.194-1.55-.775h-.969l-1.162-.581-3.293-1.744h-1.356l-.387.194-.387.581-.775-.581h-1.356l-.969-.387-1.55-.969-.581-.581-1.162-.775-1.356-1.55-4.65-4.843-1.356-1.162-.775-.969-1.356-1.356-2.325-2.518-1.162-1.356-.775-1.744v-.581l.581-1.162v-1.743l.969-.775.969-.581h.969l1.356.581.969.969.581,1.744.388-2.325.194-4.843.775-.969.969-1.356.775-1.162,1.356-2.325,1.356-2.325.775-1.744,1.162-2.712,2.518-4.068-.775-.194-.387-.194-.775-.775-.969-.581-.581-1.55-.194-.387-.775.194-.194.194-.969.969-.775.387-1.356-1.356-.969-.775-.969-.387h-3.1l-1.55.387-1.162.775-2.325,3.293-.775,1.162-1.356.387-1.55-.387-1.356-.387-2.131-1.55-.775-1.162v-4.843l-.969-1.162-.969-.581-.969.194-1.162.194-.969.194-.969-.775-1.356-.581h-.387l-1.55-.775-.775-.581-1.162-.387H548.3l-1.55-.194-.969-.194-.775-.387-.194-.775.388-.969.969-2.131.581-.775.969-1.162.581-1.55.969-1.356,1.162-1.356.969-.775.387-.581.194-.775v-1.162l-.388-.581-.775-.581-.969-.581-1.162-.775-.387-.969v-1.55l.387-.969.581-.387.775-.969,1.162-1.162.969-.969.387-.969.581-.969.775-.775.775-.775.581-.194.969-.194.581-.194.775-.775.775-.775.581-.775.775-.581.969-.581,1.162-.581,1.162-.194,1.356-.581L566.122,218l1.356-.969.775-1.743,1.162-.775,2.325-.387,1.356-.387h1.55l3.293-.194,2.906-.969,2.712-.387,2.712-.969,1.162-.775.969-1.162.775-1.937.581-.194h1.162l.775-.194.775-.194.775-.969.194-1.162.581-1.356.969-1.356.387-.387,1.55-.387.194-.387,1.356-.969.969-.387.581-.194.775-.387.387-.581h.387l1.937-2.131,3.293-1.55-.581-1.162-.388-.194.581-.581.581.194.581.387.581.387h.775l1.356.387,1.55,1.162,1.937,1.356,1.744,2.325.969,1.162,2.906,1.356h.194l1.937.775h.581l.775-.194.388-.581.581-.775.194-.194h.969l.387-.194.969-.969.194-.387.194-.194.581-.387H628.7l.388-.194.775-.969.387-.194.387-.194V196.5l.581-.387,1.162-1.162.194-.194.388-.775V193.4l.194-.581v-.387l-.194-.387.194-.775v-.581l-.387-.581-.775.387-.581-.194h-.581l-1.55.194-.775.194-1.356-.387h-.388l-.194-.194h-.194l-.194-.194v-.387l-.194-.387h-.194l-.775.581h-.969l-.775-.387-.194-.194-.581-.194h-.387l-.969-.194v.775l-.969,1.55h-.387l-.387.387-.581.194-.194.194h-.194l-.388.194-.387-.387-.194-.581-.388-.387-1.162-.387-.775-.969-1.162.194-.387-.194.194-.581.194-.194h-.387l-.775.387-.969-.194h-.194l-.194.194-.581-.194-.387-.194h-1.55l-.194-.194-.387-.194-.775-.387-.194-.194.194-.387H607l-.581-.387-.775-.194v-.194l-.775-.387-.969-.194h-.775l-.194.387-.581.775h-.969l-.969.581-.388.194h-.387l-.194-.387h-.775l-.194.194v-.194h-.194l-.387-.387-.194-.194.387-1.55.194-.387v-.194h-.387v.194l-.969.969-.194-.194h-.387l-.194.194h-.194l-.969-.194-.387-.194-.388-.387h-.387l-.387.387h-.387v.194l-.581.581-.194.194h-.194l-.194.194-.775.194-.581-.194v-.194l-.194-.194-.581.581h-.388l-.775-.581h-.969l-.581.194-.387-.194h-.581l-.775.969h-.775l-1.162,1.162h-.194l-.387-.194v-.581H582.4V187.2l-.775-.194v-.387l-.194-.194h-1.162l-.581.387-.387.194h-1.162l-.775.194-.581.581H576l-.775.581-.388.194h-.387l-.194-.194v-.194l-.388-.581-.775-.387-.581.387h-.387l-.194.194-.581-.387h-.194l-.581-.194-.387-.969h-1.162l-.581.775h-.194l-.194-.387v-.194l-1.162.194-.388-.387-.194-.194-1.162-.775v-.387l-.387-.194v-.194l-.387-.194-.194-.194h-.194v-1.937l.194-.194.194-.194h1.162v-.194l.194-.775-.387-1.55.581-1.162.581-1.55,1.162-1.55.581-.387h.775l-1.744-2.325-.581-.581-1.162-.194-.581-.775-.581-.581v.194l-.969.387-1.55-.194.194-1.356-1.356-2.712h-1.162l-1.162-.775-.775-1.744h-.387l-.581.775-.775.775-.775-.387-.581-.387-.387-1.356-.194-1.356h-.775l-.581.387-.969.387-.775-.387-.387-.581-.581-.387h-.775l-.581.194-1.356.581-1.356-.194-.969-.387-.969-.387-.581-.387h-.969l-1.937.581-.775.194-1.744,1.162-.969-.194-.969-.194h-.387l-.387.194h-.581l-1.744-.775.969-.194,1.356-1.55,1.356-.775.775-.775.775-.969h.194l.387-.581,1.162-1.162.969-.581.969-.775.775-.969V153.3h.194V153.1l.387-1.356-.194-.387-.775-.969v-2.131l1.162-2.131.388-.387.194-.581.387-1.162v-.387h.194v-.194l.387-.387.581-.194.387-.387,1.162-.581.969-.775.969-.194.194-.581.194-1.356v-.194l-.194-.387-.581-.194H548.3l-.581-.194h-.387l-1.162-.581v-.387l-.194-.194v-.387l-.194-.194.194-.387.387-.775.194-.194.387-.581.194-.775V131.8l-.194-.581v-.581l.194-.387-.194-.194.194-.387.194-.194h.775l.388-.581.581-.194.194-.194h.387l.775.194,1.162.194h1.356l.581.775.194.581.969.387h.581l.387-.194.581-.775.775-1.744v-1.162l.194-.969v-.581l.581-.775.388-.387h-.194l.387-.387.581-.775h.194v-.194l.194-.387v-.194l.194-.194v-3.487l.194-.194.194-2.131.194-.581.194-.194,1.356-1.744.387-.387.581-1.55.969-1.356v.194l.387-.969v-1.356l.775-.969.969-.581.775-.387.194-.194.194-.194.387-.387h.581l.194.194.388.387.969,1.162.194.194v.194l.194.387.581.194.194.194h.581l.387-.387.581-.581v-.194l.194-.194v-.387h.194v-1.356l.194-.194.969-.775,1.162-.581.194-.387v-.194h.194v-.194l-.194-.194-1.162-.969v-.581l.194-1.162.194-.969.387-.581.775-.775.387-.194.969.194,1.356.387.387-.194.581-.387.775-.581.581-.581.194-.387h.387l.194-.387.388-.581.581.387.194.581.581,1.162.775,1.356.581.775.969,1.162,1.744,2.131,1.55.775,1.162.387.969.969.581.775,1.162.775,1.356,1.162,1.55-.194h.194l.194-.194,2.131-1.162.775-.581h.775l.194-.194h.194l.194.194h1.356l.775.387.581.581.387.581.775.969.194.581,1.356,1.162.969.387h.969l.581.194.969.194.387.581.388.581.581.581.194.969.387.387.581.194.775.194.775,1.162.775.969.969.387h1.55l1.356-.194.775-.194.969.194.581.387.775.775,1.356.969h.969l.387-.387v-3.681l.194-.775.387-.387,1.356-.775.775-.775.775-.387,2.712.194.775-.387.775-.581,1.356-.775.969-.387-.387.194.387.194,1.744-1.356.969-.775.387-.194.775-.387.194-.387.194-.194h.194l.387-.194h.581l.775.775h.387l.194-.194v-.194l.775-.775h.581l.194.194.194.194h1.162l.194-.194.387-.194.581-.969.581-.969.775-.387v-.194l.194-.194.581-.194,1.162-.775.388-.194,1.356-.775,1.356-.194h.387l1.356.194h.388l1.356-.194h.387l1.356.194,1.356-1.55.775-.775.194-.387.969-.581.194-.194,1.356-.775-.194.581.194.387h.775l.581.387h.581l.969-.194.969-.775.387-.194.388-.194v-.194l.775-.194,1.162-.387H668.6l.581.194.775.387.388.581.581.581.581.775.387.194h.581l.194-.387V95.762l-.194-.775V94.6l-.194-1.162.194-.387v-.194l.581-.581.581-.387h1.55l.581.194,1.162.775h.194l.387-.194.387-.194h1.162l.969-.194.775-.387.581-.387,1.356-1.162,1.162-.969.581-.194h.194l.387-.194h.387l.581-.194.969.194,1.356,1.162.388.194,2.131.194h.194l.194-.194h.581l.387-.387.775-1.55.775-.969v-.194h.194l.387-.387,1.162-.775.581-.387.194-.194.969-.581.387-.194h.194l.194-.194.969.194.387.194.194.387-.194,1.162.194.387h1.356l.581-.194h.194l.387-.194V86.27l.194-.194.194-.581-.194-.775-.194-.387-.387-.387-.194-.194v-.194l-.194-.194V83.17l.194-.194v-.387l.775-.775,1.356-1.356h.194l1.55-.194h.387l2.518-.387h.194l.387.194.775.194.969-.194h.387l.387-.194v-.194l.969-.969,1.162-.387.581-.387.194-.387-.194-.387-.194-.387-.581-.581L712.966,76h-.775l-.387.194h-.194l-.775.387h-.581l-.581-.194V76.2l-.194-.387-.387-.581.194-.194V74.84l.194-.194.194-.194.775-.194.387-.194.194-.194.194-.581.194-1.356.194-.194.387-.775.194-.194.581-.387h.581l.194.194h.194l.387.581,1.55,3.293.194.581.581.387.581-.194.194-.194h.194V74.84l.194-.387-.194-.387L716.84,72.9l-.194-.194-.194-.387.194-.387L718,71.353l.194-.194h1.162l.581.581h.969l.969.581,1.744.581,1.937.581.387.387.387.969.194.969.194.581,1.55,1.162,2.518.387h1.744l.387.194.194.387.581.969.581,2.712v.387l.387.581,1.744.194.581.194,1.162.194h.194l.194.775-.194.969-.581,1.162-.775.969h-.194v.194l.194.581.194.194h.581l.775-.194,1.55-.194h.194l.969-.194,1.356-.194.387.387.194.194.194.194.194.581.387.387,1.356-.387.969.194.388-.387.387-.387.387-.581h.387l.387.194v.387l-.194.581.194.194.388.194h.581l.581-.387h.194l.387-.581.775-1.356.581-.581h.194l.194-.194h1.744l.969.194h2.325l.194-.194.387-.194.194-.775.194-.581V84.72h.194v-.387h2.712l.775.194h.581l.388-.387.581-.581.194-.387v-.387l.194-.387h.194l.194-.194,1.55-.387h.194l.969-.387h1.55l.969.387.581.775.194.775,1.356.581,1.162.194,1.356.581.194.194.969,1.162.775.387.581.194.387-.194V86.27l.581-1.744.194-.775v-.194l.581-.581.194-.775.194-.194.194-.194.194-.194,1.744-.581h.194v-.194l.387-.387.775-.581V78.714l.194-.194.194-.194h.969l.387.387v.775l.969.775h1.55l.194-.581.387-.387h.775l1.356.194h.581l.581-.387.969-.581h.581l.387-.194h.194l1.937-.194h.387l1.356-.194.194-.194h.775l.775-.194.581-.387.194-.194.194-.581.194-.387-.194-.969-.194-.969.194-.194V73.29l.581-.969,1.162-1.356.194-.581.194-.969v-.775l.194-1.356V66.7h-.194l-.581.194h-.775l-.194-.194-.387-.387-.194-.775-.387-.969v-.581L798.2,63.8l-.194-.194V63.41l.194-.581.581-.581.194-.194h.194l.194-.387v-.387l.194-1.356.581-2.518v-.581l.194-.775.194-.194.775-1.55h.388l.969.194.387-.194.387-.581.194-.194.194-.387v-.387l-.194-.387-.775.387-.387-.194-.194-.387v-.581l.775-.387h.775l.194-.194.969-.969h.194v-.194l.194-.581.387-.194.387.387v1.162h.194l.194.194,1.937-.387h.194l.969-1.162,1.162-.775h.387l.581.194.969-.581v-.194l.194-.581.388-.387h.581l.388.194.387.581.581.969.194.194.775-.194.969-.581h1.744l.194-.387-.194-.194v-.387l-.969-.775-.194-.387.194-.581.387-.194h.387l.969.775.388.194.969-.194h.194l.775.194.581.387v.581l.194.194L823,48.493l.581.387h.194l.387-.194.581.194.775-.194h.387l.387.581-.194.387h-.581l-.194.387-.194.194-.581.387v.581l1.356-.194.387.387v.969l.194.387.388.194h.194l.387-.194.194-.194v-.194l-.194-.194-.194-.387V51.4l.194-.194v-.194l.388-.387,1.356-.194.194.194.194.387-.194.969.194.194.194.194.387-.387h.387l.581.581h.581l.387.387,1.356.194.387.194.194.581.194.969.194.194.387.387.775.969.775-.194h.387v.581l.387.775.194.194.969.387h1.356l.775-1.356h-.775l-.194-.387.775-.387.775-.581.581.194.581.969v1.162l-.581.581.194.387.387-.194h.387l.194-.194h.387l.581-.387.387.194v.194l-.194.387-.194.775-.387.581.194.194.194.387h.387v.969l.194.194.194.581.388.194.581-.194.969-1.162.388-.581h.775l.387-.194h1.356l.581.194.387.387.388.775h4.262l.387-.194.775.194.194.581.581.194-.194-1.744.581-.775.581-.194v-.194l.581-.387v-.194l.775-.387.387,1.356.194.194L860,60.5v-.194h.194l.194-.387.387-.387h.387l.387.194.194.581-.387.775.387.581.387.194h.969v-.194l1.162.387h.194l.387-.775.388-.194h.387v1.162h1.356l.194-.969.581-.387h.775l.969.387-.387-.775-.388-2.325.581.387.387.194h1.356l.581-.194.581-.775.387-.969.388.387V56.63l.194-.194h.387l.581.581H875.5l.194.194-.581,1.744.194.387.387.387h.581l.387-.581h.387l.194-.194.194-.194.194-.194h.194l.194.775.194.194v.387l-.581.581.194.194h.387l.581-.387.194-.775v-.194l.194-.194.194-.194h.387l.387.387v.969l.581.775-.775.387.581.581.194.194.387-.194.194-.387h.969l.194-.194.194.387-.581.581.387.581.194.581.387-.194h.194v-.581l.387-.387.387.194v.581l.581.387-.581,1.162v.194l.387.194,2.325-.194.194.194.194.387-.387.581v.387l.775-.387.194-.194h.194l.194.581.387.387v.775l.194.194h.194l.387-.194.194-.194-.194-.194.194-.581h.387l.194.194v.387h.775l.194-.194h1.356l.387-.387.194-.194.387.194.581.775.581.194h.581l.581-.581h.969l.969,1.356.388.387v-.194h.775l.194.194-.194.581.387.194h.387V70l.775.387.194.194h.194l.581-.194.194.775v.194l.388.969.387-.387h.581l.194.194-.194.387V72.9l.387.775v.194h-.581l.581.969v.387l.194.194h.194l.387-.387.775.387.581-.194.194.194-.194.194v.194l.775.387L906.3,76v-.194l.388-.194.387.194v.775h.775l.387-.387.194.387h.194l.775-.194.387-.775-.194-.581.194-.387h.775l.194.387v.581l-.194.387.581-.387h.194l.387-.194-.387-.387.194-.194.194-.194.194-.775h.387v.775l.387.387h.581l.387-.387h-.194v-.194l-.194-.387h.194l.194-.775h.387l.388.387h.194V73.29h.387l.194.387.581-.194h.387V73.29h.194l1.356-.581.194.194-.581.581h.581v.775l.194.387h.581l.194-.387-.194-.387-.194-.387.387-.194h.581l.194-.387v-.194l.581.387.194-.194h.194l.194.775.194.194h.581l.387-.194h.194l1.356-1.162-.194-.387v-.194h.775v.387l.387-.194h1.55l.194-.775.581.387.194.387h.387v-.581h.194l.581.581.775-.775h.775l.387.581.194-.194.194-.194.775.194.581-.194-.194.581.194.387-.194.194V72.9l.387.194h.581l.581-.194.194.387-.581.581.969.194-.194.581.194.387.387.387h.581l.194.775.194.194h1.55l.194-.194.194-.581v-.194h.194l.387.194.969.194.387.387-.194.581.581.194.194.194.194.194h.775l.581-.387.969-.969.581-.969v-.387h-.194l.194-.581h.387l.581.194.387-.194.581-.387.194-.194v-.775l1.162-2.325v-.194l.194-.194.581-.194.194-.194-.194-.387h-.194v-.194l.194-.581,1.162-.387h.194l.581-.581.969-.387.387-.387Z" transform="translate(-532.552 -44.95)" fill="#1876d2" stroke="#fff" stroke-linecap="round" stroke-linejoin="round" stroke-width="0.5"/>
</svg>
