<svg xmlns="http://www.w3.org/2000/svg" width="388.92" height="381.172" viewBox="0 0 388.92 381.172">
  <path id="CDEQ" d="M395.875,213.873l.969-.387h6.393l3.293.194,8.718.194,2.131.194,4.649.194,3.681.194h5.812l3.875.194h4.649l1.55-.194h1.162l.581.775.194.194v1.356h.194v.194h.969l.194.194.581.775h.581l.387.387h.775l.387.194.387.775h.194l.969.387.387.194.194.194.388.581,1.162.581h.194l.194-.194h.581l.194-.194h.387l.581.387.387-.194.194-.194.387-.387.581-.194.581-1.162.194-.581v-.387h.388v-.387h.194l1.162-1.162.194-.194.194-.775v-.194l.581-.581h.775l.581-.775.194.581.194.194.969-.387.387-.194.194-.194h.387l.194.194.194-.194h.194l.387.387h.387l.388.387.194-.387.581.194.194-.194h.969l.387-.194.194.194h.194v-.194l.194-.194.194-.194h.969l.387-.581h.775l.194-.194.581-.194h.581l.387-.194v-.387l.387-.387h.388l.581.387h.581l.387-.194.581-.387.969-.581v.194h.581l.387-.387h.775l.387-.581.775-.581.775-.387.775-.194.194-.194v-.194l-.194-.387.387-.581h1.162l.388-.194.194-.194h.969l.194-.194.387-.387.194-.387v-.387l.387-.387.194-.194.388-.194.387-.194.387-.581.775-.387.194-.775.388-.387h.775l.775-.581,1.162-.775.387-.194h.194l.969-.194.775-.387.581-.194,17.435,4.456.969.194,11.624,3.293,1.937.581,3.681.969,8.136,1.55,3.487.194h7.749l8.911-.194h7.943V213.1l.194.194.194.387-.194.387-.969.581-.387.387-.194.194-.194,1.356v.194l-.581.387h-.387l-1.162-.969h-.581l-.194.194-.775.775h-.775l-.387.194v.194l-.388.387-.387.969-.194.969-.969,1.55v.387l.387.969.194,1.743.194.387.194,1.162-.194.775-1.937.969h-.194l-2.518.581-1.744.194-.388.194-1.55.387h-1.744l-.387-.194h-2.712l-1.55.387-1.55.194-1.162.194-2.518.581-.581.194v-.194h-1.744l-1.162.194-1.356.387-.969.194-1.937.387-.581.194h-.194l-.581.387-2.518.775-.194-.194h-.194l-.581.581-3.487,1.744h-.387l-.194.194-.387.194-.581.194-.194.194h-.194l-1.55.775-.581.581-.194.194-1.162.194-1.55.581v.194l-.194.194-.775.194-1.356.194-1.162.387-.387.194-.194.387h-.194l-.581.194-.969.775-.969.581-.969.969-.388.194-.581.194-.969.969-.775.581-1.162.969-.581.775v.194l-.194.387-.581.581-.387,2.518-.194,1.55.194.581.194.387-.194.194h.194v.194l.194.194-.581,9.3.387,10.074.969-.387.775-.387,1.162-.581,1.356-.581.969-.194,1.162-.581,1.356-.775.969-.387.969-.387.969-.387,1.356-.581,1.162-.194.969-.387.969-.581.969-.581.775-.581.775-.581,1.162-.581.969-.387.775-.581h.775l.194-.194,3.1-2.325,1.356-.969,1.55-.969,1.162-1.162.775-.581.581-.387.969-.194,1.162-.581,1.356-.387.581-.387.775-.775,1.937-1.55,1.55-1.55.969-.969,1.162-.387,2.518-.969.969-.775,1.356-.775,1.744-.387,1.55-.194h1.937l2.131-.194,2.325-.581,3.1-.775,3.293-.969,1.937-.581,1.744-.969,1.162-.969,1.356-.969,1.162-.775.581-.194H571.2l1.55-.194.581-.194.969-.387,2.131-1.162,1.356-.581,1.356-.581,1.356-.581,1.162-.387.969-.194h2.712l.969.194h.969l1.356.387h1.356l1.162.194,1.162-.194,1.356-.194h.775l1.162.387,1.744.581,1.356.387,1.162.581h2.712l.775.581.581.581.969,1.55,1.356.969.969.775.969.775.775.581.388.194h.775l.194-.194h.581l.387-.194.775-.387.775-.387.775-.194h.775l.387.194.581.194,1.356.194.775.194.969-.194h.775l1.162-.194h2.131l.581.194.775.387.581.387h.194l.387-.194.387-.194,1.162-.581.969-.581.775-.775.775-.775h.775l1.162.194,1.162.194.775-.194.969-.194.969-.387.775-.387h.581l.194.194v.194l.194.775.194.775v2.325l-.194,1.356v.969l-.388,1.744-.387,1.55-.581,1.162-.581.581-.775.581-.581.581v.194l-.194.387v1.744L633,257.268l.387,2.325-.194.387-.387.194v.581l-.581.775-.581,1.55-.387,1.937v2.325l.387.969.387,1.55.387,1.162.388.581.775,1.162,1.356,1.55,2.131,2.712.194.581.581.775.387,1.356.194.581v.581l-.194.581-.387.581-.581,1.55-.194,1.162-.969,2.906-.969-.194-.969-.581-.194-.194-.387.194h-.194l-.387-.194-.387-.194-.387-.581-.581-.194-.194-.581h-.581l-.194.194-.388.387H629.9l-.194-.387h-.194l-.194-.194-.194.194-.775-.194h-.387l-.194-.194h-.194l-.387-.194H626.6V284l-.387.194-.387-.194-.194.194h-.194v-.775l-.581.194-.194-.194h-.581l-.387-.581-.194.387-1.162,2.325-3.293,5.812-.388.775-.387.969-.775,1.356-.775.387-.387.387-.194.387-.387.581-.969,1.162-.969.387-.581.387-.387.775-.387,1.937v.194l-.194.387v6.2l.194.194.581.581-.194,1.356-.387.194v.194l-.194.387v.194l-.387.194-.581,1.162-.194.194-.387.387-.969,1.744v1.743l-.387,1.356.194.969.387,1.55v5.812l.387,3.293.775,2.325.194.581.387.581.194.775.194.581v.581l-.194.581v.388l-.775.969-.581.969-1.162,1.356-2.712,3.293-1.162,1.743-.194.581V345.8l.388.775.194.581.194.194v.194l-.581,1.937-.387.969-.194.194-.387.388-.388.194-.194.194-.194.388-.194.194-.387,2.325-.387.581-.775.969-.387.194-.388.194-.387.388-.581.387-.194.387.194.775-.387.969.387.969-.581,1.937.581.388h.194l.775.194,2.518.969,1.356.969.388,1.744.387.581.387.194.387.388.194.194.194.194.194.388h.194v.387l1.162.775v.194l.581.194,1.162,1.55.387.387.775.775.194.581v.194l.387.387,1.55.775.969,1.744.969,1.937,2.518,2.325,1.162.969.775.388.194.194.581.194.581.194,1.55.194.581.194.969.581.581.194.387.388.194.581V385.9l-.387.581-.194.581-.581.581-.775.387-.775.387-.969.388-.969.775-.775.581-.969.581-.775.387-.775.581-.581.387-.775.388-.387.387-.581.581-.194.581v.969l.194.388.194.581.387.194.969.194,1.162-.194h.969l.969.194h1.162l.775.194h.969l1.356.387.388.194.969,1.356-.388.581-.581.775-1.162,1.744-.387.969h-1.937l-1.744.194-1.55.388h-.969l-.775.194-.775.194-.775.194-.194-.387h-.581l-.387.194-.775.388-.969,1.162-1.162.194-1.162.969-.581.194-.581.194-.581.388-.581.775-2.518,1.55-.194.388-.194.581-.194.775-.194.775-.194.581v.969l-.194.775v.969l.194.581V416.9l.194.581v.387l.194.581.194.581-.387.775-.775-.581v-.194h-.387v-.194l-.388.194-.581.581-.581.581-.581.581h-.775l-.581-.194-.581-.387-.969-.775-.387-.194-.194.387-.775.387-.387.581v.194l-.194.775-.387.387-.194.194-.775-.194h-.387l-.194-.194-.387-.387-.194-1.55v-.775l-.194-.194H592.7v-.581l-.387-.581-.194-.387-.581-.194-.775-.969-.194-.194-.387-.581-.194-.969.194-.969.194-.387.387-.581.775-1.356v-.775l.194-.581v-.581l-.194-.194-.775-.969-.387-.194H589.8l-.969.387-.194.194h-.194l-.581-.194h-.387l-1.744-.581h-.581l-.387.194-.387.194-.194.194h-.194l-.775-.194-2.712.387-.775.194h-.194l-.388.388-.194.581v.388l.194.387h.388l.194-.194.194-.194.194.194.194.194.581.194.194.388-.194,1.356-.775.388h-.775l-.387-.194-.194-.194-1.744-1.744h-.194l-.775-.194-1.356.388H574.3l-.387-.388-.194-.194-.194-.387-.194-.581-.194-.969-.387-.581-.388-.387-.387-.387h-.194l-.387-.194h-1.744l-.581-.194h-.775l-.775-.387-.387.194-.969.581h-.775l-.387-.194-.194-.581v-.194l-.387-.194h-.194l-.387-.194-.194-.194-.775.194-.581-.387-.775.194-1.356.387h-.194l-1.356,2.325-1.356-.194-.775.581-.194.388v.581l.194.194h.194l.387-.194h.388l-1.356,2.712.775.387,1.162.775.969-.194.388.387v.581l.194.775.387.387h.969l.775-1.162V413.8h.194l.194.387.387.969.194.581h.387l.194-.194h.194l.581-1.356.194.194h.194l.194.969.194.194v.194l.194.775.194.387.387.581.387.387-.194.581-.387.581v.388l.194.194-.194.775.194.194h.775l.581.194.387,1.162.194.194h1.162l.581.775h.194l.581-.581v-.194l.387.194.581.969.194.387v.194l.387.194h.387v.388l.387.387,1.162.581.388.194.969-.581h.387l.581.388h.581l.581-.388h.194l.194.581.194,1.162.581.388.581.387-.194.387-.194.194v.194l.581.581v1.356l.581.387.969.581,1.937,1.744.194,1.55-.387.581v.194l-.581,1.937-.387.387h-.194v.194l.194.775v.388l-.194.775.194.581.194.775.387.194.775-.387v.194l.387.387.581.194v.581l-.194.194.194.388v.581l.194.388.581.387,1.162.581.387.581h.388l.387.194-.194.775.194.388.194.194.581.387v.194l-.194.194-.388.387v.388l.775.581.581.581.194.194.194.194-.194.581v.775l.194.387.387.194v.194l.388-.194.387-.581h.387l.387.387h.581v.194h.194l.969.969.194.194h.387l.194-.775h.194l.581.775.194.194.581.387.581.581.194.969.194.194.388.387v.775l.387.194h1.162l.775.775.387.581-.387.194-.387.194-.194.194v.581l-.194.581v.775l-.581,1.162V463.2l-.775,2.518-.194.969-.387.388-.581.775-1.744,1.55-.194.388-.194,1.162-.194.194v.194l-.194.194-1.55,1.356-.581.775-.194.581.194.775-.387.969v.194l.194.581v.387l-.387.775-.969,1.162-.969.969-.387.775-.194.969-.581.775-1.55,1.356-.194.388v.387l.194.775-.194.969v.581l.194.775.387.775.194.194,1.356,1.356.388.581-.581.775-.775.581-1.162.581-1.162.194-.387.194-.388.194-.194.194-.194.194-.775.775h-.194l-.775.581-.969.194-.969.581h-.775l-.581.387-.581.387-3.487.969-.581.388-.581-.194H571.2l-.581.194-.775.194-1.356-.194h-.194l-.581.194h-.387l-.775.581-.775.194H564.03l-.581.387-1.937,1.744-.775.387-.969.388-1.356,1.744h-7.943l-1.162.387-.775.387-.581.194-.969.387-1.162-.194-.775-.581-.388-.194-.194-.194-1.356-.388.194-.969-.387-1.356v-.581l.194-.775.194-.581v-.581l-.387-.969V497.3l-.194-.387-.387-1.55-.194-.969v-.775l.194-1.356.194-.581,1.162-1.937v-1.55L543.3,488V487.8l-.581-.194-.581-.194-.581-.194h-.581l-.581-.194-.969-.194h-.969l-.969-.194h-.969l-.388.194-.387.194.775,3.293v1.744l-.194.387-.194.194v.194l.194.387h.387l-.581,3.293.194.969h.194l.387,1.55-.387,2.325.194,2.325-.194.969-.194.194h-.194l-.775.387-.775.581-.388.387-2.518,2.131-1.162,1.55h-.194l-.387.194-.387.775-.969.775-.969.969-.194.775-.194.387-.194.388-.194.969-.581.969-.387.775-.581.775-.387.969-.581,1.162-.581.969-.387.969-.194.387-.581,1.162-.387.775-.581,1.162-.194.387-.387.775-.388.388-.194.775-.194.581-.581-.194-1.162-2.518-2.131-4.649-.969-3.487-.387-1.744-1.55-4.262-.969-2.518-1.162-2.518-.969-2.712-.581-2.325-.775-2.518-.775-1.743v-.388l-.194-.387-.581-.969-.581-.581-.775-.387-.775-.388h-5.037l-.581-.387-.388-.775-.194-1.744L498.744,488v-2.131l-.194-2.131-.194-1.356-.194-1.162-.387-2.131-.581-1.744-1.356-2.131-1.356-2.712-1.356-2.325-1.744-1.937-1.744-1.744-1.162-1.356-.775-.581-.194,1.356-.775,1.743-.194.388-.775.969-.194.194-.194.194-1.744.388-.969.775-1.55,1.55-.969.194-1.55.194-1.55.388h-1.162l-.194.194H475.5l-1.937-.194L472.2,472.5l-1.356-.387-1.55-.194h-.969l-7.168.581-.388.969-1.744,3.293-.581,1.937-.388,1.162-.969,3.1-.581,7.168.775.969,6.2,1.356,1.744,2.131,1.356,1.55,1.55,5.037.194,3.1-3.681,1.55v.194l-3.1-3.681-4.843-2.518-1.162,2.518-1.162,3.487,2.518,3.293,1.356,1.744-.194-.194h-.775l-2.325-1.162-1.55-.194H452.25l-1.743.581-.581.194-.194.194h-.194l-.581.194h-.194l-.388.194-1.162.194-1.937.969h-.194l-1.937.581-1.162.194-1.162.387h-.581l-.387-.194-.775-.387h-1.162l-.969.581h-.775l-.775-.387-.969-.775-.775-.581-1.937-.969-.581-.581-.388-.581-.387-.581-.581-.581-.387-.775-.194-.387-.388-.194-.387-.194-.194-.194-.775-.194h-.581l-1.356-.387-1.162-.775-.775-.775-.969-.775-.775-.194-.581-.194-.775-.581-.581-.581-.581-.775-.581-.387-.388-.194-1.356-.387-2.518-.194-1.744-.194H410.6l-1.937-.388h-.387l-1.356-.387-1.743-.194-1.356.194-1.356-.388h-1.744l-.581.388v.581l.194,2.131v2.131l-.388.969v1.162l-.194,1.55v.387l-.581.775-.387.194-7.362,5.812L379.8,523.642l-2.518.388-5.424,1.162-4.068.775-3.875.775-.581.194-.775.581-.387.387-.775.581-3.681.775-3.487.969-1.162.388-.775.581H350.35l-1.356.388-2.131,1.162-.775.387-2.325-.194-1.162.194-2.518,2.325-26.928,20.729-6.78,5.231h-.581l-.581-.581-.775-.194-.581.581-.969.969-.581.775-.581.194-.775-.775-.581-.194h-2.131l-.775-.387-.581-.775-.775-.775-.775-.387h-.969l-1.162-.194-1.356-.388-1.55-.194-1.744-.387-1.55.387-.969.581-.775.387h-.194l-.969.581-1.356.387H280.8l-1.162-1.162-.581-.387-.388.194-.194.194-.581.775-.387.581-.581.775-.194.388-.194.581-.194.969v.775l.194.775.387.581.387.194.581-.194.388-.581.581-.387.581-.388h.581l.387.388.387.387.581.775.387.775h.194l.194-.194.194.194,1.162.194,1.162.581.194.194h2.712l.194-.194,1.162.581,1.55.387.194,12.592-17.435-.194H271.31l-8.911-.194h-1.356l-.194-.194-.387-.387-.387-.194-1.744-2.325-.775-1.356-.194-.194-.194-.969-.194-1.55-.387-.775-.387-.581-.194-.969-.194-.194V571.1h-.387l-.194-.775-.194-.775.194-.969-.775.194-3.1.581-1.356.194,3.293-4.068.194-.387.387-.775.581-1.162.194-.388,3.1-4.649.194-.387,2.131-4.262.194-.581.775-1.356,2.325-4.456v-.194l.775-1.356.194-.581.775-1.55.387-.775,1.743-3.487,1.356-2.712.775-1.744.194-.194.775-1.744.194-.387.194-.194.775-2.131.387-1.162.194-.194.194-.388,1.55-2.518,1.162-2.325.194-.387.581-1.356,1.162-2.131,1.937-2.906.388-.387.194-.194.194-.388.581-.775.194-.194,1.162-1.356.969-.969.581-.581,1.55-1.356.194-.194.388-.388,1.162-1.162,2.712-2.518h.194l.194-.194.775-.581.969-.581v-.194l2.131-1.55.388-.194.387-.387.775-.388,2.906-1.162,1.744-.581.194-.194.581-.387.581-.581h.194l.194-.194h.194l.194-.194h.194l.388-.194v-.194l.194-.194,1.356-1.162,1.937-1.162.194-.194,1.744-.969,3.293-.969.194-.194h.194l1.356-.194,2.325-.194.581.194,1.937-.194,1.744-.387,1.937-1.356.969-.581.775-.581.387-.194.388-.194.969-.388h.387l1.162-.581L327.3,488l1.356-1.356.969-1.162.775-.775.775-.969.194-.194h.194l.581-.387,3.293-3.1,2.518-2.518.775-.969.194-.194.194-.194.387-.581,1.162-1.162.581-.388.194-.387,3.293-3.875.388-.387.775-1.55.969-.969.194-.194.387-.581v-.194l.194-1.162v-.775l2.131-3.875,4.262-2.131.387-.581h.194v-.194l1.55-2.712.194-.387,1.55-1.55.969-.969.194-.194,1.356-2.325.194-.775.581-1.55.775-3.293.194-.388.387-2.325.194-1.937.194-1.356.194-.387.969-3.681.194-1.55-.194-3.293L362.75,422.9l-.387-.775-.194-1.55-.388-2.325-.194-1.356V416.7l.194-1.55v-.969l-.387-2.906.194-2.712,1.162-3.1,1.162-2.518.775-1.162v-.194l2.325-4.843-.581-.581-.387-.581-.388-.581.581-1.937.194-.969v-.194l.194-2.518.581-2.518.581-1.356.581-1.937,1.162-2.712v-.194l.194-.194.969-1.744.775-1.937.775-.969,1.356-1.55.194-.388.775-1.162,1.744-1.162.775-.387,1.356-.969,2.518-2.518.194-.581,1.55-1.937,1.162-2.131.387-2.131v-.969l.388-.775-.388-5.424-.194-1.55-.194-.581-.194-.581-.775-1.55-.194-.194-.388-.388-1.55-1.356-.388-.194-1.162-1.162-.387-.581-1.356-1.55-.775-1.743-.194-.388-.194-1.55v-1.55l.194-2.906.388-1.356.194-.969.194-.387.194-.194.388-1.162.194-.194-.581-3.1.969-3.293-.775-2.518v-1.162l-.194-1.162-.194-.969-.387-.775-.969-1.356-.775-.969-1.356-4.262v-1.743l.387-2.131.194-1.743.194-1.744-.387-1.356.387-.969.581-.581v-1.356l.387-.775,1.55-2.518.194-.387,2.906-2.906,1.356-1.744v-.581l1.162-2.131v-.387l.194-1.743v-1.744l-.194-1.162-.194-1.162-1.162-1.743,3.1-4.262.581-.581.388-.581v-.775l.387-1.937.969-1.937,1.356-3.1.194-.387.387-.775.194-.387.194-.969.194-.775.581-1.356.194-.581.194-.387.387-.581.581-.969.387-.581.581-.775.194-.194.969-1.356h.194l.581-1.162.194-.581-.194-1.55v-.194l.581-1.743v-3.1l.388-.775.194-1.55-.194-.775v-.581l.194-1.937.194-.387.581-.775v-1.162l-.388-2.325-.387-1.162-.387-1.162v-.387l-.194-.969-.387-.969-.194-.775v-.775l-.194-1.162-.194-.581-.387-1.356v-1.55l.194-2.518.581-.775V225.3l.194-1.356v-.581l.581-1.937.387-1.744.194-.969v-.581l-.194-1.162.194-.387.388-.775.581-.581-.581-1.356Z" transform="translate(-249.751 -200.45)" fill="#6f9c76" stroke="#fff" stroke-linecap="round" stroke-linejoin="round" stroke-width="0.5"/>
</svg>
