<svg xmlns="http://www.w3.org/2000/svg" width="399.38" height="547.778" viewBox="0 0 399.38 547.778">
  <path id="CDHK" d="M679.632,1050.151l2.131.775.581-.388h.194l.581-.194.581-.581.775-1.356,1.162-.969.194-.387.194-.969.581-.194,1.55-1.162.387-1.356.387-.581.388-.194h.387l.775.387h.387l.775-.387,1.744-.387,1.55-1.356.775-1.162-.581-2.712.581-.969v-.387l.194-.194v-.388l.581-.775-.194-.387-.194-.194h.194v-.194l.581.194.775-.581.194-.969.194.194h.387l.969-1.162.581-.581.194-2.518.194-.969.194-.775.194-.194.387-.194.775-.387.387-.387.581-.194.775.194.581-.581.194-.581v-.581l-.194-1.162v-.388l.194-.194.387-.581-.194-.194.194-.387v-.775l-.194-.581-.775.194h-.969l-.194-.388.387-.581.194-.194-.387-.387-.387-.194v-.387l.194-.969v-.969l-.194-2.131,1.356-2.518,1.744-1.356,1.356-1.162.581-.969.387-1.162v-1.743l-.387-1.162-1.356-1.356-.387-1.162v-4.068l.194-2.518,3.293-2.131,1.937-1.356.387-2.131L712.759,987l.581-.969.581-.969-.194-.194.194-.388v-.194l.194-.775v-.387l-.388-.194,4.456-4.068.581-.969,1.356-.969.194.387.387.194.775.194,1.162.194.969.194h.969l.969.194,1.356.194.581.387.775.194.969.194,1.744.194.387-.194.969-.387,1.55-.775.969-.775.969-.194.581-.581,1.744-2.131.581-1.162.194-.775V971.5h.194l.194-.194h.194l.194-.194.387-.387.387-.194v-.194h.581l.581.194.387-.194h1.356l.194-.194h.194l.194.194.194.194h.775l.194.387v.581l.194.387h.581v.581l-.194.194-.194.194v.388l.194.387.775.775-.194.194v.194l.194.194.194.581h.194l.194.194h.194v.387l.969.581.387.194.194-.194.581.194.194.775.194.969.194.969v.581l.194.387v.194h.581v.194h.581l.194.194,1.162,2.712v.194l.388.969.581.969,1.356.388.194.194.387.581v.581l-.387.775-.194.581-.388.775-.581.969v.388l.387.775.387.775-.194.581-.194,1.162-.194.775.387.581.194.969-.194.581v1.162l-.581.969-.581,1.162.194.387.775.387,1.162.388,1.356.387.969.387.387.194v-.581l-.194-.581-.194-.969-.388-1.356-.194-.969v-.387l-.194-.581.194-.969.387-.775v-.387l.194-.775v-.969l-.194-.387-.194-.775.388-.581v-.775l-.194-.775-.194-.388v-.387l-.387-.775v-.775l-.387-1.162v-.581l.194-.775.194-.969.581-1.162.581-1.162.969-1.55.969-1.356.581-1.162.775-.969.387-1.162.775-1.162.969-1.162.581.194.194-.194,1.162-.775,2.518.387.581-.194.581-.194.775-.581.581-.194.194-.194.775-.387h1.744l.581.194.969.194h.775l.194-.387.388-.775.387-.387h.581v-1.162l-.388-.581v-.581l-.194-.775v-2.518l.194-.969.194-.581.387-.775.581-.387.387-.387.194-.194.387-.387.194-.581.775-.775v-.775l.581-.775.194-.581.194-.581v-.194l-.194-.388-.194-.387-.194-.194-.194-.194h-.388l-.194-.387-.581-.194-.387-.194-.387-.388-.194-.194-.387-.194-.969-.387-.969-.387-1.356-.775-1.744-.581-.581-.775v-.387l.388-.194.387-.387v-.194l.387-.388.581-.387.581-.969.775-.581.969-1.162.194-1.356.969-1.162-.581-.194h-.581l-1.356-.581h-.969l-.581-.581h-.194l-.194-.387-.194-.969.387-.388-.387-.581h-.581l-.969-1.162-.194-.194-.969-.194v-.194l-.194-.581v-.194l-.387-.388v-.581l-.387-.388-.194-.775-.194-.194v-.194h-.775l-.775-.581h-.194l2.906-2.131.581-.387h.387l1.162-.194.581.194.969.194h.194l.969.194.775-.194,1.356-.194.387-.194.387-.194h.581l.969-.194,1.162.194H782.5l.775-.194.581-.194.775-.387.775-.194h.969l.581.194.775.194.969.194h2.131l.387-.194.969.194.775.194H794.9l.775-.194h2.518l.581-.194h1.937l.581.194.581.194.581.388.775.387.775.387.775.194.775.387.775.194.388.388.387.387.581.581.581.194.581.387.194.194h.194l.387.387.387.581.194.775v.581l-.194.581-.194.581V940.5l.194.581.194.775.194.387v.969l.194.775.387.387.581.194h.775l.194-.581.194-.581.194-.969.194-.775.581-.775.388-.387.581-.387.775-.194h3.1l.775.194.581-.387.387-.388h.969l.581.194.387.194.387.387.775.194.581.194.581-.387.775-.194.388-.387.775-.387.194-.194v-1.937l.387-.194.194-.775.581-.387.581-.775.387-.581.581-.581.387-.581.581-.581.581-.581.581-.581.581-.387.775-1.162.387-.387.581-.581.581-.387.194-.387v-.194l-.387-.387-.387-.387-.387-.388-.194-.387-.581-.775-.194-.194-.194-.194-.387-.581-.387-.581-.388-.775-.581-.969-.388-.581-.387-.581-.581-.775-.194-.388-.581-.387-.194-.387-.581-.581-.388-.581-.194-.387-.775-.387-.581-.387-.775-.581-.387-.387-.775-.387-.775-.388-.194-.194h-.388l-.387-.581-.581-.387-.581-.387-.775-.581-.387-.194-.387-.387-.775-.387-.194-.194-.387-.387-.194-.387-.581-.387-.581-.581-.387-.581-.581-.775-.194-.775v-.581l.387-.387.194-.387.194-.775.387-.388.388-.581.969-1.162.194-.387.581-.775.194-.581.387-.581.194-.581.194-.387.387-.581.194-.775.581-.969.387-.388.387-.775.581-.581.775-.775.775-.969.581-.581.194-.387.387-.581.387-.387.194-.581.581-.969.387-.387v-.387l-.194-.388-.194-.387-.194-.387-.194-.581-.194-.581-.387-1.162-.387-.194-.388-.387-.581-.581-.388-.387-.194-.581v-.581l-.194-.581v-.581l.387-.775.194-.581.387-.581.194-.194v-.581l-.581-.387-.969-.387h-1.162l-.969.581-.194.194-.581-.581-.194.581-.775-.194-.775,1.55V882l-.194.387-.581-.194-.387-.194H816.4V881.8l-.194.387-.194.581-.388.194.194.581-1.162-.194-.581-.387h-.194l-.387.775h-.387l-.194-.387h-.387l-.581.581h-.194v.387l-.194.194h-.194l-.387-.194-.194.969-.194-.194-.388-.194v-.194l-.387-.194-.581-.194h-.387v1.162l-.775-1.162h-.581v.194H807.3l-.581-.388-.194.388.387,1.356-.194.387h-.194l-.194-.581h-.194l-.581.581h-.194l-.387-.581h-.194l-.388-.194h-.581l-.581.581-.387.194h-.388l-.387.194V888l-.194.388-.194.387h-.969l-.581.775h-1.162l-.581.387H797.8l-.581-.581-.775-.194-.388-.387v-.194l-.581-.387-.775.194h-.194l-.581-.194,2.325-1.55.387-.194.194-.387.194-.387.194-.387V881.61l-.194-.581v-.581l-.194-.387-.194-.194-.387-.387h-4.843l-.969-.194h-2.131l-.969.194h-2.131l-.581-.194-.387.194-.581.194-.581.194-.581.194-.387.194H780.37l-.581-.194-.387-.194-.581-.387H776.5l-.387-.194-.388-.387h-2.906l-.387-.194h-.581l-.194-.387-.581-.194-.581-.194-.581-.194-.194-.194-.581-.194-.581.194h-.387l-.581.194H767l-.387.194-.775.194h-1.55l-.194-.194-.387-.194-.387-.387-.387-.387-.194-.387-.194-.387-.194-.194V875.8l-.387-.194-.581-.194h-1.356l-.388-.194-.387-.194-.194-.194h-.194l-.194-.387-.194-.194-.194-.194h-1.162l-.581.194h-2.325l-.581.387-.194.194v.581l-.194.387-.194.581-.387.387-.387.194h-.388l-.581-.194h-.194l-.387-.194-.387-.387v-.194l-.194-.581-.194-.194v-.969h-.194v-1.162l-.194-.194v-1.937l.387-.581.388-.387.387-.581.194-.387.388-.775v-1.162l.194-.581.194-.581.194-.387.581-.581.775-.775.581-.581.775-.775.581-.581.387-.194.581-.581.194-.194v-.775l-.194-.387-.194-.388-.194-.387v-.387l-.387-.194.194-.387-.194-.387.194-.387.387-.775.194-.194.387-.387.387-.388.581-.581v-.581l-.194-.194h-.387l-.387-.194-.387-.194h-.388l-.387-1.356-.387-.194-.387-.581.194-.387.194-.194V851.2l.194-.387.775-1.162,2.906-2.712h.387l1.356-1.356.969-1.55.388-.387.581-.775.388-.194,1.162-.969.387-.775.194-.194.194-.194.387-.194.969-.775.387-1.356.775-.775.194-.969h.775l.581-.775.387-.387-.387-.387.581-.969-.387-2.131-.387-.775-.775-.775v-1.356l.194-.387.387-.387.194-.775.387-.194V826.4l.581-1.162v-.388l.581-.581.775-2.518-.194-.969.387-.581v-1.356h-.194l-.194-.387-.387-.194v-.581l-.387-.581-.387-.194-.194-.387h-.581l-.581-.388.775-.387-.194-.194-.581-.194-.387-.387-.194-.581.581-.194.388-.969.387-.194.387-.775v-.969l.969-.581.194-.387.194-1.55.387-.387h.969L773.4,808l.194-.775.969-.581.194-.775.581-.194.194-.969v-.581l.581-.581.775-1.162.387-.194h.581l.775-.581.387-.387.194-.581.194-.194h.775l.387.194h.581l.194-.581h.581l.581-.581.194-.775.387-.387.194-.387.969-.775.387-.194.581-.969.581-.387,1.162-.388.194-.387V793.66l.387-.194v-1.937l-.387-.581.387-1.356.194-4.843.969-3.1,1.55-.581,1.162-1.356,1.162-.775v-.387l-.388-.969v-.194l.194-.581-.194-.387-.194-.194-1.162-1.55v-.387l.194-.969-.387-1.356.581-.775.194-.194h-.194l.194-.581-.387-.194.581-.581-.194-.969.194-.581-.388-.775-.387-1.55.194-.581.387-.194.775-.388.194-.387.194-.775,1.744.581.387,1.162.194.194h.194l.969-.775-.581-.194-.387-.775-.194-.194-.387-.194.581-.387,1.162-.969.387.194.194.387.581.194.581.194.581-.194,1.162.775h.775l.388,1.162.775.194v.581l.387.387v1.356l-.581,1.356.194.387-.387.387-.194.775.194,1.937v.194l.387.194.194.775.775.581h.775l.581-.775.581-.194,1.162-1.162.969-.387.775-.969,1.162-.581,1.55-1.55,1.744-.581,1.162-1.162.194-.387v-1.55l.969-.969.775-.581,2.712-2.325,2.518-2.518.581-.387,1.162-2.518.775-.387.775-.387.194-.581.775-.387.581-.194v-.581l-.388-.581-.969-.581-.775.194-1.162.387-1.55-.387-1.162-.387-.775-.194-.388-.387h-.194V749.1l.969-2.906,1.744-2.131,1.937-2.325,6.005-7.943,3.293-4.262.581-1.162.194-.387-.194-.387.969-1.356,1.937-1.937,1.937-2.131.387-.775.581-1.162.775-.194,1.55-.194.581-.194.581-.387.194-.194-.194-.387,1.356-.969.194.194h.387l.194-.194.194-.194.581-.581.194-.194.775-.194h.387l.581.388v.194l.775-.194.581.194v.194l.387.194.194.388v.194l.387.194h2.325l.969-.775.387-.194.775-.194,1.356-1.162,1.55-1.162h.969l.775-.387.775-.387.581-.388.969-.194.581-.581.194-.194.969-1.55,1.55-.969.387.581.775.194,1.744-.775,2.518-1.55.969.194,1.937.194,1.356-.581h1.162l1.55-.387h.581v.581l.194,1.162.581.581.775.387,1.356,1.162.775,1.162v.581l-.775,1.162.775.775.969-.581.581-.194.387.387-.581,2.518v.969l.194.775,3.487-2.712,2.518-.969,2.325-.387,1.744-.387h1.356l1.356-.581-1.744,1.55-2.325,1.356-.387.194-3.487,2.712-1.937,2.325-.775,1.55,1.162-.387,1.162-.969h.969l.194.581-.581,1.744-.969,2.131.775.387,1.162-.775.969-.775.194-.581.775-2.518.194-.387.194-.387.581-.581.581-.387.581-1.162.969-.775.775-1.162.581-.194.581-.194v2.519l-.194,1.937-.387.581v1.162l1.744-.194.969.194,1.162.388h.194l.387-.194.581-.194.194-.387.775.194.194.775.387.581.581.387h.387l4.068.775.775-.775.387-.581v-1.356l.775-1.356h.581l.194.581-.387.581-.194.194.387,1.356v.194l-.194.775.387.388v.194l.194.387-.194.775v.581l-.194.775-.194.194-.581.969-.194.194.388.969.581,1.937-.194.387v.969h.194l.388.194.387.775.775.194.194.194h.194l1.162.969.969,1.356.775.387.388.194h1.162l.581.581.387-.194h.387l.388-.194.581-.387.775-.194-1.55-3.681-.969-1.356.387-.581,1.55,1.162.969.387h.387l.387-.581.581-.969.581-.387,1.55-.194,2.712-1.744.387-.775.969-1.162.581-1.356.194-.194.194-.194,1.55-.387,1.55-1.744,1.162-.581h.581l2.131.387v1.356l.194,1.162.775.387,1.55-.194,1.356-.194.775-.969,1.356-1.356.969-.969,1.744-1.356,3.293-2.906,1.55-1.55,1.162-.775.969-.581.775-1.356v-.194l-.194-1.356L949.1,712.3l-.387-1.937v-1.55l.387-1.937v-1.55l.969-.581,1.356-1.356,2.325-1.55,1.356-3.1.775-1.937,1.162-2.325.969-2.325v-.581l.387-.775-.387-.969-1.356-.775-.775-.581-1.744-.194-1.356-.387-2.325-1.356-1.162-.581-.581-2.712-.775-.387-1.162-.581-1.744-.775-.775-.387h-1.55l-.387-1.162.969-1.937.969-.969L946,675.1l.969-2.712.581-.581h2.518l1.937-.775.194-.387.387-.581h.581v-.194l.194-.194-.387-.194-.194-.388.194-.194.194-.194.387-.387.194-.194-.194-.387.194-.194.387-.388h.775l.194-.194.581-.387.194-.194h.581l.969.194.194-.194v-.194l.969-.194,1.356-.194,1.356,1.162.775.387.969.194v.194l.969.581.194.194h.581l.194.194.775.581.194,1.162.581.194.581.581.581.387-.194.969v.969l-.581,1.744v2.131l.581.969.775,1.356.581,1.744.581,1.744-.194.969.969.581.775.194,1.744.581v.969l-.387.969-.969.969-1.162,1.162-.194,1.356h1.356l.581.194,1.162-.194,1.356.581.194.387.388.387.775.581.581.194h1.937l.969.969.581,2.131.581,1.937.775.581,1.162.194,1.356-.194h2.131l1.162-.581,1.162-1.162.387-.969v-.387l.387-.194-.194-.194h-.194v-.194h.194v-.387l.194-.194h.194v.194h.194l.194-.194.194-.194H989.4V693.7l.194.194v.194l.387-.194V693.7h.387V693.5l-.194-.194h-.194v-.387h.194v-.581l-.194-.194h.194v-.194h.194l-.194-.194v-.194h.194v-.194l.194-.194.194-.194V690.6l.194-.194v-.194h-.194l.194-.194h-.194v-.387h.194v-.387h.387v-.194h.194l-.194-.194v-.581l.194-.194v-.387h.581v-.581h.194v-.388h.581v-.775h.194v-.194l.194-.194-.194-.194-.194-.194h-.194V684.4h.581l.581.581,1.937,1.55.775.387.387.387.581.581.194.387.387.581.581.194h.581l1.937-.194h1.937l.969.194v.775l-.581.775.387.388,1.356-.194,1.356-.581,1.55-1.162.775-.194.969-.194.581.194,1.162-.194.388-.194-.194-1.162-.194-.194v-.387h.194l.194-.194-.194-.194-.387.194v-.581l.194-.194.775-.581-.387-.194.194-.194V684.6l-.194-.194h-.194l-.194-.194.194-.387h-.775v-.194l-.194-.387-.194-.194-.194-.194.194-.581.969-.775.388-.581v-.387l-.194-.194-.194-.387h-.194v-.387h-.194l-.194-.194h-.775l.194-.775h.194V678.4l.581.194.387-.194.194-.581.194-.194.387.581h.581v-.581H1014l.775-.969h.581l1.162,1.937.969.969,3.293.969.581-.581,1.162-1.162.581-.775,1.162-.775,1.55-1.55h2.325l1.55.387h.194l.775.194,1.162.387.969.969.969.387.969.387.581-.194,3.487-1.55,1.356-.581h.194l.387.387.581-.194.388-.388v-.194h.387l.194.194.194.388v.194l.194.387v.388l-.194.194-.194.194-.194.387v.775l.387,1.744.387.581h.194l.387.194.387-.194.581.581-.775,1.356-.194.581,1.937-.581.581.194.194.194.194,1.356V687.7l.775,1.162.387.387h.969l.969-.387.194-.194.387-.775.194-.388.581-.387.387-.775,1.744-.581v-.194l.387-.387.581-.969.581.194v.194l.387.581.194.387h.387l.387,1.356,1.356,2.131,1.937,3.681.194,2.131.581.387h.387l.581-.194.969-.581.581-.194.194.388.194.194-.581.387v.194l.387.581.194,1.356.194.775v.388l-.194.775.194.581.194.581v1.356l-.387.387-.387.581-.194,1.356-.581.969-.194.581.194.775-.387,1.744-.775,1.356h-.194v.194h-.581l-.969.775h-.969l-1.55.581h-.775l-.775.969-.194.969.969,3.487-.387.581-1.744.775-1.55-.194-.194-.775-.969-1.744h-.387l-.581,3.1v2.131l-.194,1.744.969.969.581,1.744.388,2.131,1.162,1.356.194,1.55.194,1.937.581,1.162,1.162,1.356,1.356.775.775.194.581.194h.581l1.162.775.387,1.356-.194.775v.194l-6.2.775-5.23.581-12.786,1.55-20.148,2.325-5.231.387-3.875.388-3.875.194-3.681.194-4.456.775-.387.194h-.194l-1.162.581.387,1.356,3.1,5.231.969,6.974-.969,8.33-5.037,8.33-4.649,6.005-4.068,6.2-12.2,12.98-8.524,7.555-6.2,5.618-1.162,1.55,6.393,13.561,1.356,1.162h.194l.387.387.387.387.387.581v.194l.194.387.194.387.194.194,4.262,8.33,2.325,7.168v3.875l.775,5.231.775,1.937,1.162,6.587.194,1.162.388.387.194.194v.194l.194.387-.194.775-1.162,1.356v.581l-.194.969.581,2.906v2.325l-.775,3.487-.969,3.1-.775,1.937v1.744l-.581,3.1-1.162,2.131v2.325l-1.744,4.456v1.744l-.387.775-.775.581-.194,1.162-.775.969-.775.775-.775.969-.194.969-.194.194v.775l.194.194v.194l.387.387.194.194.387.387.775.775.775,1.356.387,1.162.194.194h.194l1.356.969.581,1.744-.388,2.325-.775,1.744-.194,1.744,1.55,4.456.387,2.518-.387,1.55-.194.387v.775l.387.969-.194.581v.387h-.194l-.194.969v.775l1.356,1.744.194.387,1.162.775.775.969v.387l.194.387h-.194l-.194.775-.387,1.744-.194,1.356.194.969.194.387.775.775.969.581.581.775.194.969.194.581-.194.581-.194.581-.388.387-.581.388-.388.194-.969.969v1.356l-.194.388v.194l-.387.194V956.2l-1.744-.194-1.162.387-.969.775-.969,1.55-.581,1.937-1.55,1.356-.194.388-.194,1.162v.194l-1.356,1.356H961.5l-.581.775-.581,1.162-.194,1.162v4.068l-.194.969-.387.775v.581l-.194,1.937-1.744,1.55h-.194l-.581.775-.388.581.194,3.487v.969l-.387.581-.387.581-.388.581-.194.581V987l-.194,1.162-.194,1.162-.194.194-.969,1.356-.194.194.388,1.55.969,1.356.581.775v.581l.194.581-.194,1.162v1.744l-.581.581v.194l-.581.775v.775l-.194.581v.387l.194.581.194.775v.581l-.194.969-.969,1.744-.388,1.356-.387.388-.969.581-.194.194h-.194v.775l.194.581-.581,1.55.194.194v.387l.581.775.194.387-.387,1.162.387.969-.194.194v.387l-.387.387h-.387l-1.162.194h-.194l-.388.194-.194.194-.194.581v.387l.581,1.356v.387l-.775,1.744-.194,1.356-.775.969-.194.581-.969.581-.194.581-.387.775.194,1.162.194.969-.194.581-.194.194-.387.387v.581l.194.775-.581.969-.194,1.162v3.293l.194.387.387.387.775.581.194.581v.194l.194.775.194.194.581.387.581.194h.194l.194.194.387.194.194.194.387.775.194,1.55-.194.388-.969.581-.194.581.194.581.194.387.775,1.162.194.194v.387l-.194.969-.581.387-.969.387.388.581.775.194.387.581.194.388.387.581.387.775.194.194.581.969V1055l-.969,1.356-.194.387-.194.581-.194,1.356.194.581.194.194.387.194.194.194h.387l.581-.194.581-.194h.194l.194-.194.387-.194h.775l.388.194.194.194.387.387.194.194.387.581V1061l.581.775.194,1.162v.194l.194,1.162.387.194,1.162.388,1.356.969.775.194,1.744.194.581.387.387.387.194.194h.581l1.356-.194h.775l.387.194.387.194.194.388,1.162,2.131.387.581.581.581,1.356.387.969.387.969.775,2.325.775.969.969,2.712-.387.194.194.387-.194h.194l.969.581.387.581v1.937l.581,1.55.387,1.162.387.969.581.581,3.1,1.744,1.162,1.937.581.775.775,1.744.969.969.194.194.194.194.581.581,1.356.775,2.712,2.131,2.131,1.937,1.162,1.162.388.581.969,1.356,2.131,3.487,1.356,1.744.194,1.356.194.969,1.744,3.487h.194l.387.581.194.969.388.969.387.194h.387l.775.581h1.356l1.55-.775,1.55-.194.194.387h.387l.581.581.387.581.194.387h.969l1.55-.581.388-.194.387-.194h.387l.969-.581.581-.387h.387l.969-.194h2.131l1.744.388.969-.194,1.162-.775h.194l.775-.194.775.581.775.775,1.162.969.194.775-.194.387v.775l.581.387,1.162.388h1.55l.194.194,1.937-.581h.969l1.162.388,2.518,1.55.775.581,2.906,1.356,1.743.969.969.581.775.194.581-.194h.969v-.194l1.55-1.162.969-1.162.775-1.356.194-.775v-1.356l-.387-.388-.387-.387h-.387l-2.325-.194-.387-.194-.775-.969-.194-.194-.387-.387v-.194l-.387-.581-.969-1.937-.581-.775-.387-.775v-.969l.387-1.55.387-.969v-.581l.387-1.55.581-1.356.581-.969.387-.581h.194l.194-.388,1.55-1.162.387-.194h.194l.969-.387,1.55-.387,1.356-.775.387-.194.581-.581.775-.581h.194l1.162-.194.775.194,1.162.387,2.325.969h3.1l1.55-.387,2.325-.775,1.162-.581,1.55-1.356,1.55-.969.581-.388h2.906l.581-.387h.581l.194.194v.194h.194v36.42l-.194,6.974.194,3.293-.194,1.55v2.518l.194,8.524-.194,2.131v.581l.194,1.55-.194,3.293v6.393l.194,1.937-.194,2.325.194,1.356v8.33l-.194,3.875.194,2.131-.194,2.712.194,6.393V1209.4l-.194,3.681-.387-.194-1.356-.969-.387-.387h-.581l-.194-.194h-1.162l-2.325,1.356-1.55.387h-.969l-.969-.387-.775-.775-1.162-1.162-.581-.194-.581.194-1.162.775-.775-.194-2.131-1.937-1.162-.775-.194-.581v-.775l.387-1.162v-.387l-.581-.581-.194-.194v-.581l.388-.387,1.55-.194h.194l1.743-.194.581-.388.387-1.162.581-1.744v-.969l-.194-.387-.581-.775v-.775l.387-.775.775-.387.775-.387.387-.581.194-.194-.194-.581-.387-.387-.194-.581.387-1.162-.194-.581-.581-.387h-.387l-.969.775-1.162.581-.775-.194-1.356-.581-.969-.581-.581-.388-1.162-.775h-.775l-.581.194-.775.775h-.194l-.387.387-1.356-.194-.775-.194-.775.387-1.162.969-1.162.775-.581.969-.194.775-.387.581h-.387l-1.55,1.55-.581.387-1.162,1.162-.387.581-.387.387-1.55.194-1.55.387-.387.194h-.387l-.969.387-.581.194-.387-.194-2.131.775-.194.969-.581.387h-.581l-.581-.387h-.194l-.387-.581-.581-.388-.581-.194-.581.775v1.937l-.387.581-.581.775-.775.388-.969.194-1.937.581-1.162.581-1.162,1.162-1.356.581-.775.388-1.937,2.325-.775.194-.194-.194-.194-.581-.194-.387-.581-1.356-.969-1.356-1.55-1.937-.775-.775-1.162-.387h-.969l-.775.194-1.356.581-.581.387-.969.581-.581.387-.969.388-1.356.775-.969.775-.775.581h-.775l-.775-.194-.387-.581-.775-1.744.775-.581.194-.775-.194-.581-.581-.387-.969.775h-.581l-.194-.194h-.194l-.387-.581v-2.325l-.387-.775-1.356-1.744-.194-1.162-.194-1.356-.194-1.744-1.162-2.906-.775-2.518-.775-2.131-.194-1.162-.581-1.55-.194-.194-.581-.194-.969.387h-.969l-.194-.775-.387-.388h-.581l-.581.581-.387-.194-.581-.969.388-1.937-.388-1.744-.387-.775-.775-.581-.194-.581.194-.194,1.162-.194.194-.775-.194-.581-.581-.387-.388-.581-.194-.775.194-.969-.194-.969-.581-1.55-.775-1.356-2.131-2.325-.387-.775.194-.969-.387-.775-.775-.387-.581-.194-.387.194-.581.194-.775-.387v-.194l-.388-1.162-1.162-1.162-.387-.969-.194-1.55-.581-.969-1.55-1.55-1.162-.775-.775-.387-.969-.581-.969-1.356-.775-.581-.581-.194-1.744-.194-.775.387-.969.969-.969,1.162-.387.775-.775,2.325-.194.581-.194.194-.581.581-.194.194h-.581l-.387-.581-.194-.775-.194-.388-.969-.581-.969-1.162v-.387l-.387-2.906-.969-1.937-1.55-1.356-.387-.581-.388-.387-2.131-2.131-.194-.387-1.162-1.356-.775-1.744-.194-.775-.194-.194.194-.581.775-.775,1.162-.775H955.5l.969-.388.194-.387.194-.194v-.581l.194-.581.581-2.518v-.581l-.581-.969-2.518-2.325-1.55-1.162-1.937-1.162-.581-.581-.194-.581.581-2.518v-.581l-.581-.775-2.325-.775-1.162-.581-1.744-1.55-3.681-3.681-.775-.969-.581-.581-.387-.387-1.162-.581h-.775l-2.325.194-1.55-.775h-.387l-1.744.775-.581.194-.581-.387-.775-.775-.581-.388-.969-.194-1.356-.387-.775-1.744h-.581l-.775.387-1.162,1.162-.581.775-.194.775.194.387v.775l-.775.194-.775.581h-.581l-.581-.581-.387-1.356v-.194l-1.744-3.681-.581-1.356-1.162-.581-1.162-.387h-.194l-1.356.194h-1.356l-1.744-.194-1.356-.775-.581-.194h-.194l-.387.194-.775.387-1.356.775h-.581l-.581-.387v-.969l.194-.581.194-.581v-1.162l-.775-1.55-1.162-1.937-.581-2.712-.387-.581-.387-.194-.775.194h-2.712l-1.356.194-1.162-.194-2.325-1.162h-.775l-.387.387.581,1.937-.387.581-.775.194-2.325.581-.775.387-.969,1.162-.581.387-2.906-.581-1.356-.194-1.55.387-1.356-.194h-.581l-1.55.388-.969-.194-1.356-.969-.387-.581-.194-.775-.581-2.712-.581-.775-.387-.194-.581-.387-2.518-.194-.969-.581-1.55-1.356L865.8,1092l-1.162-1.744-.581-1.744v-3.487l-.969-3.1-.581-.581-.775-.387-.581-.387-.387-1.162-.387-3.681-.194-.194.194-1.744.387-2.131-.387-1.937-.388-.969-1.356-1.356-1.356-.775-2.518-.969-.969-1.744-1.162-.387-1.356-1.162-1.744-.775-1.744-1.55-1.162-.581-1.55-1.162-.969-.581-.387-.194-1.55-.581h-1.356l-.969-.194-.581-.387-.581-.969-.194-.194-.194-.581-.194-4.068v-7.362l-.387-2.518v-.581l-.775-3.487-.387-1.356-.388-.387h-.581l-.581.775-.387.387-.775-.969h-.581l-2.712.969-3.875.387-3.487,1.162h-.969l-1.937-.194H819.5l-1.356,1.356v1.744l1.162,4.068v2.518l-.969,1.356-1.356,1.356-1.55,2.131-.775,3.681-.387,7.749-1.937,3.681-3.1,3.1-3.681,2.131-3.875.775-2.712-.388H795.09l-1.356,1.162-.775.969-.581.387-.581.581-.581.581h-.969l-.387-.581-.969-.969-2.131-.387-.581-.194h-1.744l-1.162-.194-2.325-.581H779.4l-3.293-.387-.969-.775-.969-.581-.969-.194-1.162-.581-2.131-2.131-1.744-.775-2.131-.387h-1.743l-.969-.387-3.681.194-3.293.581-.969.387-1.937,1.162-.969.387H751.5l-1.937-.969-3.293.194-1.937-.775L742.4,1067.2l-1.937-.969-16.079.387-.387-.194-.194-.581-1.162-1.162-1.356-.581h-.387l-.581-1.356-1.162-.969-2.131-.775-1.937-1.744-.194-1.356-.194-.581-.775-.581-.775-.194-.775.387h-.387l-.194-.581-.581-.194-.969-.194-.581.194-1.937.775-.969.194h-5.424l-1.55-.387-3.487-2.131-1.937-1.55-1.162-2.712-.387-.387h-.387l-.969.775-1.356-.775-4.262-.194-.581.581-.387.969-.387.969-.969.387h-1.162l-.581.581-.581.775-.775.387h-1.937l-.969-.387v-.969l.581-.388.387-1.356.194-1.55.969.388Z" transform="translate(-677.249 -665.551)" fill="#6f9c76" stroke="#fff" stroke-linecap="round" stroke-linejoin="round" stroke-width="0.5"/>
</svg>
