<svg xmlns="http://www.w3.org/2000/svg" width="389.11" height="371.866" viewBox="0 0 389.11 371.866">
  <path id="CDHL" d="M976.763,780.875l-1.356.581h-1.356l-1.744.387-2.325.388-2.518.969-3.487,2.712-.194-.775v-.969l.581-2.518-.387-.387-.581.194-.969.581-.775-.775.775-1.162v-.581l-.775-1.162-1.356-1.162-.775-.387-.581-.581-.194-1.162v-.581h-.581l-1.55.387h-1.162l-1.356.581-1.937-.194-.969-.194-2.518,1.55-1.744.775-.775-.194-.387-.581-1.55.969-.969,1.55-.194.194-.581.581-.969.194-.581.387-.775.387-.775.388h-.969l-1.55,1.162-1.356,1.162-.775.194-.387.194-.969.775h-2.325l-.387-.194v-.194l-.194-.387-.387-.194v-.194l-.581-.194-.775.194v-.194l-.581-.387h-.387l-.775.194-.194.194-.581.581-.194.194-.194.194h-.387l-.194-.194-1.356.969.194.387-.194.194-.581.388-.581.194-1.55.194-.775.194-.581,1.162-.387.775-1.937,2.131-1.937,1.937-.969,1.356.194.387-.194.388L914,795.985l-3.293,4.262L904.7,808.19l-1.937,2.325-1.744,2.131-.969,2.906v1.55h.194l.388.387.775.194,1.162.387,1.55.387,1.162-.387.775-.194.969.581.388.581v.581l-.581.194-.775.387-.194.581-.775.387-.775.388-1.162,2.518-.581.388-2.518,2.518-2.712,2.325-.775.581-.969.969v1.55l-.194.387-1.162,1.162-1.744.581-1.55,1.55-1.162.581-.775.969-.969.388-1.162,1.162-.581.194-.581.775h-.775l-.775-.581-.194-.775-.387-.194v-.194l-.194-1.937.194-.775.387-.387-.194-.387.581-1.356v-1.356l-.387-.388v-.581l-.775-.194-.388-1.162h-.775l-1.162-.775-.581.194-.581-.194-.581-.194-.194-.387-.387-.194-1.162.969-.581.387.387.194.194.194.388.775.581.194-.969.775h-.194l-.194-.194-.387-1.162-1.744-.581-.194.775-.194.387-.775.387-.387.194-.194.581.387,1.55.388.775-.194.581.194.969-.581.581.387.194-.194.581h.194l-.194.194-.581.775.387,1.356-.194.969v.387l1.162,1.55.194.194.194.387-.194.581v.194l.388.969v.387l-1.162.775-1.162,1.356-1.55.581-.969,3.1-.194,4.843-.387,1.356.387.581v1.937l-.387.194v1.162l-.194.387-1.162.387-.581.387-.581.969-.387.194-.969.775-.194.388-.387.387-.194.775-.581.581h-.581l-.194.581h-.581l-.387-.194h-.775l-.194.194-.194.581-.387.387-.775.581h-.581l-.387.194-.775,1.162-.581.581v.581l-.194.969-.581.194-.194.775-.969.581-.194.775-1.162.387h-.969l-.387.387-.194,1.55-.194.387-.969.581v.969l-.387.775-.387.194-.388.969-.581.194.194.581.387.387.581.194.194.194-.775.387.581.387h.581l.194.387.387.194.387.581v.581l.387.194.194.387h.194v1.356l-.387.581.194.969-.775,2.518L852,891.3v.387l-.581,1.162v.775l-.387.194-.194.775-.387.387-.194.388v1.356l.775.775.387.775.387,2.131-.581.969.387.387-.387.388-.581.775h-.775l-.194.969-.775.775-.387,1.356-.969.775-.387.194-.194.194-.194.194-.387.775-1.162.969-.388.194-.581.775-.388.387-.969,1.55-1.356,1.356h-.387l-2.906,2.712-.775,1.162-.194.388v.194l-.194.194-.194.387.387.581.387.194.387,1.356-.581.194-.581.194-.581.194-.581.388-.581.387-.387.194-.581.388-.969.775-1.162.387-.775-.194-.194.194-.581.387h-.194l-.194.194-.388.387-.775,1.356h-.194l-.581.388-.581.581-.775.194-.581-.194-.388-.387-.387-.387-.387-.194h-.387l-.387.194-.388.194-.387.387h-.194l-.775.194h-.969l-.581-.387-.194.194-.387.194-.388.194-.387.387-.387.387h-.581l-.775-.194-.387-.387-.194-.194h-.969l-.969.194-.387.194-.969.194h-.969l-.775.194-.775.194h-.775l-.388-.194-.194-.581v-.775l.194-.581v-.581l.194-.194v-1.162l-.194-.194-.387.194-.581.388h-.775l-.581.194-.969.194-.581.194-.775.387-.969.194-1.162.388-1.356.194h-1.744l-.969-.194-.775-.388-.387-.387-.775-.387-.581-.194-.775-.387-.194-.581-1.162-.581-.581-.388-.775-.387-.387-.194-.387-.388-.387-.387-.388-.387-.387-.581-.387-.581-.581-.387-.775-.387-.581-.194-.775-.194-.581-.194-.387-.194-.969-.581-.775-.194-.581-.194-.775-.387-.775-.387-.581-.387-.775-.581-.387-.387-.581-.387-.775-.775-.775-.387-.581-.581-.969-.775-.775-.969-.387-.581-.775-.775-.775-.775-.194-.581-.194-.387-.387-.969-.194-.581-.387-.194h-.194l-.388.194h-.775l-.581.388-.775.581-.387.388-.581.581-.969.388h-.969l-.969-.581h-1.162l-.194-.194h-.194l-.194-.194h-.581l-.581-.194-.581.387-1.356-.194-.581-.194v-.194l.194-1.356h-.775l-.194-.194-.388.969h.194l.387.581v.581l-.581,2.518-.194.581-.194.194-.194.194v.581l.194.581v.387l.194.969.194,1.162.388.194.387.387.194.387-.387.388v.194l.581,1.162v.194l.581.387v.969l.387.387v.387l-.194.194h-.581l-.388-.194-.775-.969-.581-.194h-.194l-.388.581v.194l.194.387.775.387.388.194.775.775h.775l.388.194.194.581v1.162l.194.581-.387.969.194.194.194.387h.387l.387-.194.387-.387h.387l.194.387v.387l-.194.387.194.387h-.969l-.775-.387-.387.194h-.194l-.194.194v.581l.194.775.387.775,1.162.581.194.388h.581l.194.194v.387l-.194.194-.387.387-.194.581-.194.194v.387l.194.194.581.969-.387.969v.581l-.387.387h-.387l-.775.194-.387.194-.387.387-.581.194-.969.775-.581.387-.387.194h-.969l-.581-.194h-.775l-.387-.194h-.388l-.387-.387h-1.937l-.581.194-.581.194-.969.194-.969.581-.581.387-2.518.969-1.356.775-1.162.581-1.356.194-.969.387-.581.387-.969.387-.581.388-.969.387-.969.194-1.356.775-.969.387-1.55.581-.775.387-1.162.194-.969.581-.581.194-.775.194-.775.387-.387.387-.581.775-.775.969-.581.775-.581.969-.194.387-.581.581-.194.581-.581.194H724.92l-.387-.194-.775-.194-.775-.194-.581.388-.581.387-.581.387-.581.387-.581.581-.775.581-.775.387-.581.194-.581.194-.581.194h-2.712l-.581.194-.194.969v.775l.194.387h.581l.969.194h.581l.969-.194,2.131.387h.194l1.937.388.969.194-.969,1.744-.194.194h-.194l-.194.387h-.387l-1.162.581h-1.162l-.581.387-.775.194-1.162.581-.387.194-.387.388-.969.775-.388,1.162-1.162.387-1.162.194-.775.194-1.162.194-.581-.194-.581-.581-.388-.969-.387-.581-.387-.969-.194-.581-.194-.581-1.162-1.744-1.55-1.162-.581-.581h-.194l-.581-.581-.969-1.162-.194-.194h-.194l-.581-.194v.581h.194l.387.387.194.194v.387l.194.969v.581l-.194.387-.969.387v.194l-.194.194-.387.581-.387.581-.775.194-.581-.194-.969-.581-.387-.194-.775-.387-.387-.194-1.744-.387-.581-.194h-.387l-.581-.581-.775-.969-.387-.387h-.194l-.194-.581-.581-.581v-.775l.194-.775.194-.581-.581-.387-.387-.581H688.5l-.194.581-.194.581-.388.581-.581.388v.581l.388,1.162-.581,1.356-.194.194h-.387l-1.55.581H682.3l-.969.387-.775.194-1.55,1.162-.581.581-.775.969v.194h-.194l-.775.388H676.1l-.581-.581-.194-.775-.387-.581-.388-.775-.194-.387-.387-.775-.388-.581-.387-.387-.194-.388-.581-.581-.387-.194-.775-.775-.775-.388-.775-.581-.581-.581-.194-.194-.775-.387-.388-.387-.775-.387-.387-.388-.194-.387-.194-.387-.388-.194h-.194l-.194.388v.387l-.194.387-.388.387v.387l-.194.581-.387.775-.194.387-.581.387-.387.969-.581.581-.194.194-.388.581-.194.194-.387.581-.194.194-.194.581v.387l-.194.387v.388l.194.775v.969l.194.581v.581l-.194-.388-.194-.194-.194-.387v-.194l-.194-.387-.387-.387-.387-.194-.194-.194-.387-.387-.194-.194-.194-.388v-1.744l-.387-.775v-.388l-.387-.194-.388-.387-.387-.775.194-.775-.775-1.937-.194-.387V952.9l-.194-.387-.387.387h-.581l-.969.194h-.969l-.387.194-.194.387-.387.387-1.162,1.55-.969.581v.387l.194.581-.581,1.162-.194-.387-.581-.387-.387-.387v-.388l-.387-.387-.388-.581-.387-.387v-.581l-.194-.194h-.388l-.775-.194-.581-.387-.581-.194-.581-.194-.581-.194h-.387l-.388.194-.969.581-.194.194-1.937-.194-.775.775-.969.387h-.775l-1.162-.387h-.387l-.194-.194-.388.387h-.969l-.969-.194-.775-.194-.775-.387-.194-.387h-.194l-.581-.581V950l.194-.581.581-.581.581-.388.581-.387.194-.581-.387-.775v-.581l-1.55-.775-.775-.194-.775-.194-.775-.388h-2.712l-.581-.581-.387-.581-.194-.581.194-1.937.581-1.162v-.581h-.775l-.581-.388.581-1.744v-.194l.581-.581h.194v-.194l.194-.387.775-1.744.581-.581.194-.194,1.55-1.55.581-.969v-.194l.775-.775.194-.194.969-.581,1.356-.775.387-.387.194-1.55v-.775l.581-1.744v-.775l.388-.387.581-1.162.194-.581-.194-1.55-.194-.387-.775-1.356-.194-.775.194-.775v-.194l.194-.775v-.581l.194-.581.775-2.131,1.744-3.875.194-.194v-1.744l.387-.194.581-2.131v-.581l-.581-.969-.387-.775-.194-.581-.194-.194-.194-.387v-.581l.581-1.55-.775-.969-.194-.388.194-.969-.388-1.162h-.194l-.194-.194.387-.387.775-.194.194-.387v-.581l-.194-.387.194-.387.969-.775.387-.388.388-.387.387-.581.581-.387.387-.194.194-.194h.388l.387.194.581.387.194.387.387.194.388.387h.387l.194-.194.581-.387h.387l.388-.387.581-.581.194-.194.194-.581.194-.194.194-.387.387-.387.581-.388h.581l.194-.387.194-.194h1.744l.581-.194.581-.194.775-.194.581.194h1.937l.969.194.581.194.969.194.775.194.581.194.775.388.194.387h.775l.194.194.194.194v.194l.194.194.194.194.387.194.194.194h2.131l.387-.194h1.162l.388-.194h7.943l.387-.194.388-.194h.775l.581-.194h.581l.194-.194.194-.581v-.775l-.194-.194-.387-.581-.387-.194-.581-.387-.194-.387-.194-.194-.969-.194-.194-.194-.581.194h-.581l-.388-.194h-.387l-.581-.387h-.775l-.194-.194-.387-.194-.194-.194-.581-.387-.194-.194v-1.55l-.194-.194-.388-.194-.581-.775-.194-.194-.387-.194h-1.356l-.387-.969-.581-.775-.387-.194-.581-.387-.194-.194-.581-.388-1.162-.194-1.744-1.162-.581-.775-.581-.387-.775-.194-1.356-.581-.775-.581H654.6l-.581-.387-1.356-1.162-.581-2.325-.775-.581-.194-.194-.969-.581-.969-.581-.581-.581-.387-.388-.775-1.162-1.356-3.487.194-.387v-.194l-.194-.775v-.775l-.194-.387-.388-.387-1.937-.775-.194-.581h-.194l-.387-.387-.387-.194H640.65l-1.162-.387-.387-.194h-.969l-.581-.387-1.162-.194-1.937-.387-1.744-.194-.775.194-.194-.581.387-.775.387-.387.387-.387.194-.194v-.387l-.387-.581-.581-.581-.581-.387-.581-.194h-.387l-.775-.194-.387-.388-.388-.194-.387-.581-.387-.194-.387-.581-.581-.388-.387-.581-.387-.194-.775-.581-.387-.387-.387-.387-.387-.387-.388-.388-.387-.194-.194-.194-.388-.194-.194-.388-.581-.194-.387-.775-.775-.581-.194-.194-.194-1.55-.387-.775-.581-.194-.775.194h-.969l-.581-.194-.387-.581h-.194l-.194.388-.194.194-.194.194h-.581l-1.162,1.162-1.162-1.162-.581.194-1.162.388-.775.194h-1.162l-.775-.194h-1.162l-1.55-.581L605,839.767h-3.1l-.775-.387-.775-.387-.581-.194-1.937,1.356-2.906-7.168-.581-2.906.194-1.744v-2.325l-.581-.581-.581-1.162-.194-.969.194-1.55.194-.387.581-.775v-.194l-.969-1.356-1.162-.775-.581-.388h-.194v-.194l-.387-.194-.194-.387-.194-.581-.194-1.356-.581-2.906.194-1.356.194-.581.194-.387.194-.388.194-.581.388-.388.969-.581.194-.194v-.194l.194-.194v-.387l.194-.775.388-.581.581-4.068.775-2.712V796.76l.194-.969.775-2.712.194-1.356-.194-.387v-.581l-.775-2.131-.387-1.356-.387-1.162v-.775l.387-.775.387-1.55.775-2.906-.194-.775-.387-1.162-.194-1.55v-.969l-.387-.581-.581-.775-.387-.775-.194-.387-.194-.194-.581-.581v-.387l.387-1.162.194-.775,1.55-2.325v-.387l-.581-.581v-.581l-.194-.581.194-.387.387-.775v-.775l.387-.775-.194-.194v-.387l1.162-1.162v-.194h.194l.194-.194v-.581l.194-.194.387-.388v-.387l.388-.387V758.4h-.194l.194-.775v-.387l-.194-.387v-.581l.581-.581.387-.581.969-.969.194-.581.969-1.937.387-.387.194-.194.775.581.775.581.194.581.581.581,1.55.969.194.387.194.194.194,1.162.194,1.356.387,1.937v.775l.194.581.194.775-.194.775.194.387h-.194v.775l.775-.387.194-.775V760.34l-.387-2.712.581-.775.581-.387,2.518-.969.969-.194,3.1-.775.581-.387,1.162-.581,1.55-.969,1.55-.775-.388-.581.775-.581v-.387l.194-.388-.194-1.162-.194-.387v-.194l-.581-.775.194-.581-.194-.194-.194-.194-.775-1.162-.387-.775-.387-.581v-.194l-.969-1.55v-.775l-.194-.194.194-.581.194-.581.194-.194.194-1.162.387-.581v-.194l-.775-.194h-.194l.775-.775.194-.387v-.387l-.194-.194-.194-.775-.387-1.356v-.194l.194-.387.194-.581v-.581l-.194-.194v-.194l.969-1.937-.194-.581-.388-.581.194-.775-.194-.194v-.194l-.775-.194v-.194l.581-.775.387-.581.194.194v-.581l-.194-.387-.194-.581-.194-.775.194-.388.194-.194.581-.581.775-.387.194-.969v-.581h.194l.194-.194h.194l.194-.387-.194-.387.581-.775.194-.388-.194-.969.387-.387v-.194l.194-.388v-.194l.388-.387.194-1.937v-.581l.194-.581v-.969l.387-1.356-.194-.194.581-.194.581-.387,1.162-.194.387-.194.194-.387v-.581h-.775l-.387-.387-.194-.581-.581-.387h-.194l-.775-.194H620.5l-.194-.194h-.194l-.194-.194V706.1h-.194v-.775l-.388-.581v-.581l.388-.387.194-.194.581-.194-.194-.969.194-.194.194-.387-.194-.387-.194-.194h.194v-.387l.387-.969v-.581l.194-.387.387-.194h0l-.775-1.162-.775-.969-.194-.194v-.194l-.194-.387-.194-.388.194-.581v-.775l-.194-.194.194-.194v-.194l.581-.194v-.194l.387-.387.387.387h.387v-.194l.388-.387-.388-.775.194-.194.387-.387,1.356-.581.194-.194.194-.388.387-.194.194-.194.581-1.356.581-1.744.387-.194v-.581l1.356-.775.194-.194.194-.194.581-1.937.387-.581V681.3l.387-.387.194-.194h.775l.581.194.387-.387.387-.194.194-.194h.581l.194.194.581-.194h.194l.387.194v.775l.581-.194.194-.194v-.194l.194-.387v-.387l.194-.775.194-.194,1.356.194v-.969l.194-.581.194-.969.194-.581-.581-.194-.581-.194-.387-.387-.194-.387.194-.387.194-.194.194-.194,1.162-.581.387-.388v-.194l-.581-.387-.194-.388-.194-.194v-.387l-.194-.775h-.194l-.194-.194-.775.194h-.194l-.194-.194v-.388l-.194-.581.387-.388h2.131l.387-.581.387-.388.194-.387-1.162-.775v-.387l.194-.775-.194-.387.194-.194h.969l1.744.388v.194l.194.194h.775v.581l.194.194v.388l.969.387h.194l.387.775.194.775.194.194.387.387h.194l.194.969.775,1.356v.194l-.194.194v.581l.194.775v.387l-.194.194v.194h-.194l-.194.194-.194.194-.194.387.581.387v.194h.194l.387-.194.194.387h.194l.194.194.194-.194h.194l.387.194h.387l.387-.387h1.162l.581.387v.194l.194.194h.387l.388.194.387.194h.581l.387.387h.387l.194-.194.194.194.194.194.194.581h.581l.194.387.387.387.194.194.387.194,1.55.388.387-.194h.194l2.518.194,1.744-1.162,1.356.194,1.744.387,1.744.194h2.906l1.356-.581.775-.388.969-4.456.387-.581.388-.194h.387l.775.775.969,1.356.581.194,6.005-2.712,2.325-.194v-.194l-.194-.387.194-1.356h.194l.581-.194v-.194h.194v-.387h.194l.387-.194.775.581.194-.194h.194l.775-.194h.194l.581.194.194-.194.194-.387h.388V669.1l.581-.194.194-.194-.194-.581h.194l.194-.388h.581l.194-.194h.387l-.194-.581h.775v-.194l-.194-.194v-.194h.194l.194-.194.387-.194h.194V665.8l-.194-.387v-.194l.194-.194.388-.194.775-.775,2.518.194h.387l.194-.194.194-.194.194-1.162.194-.581,1.356-.969.387-.387.775-1.162,1.744-.775,1.162-.581-.194-.969-.388-1.937.581-1.162,2.518-2.325,1.744-.581,1.744-.194h1.162l.581-.388-.194-1.744-.194-1.55.581-.581.969-.387,3.293-.194h2.712l1.162-.969.194-1.162.387-.969.581-.581.775-.194.581.194.387.969h.387l.775.387,1.162.194,1.55.194,1.162.775,1.356.194.387.194.969.194h.387l1.55-.969,1.356-.581.775-.194,1.162.775,1.356,1.356,1.162,1.356,1.744,1.162,1.55.194.775.581.775,1.162.969,1.162.775.775.775.387v2.131l-.387,1.356,1.162.194,1.937-.194h.581l.194-.194.194-.194.388-.194.775-.387,1.162-.387.969-.388.775-.969.387-.194.387-.387.388-.194.969-.775.387-.194.194-.194.581-.581.969-1.55.387-.194h.194l.387-.194.581-.387-.775-.775v-.194l-.194-.387v-.194h.194l.387-.387v-.387l-.387-.969.969-1.744.581-.581h.194l.194-.387v-.194l.194-.194V641.2l.387-1.744-.194-1.162-.194-.581-.581-1.162-.194-.194-.775-.194v-.387l-.194-.194V635.2l-.387-.194h-.969l-.194-.194-.387-.581-.581-.581h-.581v-.969l-.194-.581h-.387l-.387.194h-.387l-.194-.387v-.194l-.387-.581-.581-.194H750.3l-.194.194-.581.581h-.387l-.969-.581v-.194l-.194-.194h-.194v-.194h-.194l-.581-.581-.581-.581-.775-.581v-.194h-.194l-.388-.581-.969-1.162v-.775l-.194-.194-.387-.387-.194-.194h-.775l-.388-.194-.387-.775H741v-.387l-.194-.581-.387-.194v-.194l-.194-.387.969-.387.388-.581.969-.775.775-.775v-1.937l-.387-1.356-.387-1.937-.388-2.131.194-.775,6.78-2.325.775-.194.581-.194h.194l.194.194,2.518,1.744h1.162l1.162-.194,3.1-1.55,1.162-.581.581.387.194.969.775.194.775-.194,2.325-.194.387-.775.775-.581h.387l.581-.388v-.194h.194l1.55-.387.775-.194h1.356V607.3l.194-.194.194-.194.581.387,2.131-.194.581-.581,2.712-.387.581-.194.388-.194v-.194l.194-.194.387-1.356v-.194h.194v-.194h.775l.194-.194h.194l.194-.581.387-.194h1.162l.581-.194.775-.775.194-.194h.581l.194-.194h.581l.775-.581h.581l.194-.194h.775l.969-.387.194-.194.581-.387.387-.775.194-.194.581-.581h.194l.194-1.162-.775-.581-.194-.194-.194-.194.194-.194.581-.194,1.356-.388.194-.194h.194l.969.194.775.194.775.775.775.581,1.162.194.581.387.969.775,1.55.775.194.194,1.162.969,1.162.581.194.194.387.581.775.581-.387,1.356v1.356l.387.581.581.969,1.162.969.387-.194.387-1.937.194-.387v-.969l.387-1.744.775-.387.969-.969h.969l.387.581.581,4.456.194.387.775.194h.775l.969.194.387.387.387,1.162.775,1.162h1.162l.775-.194.969-.387.775-.387.387.969-1.162,2.131-.775,1.162-2.906,4.262-.387.775-.387,2.131-.388.775-.969.581-1.55.969-1.356.194-.775-.581-.581-.387-.581-.194-.387.581-.387,1.356.387,1.162v.581h-2.131l-1.55-.194-.194.387.581,4.843v1.744l-.581.775-1.162.969.387.581.194,1.55-.194,1.162v.969l1.744.194h1.162l1.744.194.581.775.775.969.969,1.937.581.775-.194,1.55-.194,1.162-.581,1.744.387.969,1.937.194.388.969-.194,1.356v.387l.387.775,2.131.775,2.325.387.581,2.325h.775l.581.194.581.194.775-.194.387.387h.775v1.744h-1.937l-1.744-.388v.969l-.581,1.55-.775.581.194.969-.581.969-.581.194-2.131.387-.775.775.387.969.969.969,1.937.581,1.55.194,1.744.194.387.581v.581l-.387.775-.581.387-.387.581-.388.581.775,1.162.581.194H821.2l2.325-1.744H827.4l.194.775v1.937l-.194.581-.194.194-.194.581.194.194.194.387.581.969.194.969.775,1.55.969.387,1.55.581.775.194h.775l.775-.581.969-2.325,1.55.775,2.325,2.131,2.131.581h1.55l.969.194h.969l1.162-.581V678.2l.194-.194.387-.194h.775l.581.194.387.194.387.387,1.356.388.969.581.581.194.969.387-.581,2.712.194,1.162-.387,1.162-.581,1.55v.969l-1.162.775-4.649.775-1.162,2.712L842.9,693.9v.581l-.194.387-.194.387-.194.194.194.581v.581l-.388.387v1.744h.388l.194.194v.194l-.387.194-.194.194-.581,1.162v.581l-.194.581h-.194l-.194.581-.581,1.162-.581.969v.194l.581,1.162,1.356,3.293,1.356-.387h.775l1.356,2.906.581,1.55h.581l.969-.194.387-.775-.194-.775-.775-1.162-.581-1.162v-1.162l.581-.387h.581l.969.387.387.387.581.581.581.969.388,1.744.581,2.906h.388l.194-.194v-.387l.194-.194h.194v-.387l.194-.387.194-.387.387-.194.387-.194h1.356l.581.387.194.194h.387v.194l.194.194.194.194v.194l.194.969v.969l.194.581.194.581.194.194.194.194.194.194.387.194h.194l.387.194h1.937l.581.194.387.388.194.194.194.194.194.387.775.581.581.387.969.775h.775l.387.388.388.387h1.744l.194.194V724.5l.194.387.775.969.581-.581h.775l.581.194.387-.387h.387l.194-.194.581-.581.194-.387-.387-.581.194-.387,1.162.775,2.325,1.744h.775l.775-.387.969-.969.969-.194.969.194.775.387.969.581.387.581v1.55l.194.581,1.356.194.194.387-.387.581-.775.969-.581,2.712h1.356l.581.194h2.519l.775.194.581.194,1.356.387h1.937l1.55.387.969-.387.581-.194h.969l.387.194v-1.162l1.356.775.969.194,1.55.194,2.906-.581,2.325-.194,3.1.581,3.1-.775,1.744-.387,4.649-.775h2.325l.969-.388L920,730.7l-.194-1.356L920,727.8l.387-1.356-.581-1.356v-1.356l.388-1.744.387-1.55.581-.969.194.387v.194l.775.387h.581l.388.194.387.775.387.388.194.194v.387l.194.388.581.387.387.194.194.388-.194.387.387.387.194.194h2.131l.969-.194,1.356-.194,1.937.194.194-.969.388-.775.194-.194.194-.194.387-.387,1.162-.387.581-.581h.387l.387-.194.581-.194.387-.581.581-.581v-.194l.387-.194.194-.194h.387l.387-.194h.194l.194-.387h.775l.387.581v.388l.194.387v.194l-.194.581-.194.194.194.581-.194.387v2.325l1.937-.581,1.937-.387,1.162-.387.581-.387-.194-.969-.194-1.744.581-.194.387-.194.969.194.775.194,2.131,1.356,2.131.388.969.775.775.775.388.581v.775l-1.162,2.325.194.194.387,1.162.194.194,1.356.387.581.194v.388l.388.387.387.387.194,1.55.194.387.387.194.581.581L959.52,734l.194.194.775.775.387,1.162.194.387.194.194.387.194-2.906,1.744-.969,1.162-.387,2.906.194,2.518v2.131l.387.775.581,1.162,3.681,4.456,1.162,1.162.969.775h.387l1.55.387h.969l1.162-.581,2.518-.775.775-1.162.581-.775,1.162.387.581.194v.388l-.194.194v.775l.194.194v.194l-.194.775.194.387,2.131.388,1.55.387.387,1.356v.581l.194.969-.581,1.162-.194.194v.387l-.388.387v1.162l-.387.969h-.194l-.194.194-.581,1.55-.194.387-.969,1.744-.581.775-.969,1.744-.969,1.162-.581,1.162-.581.194-.775.775-1.937,1.55-.581.775-.194,1.162-.387.581-.194.387H966.3l-.388.581-.969.969v1.162l.581.775.194-.194.775-.969,1.356-.969.388-.194h.387l1.162.775h.581l.387-.194,2.518-.194,1.356-.387,1.55-.581,1.55-.387.387.194-1.356,2.131Z" transform="translate(-589.45 -594.652)" fill="#6f9c76" stroke="#fff" stroke-linecap="round" stroke-linejoin="round" stroke-width="0.5"/>
</svg>
