<svg xmlns="http://www.w3.org/2000/svg" width="340.488" height="348.238" viewBox="0 0 340.488 348.238">
  <path id="CDHU" d="M751.668,58.737l.969-.387.387-.194,1.162-.581.388-.194,1.162-.969.387-.387.969-.387,2.131-.581.581-.387.775-.387.775-.194h.387l3.1-.387,2.712.387,1.356.387h.194l1.356.775.775.581,1.356,1.162,3.293,1.744,2.325.969.969.194,2.131.581h.194l1.162.581h.194l.969.194.581.194.775.775.581.387,1.937.581,1.162.387,1.162.194.775.194,1.937.775,1.55.969.387.387.387.194.194.581v.194l.387.969v.387l-.387.969-.194,1.55,1.356,1.937.388.194.194.387.194,1.356.581.775.775.581.775,1.162.388.387v.387l1.55.387,1.744.387.969,2.518.387.387.581.581,1.356,1.162.387,1.162,2.131,1.162h.194l.775-.194.969-.387v-.194l.969.194,1.55-.194.581-.194.775-.194h1.744l.387-.194.775.387.581.775.775,1.55.387,1.356v.194l-.194.581.194.775.194,1.356v1.162l.194.387.388.775,1.162.194h.775l1.937-.194.387-.194h1.55l.581.581.775,1.55v4.068l.194,1.55v.775l-1.937,2.325-.581,1.162.581.387.775.775v.775l.581,2.906.194.775.969,1.356.775.387.581-.387h.581l.969.775h.775l.969.581.581.387,1.937,1.162h2.712l1.55-.581,2.131-.969.775.387.969.387,1.55.387.775-.387.387.194.775-.194h.581l.581.194h.194l.969.775.194.194-.194.581.581,3.875v.969l.581.969,2.518,1.744.969.969.775.194,1.55-.194h.194l.969-.387.581-.194.775.194.969.581.387.775.194.581.969,2.325.969.969,1.55,1.55,1.55,1.937.387.387,1.162.581,1.162.194.775.387,1.55.194h1.55l.581-.194.969-.194,1.162-.194.581.194h.775l.387-.387H877.4l.388-.194h1.55l.388.194.194.194v.969l.581.775,1.744,1.55,2.518,1.356.194.194,2.131-.194,1.356-.387,1.162-.969,1.356-.387.775-.775.581-.969.581-1.744.969-1.937,1.162-.969.581-.194.775-.194h1.744l2.131-.194.775-.969.387-1.744.969-.775,1.356-.387,1.937-.194,1.744-.194,1.937-1.162.969-1.356,1.162-1.937v-2.518l.969-2.518.194-.581.194-.387.969-.581,1.356-.194h1.356l.581-.581,1.162-.969.969-.775,1.162.387h.387l.581.775.387.969.581.775.194.387v1.162l.388.775-.775.775v.775l.969.775,3.1-.194,1.937-.194,3.293,1.162,1.744.194h1.55l3.293-.387.775.194H939l.775-.194,1.744-.775.581.194.581.775.581.775.581.775.581.387.775.194.969.194h.775l.581.581v.581l-.581,1.162.581.387h1.356l1.55-.387,1.162.387.387.387.775,1.937L955.467,131l1.744,1.55,1.356.194,1.356-.387,1.162-.194,1.162-.581.194-1.162.969-.969.581-.775,1.356.194,1.162.194h.969l1.55-1.162,1.55-2.518,2.325-2.712,1.744-2.131,2.325-2.131,1.937-2.906,1.55-2.325,1.162-2.131.969-1.937-.581-2.712.775-2.712.194-.387,1.55-1.162,2.325-.194,1.55.775,1.744.194h2.325l1.162.581,5.231.387,1.937,1.162,1.937,1.356,3.681,3.1h3.681l1.55.194.194.387,1.744.969,1.162.969.969.387.388.194.194.194-1.162,3.293-1.162,1.744v1.55l-.387,4.068-.194,3.487.194,2.712.581.581.581.387h.969l.969.581.388.581,1.55,1.162,1.744-.387,1.356-.194h.775l.775.194.969.581,2.131,1.356.969,1.162,1.744,1.356v2.712l-.969,1.937.194,2.131.388.581,1.162.775,1.937.387.775.387,1.162,1.744.969,3.293,1.55,1.55,3.293,1.162,1.55.775,1.744.581,2.518.581h1.162l.194-.194.969,1.55-.581,3.293v2.325l1.162,1.162.387.194.388,2.518.194,1.55.969.969-.194.969-.388,1.162v.969h1.162l1.356-.194,1.55-1.55.387-.194.387-.387.581-.194.581-.194,1.744.969.194.194.387.775.969.194,1.55.194,1.55,1.162,1.55.581,1.937,1.356.581.387,2.131,2.518,1.162-.387h1.356l1.356,3.1.775.581,1.744.387,2.518-1.356,1.55-.387.969-.194,1.162.775,1.55,1.162,1.356,5.812.775,5.812-.581,1.162-.969,1.55.194.194.388.969v.775l-.388,1.162v1.356l-1.356,1.55-.775,1.162-4.456,1.356-3.487,1.937-.387-.194-1.744-.194-1.356,1.162-.581.194-.194.194h-.775l-.969-.387-.581.194-.775.194-.387.581v.581l.387,1.744v.969l-.194.194.969,2.325.969,1.937.775.969.581.581,1.356.581-.194.775v.387l-.194.194-.194.581-.387.194h-.194l-.388,1.162-.581.387h-.194l-.194-.194-1.162-.387-.581-.194-.194-.194-.775-.387.194,2.518-.194,2.131-.387,1.55-.775,1.55-.194.194h-.387l-.581.581-.388.969.194.194h.194l.387.775v.969l-.387.775v.775h.194l.775,1.744.387,1.356.194.194v.194l-.581,1.162-1.744,1.744-2.131,1.743-1.744,1.356-.969,1.162-.775.775-1.162,1.55-.969,1.744-1.356,1.744-.581.387-.775.387-3.293,1.744-1.356.775-1.162,1.162-1.55,1.356v.387l.387.775v.194l.581.581.775.194.194.387v.969l.775,1.55.194.775.194.775.194.775.387.194,2.325,1.937-1.55,1.744-1.937.194-1.937-.387h-1.55l-1.162.775-.387.581v.581l-.194.387.387.581.581-.387h.581l1.356.387h.387l.775-.194.969-.194.194.194h.387l1.55.581h.581v-.194l.194-.969.194-.194h.194l.775.775v2.906l.194,1.162.194.775-.775.775-2.325-.387-1.744.194-.969.581-.194.969,1.162,1.162,1.356.581.969,1.356-.581,2.906.388,2.518,1.162.775,1.162,2.906.194,3.487.194,2.518-.581.969-2.131.969.969.969-.775,1.55-.969.775-.969,1.55-.969.969-.387.387-.194.387h-.387v.775l-.775,1.937-.387,4.649-.388,3.1-.194,2.712-.387-.194h-.581l-.775.581-.775-.194-1.744.581h-.969l-.194-.194-.581-.581h-.387v.194l-.194.194-.194.387-.387,1.55v.387l-.388.969-.969,1.356-.194.969-.387,1.937-1.162.581-1.356.194v-.194l-.194-.194-.194.387-.581.194-.194.194.194.387-.194.387-.194.194v.775l-.194.194-.775.194-.194-.387h-.194v.387l-.387.194h-.194v-.387l-.581-.775-.581-1.162-.387.194-.194.387v.387l-.775.775-.581.194-.387,1.162-.194.969-.194.387-.194.387.194.581-.387.581v.194l-.194.581v.581l-.194.387-.194.194-.775-.387-.387.194h-.775l-.581.194-.388-.194-.387.969h-.194l-.194-.581v-.194l-1.937,3.293h.194l.775-.194.387.194.387.194.194.581.194.194-.388,1.356.194.194v.194l.194-.194h.581v.194l.388.387.581.387h.581l.194-.194.194.194.194.194V341l-.387.194-.194.775.388,1.356-.194.581-.194.969h-.194l-.581-.581-.194-.387-.194-.194h-.194l-.194-.194-.194-.194-.194-.194-.581-.387h-.387l-1.162.194-.388-.194-.775.194-.387-.387-.194-.194-1.162-.194-1.162-.581-.581-.581-.581-.387-.775-1.162-.194-.581-.194-.387-.775-.581-.194-.775-.194-.387-.581-.775-1.55-1.356-.387-.194-.194-.194h-.388l-.194-.194-1.55-1.356-.775-.387-.581-.194h-.775l-.387-.194h-.387l-.581.387-.387-.194h-.194l-.194.194h-.194l-.581-.194-.194.194-.581.387-2.906.194-.969-.194-.194-1.162v-.775l.969-.387-.775-2.906-.581-2.906v-.581l1.744.387,1.744.775,1.356-.775.581-.581-.387-1.55-1.162-.775-.581-.387-.194-.969.581-.775-.194-.775-.387-1.937-.194-.969.387-.969v-.194l.388-.775.194-.387v-1.937l.194-.581-.969-3.1-.581-1.356-.194-1.55-.387-.194h-1.356l-1.162.387H992.47l-.581-.581H991.5l-.581.194h-1.356l-.581.194-.969.581-.387.194-.969.194h-.969l-.969.581-.387.194-1.356.387v.775l-2.325.581-.775,1.55L979.3,310h-.581l-.581-.194-.387.194-.387.581-.581.387H976.2l-1.55-.194-.388.387-.581.194-.969.194h-1.162l-.194.194h-.387l-.387-.194-.969.387h-.581l-.387-.387-.387-.194h-.194l-.194.194h-.388l-.387-.194-.387-.387-.387-.969-1.356-.775h-.969l-.388-2.131-.194-.387-.387-.194-.194-.969-.387-.969-1.937-2.906-.581-1.744-1.744.581-.581.775.194,3.875v1.55l-.194,1.356-.387.969-.775.775-.194.581-.775,1.744-.387.969-.969-.969-1.55-3.1-1.356-.969-.581-.194-.775.194-.775.969-1.55-.581-.775.775.969,1.55-1.356-.387-.775-.581h-.581l-1.356.775-1.162.581.387,1.55-.194.387-.969.581v-.387l-.388-.775-.387-.194-.387-.969h-.194l-.387.387-.581.194-.581.387v.194h-.775l-.775-1.162-.775-.387-.387-.581-.194.581v.581l.387.387v.387l.194.387.388.775.775.775v1.356l.969.775.194.775-.194.775v.194l.194.194-.194.387-.387.387v.194l-.387.969-.194.194-.581,2.518-.387.194.194.581-.969,1.356-1.937-.387-2.325-.581-6.005-.775-1.356-.581-1.356-.194-.775-.194-1.162-.581-.581-.194-1.744.581h-.581l-.581-.581H917.3l-1.162.387-.775-.775-.775-.581-1.162-.581-.775-.775-.581-.194v.387l.194.581.194.387.581.581.194.775,1.356.969v.194l.387.969h.775l.194.194v.387l.194.775.388.387.194.194.387,1.356.581,1.356.194.194.387.387v.581l.194.387-.581.969.387.387v.194l-.194.387-.581.775-.388.387-1.162-1.356-1.162-.775h-.969l-.969.194-.387-.775-.581-.194h-.194l-.775-.387v-.387l-.194-.194-.388-.194-.581-.387h-.388l-.775-.194-1.744-.581-.194-.194-.387-.194h-.194l-.387.194h-.387l-.581-1.743-.194-.194-.194-.387-.581.194-.387-.581-.194.194h-.387l-.387-1.55L902,323.56v-.775l-.194-.387h-.194l-.387-.775-.194-.387-.194-1.356-.581-.581-2.325.969-3.293,1.55-3.875,1.937-1.55.775-.581.194-1.356.775-1.356.581-1.55.775H883.4l-1.744-4.068-2.906-2.325-2.325-1.356h-.775l.194,1.937-.387,7.943v1.55l-.194,7.168-.194,2.518v1.744l-.194,3.487v3.293l-.775,12.98-.775,1.743-2.325.969h-.194l-.969.194-.969.775-.969.581-3.681,2.906-.194.969.387.775-.194,3.681.775,2.518.969,1.162.581.775-.388.387-.194.194-.969-.387-1.744-.387-2.325-.969-3.875-1.162-6.587-2.325-1.937-.775-1.162-.387-2.325-.387h-1.937l-.387.194-.969.387h-.194l-.387.194V374.7l.194.194.194.194.194.194-.194.194-.194.194v.194h-.387l-.387-.969-.387-.775-.969-1.937-.969-1.55-.775-1.55-.775.581-.581.775h-.775l-.969-1.162-1.744-3.293-1.744-.194-1.356.194-1.937-.194h-.969l-.775-.775-.581-.775-.387-.581-1.356-.387h-.969l-1.55.775-.581.194-.194.581-1.744,2.325-1.162.581-2.906-.581-2.131-.581-1.937-.969-1.937-1.356-.581.194-1.162,1.55-.969,2.518-.194,2.518.581,1.356,1.744,2.712.387.581,1.162,1.55,4.262,4.649-.581,6.587.581,1.162.387-.194.969-.969.775-.581h1.162l1.55-.387.581.194.581-.194.775-1.356.969.194,1.162.194.969-.194.581-.387.581.387.969,1.55,1.744,2.518,1.356,1.744.388,1.743-.581,1.937-.387.194v.581l-.194.581-.581.581h-1.55l-1.744.387-.387.581-.194.387.194.387.775.194.775.194.387,1.162v.387l-1.937-.581-3.293-.387-2.325-.387-1.55-.581-.969-.969-1.162-.387-1.356.387-1.162,1.162-.387.775h-.969l-2.325-.775-.194-1.162.194-.775.194-1.356.194-1.356-.581-1.55-.581-.775-2.131-1.55h-.387l-.581-.194-.775-.387-.194-.194H803.2l-.387-.194H801.65l-.775-.387-1.356.194-1.356.581-1.937.387-.581.194v-.194l-.194-.194-.194-.387-.969-.775-1.162-.194-1.937.775-1.356-.194-.775.194-.387-.387-.194-.194v-.775l.194-.387-.581-.387-1.162-.387h-.194l-.581.194-1.356.194H784.6l-.387.194-.194.387-.194.194-.775.194H781.7l-.194-.194-.387-.194-.388-.194-.775-.194-3.293-.387-.387-.194-.969-.194-1.55-.387-1.356-.387.194-.194.387-.387h.388v-.194h.775l.194-.387v-.387l-.194-.969h.387l.194.581h.581l.387-.194h.194l.194-.194.581-.969.387-.194.194.387v.775l.194.194h.387l.775.387h.194l.387-.194h.775l.775-.775-.194-.194v-.194l-.194-.387.194-.387v-.775l.194-.194.194-.775v-1.162l.969-.775v-.194l-.194-.387.194-.387v-.581l.387-.194.194.194.194-.194.194-.775v-.969l-.194-.194v-.387l.581-.969h.388v-.581h.194v-.194l.581-.775.775-.581.581-.969.581-.581,1.162.194.194-.194h.194l.194-.387.194-.194.194.194.194-.387v-.194l-.194-.775v-.387l-.581-.387-.194-.387-.194-.775-.388-.775-.194-.775v-.387l.194-.581.388-.581.581-.194v-.387l-1.356-1.55,1.356.194h.775l.969.194h.969l.581-.194.775-.969-.194-.775-.581-.775-.775-.775-.969-1.55v-1.162l-.387-.775-1.162-.969-.775-.387v-.969l.194-.581v-.969l-.194-.581-.969-.775-1.162-.775-.387-.194-.194-1.356-1.162-.775-1.937,1.356-.581-.581-1.356-1.162-.581-.581h-1.162v.775l-.194.194-.387.581-.387.194-1.162.387-.194.194-.194.387v.969l.194.194.387.194h.194l.194.387v.194l.194.387.194.775.581.387.194.387-.581.387v.387l.194.581-.194.387-1.356-.194-.387.194-.194.387.194.775v.581l-.581.581.194.194-.387.775h-.194l-.387.969H772.2l-.581.581-.581.194-.775-.194h-.194l-.775.194H769.1l-.581.194-.387.387h-.581l-.194-.387-.387-.387-2.325-.969h-.387l-.194.194-.775.194h-.581l-1.356.387-.194-.194L760,357.849l-.581-.581-.581-.194-.388-1.55.194-.969v-.387l-.194-.194-.387-.194v-.194l-.194-.194-.194-.387v-.581l.387-.387.194-.387.194-.775v-1.937l.194-.387.581-.581v-.775l.387-1.55v-.387l.387-.969-.194-.387-.194-.387-.194-.969v-3.1l.194-.581,1.55-1.356h.194l.775.194v-.194h.194l.194-.969.387-.387.194-.775.775.194.194-.194.194-.581h.194l.194.194.387-.194.581-1.744V331.89l.387-.581v-1.55l.194-.194.581-.194.194-.581.581-1.162.387-.581v-.194l1.162-1.937.387-1.356h.194l.194-.194h.194l.194-.194.387.194h.194l.581-2.131.387-1.356.194-1.55v-.775l-.194-.775-.581-.387h-.387l-.969-.969-1.356-1.356v-.387l-.775-.969-.581-.194.581-.387.581-.775h.581l.194.194h.194v.387h.194l.194-.194.194-1.937v-.387l-.581-1.356-.775-2.131-.387-.581v-5.424l-.387-1.743-.775-1.162-.581.581h-1.55l-.194-.194-.775.581-.194-.194h-.387l-1.55.194h-.969l-1.162.194h-1.162l-.969-.387-.775.969-.581,1.743-.387.194h-.775l-.387.194-.581-.194-.581.194h-.387l-.387-.387-.775.194-1.55-.387-.387.194h-1.162l-.775.581h-.194l-.581.194h-.581l-1.162-.581-.194-.194-.775.194.969-1.356.194-.969.387-.969v-1.744l.969-1.162,1.162-.969.194-.581-.194-.775.194-1.162.194-.194h.387l.387-.387.969-.194.581-.194.194-.387-.581-1.744v-.581l.387-.194.775-.775.581-.969.194-.194.775-.194.775.775.775-.581-.194-.581-.194-.387v-.775l.969-.387.775.194h.969l.775.194h.775l1.55-1.356.969-.969.775-.969.775-.775.775-.581,1.162-2.131.775-1.162v-.194l.194-.969.387-.775.194-1.744-.388-.775.194-.775.194-1.55.387-1.356.194-.581.581-.775.194.387.775.581.387.194.775.194.581.969h.581v-.194l.581.387v.969l.387.194h1.162l1.55.969h.194l.581.581.775.194.581.387.775.387.387.581.581.969.387.581.775.581.194.581,1.162,1.937,1.744.969,1.55,1.55.581.581,1.55.387,1.55.775,1.162.387h.969l.969-1.162.969-.194,1.744-.775,1.162-.581.387-.194.969.387.969.194,1.162-1.937,1.356-.581h1.356l.194-.194V276.1l-.581-.581v-.775h1.744v-1.356l.388-.969.581-.581.388-.194h.387l1.937,1.162.775.581,1.356.581,1.162.387.969.194.387-.775-.387-1.356-.194-1.162v-.581l.775-.387,1.162.194,1.356-.194.581-.194.969-1.162.388-.775v-.387l.194-.387v-1.55l-2.131-1.356-3.1-.775-1.55-.581-.969-.387-1.744-.775-.581-.387.194-.581v-.581l-.775-1.162v-.581l.775-.194h1.356v.194l.969.581,2.131-.775,1.356-.387,1.55-.387,2.325-.775,1.356-.387,1.55-3.874,1.356-1.55v-.775l-1.162-.194-2.712.775-1.356-.387.969-2.131-.388-1.356-.775-2.325.194-1.356.775-1.356.387-1.356-.581-5.618.581-1.937.387-.969-.387-1.356-.387-.969-1.162.387-.775-.581-.581-.194-.194-.387-.194-.194-.387.194h-.387l-.388.775-.387-.194-.969-.387-.581-.775-.194.194-.194,1.162-.581.775-1.55.387-.581-.581-.194.387-.194.387-.194-.194-.387-.581h-.194l-.775.775-.775.194-.194-.194-.387-.775-.388-.194h-1.162l-.581.581h-.581l-.194.194-.194.969-.194-.194-.387-.194-.194.581h-.387l-.387-.194v-1.55l-.194-.387-.194-.387h-.194l-.194-.194H797l-.581.387.581.387v.387l-.194.581-.194.194h-.969l-.387.194-.581.194-.969-.194-.387.194v.194l.387,1.55v.581l-.387.387h-.194l-.194.194h-.581l-.581-.581-.194-.581.194-.581-.194-.387-.775.194-.969.581v.581l.775.387.194.581-.194.194h-.387l-.387-.194h-.194l-.387.194-.387-.581-.775.387-.387.194-.194.969-.581.581h-.969l-.775.581v.194l-.194-.194-.194-.775V236l-.194-.387h-.387l-.387.194-.581.387-.387.775h-.194l-.194-.194h-.387l-.581-2.325-.194-.969-.387-.775-.387-.581-.775-.387-1.55.387h-.969l-.388-1.743.969-2.131,1.744-1.162,1.162-3.681v-2.518l-.387-1.162.775-.969.387-.387.387-1.162v-1.162l1.356-.581.581-1.937,1.744-2.325,1.162-1.55,1.55-1.744.581-.775-.388-2.518v-1.55l-.194-2.906-.387-.581-1.55-.969-1.356-.194-.388-.387-.581-.775,1.162-3.875V192.02l.775-1.744-.388-.775v-1.55h-.387l-.387-2.325-.581-1.162-.194-.387-.388-.194-.581-1.356-.581-.581-.775-1.356-.775-.775-.969-.775-2.131-.387.194-1.162.387-.387,1.55-.581v-.194l-.581-1.55-.387-.581L778.79,174l-.581-.775-.194-.775v-1.162l-.194-.387-.194-.387-1.162-.775-.581-.387-.581-.969-.194-1.744v-.775l.387-.581v-.969l-.387-.969h-.194l-.194-.775.387-.581-.387-.969-.194-.387h-.969l-.194-.194h-.387l-.387-.581-.581-1.744.387-1.356.388-1.162v-.775l.194-.581v-.194l.194-.387h.194l.194-.194h.194l.194-.194.194-.387.194-.775v-.194l-.194-.581,1.356-4.649-.194-.969v-.194l.194-.581.387-.387h.775v-2.131l-.194-1.162v-.775l.194-2.712v-1.162l.581-1.744.581-1.356,1.162-1.937v-1.744l-.194-1.937.194-1.162.581-.775,1.744-2.325.194-.387.194-.387-.194-.194-.194-.194-.969-.581h-.775l-.387.194-.388.194-.775.387-3.487.387-.775.581-1.356.775-.581-.194-.775-.387-.581-.194h-.775l-.969-.387-.387-.387-.581-.581-.581-.194-.581-.387-1.55-.194h-.194l-2.131-.775-1.162.194-.387-.387-.194-.194-1.356-.969-1.55-.969v.194l-.194.194h-.387l-.194.194-1.356-.775h-.969l-.969.387h-.581l-.581-.194-.194-.194-.969.387-.969-.387.194-.194.775-2.325v-.969l.194-.387.775-.969-.194-.581-.388-.387-.194-.194v-.194l-.387-.775.194-.581.387-.387.194-.194.387-.581v-1.937l-.194-.387-.194-.581.387-.581,1.162-.775.969-1.55v-.194l.969-.581.194-.194.775-.969.387-.387-.194-.387-.581-1.356-.388-.581-.387-.581-.581-.969-1.55-1.744L752.832,94l-.387-1.162.194-.194.387-.194h1.162l.387.194h.775l1.937-.969h.387l.775-1.55.194-.387.194-1.937-.775-.581-1.162-.387-1.162-.387-1.356-.969-.969-1.937-.194-1.162V80.241l-.387-1.55-.969-.969-1.356-1.55-.581-.969,1.356-1.162V73.46h-.969l-.775-.387-.194-.194v-.194l-.969-.387V72.1l-.387-.194-.194-1.356.387-.775.388-.581.387-.387v-.387l-.387-.969V65.324l.775-.581,1.937-.387h1.356l.581-.387.194-2.325-.581-.969-.581-.969-.581-.969Z" transform="translate(-744.25 -53.45)" fill="#1876d2" stroke="#fff" stroke-linecap="round" stroke-linejoin="round" stroke-width="0.5"/>
</svg>
