<svg xmlns="http://www.w3.org/2000/svg" width="356.177" height="291.67" viewBox="0 0 356.177 291.67">
  <path id="CDIT" d="M1005.113,388.817h-.969l-.581.194-.581.194-.581.581-.194.194.194.581-.194.194-.194.194-.387-.387h-.387l-.581.775-.194.194-.581.387-.581.387h-.387l-.775-.581h-.387v-.581l.194-.194-.969-.969v-.969l-.387-.969-.581-.194-.581-.775-.194-.194-.387-.775.194-2.131-.194-.194-.581.194-.387-.194-.387-.581v-.581l.194-.969-.194-.969.194-.581v-1.743l-.194-.387-.581.775-.194.581-.775-.194h-.581l-.775.387-.387.387-.387.194-.388.581-.387.581-.387.775h-.969l-.387.387-.581-.194h-.581l-1.744-.194-.581.194-.387.194-.194.387-.581.387.194.969-.387,1.162h-.581l-.775.775-1.162.194h-.775l-.775-.387-.775-.775L975.86,383.2l-.581-.775-.388-.194-.969.581h-.775l-.387.581-.194.775-.581.387-.194.775.194.969v.581l-.387.387h-.387l-.581-.194-.387-.387-.775-.194h-1.356l-1.162-.969-.581-.194h-.581l-1.162.387-.969.581-.775.194H962.3l-.194.581.194.775.581.775v2.325l.387.581v.387l.388,1.356-1.55-.194h-.969l-1.356-.969-.388-1.937-.387-1.937-.581-.194-.387-.775-1.744-.581H956.1l-.387.581-.387.581-.194.775-.194.387-.581.194-.581.194-.387.194-.581.387-.194.581-.194.194h-.581l-.387.387h-.581l-.194-.581-.775-.194-.194-.194-.387-.387-.387-.194-.775.581.194.775-.194.969v1.356l-.387,1.162v.969l.581.969-.194.581-.775,2.325-.581.581-.581.194v.194l-.194.194.194.194.194.388,1.162.969,1.356-.387,1.162,1.356.388.969,1.55.581,1.937,1.356,3.487.194.387,2.131-1.55.969-2.131.581-.969.194-1.55.388h-1.356l-.969.581-.581-.387-.969-.969v-.194l.194-.194v-.194l-.775.194-.969-.581-.775-.194h-.581l-.387-.194-.194-.194v-.387l.388-.775v-.387l.775-.775v-.194l-.387-.388V404.9l-.581-.775-.387-.387.387-.969-.387-.194-1.55.775-.387.194-.775,1.55v1.162l-.581.969-.194.194-.194.775-.387.775v.388l.581.969.194.194.194.581v.388l-.194.387h-.388l-.194-.194-.581-.775-.581-.387-.194-.194h-.388l-.387-.388-.387-.775-.194-.387-2.906.194v-.387l-.387-.388h-.387l-.775-.775-.194-.388-.581-.194-.194-.387H931.3l-.194-.388-.194-.581-.581.581-.194-.581-.775-.194-.194-.387.194-.387v-.388l-.194-.581h-.581l-2.131,1.356h-.581l-.387.581-.581.387-.581.194-.581-.387-.194.969-.387.387-1.162.581-.969.194-.194.194-.194.969-.387.581-.387.387-1.55,1.55-.581.194-.387.194h-.581l-1.162.194-.387.969-.581.969-1.356.194L911.544,414l-.969-.388-1.162-.775-.775-.194-.387-.194-.388-.194-1.55-.388-1.356-.194-1.162.194h-1.162l-1.356.194-1.937.387h-2.518l-.775.387h-3.875l-.775.194h-3.1l-.969.194h-3.293l-1.162-.969-.387.969H882.1l-.581.581v.581l-.775.387-.194.581-.388.387h-.387l-.969-.194h-.581l-.194.581-.387.194-1.162-.194-1.162.969-.194.194h-.387l-.388.387-1.356.388v-.194l.387-.775-.387-.194.194-.775-.194-.388h-1.937l-.194.194h-.194l-.194-.194h-.387l-.194.194-.388.194-.387.387-.387.194-.194-.194-.387-.387-.387-.194v-.194l.194-.387-.194-.387.387-.194-.194-.387.581-.775-.775-.581-.969-.388-.387-.775h-.581v-.581l-1.55-1.356-.581-.775-.581-.581V407.8l-.388.194-.775-.581h-.969l-.581-.969-.775-.775h-.581l-.387-.388h-.581l-.194-.581H857.3l-.581.194v-.775l-.194-.387v-.388l-1.55-.775H854.2l-.581-.775-.581-.194h-2.131l-4.068.581h-.969l-.969.388h-1.937l-4.262.194h-2.131l-1.744.194-1.356.194-.775.388-1.162.194h-.775l-.775-.194-1.356-.194-.388.194V404.7h-.581l-.581.581-.581.388-.387.194-.194.194v.969l-1.55.581h-.387l-.194-.194-.194-.194-.775-1.162-2.131-2.906-1.937-2.325-2.518-3.293-.387-.581.775-.775.388-.581-.775-.194-.194-1.162v-1.162l1.744-5.231.775-1.744,2.131-4.262.775-.969.581-.969-.581.194h-.581l-.194-.194-.194-.581-.194-.194h-.775l-.387.581-.387.387-.775.387-.387.194-.194.387h-.581l-1.356-.194-.581-.387-.194-.387-.194-.194-.194.194-.387.387-.581.194-.775-.581-.581-.387-.581.387-.775-1.356,4.068-5.424.581-1.162.775-1.937-.194-.387-.775-.387h-1.356l-.387.194h-.194l-.581-.194-.388-.194-.969-.194h-.775l-.581.194-.581.194-.194.387v.194l-.775.194-.194-.194-.194-.194-.387-.387h-.194l-.581-.387-.194-.194h-.194l-.387-.775-.194-.194h-1.55l-.194.194h-.969l-.775-.387H801.9l-.969.581-.194-.387-.194-.194-.969-.775h-.387l-.581.581h-.581v-.194l-.194-2.131.194-.581-.387-.969.194-1.162,2.518-2.131.387-.387-1.356-4.262v-1.55l2.131-.775.387-.775-.969-.969-.387-.387-.387-1.162,1.162-2.325.581-1.937-.775-.581-.387.194h-.194l-.387-.194-.775-.387-.388-.775h-1.162l-.387-.194-.194-.194-.581-.581-.969-.194-.387-.194-.969-1.162-1.744-.194h-.581l-.969.581h-1.356l-.388.387h-1.162l-.194-.194h-.387v-.194h-.194l-.194-.387-.194-.969-.387-.194H786.4l-.194-.194-.194.194-.194.387-.775,1.162v.387h-2.131l-.194.194v-.194h-.194l-.194-.194v-1.162l-.194-.387-.194-.194-.194-.194-.775-.969-1.162-.581-.775-.775h-.194l-1.162-1.937-.194-.387-.194-.194h-.969l-.194-.194h-.387v-.194l-.194-.194-.194-.387-.194-.581v-.194l-.194-.194-.194-.194v-.194l-.387-.387-.194-.387v-.387l-.194-.581v-.387l-.194-1.162.194-.775v-.387l-.194-.387-.775-.581-.388-.581-.387-.194-.581-1.55-.387-.775-.194-.194V322.95l-.194-.387.581-.194,1.937-.387,1.356-.581,1.356-.194.775.387h1.162l.387.194h.194l.194.194.775.387.581.194h.387l2.131,1.55.581.775.581,1.55-.194,1.356-.194,1.356-.194.775.194,1.162,2.325.775h.969l.388-.775,1.162-1.162,1.356-.387,1.162.387.969.969,1.55.581,2.325.387,3.293.387,1.937.581v-.387l-.387-1.162-.775-.194-.775-.194-.194-.387.194-.387.387-.581,1.744-.387h1.55l.581-.581.194-.581v-.581l.387-.194.581-1.937-.387-1.744-1.356-1.743-1.744-2.518-.969-1.55-.581-.387-.581.387-.969.194-1.162-.194-.969-.194-.775,1.356-.581.194-.581-.194-1.55.387h-1.162l-.775.581-.969.969-.387.194-.581-1.162.581-6.587-4.262-4.649-1.162-1.55-.387-.581-1.744-2.712-.581-1.356.194-2.518.969-2.518,1.162-1.55.581-.194,1.937,1.356,1.937.969,2.131.581,2.906.581,1.162-.581,1.744-2.325.194-.581.581-.194,1.55-.775h.969l1.356.387.387.581.581.775.775.775h.969l1.937.194,1.356-.194,1.744.194,1.744,3.293.969,1.162h.775l.581-.775.775-.581.775,1.55.969,1.55.969,1.937.387.775.388.969h.387v-.194l.194-.194.194-.194-.194-.194-.194-.194-.194-.194V304.74l.387-.194h.194l.969-.387.387-.194H820.3l2.325.387,1.162.387,1.937.775,6.587,2.325L836.187,309l2.325.969,1.744.387.969.387.194-.194.387-.387-.581-.775-.969-1.162-.775-2.518.194-3.681-.387-.775.194-.969,3.681-2.906.969-.581.969-.775.969-.194h.194l2.325-.969.775-1.744.775-12.98v-3.293l.194-3.487v-1.743l.194-2.518.194-7.168v-1.55l.387-7.943-.194-1.937h.775l2.325,1.356,2.906,2.325,1.744,4.068h.969l1.55-.775,1.356-.581,1.356-.775.581-.194,1.55-.775,3.875-1.937,3.293-1.55,2.325-.969.581.581.194,1.356.194.387.388.775h.194l.194.387v.775l.387.194.387,1.55h.387l.194-.194.387.581.581-.194.194.387.194.194.581,1.744h.387l.388-.194h.194l.387.194.194.194,1.744.581.775.194h.387l.581.387.387.194.194.194v.387l.775.387h.194l.581.194.388.775.969-.194h.969l1.162.775,1.162,1.356.387-.387.581-.775.194-.387V262.9l-.387-.387.581-.969-.194-.387v-.581l-.387-.387-.194-.194-.581-1.356-.387-1.356-.194-.194-.387-.387-.194-.775v-.387l-.194-.194h-.775l-.387-.969v-.194l-1.356-.969-.194-.775-.581-.581-.194-.387-.194-.581V250.5l.581.194.775.775,1.162.581.775.581.775.775,1.162-.387h.194l.581.581h.581l1.744-.581.581.194,1.162.581.775.194,1.356.194,1.356.581,6.005.775,2.325.581,1.937.387.969-1.356-.194-.581.388-.194.581-2.518.194-.194.387-.969V250.5l.387-.387.194-.387-.194-.194v-.194l.194-.775-.194-.775-.969-.775v-1.356l-.775-.775-.387-.775-.194-.387v-.387l-.387-.387v-.581l.194-.581.387.581.775.387.775,1.162h.775v-.194l.581-.387.581-.194.387-.387h.194l.388.969.387.194.387.775v.387l.969-.581.194-.387-.388-1.55,1.162-.581,1.356-.775h.581l.775.581,1.356.387-.969-1.55.775-.775,1.55.581.775-.969.775-.194.581.194,1.356.969,1.55,3.1.969.969.388-.969.775-1.743.194-.581.775-.775.387-.969.194-1.356v-1.55l-.194-3.875.581-.775,1.744-.581.581,1.744,1.937,2.906.387.969.194.969.387.194.194.387.387,2.131h.969l1.356.775.387.969.388.387.387.194h.387l.194-.194h.194l.387.194.388.387h.581l.969-.387.388.194h.387l.194-.194h1.162l.969-.194.581-.194.387-.387,1.55.194h.581l.581-.387.388-.581.387-.194.581.194h.581l.581-.194.775-1.55,2.325-.581v-.775l1.356-.387.387-.194.969-.581h.969l.969-.194.387-.194.969-.581.581-.194h1.356l.581-.194h.387l.581.581h1.744l1.162-.387h1.356l.387.194.194,1.55.581,1.356.969,3.1-.194.581v1.937l-.194.387-.387.775v.194l-.387.969.194.969.387,1.937.194.775-.581.775.194.969.581.387,1.162.775.387,1.55-.581.581-1.356.775-1.744-.775-1.744-.387v.581l.581,2.906.775,2.906-.969.387v.775l.194,1.162.969.194,2.906-.194.581-.387.194-.194.581.194h.194l.194-.194h.194l.388.194.581-.387h.388l.387.194h.775l.581.194.775.387,1.55,1.356.194.194h.387l.194.194.387.194,1.55,1.356.581.775.194.387.194.775.775.581.194.387.194.581.775,1.162.581.387.581.581,1.162.581,1.162.194.194.194.387.387.775-.194.387.194,1.162-.194h.387l.581.387.194.194.194.194.194.194h.194l.194.194.194.387.581.581h.194l.194-.969.194-.581-.387-1.356.194-.775.388-.194v-.969l-.194-.194-.194-.194-.194.194H996.2l-.581-.387-.387-.387v-.194h-.581l-.194.194v-.194l-.194-.194.387-1.356-.194-.194-.194-.581-.387-.194-.388-.194-.775.194h-.194l1.937-3.293v.194l.194.581h.194l.387-.969.387.194.581-.194h.775l.387-.194.775.387.194-.194.194-.387v-.581l.194-.581v-.194l.387-.581-.194-.581.194-.387.194-.387.194-.969.387-1.162.581-.194.775-.775v-.387l.194-.387.387-.194.581,1.162.581.775v.387h.194l.388-.194v-.387h.194l.194.387.775-.194.194-.194v-.775l.194-.194.194-.387-.194-.387.194-.194.581-.194.194-.387.194.194v.194l1.356-.194,1.162-.581.387-1.937.194-.969.969-1.356.387-.969v-.387l.387-1.55.194-.387.194-.194V247.4h.387l.581.581.194.194h.969l1.744-.581.775.194.775-.581h.581l.387.194.194-2.712.387-3.1.387-4.649.775-1.937v-.775h.387l.194-.387.388-.387.969-.969.969-1.55.969-.775.775-1.55-.969-.969,2.131-.969.581-.969-.194-2.518-.194-3.487-1.162-2.906-1.162-.775-.387-2.518.581-2.906-.969-1.356-1.356-.581-1.162-1.162.194-.969.969-.581,1.744-.194,2.325.387.775-.775-.194-.775-.194-1.162v-2.906l-.775-.775h-.194l-.194.194-.194.969v.194h-.581l-1.55-.581h-.387l-.194-.194-.969.194-.775.194h-.387l-1.356-.387h-.581l-.581.387-.387-.581.194-.387v-.581l.387-.581,1.162-.775h1.55l1.937.387,1.937-.194,1.55-1.744-2.325-1.937-.387-.194-.194-.775-.194-.775-.194-.775-.775-1.55v-.969l-.194-.387-.775-.194-.581-.581v-.194l-.388-.775v-.387l1.55-1.356,1.162-1.162,1.356-.775,3.293-1.744.775-.387.581-.387,1.356-1.743.969-1.744,1.162-1.55.775-.775.969-1.162,1.744-1.356,2.131-1.744,1.744-1.743.581-1.162v-.194l-.194-.194-.387-1.356-.775-1.744h-.194v-.775l.387-.775v-.969l-.387-.775h-.194l-.194-.194.387-.969.581-.581h.387l.194-.194.775-1.55.387-1.55.194-2.131-.194-2.518.775.387.194.194.581.194,1.162.387.194.194h.194l.581-.387.387-1.162h.194l.388-.194.194-.581.194-.194v-.387l.194-.775-1.356-.581-.581-.581-.775-.969-.969-1.937-.969-2.325.194-.194v-.969l-.387-1.744V139.3l.387-.581.775-.194.581-.194.969.387h.775l.194-.194.581-.194,1.356-1.162,1.743.194.388.194,3.487-1.937,4.456-1.356,1.55-.194.387.194.969.194,1.744-.194.387-.194,2.519-.969.775-.581,1.162-.775,1.356-.969.775-.387h.581l1.162.194.387.194.581.387,1.162.387.775.194h.969l.581-.194.581-.581.387-.775.969-2.518v-.194l.387-.387.969-.194.581.387.581,1.162.194.775v2.518l.581,1.744.581,1.162,2.325.969.194.194,2.906.775.388.387v1.744l-.969,2.131-.387.969v1.55l.581.775h.194v.194l.581.387h.581l.581-.387,1.744-1.162v-.194l.387-.194,1.162-.194h.387l.969.581.387.194.387,1.356.194,2.325.194,5.037-.969,1.162-.775.775v.581h.194v.387h-.194v.194h-.194l-.194.194h-.194v.581h-.387l-.194.194-.387.194-.581.969-.387.387-.194.581-.194.387v1.356l-.194.387-.194.387-.581,1.356-.387,1.162h-.194l-2.519.581-.775.969-.387.775-2.325,7.749-2.325,9.493-.194.194-.969,1.162-.387.581.581,1.356.969,1.356.581.387.194.387.775.194.775.581h.775l.387.387.969,1.744,1.743,1.55.387,1.162.775,1.937v.194l.194.581.194.581.194.194.387.581.387.387.194.194,1.162,1.356.194,1.162-.194.387-.581,3.1-.194.969-.969,1.937-.775.969-.775.969-.387.775-.775.387-.969,1.162-.388.775-.194.581-.581,1.356v.387l-1.162,2.325-.387.969-2.519,7.168-1.55,1.356v1.55l.194,1.162v1.744l.194,3.1-.194,1.162-.194.387-.775,1.356v.194l-.194.775.194.775v.775l.581,1.356.194.194h.387l.775-.387h.969l2.131.969,2.906.387.775,1.356,1.55,1.937.969,2.131.581,1.162v.194l.581.581.387.194,3.681.581.387.194.387-.194.194-.194.387-1.162-.194-2.131.581-1.55.194-.581,1.356-.775,2.131-.194.969.775h.194l.581.387.775.581.387.194.194.194.387.194h.387l.775-.194,1.937,1.937.775,1.55.387.581.194.387.194.775v.775h.194V253.6h.194v.194h.194l1.162.581,1.162.969,1.744,1.356h.387l.775-1.55h.387l1.162.194h.775l1.356-.581.581-.387.775-.194h.775v.775l.194,5.618.194.194.775.581,1.743,1.162h.194l.194.194h.194v.194h.387l.194.194h.194l.194.194h.194v.194h.387l.194.194.194.194.194.194.194.194.194.194h.194l.194.194.194.194.194.194h.194v.194h.387l.194.387.387.194,1.744,1.162v3.487l-1.162,2.131-2.906,4.649-1.356,2.712-6.393,7.555-1.356,1.356-.969.969-.581.775-3.681,4.649-2.131,2.712-3.1,4.068-1.162,1.743-.775.775-2.518,1.937-2.518,1.937-1.937,1.356-4.843,4.068-1.356.969-2.712,2.131-.775.581-2.518,2.325h-.581l-1.162.969-9.1,7.168-.194.194-3.875,4.456-2.325,3.1-.969,1.937-1.55,3.1-.387.775-1.937,3.487-1.937,3.1-.581,1.162-.194.194-.775,1.55-2.906,3.487h-.775l-2.325-.387h-.387l-.387.194-.969.581-.969.194h-.387l-.775.387h-.194l-.775.387-.387-.194h-.387l-.581-.194-.387.194-.581.194-.388.194h-.775l-.194-.194-.969-.387-.969-.194-.387.194-.387.387v.194l-.581.581-.775.775-.387,1.937-.194.387h-.387l-.194-.194-.387-.387h-.194l-.387.387-.194.194-.581.194-.194.194-.581.581-.969.581-.387.581-1.356.775-1.162,2.712-.387.194-.581.194h-.194l-.194.581-.194,1.744v.194l-.194.775-.387.775-.388,1.55-.194.581-.194.194H1027l-.194.581.194.387v.387l.194.194-.194.387v.194l-.775.581-.194.194-.194.387v.194h-.194l-.194.194-.194.194-.387.194-.387.194-.194.194v1.162l-.387.387-.194.194h-.581v.194l-.388.194v.194l-.194.387-.194.387-.194.581v.387l.194.194v.194l-.194.194v.194l-.194.194h-.194v.194l-.194.194-.194.387-.194.194-.581.194-.194.387-.194.194-.194.581-.194.194h-.194v.194l-.388-.387-.387-.194-.581-.194-.581-.194h-.581l-.387.387v-.194h-.775l-.775.194-2.131.775-.194.194-.387.194-.387.775v-.194h-1.743l-.775.387-.387.194-.194.194v.194h-.775l-.194.194-.194.194v.387h-.387l-.194-.194v.194h-.194l-.387.194-.194.194h-.194v.387h-.775l-.194.194v.387l-.194.194Z" transform="translate(-770.652 -126.65)" fill="#1876d2" stroke="#fff" stroke-linecap="round" stroke-linejoin="round" stroke-width="0.5"/>
</svg>
