<svg xmlns="http://www.w3.org/2000/svg" width="217.86" height="343.39" viewBox="0 0 217.86 343.39">
  <path id="CDKC" d="M518.165,787.062l.387-.581.194-.775v-.194l-.387-.388h-.194l-.194-.194-.194-.194v-.387h-1.55l-.194-.194-.387-.387-.387-.387V782.8l-.387-.387-.775-.387-.194-.194-1.356-1.744-.194-.194h-.194l-.194-.194v-.387l.194-.194-.194-.387v-.969l-.194-.387-.388-.581-.194-.775-.194-.387v-.969l-.194-.581v-.194l-.581.194-.581.194h-.194l-.194-.194h-.387l-.775-1.162-.775-.581-.194-.581.194-.387-.194-.194v-1.55l-.194-.969-.388-.387v-.194l-1.55-.969-.581-.387-.194-.194-.194-.194h-.581l-.581.387-.194-.387-.194-.581h-.194l-.194-.194-.388-.194-.387-.194-.775-.387V764.2l-.581-.581-.969-.775h-.194l-.581-.775-.388-.194-.387-.194-.194-.194V761.3l-.194-.387v-.775l-.388-.387v-.194l-.387-.194-.194.194-.388-.581-.194-.387-.194-.387v-.775l-.194-.194-.388-.581-.581-.581v-.387l-.775-.581V754.9l-.194-.194-.194-.581-.387-.387-.775-.581-.194-.387-.387-.775h-.581l-.387-.387-.581-.194-.969-.194-.387-.194-.581-.387-.581-1.162-.581-.388-.194-.387h-.388l-.387-.194-.388-.388-.387-.387-.194-.194v-.388l-.194-.581-.969.194-.194-.194-.194-.194v-.387l.194-.581.388-.194.387-.387.388-.194.194-.194.387-.581h.388l.969.194h.581l.388-.387.194-.194.969.194.387-.194.387-.194v-.194l.388-.775v-.194l.387-.194.388-.194.387-.581,3.487-1.55h.194l.581-.194.775-.194h.581l.581-.581h.775l1.356.387.581.775.388-.194.775-.194.387-.387.581-.387.194-.581-.194-.775-.388-.581-1.162-.775-.387-.775v-.387h.969l.387.194.581.388.775.581.388.388.387-.194v-1.55l-.581-.969-.388-.775v-.581l.194-.387.388-.194h1.937l.775-.194.775-.388.388-.387.387-.194.581-.194h1.743l.775.194h.775l.194-.194.388-.194.194-.387-.581-.194-.194-.581H510.8l-.194-.387-.194-.194-.387-.969-1.162-.194-.775-.581-1.162-.581-.581-.194-.194-.194-.387-.387-.194-.387-.194-.387-.194-.194H504.8l-.388-.581-.194-.194-.194-.194-.194-1.356-.388-.581-.194-.194-.581-.388.194-.387-.388-.194v-.387l-.194-1.162-.387.387v.387l-.388.387-.581.388-.775.581-.388.388-.581.581-.194.388H498.6l-.387.194-.775.194-.775-.387v-.581l.388-.387.194-.581v-.581l-.194-.387.387-.581.581-.387.387-.581.194-.581v-.387l-.194-.387-.387-.194-.581-.194-.387-.194h-.581l-.387-.581-.194-1.162v-.581l.388-.581.387-.194.581-.194h2.712l1.55-.194.581-.194-.387-.581-.194-.388v-1.162l.194-.194.194-.387v-.581l.387-.969-.194-.387.194-.194.194-.581v-.388l.194-.387v-.969l.194-.194.194-.194h-.194v-.194l.194-.194.194-1.162.194-1.55-.194-.969-.194-.387.194-.194-.194-1.356v-.194l-.194-.194-.194-.775-.388-.194v-.387l-.581-.581.194-.387v-.581l-.388-.387v-.581l.194-.775.194-.194-.194-.387H501.5l-.387-.194v-.581l-.194-.194-.388-.194-.194-.387.388-2.131.581-.969-.387-.969-.388-.387v-.387l.194-.387.387-.194v-.387l-.581-.775v-1.744l-.194-1.744-.387-2.325-.388-.775.775-1.744-.194-.194h-.581v-.194l.581-.388-.387-.581.194-.194v-.194l-.194-.969-.388-.775.194-.387v-.194l-.581-.969.775-3.1.194-2.131.387-.194.194-.969.388-.194.194-.388.581-.969.581-.387.194-.194.388-.775h.194l.387.387h.775v-.194l.194-.194.194-.387.387-.581.969-.581.969-1.55.387-.388.194-1.744.194-.194v-.194l.387-.194.387-.194.388-.775.194-.581.194-.581.194-.775V653.2l.388-.969.194-.775.194-.581.194-.387L511,650.3l.581-.194.387-.194.581-.775.387-.387.387-.388.388-.194.387-.387.387-.194.194-.194h.775v.581l.194.194.194.194v.194l-.387.775.194.388v.387l.194.387.775.581.387.194.387.194h.581l.194.194.194.387v.387l.387.194v.194l.387.775,1.356.775.581.581.388.387.581.775h2.518l1.162-.194h.775l.581-.194v-1.55l-.194-1.356.194-.387.194-.969h.194v-.387l.387-.387.969-1.162.969-1.55,1.55-1.356v-.194l1.162-.775.581-.581.387-.969.581-1.356.775-2.325v-1.55l.581-1.937.387-.775.387-.969.194-.969-.194-.581-.194-1.55-.387-.775-.775-.775-.194-.194-.194-.194v-.194l-.194-.387-.194-.194-.194-.194-.581-.194-.387-.581v-1.162l-.388-.581-.387-.775-.581-1.55-.581-.387-.194-.194-.581-.775-.581-.775-.969-.581-.387-.387-.969-.969-.388-.581-.194-.581-.194-.581-.775-1.356-.194-.388-.775-.581-.194-.581-.387-.581v-.581l-1.55.581-.387.194-.194.387-.194.387v.194l.387.581v.775l-.194.194-.194.194H520.3l-.388.969-.387.194h-.194l-1.162.194h-.581l-.775.194-.387-.387h-.194v-1.55l-.387-.581-.581-.194h-.194l-1.356-.194-.581-.387h-.969l-.387-.194-.194-.387-.388-.581-1.162-.387-.194-.194-.194-1.162-.194-.581h-.388l-.581.194H507.7l-.775-.387-.387-.775v-.581l.194-.581.969-1.356-.388-1.55.194-.969-.194-.194-.387-.388h-.775l-.194.194h-.581l-.969-.581-.194-.194-.387-.194v-.581l.387-.194.388-.194.194-.194V604l.194-.581.194-.581V601.09l-.387-1.356.194-2.131,1.162-1.162.581-.775.194-.581.387-1.162v-.387l.194-.775.581-1.356.194-.388.194-.969,1.356-1.937.194-1.162V585.01l-.387-1.55v-.969l.194-1.356h1.55l.581.387.775.194.387.194.775.194h.194l.775.387h.775l.387.387.581.194.969.387.581.194h.387l.194.194H520.1l.775-1.162-.194-.775.194-.387v-.194l.194-1.162v-.194l.194-.194v-.194l.581-.387.194-.387.194-.388h1.356l.194-.387.388-.194.194-.194.387-.194.387.194.387.194h.388l.387-.194h.969l.387.194.194.387v.581l-.387.387-.387.194-.581.194-.194.387v.581l.387.387.581.194.387.194.969.581,1.356.581.581.387h.581l.969.387.775.388h.775l.969-.194h.775l1.744-.581.581-.194.581-.388h.969l.388.194h.581l.581,1.55.194.194.387,1.744.194,2.906.194-.387.969-.581.581-.387,1.744-.775.387-.387.194-.194.775-1.55h.194l.194-.194.581-2.131.387-2.325.387-.581.775-.969.194-.387h.194v-.194l-.194-.775-.194-.775V576.1l.387-.581.581-.387v-.775l.194-.194-.581-.581-.194-.194-.775-.387-.581-.388-.194-.581-.194-.969.194-.969.194-.969v-.581l-.194-.581-.387-.387-.581-.387-.581-.194-.387-.581v-.775l-.194-.387.194-.194.387-.581.387-.194.775-.775.581-.775.581-.387.387-.581.194-.387.387-.388h.581l.775-.581.581-.194.775.194.387-.388,1.55-.387.581-.387.194-.581.387-.387.775-.581.581-.775.194-.194h.194l.387-.387,1.55-.387v-1.162l.387-.581-.387-.387h.194v-.775h-.775l-.194-.775-.194-.581-.194-.194-.194-.194H557.1v-.969l.194-.194.388-.194h.775l.581-.194.581-.387h.581l.581-.387.581-.387.194-.388.194-1.356v-1.162l.194-.194.581-.387.775-.387.387-.581.387-.581.194-.581.194-.581V542l.387-.581.194.194.581.194.387.194.194.194.194.194h.775l.581-.194h.387l.581.581.969-.388h.194l.194.194h.194l.387-.387h.581l.194.194.194.194h.194l.194.387.388.194.775-.194.775-.194.194-.194.775-1.162.194-.194.581-.194h.581l.194-.194.581.194h.387v-.194l.194-.194.387-1.55.387-.775.775-1.356-.194-.775.581-.581v-.969l.194-.581.194-.194.194-1.356.387-.387.387-1.55.194-.194.387-.387.194-.194.775-.387h.775l.387-.387.775-.581,1.162-1.162.581-1.162.581-.775.387-.775-.194-1.356v-.194l.194-1.162.194-.387-.194-2.518.581-2.712-.387-1.162-.194-.581v-.387l.387-.775v-.194l.194-1.356-.387-1.162.194-1.162-.194-.387-.194-.194.194-.388-.194-.581v-1.356l-.194-.775-.194-.581-.194-.194-.194-.581.387-2.518,1.744,1.744,1.356.387,1.937.581h.194l.194.194.387.194h.775l1.162.969.775.194h.969l.969.387.388.775.581.581.388.194.969.387.969.969.387.969.387.581.194.387,1.744,2.325h.387l.581.775.194.194.387.387.194.194.388.387,1.937,1.162.194.387v.387l.194.387.387.387v.775l.387.581,1.162,1.55.969.194.387.388,1.55,1.937.581.194.194.194.194.194.194.387.194.194.194,1.162.194.194.194.581.194.388.387.387.194.194,1.356.775,1.937,1.162.387.581.194.194.194.194.581.775.969.194,1.162.194,1.162.387h3.487l2.131-.194h.388l.581-.194h.775l1.162-.387,1.356-.387,1.744.387,1.162.194h.194l.581.194.775.387.194.775h1.162l.775.969.194,1.55.775,1.744.775,1.937.775,2.518.387.775.387.969.775,1.937.969,2.131,1.356,2.712,1.162,2.325.775,1.937v1.55l-.581.194h-.194v.194l-.387.194-.387.775h-.775l-.194-.194h-.775l-.388-.387H643.7l-.581.194-.387.388h-.775l-.387.194-.194.775-.969.969-1.55-.194-1.162.387-1.356.581-2.131,1.162-6.005,1.937-1.937.775-.969.387-.775,1.55-.194.387-.775.969.194,1.162.775.387h1.356l.969-.194.969.388.388.581-.581.775-.969.775-1.162.581-1.744.775-.387.775-.581,1.162-.194,2.325-.775,1.937.387.194h.387l1.356.969h1.744l.194.194.194.194.581.581.387.969.387.387.194.194.194.194.775.387.581.581.969.969,1.55.969.388.194.775.387.194.775,1.356,1.55,3.487,3.1,3.1,3.875.194.194.581.387.581.581.581.581.775.581.775.775.775,1.937L646.8,604l.969.775.775-.775h.194l2.131-.969.775-.194h.194l.969-.194.387-.194.194-.194.581-.387.194-.387.387-.387h.387l.388-.194.581-.387h.194l.775-.194,1.162-.387.775-.581H659l.581-.194.581-.194.581.194h1.55l.969.387.387.194h.388l.581.194.775.194h.387l.581-.194.775-.194,2.325-1.55.194.194.387.387v.388l-.387.775v.387h.194l.581.581v.194l-.387.194-.194.387.387.581.194.387-.194.775.194.387.388-.387.194.581-.194.581,1.356.194h1.356l1.162-.194.775.194,1.55.969,1.744.775,2.325.775,2.131.387,1.744.194,2.131.194,2.325.387,3.487.194,1.744.387.969.387.387,1.356v.775l-.194.387v.775l-.387,3.875.387,2.518.775,1.937v.969l.387,2.325-.194.969v.969l-.387.775h.194l.194.581.194,1.356.387.581.387,1.356.387,1.162.969.387.581.194.387.387.194.581.194.387-.194.194-.969.581H699.1l-1.55-.194-1.55-.388h-3.1l-.969.775-.581.387h-.969l-.969.194-.775.969-1.356.387-.194.194-.775.775-1.356,1.937-.775.387H683.8l-.581-.387h-.387l-.387-.387-.775-.194h-.194l-.388-.194-.775.581H679.15l-.581-.387H677.6l-.388.194-.581.969-.388,1.162-.387.775-.581,1.744-.581.775-.581.194-.581.194h-1.55l-.775-.194h-.969l-.387.194-.388.775-.194.581-.194.387-.969.581-.194.387-.581.581h-.387l-.388-.194-.775-.969V647.2h.581l.581-.581v-.194l-.194-.194v-.194l.387-.387-.194-.387.194-.194.387-.775V644.1l.581-.387h.194l.387.194.194-.387-.194-.194v-.194H668.3l.194-.194.194-.194h.194l.194-.387-.194-.581.194-.194.388-.387.387-.387v-.194l-.194.194h-.194l-.775.775h-.969l-.775.581h-1.162l-.581.581-.775.387h-1.162l-.194.194-.388-.194h-1.356l-.194.194h-.969l-.775.387h-.581l-.775.581-.581.387-.775.194h-1.744l-.775-.194H651.64l-.969-.194H649.51l-.969-.194L646.8,644.1h-.775l-.969-.194H643.31l-.387-.194h-1.55l-.775-.194h-2.131l-.581.194h-.194l-.194.387v.581l.388.194.387.387v1.162l-.387.581-.194.387-.387.194-.775.194h-2.712l-1.162.194-1.356.194h-1.162l-.581.194h-.775l-.387.194-.194.387-.388.581-.387.387-.581,1.356-.387.581-.194.775-.194.388v.969l.387.581.194.194.969.969.969.969.581.775v.194l.194.194v.194l.194.194h-.194v.387l-1.937,2.906-.581.775-.387.581-.194.387-.194.194v.194l-.194.194.194,3.293.581.581v.194h.194v.581l.388.775.775.775.194.388.194.581v.388l-.775.581-1.162.775v1.937l.387.581.388.387.775.581.969.387,1.162.581.775.581.581.388-.194,1.162-.387,1.162v.194l.194.581-.194.388v1.162l.194.775.194.387.581.581h.581l.581.194H634.4l1.356.387.581.194.581.194.775.387.581.387v.387l-.969,1.356h-.387l-.194.194v1.744l-.581,1.744-.581.581v.194l.194.581.194.581.387.969.194,1.162.194.775-.194.775.194.581v.581l.194.969.194.969v.581l.388.194.194.194.581.387h.194l.387-.387.387-.387.581-.194h.581l.581.387.388.194h1.162l1.162.581v.194h.387v.194l-.194.387.194.194.387.775h-.194v.194l-.388-.194-.194.194-.194.194v.194h-.581l.194.387.387.387.194.581-.194.581.194.387.387.194h.194v.581h-.387l-.387.194-.387-.194h-.194v.581l-.194.194v.581l.194.194.775.581v.387l-.194.194-.194.194-.194.581.194.194.194.194-.194,1.55-.969,1.356v1.162l-.194.775-1.162,1.162-.387.388-.581.969-.194,1.162.387.387-.194.388-.775.969-.194.581-.194.388.194.387-.194.194v.775l.194.581v.775l.194.194-.194.194-.194.387-.581.581-.969.969.387.581v.194l-.194.387-.194.581.194.775-.581,1.356-.581,1.356-.387,1.744-1.162,1.744-.387.387-.194.194-.387.581-.194.194-.194.775-.969,1.356v.387l.387.581.581.387.775.194.581.581.387.581.581.775.775,1.162.194.388.194,1.162.581.775.969.775.775.387.969.194.969.194H643.5l.387.194.387.194.388.194.387.387v.581l.194.387.388.388.387.387.581.194.387.388V752l.194.581.388.194h.387l.581.194h.581l.388.194.581.387.775.387h.775l.387-.194.388-.387h2.906l.775.387.194.194v.387l-.969,1.356h.387l.387-.194h.387l-.775,1.162v.194l.194.775-.194.388-.194.194-.387.387-.194.194.581.387-.581.194-.387.775-.194.387-.581.194-.194.194.194.581-.387.581v.387l.387.194v.194l.387.194-.194.387h-.194l.775.581v.387l.194.775-.194.387v-.194h-.387l-.194.775-.581-.387-.194.194-.387.387.387.194-.969.387v.387l-.387.775.194.387-.194.387h-.194l.194.194v.581l-.194.581v.581l.387.194-.194.387v.194l-.194.387v.194h-.194l-.387.194.194,1.162-.387.387-.194.775-.194.969v.775h-.194l.194.387-.194.194.581.194h.387l.387.194h.387l.194.194v.194l-.194.775-.194,1.162v.194l.194.581.387.388-.194.387v.581l-.194.775.387.194v.775l-.387.775-.194.581h.194l.194-.194.387-.194v.387l-.194.194v.194l-.194,2.131v.969l-.194,1.356v.581l-.194.387-.194.581.194.581-.387.969.775.387.387.194h.775l.194.194-.194,1.162.775.581v.581l-.388.387-.194.387v.581l-.194.387-.194.194v.194l-.775.387v.194l.194.387-.194.387-.387.194v.387l.387,1.162.387.194v-.387h.387v.194h.194l-.194.387v.194l.194.387.387.581.388.581-.388,1.162-.581.387-.194.387.194.388-.194.194h-.387l-.194.387-.194.581.194.387-.387.388-.194.387-.194.194h-.775l-.194.388h-.387v.387h-.581v.194l.387.581-.194.775v1.162l.581.194v.194l-.194.388.387.194.194.194v.581l.775.969v.387l-.387.387v.581l-.194.194-.194.194-.194.387.194.581.194.194h.387l-.387.969v.775l-.194.387v.194l.581.581v.194l.194.194-.194.194v.194l.387.581-.194.387.194.581-.387.775v.194l-.581.194v.775l-.387.194-.194.194v.387l.194.194v.194h-.194l-.194.194V826h.194l.194.194h.387v.387l-.194.194-.387.388-.194.775-.387.194-.387,1.162-.969,1.937-.581.387-.194.388v.969h-1.162l-.387.387-1.162.194-.388.194-2.712,3.293-.775.581-.775.775-.581.969-.581,1.356-.194.969-.194.194-.387.969-1.162-.194-1.55-.388-.775-.387-2.325.387-1.744.194-1.55-.581-1.937.775-2.131,1.55-2.131-.775-2.325-1.55-5.231-3.1-1.744-.775-1.55-.194h-2.131l-.194-.194h-.775l-.775.775-1.356.969-2.131,2.131-2.906,2.131-2.518,1.162.387-1.356.194-1.356.775-.581.194-.387-.194-.194v-.194h-.387v-.194l-.775-1.162-.581-.775h-.194l-.387-.194-.194-.194-.194-.194-.194-.581.194-.387-.194-.775.194-.581v-.581l-.194-.387-.194-.194.387-.387.388-.194.194-.194v-.194l-.581-.969-.775-.387-.581-.581-.194-.194h-.388l-.581-.581-.194-.194h-.387l-.194-.194v-.775h-.581l-.387.387h.581l.194.581-.775.194-.775.581h-.194l-.775.387h-.969l-.581.194-.387.194-.581.387-.581.775-.194.194-.194.581-1.744,1.937-.194,1.744-.969.775-1.356,1.55-1.162.194-.969-.387-2.518-1.162-1.356-.969v-.387l-.194-.194-.194-.775-.581-.194-.969,1.162-1.356.775-4.456,2.518-1.744.775-1.162.194-2.325.775-2.325.194-1.162.194h-.581l-3.875.581-1.55.194-.581-.194h-1.55l-.194-.969-.194-.387-.775-.388-.387-.581-.388-.388-.581-1.162-.581-.969-3.487-4.456-.581-.969-.775-.581-.581-.969-.581-.581-.581-.581-.775-.581-.775-1.162-.388-2.325-.581-1.356-.775-.775-1.55-.194H538.7v.387l-.387.581-.387.387v.387l-1.356.581-.969.581-.581-.387-1.356-.969-.775-.581-1.162-.194-2.325-.194-2.712-.194-.387-.194-1.356-.581-1.356-.388-.387-.581-.387-1.55-.194-.387.194-.388.194-1.162.387-.194.581-.969.387-.387v-.581l.194-.387.387-.775v-3.487l-.194-.775-.387-.581-.194-.581v-1.162l.387-1.162.775-1.744.194-1.162-.194-.581-.969-.969-.194-.388.194-.581.387-.775.194-.387V801.4l-.194-1.162-.581-.775-.581-.581-.581-.775h.194l.194-.775v-.387l.194-.194.194-.775-.387-.969-.581-.581-.581-1.356-.581-1.162-.969-1.937-.581-.581-.581-.581-.581-.194-.387-.387v-.388h-.387l.194-.194-.194-.194v-.387Z" transform="translate(-482.85 -501.652)" fill="#6f9c76" stroke="#fff" stroke-linecap="round" stroke-linejoin="round" stroke-width="0.5"/>
</svg>
