<svg xmlns="http://www.w3.org/2000/svg" width="113.636" height="106.657" viewBox="0 0 113.636 106.657">
  <path id="CDKE" d="M574.429,647.3l-.194-.194-.194-.194.194-.581.194-.194.194-.194v-.387l-.775-.581-.194-.194V644.2l.194-.194v-.581h.194l.387.194.387-.194h.387v-.581h-.194l-.388-.194-.194-.387.194-.581-.194-.581-.387-.387-.194-.387h.581v-.194l.194-.194.194-.194.387.194v-.194h.194l-.387-.775-.194-.194.194-.387V638.2h-.387V638l-1.162-.581H572.3l-.387-.194-.581-.387h-.581l-.581.194-.388.388-.387.387H569.2l-.581-.387-.194-.194-.387-.194v-.581l-.194-.969-.194-.969v-.581l-.194-.581.194-.775-.194-.775-.194-1.162-.387-.969-.194-.581-.194-.581v-.194l.581-.581.581-1.744V624.25l.194-.194h.387l.969-1.356v-.387l-.581-.387-.775-.388-.581-.194-.581-.194-1.356-.387h-1.356l-.581-.194h-.581l-.581-.581-.194-.388-.194-.775v-1.162l.194-.387-.194-.581V616.5l.387-1.162.194-1.162-.581-.388-.775-.581-1.162-.581-.969-.387-.775-.581-.387-.387-.387-.581v-1.937l1.162-.775.775-.581v-.387l-.194-.581-.194-.387-.775-.775-.387-.775v-.581h-.194v-.194l-.581-.581-.194-3.293.194-.194v-.194l.194-.194.194-.387.387-.581.581-.775,1.937-2.906v-.387h.194l-.194-.194v-.194l-.194-.194v-.194l-.581-.775-.969-.969-.969-.969-.194-.194-.387-.581v-.969l.194-.387.194-.775.387-.581.581-1.356.387-.387.387-.581.194-.387.387-.194h.775l.581-.194h1.162l1.356-.194,1.162-.194h2.712l.775-.194.388-.194.194-.387.387-.581v-1.162l-.387-.387-.387-.194v-.581l.194-.387h.194l.581-.194h2.131l.775.194h1.55l.387.194h1.744l.969.194h.775l1.744.194.969.194H581.6l.969.194h2.518l.775.194H587.6l.775-.194.581-.388.775-.581h.581l.775-.388h.969l.194-.194h1.356l.387.194.194-.194h1.162l.775-.387.581-.581h1.162l.775-.581h.969l.775-.775h.194l.194-.194v.194l-.387.387-.387.387-.194.194.194.581-.194.388h-.194l-.194.194-.194.194h.388v.194l.194.194-.194.387-.388-.194h-.194l-.581.387v.194l-.387.775-.194.194.194.388-.387.387v.194l.194.194v.194l-.581.581h-.581v.194l.775.969.387.194h.387l.581-.581.194-.387.969-.581.194-.387.194-.581.387-.775.387-.194h.969l.775.194h1.55l.581-.194.581-.194.581-.775.581-1.744.387-.775.387-1.162.581-.969.387-.194h.969l.581.387h1.162l.775-.581.387.194h.194l.775.194.387.388h.388l.581.387h.388l.775-.387,1.356-1.937.775-.775.194-.194,1.356-.388.775-.969.969-.194h.969l.581-.387.969-.775h3.1l1.55.387,1.55.194h.194l.581.775v.388l-.194.194-.194.194h-.194l-.194.194-1.162.969-.387.969-.194.194v.194l.194.387h.194l.387.194.194.387.388.387-.194.194-.194.969v.775l-.387,1.162-.387,1.162-.387.775-.194.387h-.387l-.387.194v.969l.581.194.387-.194h.969V582.6l.387.194.194.194.194.387.387.194h.194l.387.194h.775l.194.194v.194l.387.194.388-.775.194-.194.581-.581.194-.194h.387l1.162-.969.775-.194.194-.194h.194l.194-.194.775-.194h1.162l.969.581h.387l-.194.194-.194.194v.581h-.387l-.194.194v.775l-.194.194h-.194l-.194.194v.194l-.194.194v.387l-.194.194v.581l-.194.194.194.194v.387h.194l.194-.194h.194l.387-.194V585.5l.969.581.775.194h1.55l.775.388v.194l.969,1.162.775.194v2.518h.387v-.194l.194-.194.387.387.387-.387.387-.194h.387l.581-.194.581-.581v-.387l.387-.387h.387l.194-.581h.194l.775-.387-.194.581v.969l.194.775.194.194.194.194-.194.194-.194.387v.969l.194.194v.387l.194.387.194.194v.194l.387.194.194.194v.581l.194,1.356v.581l.194.581v1.744l.194.581.581.387h2.131l.581.194.387.581v.969l-.387.775-.387.775-.194,1.55-.194.969-.581,1.356-.581.387h-.194l.387.387.388.194.581-.388.388-.194.775.387.775.775.581.194h.969l.969-.387h.387l.194.194.387,1.162h.194l.194.194.388.387h.387l.194.194.388-.194.581-.194.581-.387.194-.194h.969l.194.194.388.194.387.581v.388l.194.194h.581l.387-.194h.194v.194l.775.194.581-.387h.581l.194.194.194.387v.194l.387.387.194.969.387.194.775,1.356-.194.194v.194l-.775.581-.194.194-.775.387-1.162.581v.194l-.194.194v1.55l-2.325,2.712v.194l-.194.194v.194l-.194.387v.194l-.194.194v.194h-.969l-.194-.194h-.194l-.387.194-.194-.194h-.581l-.194.194-.194.194-.194.194h-.775l-.194.194v.194l-.194.388-.194.194-.194.194h-.581l-.194-.194h-1.356l-.194.194h-.387l-.194.194h-.194l-.387.194h-.194l-.194.194h-.194l-.387.194h-.194l-.194,1.162-.194,2.518-.194,1.744v1.356l.194.581.581.387.969.388,2.325,1.356.969.581,1.162.581.775.388.775,1.162.581.581L661.8,638h-.387l-.581.387v.581l-.775.581h-.194v.387H658.9l-.775.581h-.388l-.581.387-.969-.194H655.8l-.581.581h-.775l-1.55-.194-.387.581h-.581l-.581-.194-.388.387-.387-.194-1.55.775h-.194v.194l-.387.194h-.775l-.581-.581v.581l-.194-.194h-.775l-.387-.388-.581-.194.194-.387V641.1l-.194-.387-.194-.194-.775.194h-.387l-.969-.388-.194.194-.194.387h-1.356l-.388.194H640.1l-.194-.387-.387-.388.194-.775-.387-.387v-.194l-.387-.194-2.906,2.131v.387l.581.388v.387h-.581l-.775-.775h-.387l-.194.194v1.55l-.194.387.581.581.775,1.162v.387l-.194.387h-.581v.581h.194v.194l-.194.969-.387.194v.194l-.194.387-.194.194-.194.581-.969-.194v.387l.194.581h.194v.581l-.194.194-.387.387v.194l-.194.194-.194-.194-.194.194-.194.194v.387h.581l.194.581.969.194.194.194-.194.194h-.387l-.387.194-.387,1.162-.194.775v.581l-.387,1.162.387.775-.194.581-.194.194-.387.194h-.581l-.581-.387-.387,1.356.194.388.194.969-.194.581.194.581-.194.194-.581.775v.194l.194.387.387.194h.969l.388.194h.194l-.194.194-.581.581.387.194h1.162l.581.194.388.581.194.194v.387h-.194l-.581.387h-.387l-.581-.194h-.194l-.387.194-.387.387-.581.969-.194.194v.194l-1.744,2.712v.194l.194.194.581.387-1.162.775-.387.388-.388.194-.581.581-.388-.194-.387-1.55-.581-.388h-.387l-.387.388-.387.387-.581.581-.581.194-.969.194-.969.194-.969-.194-.969.387-.387.387-.194.775-.194.775-.194.194h-.775l-.775-.194-1.162-.387-.775-.387-.775-.581-.969-.581-.969-.387-.581-.387h-.194l-.581-.388-1.937-1.744-.581-.194-1.162-.969-.581-1.356-.775-.581-.194-1.356-.387-.387-.581-.581-.969-.194-.581-.969-.388-.194h-.387l-.194.194-.581-.581-.194-.581v-1.162l-.387-.581v-.581l-.775-.775V659.5l-.194-.581v-.387h.581l.387-.387.194-.387v-.194h.194l.194-.194.387-1.162.775-.581v-.194h-.581v-.194l.194-.775v-.388h-.387l-.581.388-.194-.775-.388-.194-1.162.775-.775-.387h-.387l-.194.194-.581.581H597.1l-.581-.194v-.194l-.969-.775h-.194l-.194-.194-.387.194-.969.581-.194.194-.775.387-.775-.194-.581-.194-.194.194-.387.194-.194.194-.194.194-.388.387-.194.194-.194.194-.194.194-.194.194-.387.387-.387.194-.194.387-.581.387-.194.194-.387.194-.194.194-.775.581-.581.387-.581.194-.581.194-.194.194-.969.194h-.194l-.388.194-1.162.194-.387-.194h-.388l-.194-.194-.387.194-.388.194-.194.194h-.194l-.387.194H578.7l-.581.194v.194l-.581-.581v-.387l.194-.194v-.581l-.194-.775v-.194l.581-1.356-.775-.581-.194-.581v-.387l-.194-.387.194-.388.194-.387V653.5l-.581-.387v-.387l.194-.581-.194-.388.194-.194v-.194l-.387-.194-.194-.194v-.194l-.969-.387-.194-.387.581-.387v-.775l-.194-.775v-.581l-.194-.194h-.969Z" transform="translate(-556.55 -569.951)" fill="#1876d2" stroke="#fff" stroke-linecap="round" stroke-linejoin="round" stroke-width="0.5"/>
</svg>
