<svg xmlns="http://www.w3.org/2000/svg" width="353.664" height="359.854" viewBox="0 0 353.664 359.854">
  <path id="CDKG" d="M232.7,653.929v-.775l.194-.581.194-.969.387-.775.194-.581.387-.194.581-.388.387-.194h2.712l.387-.194.387-.387.387-.775v-1.55l.194-.194.194-.194v-.388l-.194-.387-.194-.194.194-.194v-.775l-.387.194-.387-.387.387-.969v-.775l.387-.388-.387-1.356.194-.581v-1.162h.581v-.581l-.581-.969v-.387h.387v-1.162l.194-.387-.194-.387.387-.581v-.581l.387-.581-.194-.194h-.194l-.194-.387.194-.388-.387-.581v-.194l.387.194.194-.194v-.194l-.194-.194v-.194h.194v-.194l-.387-.581-.194-.388v-1.162l-.194-.581v-.387l.387-.581-.387-.969-.387-1.55-.194-.194V624.1l-.194-.387.194-.581.387-.581-.194-.775-.387-1.55.194-2.131.387-.969v-.194l-.387-1.55.387-.387.194-.969-.194-.775.387-1.937.387-.194v-1.162l-.194-.581.194-1.744.194-.387v-.969l-.387-.388V605.3l.194-.388.194-.775V602.98l.387-.387v-.775l.387-1.356v-.387l.194-.388v-.581l.387-1.55v-.388l.387-.387v-.387l.387-.969.194-.387.387-.775.194-2.906h.194l.194-.194v-.194h.194l.194-.387h-.387v-1.356l-.194-.581v-1.356l-.387-.775v-.194l-.581-.775-.775-.194-.194-.387.194-.581.387-1.55.387-.387v-.387l.194-.388v-.775l.194-1.356.581-.387-.194-.194.194-.581v-.194l-.387-.581v-.387h.387l.581-.775.194-.387h-.194l-.194-.581.194-.775.387-.194.194-.194.387-.581.194-.387-.194-.581-.969-.969V571.6h.194V571.4h.194v-.194h.194v-.387h.194v-.387h0v-.194h0l-.194-.194.194-.194h0v-.194l-.194-.194v-.387h.194V568.5h0V568.3h.194v-.968h-.194v-.775h-.194v-.775l.194.194V565.2h.194v-.194h0v-.194h.194l-.194-.194h-.194v-.194h.194l-.194-.194v-.387h.194v-.194h-.194v-.387h-.194v-.194l-.194-.194-.194-.194V562.3h-.194v-.581h.194v-.194l-.194-.194h-.194l-.194-.194h-.387l-.194-.194H242v-.775h.194v-.775H242v-.387h.194v-.194H242v-.194h.194v-.194h.194v-.194h.775v-.194h-.194v-.194h0v-.387h-.194v-.194h.194v-.194h.194l-.194-.194h.194v-.194h-.194v-.194h-.194V556.1h.194v-1.356h.194v-.194l.194-.194h.194v-.194h.194v-.387l-.194-.194v-.194h0V553.2h.194v0l.194-.194v-.775h0v-.194h.194v-.194l-.194-.194h.194v-.387h-.194v-.194l.775-.194.581-.194.194-.194.581-.387.194-.194.387-.581.387-.775.387-.969.387-.969.387-.775.387-1.162.581-.969.387-.969.387-.775.387-.969.581-.969.387-1.162.581-1.356.775-1.162.387-.775.387-1.162.581-.775.581-.581.581-.581.581-.969.581-1.356v-.581l.194-.775v-1.744l.387-.581.194-1.162.194-.387.775-.581.387-.194.581.388,1.55,1.356.194.194.775.194.581.194.581.194.387.194h.581l.194-.194h1.744l.387.194h1.356l.387.387.387.581.387.387.581.581.775.581,1.162.969.581.387.775.581.775.581.775.775.581.387.581.194.387.194h.387l.194-.194v-.581l.194-.775v-4.068l-.194-.775v-2.131l-.194-.969v-1.356l-.194-.775V520.07l.194-.775v-1.162l.194-.581.194-.388.194-.387.194-.387.387-.194h.775l.581-.775h1.162l.581-.387.387-.387h.387l.388-.194.194-.775.581-.775.387-.387.387-.194h.194l.387.194h.194l.388-.194.581-.387v-.194l.581,1.162.387,1.55.388-.194h.194l.194-.387.194-.194.194-.388.194-.387v-.387l.387-.194h.387l.388.387.194.194v.194l.194.194v3.681l.194.388h.581l.387-.194.388-.194.194-.194.387-.581.194-.387.194-.194.194-.581.387-.194.388-.194h.581l.581.194.387.387.387.194.194-.194h1.162l.775-.387h1.162l.387-.387.388-.194.194-.194.194-.775v-2.712l.194-.388.194-.775v-.194l.581.194.194.194.388.387.194.194.387.388.388.581.387.581.387.387.388.581.387.194.581.581.581.387.194.194.388.388.194.581.194.388.194.194.194.581.194.388.194.581v.775l.387.581.194.387.194.194.194.194h.775l.581-.194.194-.194h.387l.387-.194.388.194.194.194.194.388.194.387v1.744l-.387.775-.387.387-.388.581-.581.387-.388.194-.387.387-.581.387v1.744l.194.581.194.387.194.387.194.387.194.194.388.194.387.194h1.162l.581-.194h.581l.388-.194.387-.387h.194l.581-.775.194-.194.388-.194.387-.581h1.162l.388.194.387.194h.387l1.55,1.937.387.581v.194l.775.775.194.387.581.775,1.937.581.969.969.969.194h.194l.581.387.387.194.581.387.387.194.581.194h.775l.387-.194.775-.387.581-.388.388-.775.387-.581.194-.581.194-.775.194-.581.194-.775.194-1.356.194-.775v-.775l.388-1.356.387-.969.581-1.356.387-.775.581-.775.581-.775.581-.581.581-.581.387-.388.775-.581.387-.388h2.712l.775-.194.775-.194.775-.194.969-.387.775-.387,1.162-.581.969-.581.969-.581.969-.775.775-.775.775-.581.775-.775.581-.387.775-.775.388-.387.581-.581.388-.194.775-.194h.387l.581-.194.581-.194h.388l.387-.387.387-.388.581-.581.775-.775.581-.581.775-.775.581-.581.581-.387.581-.388.387-.194h1.356l.581.194.775.194h.581l.969-.194h1.162l1.162-.194.969-.194,1.162-.194,1.162.969v1.162l.387.581.775,1.356v1.162l-.387.387v1.356l-.194.194-.194.387-.194.969v.775l.581.388.387.194.581.194.775-.194.388-.194.969-.194,1.356-.194.969-.387.775-.387.969-.194.969-.387.969-.388.969-.581.969-.388.775-.581.969-.581.387-.387.581-.581.387-.387.388-.194h.194l.581.387.581.387.387.388.388.194.194.387.387.388.194.387.194.581.194.775-.387.581v.194l-1.744.969-.581.775-.194.194h-.387l-.969.194h-.194l-.194.194-.194.194-.194.969-.194.387-.775.581h-.194l-.194.194-.581.581-.194.194h-.581l-.387.194h-.194l-.387-.194-.194-.194h-.194v.194l-.388.581-.387.194H378l-.194-.388h-.387l-.194.194-.194,1.356v.969l-.581-.387-.194-.194-.194,1.162-.388.194-.581.387.194.775-.581.775-.387.969h-.194l-.194-.194-.194-.387-.194-.387-.387.387-.194.581.194.387v.581h.581l.388.194-.775.581h-.194l-.388-.387h-.581l-.581.969h.775l1.744.194.387.194-.194,1.162.194.387,1.162,1.162-.387.387.194.194h.194l.194.194.388.775v.581l-.775.581v.387h0v.194l-.194.194-.388.581-.387-.194-.194-.194v-.194l-.388-.194-2.325,1.162.194.194.388.194v.194l-.775.969h-.581l-.194.194V537.7h.581v.387l-.194.194-.194.581v1.162l-.194.194h-.194l-.194.194v.581l-.194.581-.581.581-.581.194v.194l.194.581-.194.194v.194l-.581-.194h-.581l-.194.388v.775l-.194.194h-.775l-.388.387v.969l-.581.194-.194.194-.194.387v.775l-.387.581-.194.388-.581,2.712-.194.387-.775.194v.775l-.775.581-.387.775v.387l.387.194.194.194V556.1l-.775.969.194.194v.194h.387l.194.387-.969.581-.194,1.356v.581l-.194.194-.581.194h-.194l-.194.194.194.581h-.194v.194l-.387.194v.194l-.194.194-.194.581-.581.194-.388.387-.387.775.194.387v.194l-.194,1.356.387.387.194.387-.387.775v.194l.194.387.388.387h1.162v.194l-.581.387v.387l.581,1.744-.194.194-.194,1.162v1.162l-.194.194H359.2l-.194.194-.194.194v.387l-.194.581v.194l.194.194h.194v.194l-.194.775.194.581h.194l.388.387,1.162.387-.194.387v.581l.387.775-.194.388-.388.387-.194.775-.387.194-.388.581.194.194.387.194.387.194.194.194.194.387-.194.194-.388.387v.194l.194.194.194.194h.387l.387.387h.388l.194-.194.194.194-.581.775.194.194v.194h.581l-.387,1.162-.194.194-.194.194-.387,1.162-.194-.194h-.388l-.581.775-.194.581v.775h-.194l-.194.387h-.387v.775l-.194.194-.581.387-.194.194h-.388l-.194.194-.194.387.194.194.194.581-.387.581-.194.194-.194.194-.388.581.581.775-.194.194-.388-.194H356.3v1.162l-.194.194v.194l.194.388v.194l-.387.775.387.387.194.581v.581l-.387.194-.194.194.581.387-.194.194H356.1v2.712l.194.775-.194.194-.194.387v.581l-.388.194v1.55l-.194.388v.387l.581.581-.388.581-.194.194-.194.387.194.387.194.581.194.194.387.969-.387,1.162-.194.194-.194.194.388.387.387.194v.581l.581.194.194.194-.581.775v.581l-.194.194-.194.581v1.162l.775.581v.581l.387.775.194.387h.194l.194.194.581.194.581.194v.387l.194.194h.581l-.194.194v.387h.581l.387.581.194.581.775.581-.387.581-.194.387v.194l-.581.775.194.387-.194.194.194.387-.194.387-.194.581.194.387v1.356l-.194.194-.387.581.387.387v.775l-.194.581.194.387.194.581h-.194l-.194,1.162-.194.387.775,1.356.775.969h.388l.194.387.387.775-.194.775h3.1l.388-.194h.775l.581-.194h.581l.581-.969h.581l.194.194v.194h.387l.581.194.194-.194h.388v.581l.387.194.194.581.388.775.194-.388.969-.775.194-.387.387-.194.388-.387.775-.387h.581l.388.194.775.388.581.194.969.194.581.194.775.194.775.194h1.937l.775.194.581.194v.194h.969l.387.194h.388l.194-.194.581-.194.388-.387,1.55-2.712.194-.387.194-.581.969-1.356,1.356-1.55.194-.194V633.2l.194-.387v-.194h.581l.388.194.387.194.581.194.581.194.969.194H396.2l.387.194v.387l-.387.387v.775l.194.775.581.387.581.388.387.387.388.581.775.775.581.581.581.387.581.194.581.194h.969l.581-.194h.581l.775-.194.581-.387.581-.194.581-.194.775-.388v.388l.194.775v.775l.194.581H408.6l.775.194h3.1l.387.387-.194.581-.194.581v.581l.387.194.581.194.581.194h.581l.387.387.194.194V645.6l-.388.581-.194.388-.775.969-.387.581v1.744l.387.581.388-.194.581-.194.194-.387.388-.194.194-.388.581-.387.387.194.194.387.387.581v2.131l-.387.581-.581.388-.581.194-.581.387-.775.194-.581.194-.388.194v.581l.194.194.387.387h.775l.969-.194.969-.194h.581l.388.194.387.194.581.387.194.194.387.194.194.194h.581l.388-.194.194-.194.194-.581.194-.387.194-.388-.194-.581.388-.581v-.194l-.388.194-.194-.194v-.194l.194-.775.581-.581-.194-.581.387-.775-.194-.387.387-.387h.581l.194-.194.194-.194.581-1.356-.194-.581v-.194l.581-.194.194-.194.388-.581.581-.194.194.194.387.581.194.581.194.581.388.775.387.775.194,1.162v3.875l.194.581.194.194h.194l.387-.194.581-.581.194-.194.581-1.356.194-.194.194-.194.388.194.194.387-.194.194-.194.581-.194.581v.387l.388.194.581.194.969-.194.775-.194.581-.194.581-.581.194-.581.194-.388v-.581l.194-.388.387-.194h1.356l.775-1.744,1.744-1.744,1.356.194.581-1.162.194-.581h.387l.387,1.356.388,1.162.775.581,1.55.194.775-.194h.387l.388.194.387.388v.194l.387.581.388.387.194.194.387.194.388.194.581.194.194.194.194.388v.581l.387.581.581.581h2.712l.194.194.387.775.388.387.387.581.387-.194.388-.387.387-.581.388-.969.194-.581.581-.388h.388l.581.194v.581l-.194.969-.194.581-.194.581L455.1,657.61l-.194.775v.388l-.775.387-.194.969.581,1.55.387,1.55v1.162l-.194.194v.194l-.194.387-.581.581-.387.194-.194.387.194.194.581-.194.581-.194h1.162l.775.194.775.194.581-.194,1.55-.581,1.162-.387,1.162-.194,1.162-.387.581-.194.581.194.775.194h1.55l.775.194h1.55l.387.194.194.969-.388.387v1.162l-.581.969v.387l-.194.387.388.388v.194l.194.387.387.194v.194l.194.775v.194l.194.387.194.969.194.387.775,1.356.387.775-.194.387.194.387.194.194.194.387-.194.387.194.194v.775l1.55,1.356,1.744-.387.388-.194.581-.387.194-.387.775-.194.581-.194h.387l.388-.387.581-.388.388-.387.775-.194.775-.581h.581l.194.194.387.388v.194l-.387.581-.775.969v.581l.388.775.387.387.775.388.387-.194.194-.387.388-.581.387-.581.388-.581h.387l.387.387-.194.581v6.006l-.581.387h-.388l-.581-.387-.581-.581-.387-.194-.388-.387h-.581l-.194.581.194.387.194.581.194.581.387.581.581.581.387.581.388.388.387.775.581.775h.581l.581-.194.581-.388.775-.387.775-.387.581-.387.775-.194.581.194.194.387-.194.775.194.194.775,1.162-.387.581.194.387v.775l.194.387v.387l.194.581v.194l-.387.387v.194l.194.194h.194l.775.969.388.194h1.356l.581-.387.194-.194.581-.387.387-.581.775-.581.194-.387.387-.194.775-.388.775-.194.969-.194h1.937l.581-.194.387-.194.387-.194.194-.581.194-.775.194-.775.387-.969.194-.775.387-.581.581-.388h.387l.387-.194h.388v-.387l.194-.969v-.775l.387-.775.388-.387.387-.194.581.387.581.775h.194l.775.581.969.194.581-.387.581-.387.581-.194h.969l.581-.387.194-.387v-.775l.194-.387.388-1.55,1.162-1.55.581-.775-.194-.775v-.581l.194-.387.388-.388.581-.581.194.387.387.581.387.194.581.194h.775l.775.194.581.388.581.194,1.162.581.969.387.969.387.969.388.775-.194.387-.194.969-.969h2.325l.775.388,1.937-.194h.581v.581l.387.194v.387l-.194.581-.775.388-.194.194-.194.387v.581l-1.162.969-.775.387-.387.194-1.356.581-.581.387-.388.387-.581,1.356-.194.388-.194.194-.194.387h-.194l-.194-.387-.194.194-.194.194-.387.194v1.356l-.387.969-.581,1.55.194.194v.969l.194.775.388.775v.194l.581.581.194.387.194.194v2.131l.581.775.388,1.937.581-.194v2.906l.581-.194.387.194.581.194.387.387h1.744l.775-.194.387-.194.194-.194.388-.194.387-.194.194-.387.194-.388.194-.387.194-.581v-.194l.387-1.162.194-.387.194-.387.387-.775.775-2.325.194-.387.194-.387.194-.387.969-.581.387-.387h.581l.387.194.194-.194.194.194h.194l.194.387h.387l.194.194.194.387.194.387V695l.194.194h.194l1.162.387.194-.194.581-.194.388.194.969,1.162.387.387.387.194h.194l.581.194.581.581.775.387.581.388.581.194h1.55l1.162.387.969.388,1.162.387h.969l1.356.387,1.162-.387.581-.581.194-.194.194-.194h.194l1.55-.194v-.194l.581-.387h.387v.581l.194.194.581.194V701.2l.194.775.194.581.388.388-.194.387.387.581v.775l.194.194v.194l.194.194h.194v.387l.387.194v.194l.194.388v.581l-.194.388v.194l-.194.194h-.194l-.194.194h-.387l-.194.581.775.775v.969l.194.969-.194.387-.388.387v.194l.581.581.194.388h-1.162l-.194.387.581.581v.775l-.581.194h-.194v.387l.581.969-.387.581v.969l.194.194.387.194h.194v.387l-.194.387v.194l-.194.969.194.194v.387l.194.194.194.194.194.387v.387l.387.581.194.775.388.387h.194l.581.387.194.581.387.387,1.162.194.194.194v.194l.194.581.194.194.387.775.581.581v.194l.194.775h.388l.194.194.194.194.581.387v.194l-.194.388.194.194.581.194.194.194.388.194.581.775h.194l.387.194v.775h.581v.387l-.194.387v.194l.194.194h.387l.194.194v.581l.194.581h.388l.387-.194.194.387-.194.387.581.775.387.581v.194l-.194.194.194.194.581.194h.194v.581l.194.194.194.194h.388l.387.194.388.388.387.387.194.194v.194l-.194.581h.194v.194h.969v.581l.194.194v.969l.969.194.194.194v.194l-.194.581.388.969.194.387h.387l.581.387.581.581.581.387.194.581v.194l.194.194.194.387.194,1.937h.775l-.194.581.194.194v.194l.581.194-.194.581.194.775v.387l-.194.194v.194l-.194.388.387.387.581.194v1.55l.194.194.194.581-.194.387.194.387.194.581.387.387h-.387l-.194.194.581.581-1.162.581-.194.194v.194H544.6l1.744,3.681.194.969-.581,1.55-2.518,3.293-1.162,1.744-.969,2.906-.969,15.111.387,2.906.581,3.1,2.518,6.2v2.906l-2.712,2.131h-.194v.194l-1.162,1.55-.969,3.681-.969.969-6.2-.194v.581l-.194.194-2.131-.194-.194,2.325.775,2.518.969,2.518.775,2.325v2.325l-.388,2.518-1.743,5.618-.969,2.712-1.356,4.262-.194,3.1.194,2.325,1.937,6.974H477.958V852.3l-.581-.969-.194-.194-.194-.194-.194-.969h-.388l-.194-.194h-.194V849.2h.387V846.3l-.194-.581h-.387L458,846.683h-6.2l-.969.775-.194,1.744.387,3.487h-7.943l-1.162.194-.388.194-.969.387-1.162.581-1.356.387h-1.162l-3.487-1.356h-1.356l-.194-.194.775-.581-.581-.387-.775-.194H430.5l-.969.194-.775.387h-2.131l-.775-.194-.581-.194H424.3l-.775.387-1.356.387h-.194l-1.356.194-1.356.581-.969.581-1.55.581-1.356.387-1.744.969-.194.581-.387.775-.194.775v.194l-.194,1.55v.969l.388,1.356-8.718-.194-1.162.969-.581-.194-4.649-4.068-2.712-1.356-3.1-.194-1.55.194-5.812,3.293h-1.162l-3.1-1.162-2.712-.194-7.749,2.712-2.712.194-5.037-1.356-.775-.775-.194.969v1.744l-.581-.387V861.6l-.387-.387-1.744-.581v-.387l-.194-.194.194-.387v-.387l.775-.969.387-.969.388-.194h.194l.387.194.194.194.194-.581-.194-.387-.194-.388-.581-.581-.775-.775-.581-.581-1.162-.969-.775-.194-.194-.194.194-.775.194-.969v-.775l-.388-1.937h-.194l-.387.194-.388.581-.194.194-.194-.194h-.194l-.194-.775-.194-.194v-.194l.194-.194h-.387l-.194-.194-.388-.387-.194-.388-.581-.387-.388-.387v-.581l.194-.775.194-.581v-.387l.775-.775v-.969l-.194-.387-.581-.581h-.388l-.775.194h-.194l-.581-.387-.194-.194v-.194l-.194-.194.194-.387v-.194l.194-.194.581-.969v-.194l-.387-.581h-.775l-.581.194-.194.194h-.194l-.387.194-.194-.194v-.581l.194-.194.387-.194.194-.387v-.387l-.194-.194-.387-.194-.194.194-.581.194h-.581l-.194-.194-.194-.581.581-1.356-.387-.581-.194-.388-.581-.387-1.744-.194-.581-.194h-.194l-.775-.194-.969-1.162-.194-.194-.194-.194-.581-.387h-.194v-.775l.581-.581.194-.194v-.775l.388-.969-.194-.581h-.388v.194h-.387l-.194-.194-.194-.194v-.194l.194-.581-.194-.387-.194-.194h-.194l-.581.194-.194.194-.581-.581-.194-.194-.387-.194-.194-.194v-.194l.194-.194v-.194h.194l.388-.581v-2.906l.581-.969-.387-.581-.581-.775-.581-.194h-.194v-.194h-.581l-.388-.387-.194-.194-.194-.194-.581-.194-.387-.194-.194-.387h-.775l-.194.194v-.194l-.969-.581h-.194l-.194-.194v-.775h-.194l-.387-.387-.581-.194-.194-.194-.194-.387-.194-1.162-.581-.969-.194-.581-.581-.387-.194-.581.581-1.744v-.775l-.388-.581-.387-.388-.775-.581h-.581l-.581-.194-.775-.387-.581-.387-.387-.388-.194-.969.387-.775.194-.194.194-.194h.194l.581-.194h.581l.775-.194.194-.194v-.775l-.194-.387-.194-.194-.388-.388h-.581l-1.162-.194-.581-.387-.194-.194-.194-.581-.194-.387-.194-.194h-.387l-.194.194-.194.581v.581l-.387.387-.581.194-1.162-.194-.387-.194-.194-.387.387-2.518-.387-1.356.194-.387.194-.581v-1.162l-.581-.581-.387-.194h-.194l-.388-.194-.775.388h-.581l-.387-.388-.969-.969-.969-.387-.194-.194h-.387L316,789.73l-.194-.194-.194-.387-.387-.775-.388-.581-.581-.194h-.969l-.581.194h-.194l-.388-.581.388-2.131-.194-.775-.775-1.356-.581-1.55-.775-.775-.969-.581-.194-.194-.775-.387-.194-.194h-.194l-.194-.387V778.3l.194-.775.387-.581.969-.775V775.2l-.581-.581-.581-.387-.387-.194-.194-.775-.194-.775.194-.775v-.387l-.194-.194-.387-.387-.388-.387-.194-.387v-.194l-.194-.581-.194-.775-.581-.581.194-.969V766.1l.194-.194.387-.194.194-.194h.388l.194.194v.387l.387.581v.194h.194l.194.387h.969l.387-.387.194-.194.194-.387-.194-.581v-.969l.194-.775.388-.387.387-.581V762.8l.194-.194v-.969l-.194-.388-.194-.581-.387-.775v-1.162l-.194-.194-.194-.194h-.387l-.194-.194h-1.162l-.387-.581-.775-.775v-.775l.194-.969v-.194l.388-.388v-.194h.194v-1.162l-.194-.387-.775-.775.194-.388v-.387l.194-.969.194-.775-.194-1.162-.194-.387-.387-.194-.194-.194h-.194l-.775-.194-.388-.387-.194-.581-.387-.194-.388.194h-.194l-.194.194h-.194l-.388.194h-.194l-.775-.581h-.194l-.387-.194-.194-.194-.194-.387v-2.325l-.194-.581-.194-.581-.194-.387-.581-.387h-.194v-.194l-.969-.581-1.162-1.55-.388-.581-.194-.581-.194-.194v-.387l.194-1.744v-.775l-.194-.581-.194-.388v-.194l-.194-.194-.194-.194h-.581l-.388-.388-.775-.194h-.387l-.581-1.356-.388-.581V728.32l-.194-.387-.194-.387-.194-.194-.388-1.356-.194-.581v-2.131l-.194-.775h-.194v-.194l-.388-.388-.969-.581-.581-.581v-.194l-.194-.387V719.6l.194-.775.581-.969.194-.194.194-.194v-.388l.194-.387v-.387l-.194-.194v-.387l-.581-.581-1.55-.581v-.194h-.194l-.194-.194-.581-.581-.194-.194v-.194l.194-.581.581-.387.194-.581-.387-.775-.387-.775-.969-.581-.388-.387v-.388l-.194-.194.194-.581.194-.194.194-.194h.387l.387-.194.388-.194.194-.581-.194-.581-.581-.581h-.194l-.775-.581-1.162.388h-.581l-.387-.581V704.3l.194-.581v-.194l.387-.387.388-.581.194-.387v-.581l-.387-.387h-.388l-.387-.194h-.194v-.387l.194-.581h.387l.388.194,1.55.387.388-.194.194-.194.387-1.162v-.581l-.387-.387-.388-.775.194-.775-.194-.387-.194-.775V695l-.387-.581-.194-.387.194-.388v-.581l.387-.969v-1.937l-.387-.775v-.387l.387-1.162.194-.775.581-1.162.194-1.162-.387-.969-.387-.581-1.55-1.744-.194-.775-.388-.194-.387-.388h-.194l-1.55-.194-.194-.194h-.194l-.194-.387-.194-.387-.387-.194-.775.194h-.387l-.388-.387.194-.581.387-.387v-.388l-.387-.775-.775-.581h-1.55l-.581-.194-.194-.194-.387-.387v-.581l.194-.387h1.356l.775-.775-.387-.581h-.387l-.581.194-.387.194-.194.194-.581-.194h-.194l-.194-.581.194-.581.194-.194.194-.581.194-.194-.194-.775v-1.162l-.581-1.162v-.194l-.194-.387V667.1l.194-.387.387-.194v-.194l.194-.194v-.387l-.194-.194v-.194h-.775l-.194-.194h-.194v-.194l-.194-.194V664l.194-.775.775-1.356-.194-.775v-1.55l-.387-.194-.194-.194v-.387l-.581-1.356.194-.969.194-.387h-.194l-.194-.194.194-.194v-.194l-.775-.194-1.356.194-.387-.194h-.775l-.581-.194-.387-.194h-.581l-.387-.969h-.775l-.387-.387-.581.194H266.6l-.581-.194-.387-.581-.194-.194h-.581l-.194.194-.969.194H263.5l-.581.581-.194-.194v-.194l-.387-.194-.194.387-.387.775-.387-.194-.194.387v.387l-.387-.194H260.6l-.194.194h-.387l-.194.387h-.194v.581l-.775.775v.387l.194.194.581-.194h.194l.194.194.194.194h.581l-1.356-.194h-1.356l-.581-.387h-.387l-.775-.581-.387-.775-.775-.581-1.55-.387-1.55.194h-9.3l-2.518.194-1.356-.387-1.162-.387h-4.456l-.581-.194Z" transform="translate(-232.45 -503.352)" fill="#1876d2" stroke="#fff" stroke-linecap="round" stroke-linejoin="round" stroke-width="0.5"/>
</svg>
