<svg xmlns="http://www.w3.org/2000/svg" width="343.977" height="296.507" viewBox="0 0 343.977 296.507">
  <path id="CDKL" d="M577.166,555.024h-.194l-.194.194-.194.388v1.162l.387.387.581.194v.194l.194.194-.194.387-.194,1.162.194.775v1.162l.194.388.194.194V562l.387.387.969.387.194.387.194.194v.387l.388.387.194.194.194,1.162v.194l.969,1.55h.194l.581,1.55-.388.581-.194.194.388,1.162-.194.969.194.388.775.581h.775l.387.388.194.387.775.775v.194l.194.387-.194.194-.387.387-.581.194v.775l-.194.387-.194.194-.581.581-.581,1.162h-.969v1.55l-.387.581-.194.194-.194.194-.387.194-.388,1.162-.581.969v.387l.194.387-.388.969-.387.581.969,1.162.194.581-.581.775v.194l-.194.194.388.969v.194l.581.581v.581l-.194.387v.194h-.194l-.387.194h-.581l-.194.194.194.387-.387.969.194.387.387.775v.194l.194.194v.387l-.194.387-.194.387-.581.581.194.387.775.775v.194l-.194.581V599l-.194,1.356v.581h.194l.969.581.775,1.937.194.194v.194l.581.387v1.55l.387.581.194.387v.581l.969,1.744v1.937l.581,1.162.194,2.518.388,2.518.387.581.387.388.581.387v.194l.194.388.387.581.775,1.356v.581l-.387,1.162v1.55l.581.775.387.775.387.194.969.387.387.388v1.937l.581.387h.387l.194.387v.387l-.194,1.162-.194.194.194.969.387.388.194.387.387,1.356v.194l.387.194v.775l-.387.969-.194.581v.387l.581.387.388.387.194.194-.194.194-.581.194-.194.194.194.194v.194l.387.387.194.194-.194.581v.194l.194.581v.581l-.387.387v.194l-.581.194-.194.387.387.581.194.581v.194l.775.969h.194v.581l-.194.775-1.55.969h-.775l-.194.194-.194.581v.194l.969,1.356-.581.775.194.194v.194h.194l.387.387h-.387l-.388-.387-.775.194-.194.194H588.6l-.581.194-.194.388-.194.194v.194l-.387.387.581.194h.194v.194h-.969v.194l-.194.194.581,1.937v.388l.581.387v.194l-.775-.194-.194.194-.388.775v.969l-.194.775.194.775h.194l.194.194h.387l1.356-.969h.387l-.194.194v.194l-.387.194-.581.387-.194.194-.581.194h-.194v.194l.194.775v.775l-.194,1.55.194.194.194.969v.194l.194.194.194.387.969-.194.194.194.581-.194.388.194v.194H588.79l-1.162-.194-.194.387.194.387v.775l.388.581-.388.194-.194.194-.194.387-.387,1.744.194.194.194-.194.387-.194.194-.194.194.194v.581l-.388.775-.194.194.387.388h.194v.387l-.194.387v.581l-.194.194.194.194v.387l.581.387h.194l.969.969-.194.388-.387.194-.194.387h.194l.581.194.581.387.194.194v.387l.775.969v.387h-.194l-.194.194-.388,1.162.194.581.194.387-.194.388-.387.194h-.194l-.194.194v.194l.581.581v.581l-.194.581.194.775-.194.194h-.387l-.388-.194h-.387v.194l.387.775v.775l.194.581-.194.388v.194l-.194.387v.194l.194.969-.581.775H588.4l-.194.194-.194.387-.387.775.194.387-.387.581-.969.387-.194.194-1.162.775-.969.969-.388,1.744v.194l.194.775v.581l-.194.387h-.194l-.775.194-.194.194-.194.194-.387.581h-.581l-.581.387-.581.194-.581.194H579.1l-.388-.194-.194.194-.194.194-.194.387v.387l-.581,1.356-.194.387-.581.581.194,1.356-.387.387-.581.581.194.581-.581,1.356v.194l-.194.194h-.581l-.581.194v.775l-.194.387-.194.387-.194.388H572.9l-.387.387-.194.194-.581-.194h-.387l-.194.194h-.387l-.387.388L570,712.714l-.775.581-.969-.194-.387-.194h-.775l-.969.581h-.969l-.581.969-.194.194h-.194v-.194l-.194-.194-.581-.581-.387-.387-.194.194.194.969-.194.387-1.356,1.162-.775.388-.194.194-.387.194h-1.162l-.581.194-.194.194-.194.387-.194.387-.969.969h-.387l-.387.969-.194.194h-.194l-.194.194-1.162.387-.581.969-.969.194-.194.194-.387.581-.194.194-.194.194h-1.356l-.194.194h-.194v.387l-.388,1.356-.194.194h-.969l-.194.194-.581,1.356-.194.194h-.775l-.194.194-1.162,1.744v.581l.194.969v.775l-.581.581v.194l-.194.775-.194.775-.194.387-.387.775.194.194.387.194.194.194v.194l.775.581v1.356l-.775,1.356v.581l.194.194.775.775-.194.969h-.775l-.194.194.194.581v.387l-.194.388-.194.387.194.194.194.194h.194l.194.194.194.387-.581.775h-.387l-.581.387v.194l-1.55.194H542.1l-.194.194-.194.194-.581.581L539.97,747l-1.356-.387h-.969l-1.162-.388-.969-.387-1.162-.387H532.8l-.581-.194-.581-.387-.775-.387-.581-.581-.581-.194h-.194l-.387-.194-.387-.387-.969-1.162-.387-.194-.581.194-.194.194-1.162-.387h-.194l-.194-.194v-.194l-.194-.387-.194-.387-.194-.194h-.387l-.194-.387H523.7l-.194-.194-.194.194-.388-.194h-.581l-.387.387-.969.581-.194.387-.194.387-.194.387-.775,2.325-.387.775-.194.387-.194.387L518.466,747v.194l-.194.581-.194.387-.194.388-.194.387-.387.194-.388.194-.194.194-.387.194-.775.194h-1.744l-.387-.387-.581-.194-.387-.194-.581.194v-2.906l-.581.194-.388-1.937-.581-.775v-2.131l-.194-.194-.194-.387-.581-.581v-.194l-.388-.775-.194-.775V737.9l-.194-.194.581-1.55.388-.969v-1.356l.387-.194.194-.194.194-.194.194.387h.194l.194-.387.194-.194.194-.387.581-1.356.388-.387.581-.387,1.356-.581.387-.194.775-.387,1.162-.969v-.581l.194-.387.194-.194.775-.387.194-.581v-.387l-.387-.194v-.581h-.581l-1.937.194-.775-.387h-2.325l-.969.969-.387.194-.775.194-.969-.387-.969-.387-.969-.387-1.162-.581-.581-.194-.581-.387-.775-.194h-.775l-.581-.194-.387-.194-.388-.581-.194-.388-.581.581-.388.387-.194.388v.581l.194.775-.581.775-1.162,1.55-.387,1.55-.194.387v.775l-.194.388-.581.387h-.969l-.581.194-.581.388-.581.387-.969-.194-.775-.581H492.7l-.581-.775-.581-.387-.387.194-.388.388-.387.775v.775l-.194.969v.388h-.388l-.387.194h-.388l-.581.387-.388.581-.194.775-.387.969-.194.775-.194.775-.194.581-.387.194-.388.194-.581.194H483.6l-.969.194-.775.194-.775.387-.387.194-.194.387-.775.581-.388.581-.581.387-.194.194-.581.387h-1.356l-.388-.194-.775-.969h-.194l-.194-.194V741l.387-.387v-.194l-.194-.581v-.387l-.194-.387v-.775l-.194-.388.387-.581-.775-1.162-.194-.194.194-.775-.194-.387-.581-.194-.775.194-.581.387-.775.387-.775.387-.581.388-.581.194h-.581l-.581-.775-.387-.775-.388-.387-.387-.581-.581-.581-.387-.581-.194-.581-.194-.581-.194-.387.194-.581h.581l.387.387.388.194.581.581.581.387h.387l.581-.387v-6.006l.194-.581-.387-.387h-.388l-.387.581-.387.581-.388.581-.194.387-.387.194-.775-.387-.387-.387-.388-.775v-.581l.775-.969.387-.581v-.194l-.387-.387-.194-.194h-.581l-.775.581-.775.194-.388.387-.581.387-.388.388h-.387l-.581.194-.775.194-.194.387-.581.387-.388.194-1.744.387-1.55-1.356v-.775l-.194-.194.194-.387-.194-.388-.194-.194-.194-.387.194-.388-.387-.775-.775-1.356-.194-.387-.194-.969-.194-.388v-.194l-.194-.775v-.194l-.387-.194-.194-.387v-.194l-.388-.387.194-.387v-.387l.581-.969v-1.162l.388-.387-.194-.969-.387-.194h-1.55l-.775-.194h-1.55l-.775-.194-.581-.194-.581.194-1.162.387-1.162.194-1.162.387-1.55.581-.581.194-.775-.194-.775-.194H439.62l-.581.194-.581.194-.194-.194.194-.387.387-.194.581-.581.194-.387v-.194l.194-.194v-1.162l-.387-1.55-.581-1.55.194-.969.775-.388v-.387l.194-.775,1.162-1.162.194-.581.194-.581.194-.969v-.581l-.581-.194h-.388l-.581.387-.194.581-.387.969-.387.581-.388.387-.387.194-.387-.581-.388-.387-.387-.775-.194-.194h-2.712l-.581-.581-.387-.581v-.581l-.194-.387-.194-.194-.581-.194-.388-.194-.387-.194-.194-.194-.388-.387-.387-.581v-.194l-.387-.388-.388-.194h-.387l-.775.194-1.55-.194-.775-.581-.388-1.162-.387-1.356h-.388l-.194.581-.581,1.162-1.356-.194-1.744,1.744-.775,1.744h-1.356l-.387.194-.194.388v.581l-.194.388-.194.581-.581.581-.581.194-.775.194-.969.194-.581-.194-.387-.194V700.9l.194-.581.194-.581.194-.194-.194-.387-.387-.194-.194.194-.194.194-.581,1.356-.194.194-.581.581-.387.194h-.194l-.194-.194-.194-.581v-3.875l-.194-1.162-.387-.775-.388-.775-.194-.581-.194-.581-.387-.581-.194-.194-.581.194-.388.581-.194.194-.581.194v.194l.194.581-.581,1.356-.194.194-.194.194h-.581l-.387.387.194.387-.387.775.194.581-.581.581-.194.775v.194l.194.194.387-.194v.194l-.387.581.194.581-.194.387-.194.388-.194.581-.194.194-.388.194h-.581l-.194-.194-.387-.194-.194-.194-.581-.387-.387-.194-.388-.194h-.581l-.969.194-.969.194h-.775l-.387-.388-.194-.194V700.7l.388-.194.581-.194.775-.194.581-.387.581-.194.581-.387.387-.581v-2.131l-.387-.581-.194-.387-.388-.194-.581.387-.194.388-.388.194-.194.387-.581.194-.387.194-.387-.581V694.7l.387-.581.775-.969.194-.388.387-.581v-1.162l-.194-.194-.387-.387h-.581l-.581-.194-.581-.194-.387-.194v-.581l.194-.581.194-.581-.387-.387h-3.1l-.775-.194h-1.356l-.194-.581v-.775l-.194-.775v-.387l-.775.387-.581.194-.581.194-.581.387-.775.194h-.581l-.581.194h-.969l-.581-.194-.581-.194-.581-.387-.581-.581-.775-.775-.388-.581-.387-.388-.581-.387-.581-.387-.194-.775v-.775l.387-.387v-.387l-.387-.194H378.79l-.969-.194-.581-.194-.581-.194-.388-.194-.387-.194H375.3v.194l-.194.387v.194l-.194.194-1.356,1.55-.969,1.356-.194.581-.194.387-1.55,2.712-.388.387-.581.194-.194.194H369.1l-.387-.194h-.969v-.194l-.581-.194-.775-.194h-1.937l-.775-.194-.775-.194-.581-.194-.969-.194-.581-.194L360,685.4l-.388-.194h-.581l-.775.387-.388.387-.387.194-.194.387-.969.775-.194.387-.388-.775-.194-.581-.387-.194v-.581h-.388l-.194.194-.581-.194h-.387V685.4l-.194-.194h-.581l-.581.969h-.581l-.581.194h-.775l-.388.194h-3.1l.194-.775-.387-.775-.194-.387h-.388l-.775-.969L344.5,682.3l.194-.388.194-1.162h.194l-.194-.581-.194-.387.194-.581v-.775l-.387-.388.387-.581.194-.194v-1.356l-.194-.387.194-.581.194-.387-.194-.388.194-.194-.194-.387.581-.775v-.194l.194-.388.387-.581-.775-.581-.194-.581-.387-.581h-.581v-.387l.194-.194h-.581l-.194-.194v-.387l-.581-.194-.581-.194-.194-.194h-.194l-.194-.387-.387-.775v-.581l-.775-.581v-1.162l.194-.581.194-.194v-.581l.581-.775-.194-.194-.581-.194v-.581l-.387-.194-.388-.388.194-.194.194-.194.387-1.162-.387-.969-.194-.194-.194-.581-.194-.387.194-.387.194-.194.388-.581-.581-.581v-.388l.194-.387v-1.55l.388-.194v-.581l.194-.387.194-.194-.194-.775V648.4h.194l.194-.194-.581-.387.194-.194.387-.194v-.581l-.194-.581-.387-.388.387-.775v-.194l-.194-.387v-.194l.194-.194v-1.162h.194l.388.194.194-.194-.581-.775.388-.581.194-.194.194-.194.387-.581-.194-.581-.194-.194.194-.387.194-.194h.388l.194-.194.581-.387.194-.194v-.775h.387l.194-.387h.194v-.775l.194-.581.581-.775h.388l.194.194.387-1.162.194-.194.194-.194.387-1.162h-.581v-.194l-.194-.194.581-.775-.194-.194-.194.194h-.388l-.387-.387h-.388l-.194-.194-.194-.194v-.194l.387-.387.194-.194-.194-.387-.194-.194-.387-.194-.388-.194-.194-.194.388-.581.387-.194.194-.775.388-.388.194-.387-.388-.775v-.581l.194-.387-1.162-.387-.387-.388h-.194l-.194-.581.194-.775v-.194h-.194l-.194-.194v-.194l.194-.581v-.388l.194-.194.194-.194h.194l.194-.194v-1.162l.194-1.162.194-.194-.581-1.744v-.387l.581-.387v-.194h-1.162l-.388-.387-.194-.387V614.3l.387-.775-.194-.387-.387-.387.194-1.356V611.2l-.194-.387.387-.775.388-.387.581-.194.194-.581.194-.194v-.194l.387-.194V608.1h.194l-.194-.581.194-.194h.194l.581-.194.194-.194v-.581l.194-1.356.969-.581-.194-.388h-.387v-.194l-.194-.194.775-.969v-1.356l-.194-.194-.387-.194v-.387l.387-.775.775-.581v-.775l.775-.194.194-.388.581-2.712.194-.387.387-.581v-.775l.194-.388.194-.194.581-.194v-.969l.388-.387h.775l.194-.194v-.775l.194-.387h.581l.581.194V589.9l.194-.194-.194-.581v-.194l.581-.194.581-.581.194-.581v-.581l.194-.194h.194l.194-.194V585.44l.194-.581.194-.194v-.387h-.581V582.34l.194-.194h.581l.775-.969v-.194l-.387-.194-.194-.194,2.325-1.162.388.194v.194l.194.194.387.194.388-.581.194-.194v-.194h0v-.388l.775-.581v-.581l-.388-.775-.194-.194h-.194l-.194-.194.387-.387-1.162-1.162-.194-.387.194-1.162-.388-.194-1.743-.194h-.775l.581-.969h.581l.387.387h.194l.775-.581-.387-.194h-.581V571.1l-.194-.387.194-.581.388-.387.194.387.194.387.194.194h.194l.387-.969.581-.775L360,568.2l.581-.387.387-.194.194-1.162.194.194.581.388v-.969l.194-1.356.194-.194h.387l.194.387h.388l.387-.194.388-.581v-.194h.194l.194.194.387.194h.194l.387-.194H366l.194-.194.581-.581.194-.194h.194l.775-.581.194-.387.194-.969.194-.194.194-.194h.194l.969-.194h.388l.194-.194.581-.775,1.743-.969v-.194l.388-.581-.194-.775-.194-.581-.194-.387-.387-.387-.194-.387-.388-.194-.387-.388-.581-.387-.581-.387h-.194l-.388.194-.387.387-.581.581-.387.387-.969.581-.775.581-.969.387-.969.581-.969.387-.969.387-.969.194-.775.388-.969.387-1.356.194-.969.194-.388.194-.775.194-.581-.194-.388-.194-.581-.387v-.775l.194-.969.194-.387.194-.194V555.8l.388-.387V554.25l-.775-1.356-.387-.581v-1.162l-1.162-.969-1.162.194-.969.194-1.162.194h-1.162l-.969.194h-.581l-.775-.194-.581-.194h-1.356l-.387.194-.581.387-.581.387-.581.581-.775.775-.581.581-.775.775-.581.581-.387.388-.388.387h-.387l-.581.194-.581.194h-.388l-.775.194-.388.194-.581.581-.388.387-.775.775-.581.387-.775.775-.775.581-.775.775-.969.775-.969.581-.969.581-1.162.581-.775.387-.969.388-.775.194-.775.194-.775.194h-2.712l-.387.387-.775.581-.387.387-.581.581-.581.581-.581.775-.581.775-.387.775-.581,1.356-.387.969-.388,1.356v.775l-.194.775-.194,1.356-.194.775-.194.581-.194.775-.194.581-.387.581-.388.775-.581.387-.775.387-.387.194h-.775l-.581-.194-.387-.194-.581-.388-.387-.194-.581-.387h-.194l-.969-.194-.969-.969-1.937-.581-.581-.775-.194-.387-.775-.775v-.194l-.387-.581-1.55-1.937h-.387l-.388-.194-.387-.194h-1.162l-.388.581-.387.194-.194.194-.581.775h-.194l-.387.387-.388.194h-.581l-.581.194h-1.162l-.388-.194-.387-.194-.194-.194L292,574.4l-.194-.387-.194-.387-.194-.581V571.3l.581-.387.387-.388.387-.194.581-.387.387-.581.388-.387.387-.775v-1.743l-.194-.387-.194-.388-.194-.194-.388-.194-.387.194h-.388l-.194.194-.581.194h-.775l-.194-.194-.194-.194-.194-.387-.387-.581v-.775l-.194-.581-.194-.388-.194-.581-.194-.194-.194-.387-.194-.581-.388-.387-.194-.194-.581-.387-.581-.581-.387-.194-.388-.581-.387-.387-.388-.581-.387-.581-.387-.387-.194-.194-.387-.387-.194-.194-.581-.194v.194l-.194.775-.194.387v2.712l-.194.775-.194.194-.387.194-.387.387h-1.162l-.775.387h-1.162l-.194.194-.387-.194-.387-.387-.581-.194h-.581l-.387.194-.387.194-.194.581-.194.194-.194.387-.387.581-.194.194-.387.194-.387.194H273.6l-.194-.387v-3.681l-.194-.194v-.194l-.194-.194-.387-.387h-.387l-.387.194v.387l-.194.387-.194.388-.194.194-.194.387h-.194l-.387.194-.387-1.55-.581-1.162v.194l-.581.387-.387.194h-.194l-.387-.194h-.194l-.387.194-.387.388-.581.775-.194.775-.387.194h-.387l-.387.387-.581.387h-1.162l-.581.775h-.775l-.387.194-.194.387-.194.387-.194.388-.194.581v1.162l-.194.775v1.744l.194.775v1.356l.194.969v2.131l.194.775v4.068l-.194.775v.581l-.194.194h-.387l-.387-.194-.581-.194-.581-.387-.775-.775-.775-.581-.775-.581-.581-.387-1.162-.969-.775-.581-.581-.581-.387-.387-.387-.581-.387-.387H250.93l-.387-.194h-.194l.194-.194v-.581h.194v-.194l-.194-.194v-.969l.194-.194h-.194l.194-.194-.194-.194v-.194l-.194-.387-.194-.194-.194-.194h.194l.194-.387v-.194l.194-.194v-.969l.194-.194v-.194h.194v-.194l.194-.194.194-.194v-.194h.775l.194-.194v-.387l-.194-.387-.194-.194-.194-.194-.194-.194.194-.194v-.194l.194-.194h.387v-.194h.194v-.194l.194-.194v-.194l.194-.194.387-.194v-.194l.194-.194.194-.194.194-.387v-.775l-.194-.194-.194-.194-.194-.194v-.194l-.194-.194-.194-.387-.194-.387-.194-.387h-.194V559.1l.194-.194h.194v-.194l.194-.194v-1.356l-.194-.194-.194-.194-.194-.387V556l-.194-.194v-.194l-.194-.387-.194-.388-.194-.387-.194-.194v-.775l-.194-.194h-.194l-.387-.194h-.194l-.387-.388V551.54l.194-.387.194-.194-.194-.194-.194-.194h-.194l-.194.194-.194-.194-.194-.194H248.8V549.8h.194V549.6l.194-.194.194-.194v-.194l.194-.194v-.387h.194l.194-.194v-.387l.194-.194.194-.194.194.194V546.7l-.194-.194v-.581l.194-.194v-.194h.775l.194-.194.387-.194.194-.194h.387l2.712-.969.581-.581.775-.388.387-.387,1.162-.387.194-.194.387-.194.581-.194h.387l.387-.194.775-.387h.387l.581.194,1.356-.388.969.388,1.744.581h1.162l.387.194.194.194.581.387.387-.194h.194l.194-.194h.194v-.194l.387-.581.775-1.55.387-.387h.969l.387-.194.969-.775.581-.581,1.356-.581.387-.194.581-.581.775-.194h1.356l2.131,1.162h.387l.194-.194h.194l2.518-1.937.581-.581.387-.194.775-.387.581-.387,2.906-3.293.387-1.744,1.55-1.55h.387l.969-.194.775-.194h.387l1.356-.194.969.581.581-.387h2.325l.581.194.194.194.775.969.775.581h.194l1.55.387,1.744,1.356.194.194,1.744.387h.194l.581-.194,1.162-.969.581-.387.581-1.162.387-1.743,1.55-1.356,1.356-1.937.194-.194.387-.194h1.162l.388-.387.387-.969.194-.387.775-.775.969-2.131v-.581l.194-1.356-.194-2.131.194-.388v-.194l.581-.581.775-.775.194-.388-.194-.581v-.388l.194-1.162.387-1.162,1.744-1.55.194-.581.581-2.131.194-.581.775-1.356.581-.581h.194l.775-.387.194-.194.387-.194.387-.775.194-.387-.388-1.356v-.775l.388-.388.387-.194h.194l.775-.194h.581l.387-.581v-.387l-.194-.194-.194-.775-.969-.581v-.194l-.388-.194v-.387l-.194-.775-.581-1.937-.969-.581-.775-1.356v-.194l.387-1.744v-.581l-.387-.581-.194-.194-.194-.194-.194-.581-.194-.969V482.96l-.194-.581-.194-.969v-.969l.581-.775.388-.775.194-.387,1.162-.969h.194v-.194l.581-.194,1.162-.969v-.194l.581-1.162.387-1.937v-.194l.194-.194.194-.194h.581l.194.194.194-.194H329l.581-.387.194-.581v-.194l.194-1.356V469.4l-.388-.581-.194-.388-.969-.969-.194-.387v-.388l.775-.775.775-.581.388-.194.387-.581.194-.194,1.356-3.681-.388-1.55-.775-1.356-.969-1.356-.194-.388-.194-1.55h1.162l.581-.388.194-.194.388.194,1.356.194.387.194.194.387.194.581.194.194.194.194h1.744l.387.194.194.388v.775l.194.387.775.581,1.744.581.194.194h.969l.969.775h.775l.388-.194.194-.194h.387l2.131,1.162.388.194,2.518,2.712h.194l.581.387.581.388,1.162.194h1.55l.387-.194.775-.388h1.162l.581.194,1.162,1.162.969-.194.387.194,1.55,1.356v.194l.194.194h.581l.387-.388h.194l.581-.775h1.162l.775.388.387.387.194.194.387.388.775.969h.194l.969.775.387.581.388.388,1.55.775h.194l.387.194,1.55.775,1.743.388.388.387.387,1.55v.194l.581.775,1.162.581h.387l.969-.194.969-.581.775-.194h.194l1.937-.194h1.162l.581-.194h.581l.969-.581H384.8l.388-.387h.194l.775-.775.194-.194h.194l1.937-.581.775.194.387.194h.775l1.937-.775h.775l2.325.581,1.55,1.743.775.194.775-.194.581-.194.387.581.969.969,1.356,1.55.387.388.775.581.581.194.969-.581v-.194l.194-.388.194-.775V475.4l.194-.194.581-.387h.581l.387-.194.387-.194.775-.775.194-.194h2.131l.969-.387h.388l.194.194.194.194.194,1.162.194.194.194.194.775.387h.194l.387.388.388.581.387.969-.194.581-.194.581h.969l.194.194.775.775h.194l.581.194.388.194.387.775v.194l.194.194.388.194.581.194.969.581.775.194.581,1.55.775.194v.581l.387.387.194.388,2.712.775v-.194l.387-.194h.194v.388l-.194.194h-.194l-.194.194h.194v.194h.194l.581-.194h.194l-.194-.581h.387l.388.194h.194l.581.581.581.581,1.162.581v.775l.387.194.581-.581.581.194.775.581h.581l1.162.581.387-.387h1.356l.581.194.388.194,1.162.194h.194l.581.581h.775l.581-.775.194-.194.194.581v.194h1.356l1.356-1.356.581-.194.969.194.581.194.969.775.388.581h.387l.581.194.387.194.194.194.581.581.387-.194.969-.194h.194l.387.387h.387v.194l.581.775h.194l.775.194,1.356.581,1.162.581h.387l.581-.775h.387l.775.387.194.194.581.194h2.131l.387.194.969.775v.194l.194.194h.388l.581.194h.581l.581.388h.387l.581.194,1.162.194.387.194h1.356l.775.581.388.194h.775l1.356.194,1.937.775.194.194.969.388,1.356.194.194.194.194.387.969.581.387.194.388.194.581.194.194.194h1.162l1.162.969.581.194h.387l1.356.969.387.194h.194l.387.194,1.55.581h.194l.388.387.581.581.388.581.581.194.194.194.775.194.775.388.969.387.194.194h3.293l.969.387.387.388h.775l.194.194.194.387.581.388,1.162.581,2.325.581,1.356.969h.194l.969.387.194.194,1.162.775.969.194h.387l.387.194,1.162.775.194.194.387.581.969.581.194.194.581.388h1.744l2.906,1.744.387.581,1.162.969h.969l.194.194h.194l.581.581.581.581.969.581,1.356.969.388.194,1.55.581.775,1.356h.388v.194l.387-.194h.194l1.356.387.194.194.387.194,1.356,1.162.387.581,1.162.581,1.162.387.775.387.194.388h.194l.581.387.194.194h.581l.194.194.388.194h.775l.194.387.387.194.775.775.387.969.387.388.388.387.775.387h1.162l.581.194.581.194.388.194,2.131.387h.775l.581.581h1.55l.969-.194h.775l.581.387h1.55l.194.194.194.194,1.937.388.194.387h.194l.387-.387.581-.194h.969l.387.194,1.162.775.388.194.194.194.775.581.775.387h1.937l.387-.194h.387l.581.194,1.55,1.937.581,1.162.581.581.581,1.162.388.387.581.194,1.162.194.775.194.969.775.388.387.194.388.194.581.194.388h.581l.194-.194.581-.387.581-.194.194.194.581.194.387.388.194.194.194.775.194.194v.581l.194.194.194.194.775.194.194.387h.194l.194.387.194.387.387.388.387.581.194.194.194.194v1.356l.969,1.162.194.775.194.387.581,1.162Z" transform="translate(-248.549 -453.651)" fill="#6f9c76" stroke="#fff" stroke-linecap="round" stroke-linejoin="round" stroke-width="0.5"/>
</svg>
