<svg xmlns="http://www.w3.org/2000/svg" width="129.912" height="102.004" viewBox="0 0 129.912 102.004">
  <path id="CDKN" d="M184.794,536.851l-.194-.194.194-.194h.387v-.194l-.194-.194h.194l.194-.194h.194v-.194l-.194-.194h.194v-.387h.387v-.387l.194-.194v-.194l.194-.194h.387l.194-.194h.194v-.387h.581l-.194-.194v-.194h.194v-.194h.194v-.194h.194v-.194h.194V532.4l.775-.969v-1.744h.581v-1.162l.194-.194v-.194h.194v-.194l-.194-.194v-.194l.194-.194v-.194h.194v-.387l.194-.194v-.194h.194V526.2h.194V526l.194-.194h.775l.194.194.194.194h-.194l.387.194h.194l.194-.194h.194v.194h.775l.194.194v-.194h.194V526.2h.194V526h.194v-.194h.581v-.194h.581v.194h.387V526h.387v.194h.194V526h0v-.194h.194l.194-.194h.194v-.194H197v-.387l.194-.194v-.194h.194l.194-.194v-.194h.194v-.194h.194v-.194l.194-.194.194-.194h.387v.194h.387l.194.194.194-.194h.387v-.194h.194v.194l.194-.194h.387v-.194h.387l.194-.194h.969l.194.194v.194h.194l.194.194h0l.387.194v.194l.194.194v.388h.194v.194l.194.194.194.194h.194v.388l.194-.194v.194h0v0h.194v.194l.194.194v0h.194v-.194l.194-.194h.194v-.194h.194v-.194h-.194v-.194h-.194v-.194h.387l.194.194h.387l.775.387.194.194h.969l.775.387.387.194.194.194h.775l.387.194h.387l.387.194h.969l.194.194.194-.194h2.131l.387.194h.775l.387-.194h.387l.387-.194.581-.388.387-.194.387-.194.387-.194.387-.388.387-.387.387-.194.194-.388.194-.194.194-.387h.194l.194-.194.194-.194.194-.387.194-.194v-.194l.194-.194v-.194l.194-.194v-.775l.387-.194.194-.388.194-.194.194-.194.194-.387v-.581l.194-.387v-.581l.194-.194v-2.325l-.194-.194v-.581l-.194-.388v-.194l-.194-.194-.194-.194V513.8l-.194-.194-.194-.194-.194-.387v-.194l-.581-.388-.194-.387-.194-.388-.775-.581-.581-.194V510.7l-.194-.194-.194-.194v-.194l-.194-.388v-.194l-.194-.387v-.388l.194-.387.194-.387.194-.194.194-.388v-.387l.194-.194h.194v-.388l.194-.194.194-.194v-.194l.194-.388-.194-.194V504.3l.194-.387h.194l.194-.194h.194l.194-.387v-.194l.194-.388v-.387l.194-.194h.194l.387-.194.387-.388.194-.387.194-.194.194-.388v-.194h.194l.194-.387h.969l.194-.194h.194l.387-.194h.194l.194-.194v-.194h.387l.194-.194h.387v-.194l.194-.194.387-.194h.194L228,498.3l.387-.194h.581l.194-.194.194.194v-.194h.969l.194-.194h.194l.387-.194.387-.194.194-.194h.194l.387-.194h.387l.194-.194h.387l.387-.194h.775l.194-.194.387-.194h.775l.194-.194h.581l.194-.194h.194v-.194h.775l.194-.194h1.356l.581-.194.387-.194h.581l.194-.194v.194h1.162l.194-.194h1.356v-.194h.387l.387-.194h.775l.194-.194h.387l.194.194v.194h.775l.194-.194.194.194h.581l.194-.194h.194l.194-.194h.194l.194-.194h.194l.194-.194h.194v-.194l.387-.194h.387l.194-.194h.387l.194-.194h.194l.194-.194h.194l.194-.194h.969l.194-.194h.387v-.194h.194l.194.194h.387l.194-.194V492.1l.194.194h.194l.194-.194v-.388l.194-.194h.581v-.194h.194v-.194l.194-.194h.775l.194.194v.194h.194v.194l.194-.194h.194v-.194l.194-.194h.194v-.194h.194v-.194h.194v-.194h.581v-.194l.194-.194v-.194h.194l.194-.194h-.194v-.194h.194l.194-.194h.194V489h.194l.194.194h.194v.194h.194l.194.194h.194l.194.194h.194v.194h.387v.194h.194v.194h.194v.194h.194v.194h.194l.194.194h.387l.194.194v.194l.194-.194h.194v.194h.194l.194.194h.194l.194.194h.387v.581H265v.194h.194v.194l.581.194.194.194.775-.194.581-.194h.194l.387-.194.194-.194.387-.581.387-.775.387-.581h.775l.775.194,1.162.387,1.162.581.969.387,2.131.969,5.812,2.906,4.068,2.131,3.681,2.131,4.068,2.131,3.1,1.937,3.1,1.937,3.1,1.937.775.969h.194l.194.194.194.581.581.387h.581l.775.581v.194l.387.581,1.356.194.194.387v.194l-.387.387h-.581l-.387.194-.194.581.194.387.581.775.194.194.194.388.194.581.194.194.581.194h.194l.387.194-.194.194-.194.194v.194h-.194v.581h.387l.194.194.194.194.194-.194h.194l.194.194.194.194-.194.194-.194.387V519.8l.387.388h.194l.387.194h.194l.194.194v.775l.194.194.194.387.194.388.194.387v.194l.194.194v.387l.194.387.194.194.194.194v1.356l-.194.194V526h-.194l-.194.194v.387h.194l.194.387.194.388.194.387.194.194v.194l.194.194.194.194.194.194v.775l-.194.387-.194.194-.194.194v.194l-.387.194-.194.194v.194l-.194.194v.194h-.194v.194h-.387l-.194.194v.194l-.194.194.194.194.194.194.194.194.194.388v.387l-.194.194h-.775v.194l-.194.194-.194.194v.194h-.194v.194l-.194.194v.969l-.194.194v.194l-.194.388h-.194l.194.194.194.194.194.387v.194l.194.194-.194.194h.194l-.194.194v.969l.194.194v.194h-.194v.581l-.194.194h-1.55l-.194.194H308.2l-.387-.194-.581-.194-.581-.194-.775-.194-.194-.194-1.55-1.356-.581-.387-.387.194-.775.581-.194.387L302,540.143l-.387.581v1.743l-.194.775v.581l-.581,1.356-.581.969-.581.581-.581.581-.581.775-.387,1.162-.387.775-.775,1.162-.581,1.356L296,553.7l-.581.969-.387.969-.387.775-.387.969-.581.969-.387,1.162-.387.775-.387.969-.387.969-.387.775-.387.581-.194.194-.581.387-.194.194-.581.194-.775.194v.194h.194v.387h-.194l.194.194v.194h-.194v.194h0v.775l-.194.194v0h-.194v.194h0v.194l.194.194v.387h-.194v.194h-.194l-.194.194v.194h-.194v1.356h-.194v.387h.194v.194h.194v.194h-.194l.194.194h-.194v.194h-.194v.194h.194v.387h0v.194h.194v.194h-.775v.194h-.194v.194h-.194v.194h.194v.194h-.194v.387h.194v.775h-.194v.775h.581l.194.194h.387l.194.194h.194l.194.194v.194h-.194v.581h.194v.387l.194.194.194.194v.194h.194v.387h.194v.194h-.194v.387l.194.194h-.194v.194h.194l.194.194H289.6v.194h0v.194h-.194v.775l-.194-.194v.775h.194v.775h.194v.968h-.194v.194h0v.581h-.194v.387l.194.194v.194h0l-.194.194.194.194h0v.194h0v.387h-.194v.387h-.194v.194h-.194v.194h-.194v.194H286.7l-1.162-.194h-6.587l-5.231-.387-1.162-.194h-2.712l-1.356-.387-.387.194-.581.387-.581.194-1.356.388-.969-.775-.387-.775-1.162-.775h-2.325l-.969.388-.775.194-.775.581-.969-.194-.581-1.162-.387-.969-.194-1.356v-1.162l-.581-1.162-.969-1.55-.775-.969-1.55-.581h-.387v.387h.194l.194.194h.194v.387h.194v.387h-.194v.194h-.194l-.194.194h-.194v0h-.194v-.194h-.194v.194h-.194v.194h-.194v-.194l-.194.194v0h-.194v.387h-.194v.387h0v.387h.194v.194l-.194.194v.387h0v.194h.194v.387h.194v.194h.387v.194h.387l-.194.194h.194l-.194.194h.194v.387h-.194l.194.194v.194h-.194v0h0v.194h-.194v.194h.194l.194.194h0v.775h.194v.194h.194v.194h.194v.194h.194v.194h.194v.194h-.194v.387l-.194.194v0h-.194v.194h-.194v.581h0l-.194.194h.194v.194h-.194v.387h.194l-.194.194h.194v.194h-.194v.194h-.194v.387h-.194v.194h0v.194h-.194v0h.194l-.194.194h.194v.194h.194v.581h-.194v.194h-.194v.194h-.194v.194h0v.194h-.194v.194l-.194-.194v.194h-.194l.194.194h-.194l.194.194h0l.194.194h-.194l-.194.194H249.7v.194H249.5l.194.194v.194H249.5v.194h-1.162l-.387-.387h-.194l-.775.387-.581-.194-.581-.388-.775.388h-.581l-1.162-.388h-.969l-.581-1.937-.387-.969v-1.744l-.969-.581-1.55-.581-1.744-.775-1.162-.969V581.4h-.194l-.387-.194-.194-.194-.775-.581-.969-.387-1.162-.581-.581-.194-1.356-1.162-.775-1.162-.194-1.55.581-2.712.387-1.356.969-.775,1.162-.194,1.937.194,1.356-.194L237.1,569l.969-1.55.387-1.162.194-1.937v-1.356l.387-1.55.581-1.356,1.162-1.55.775-1.55.387-1.356-.581-1.744-1.162-.969-1.356-.387-1.744-.581-1.937-1.356-.581-.775v-1.356h-.194v.194H234.2v-.194h.194v-.194H234.2l-.194.194h-.194v.581h-.194v-.194h-.194l-.194-.194v.194l-.194.194.194.194-.387.387v.194l-.194.775v.194l-.194.775-1.162-.194H227.61l-.194.194-.969.194-.581-.194h-2.325l-.194-.194-.194-.194-.194-.388h-.387l-.194-.194h-.387V550.4l-.194-.194H221.6l-.387-.194h-.194l-.194.194-.194.194v.194h-.194l-.194.194v.387h-.194v.194h-.194l-.194.194h-.194v-.194h-.581v.194h-.775v.194h-.387l-.194.194h-.581l-.194-.194-.194.194v-.194l-.194-.194h-.194l-.194-.194h-.194v-.387H215.6V550.6H215.4l.194-.194-.194-.194v-.194h-.194v-.194h-.387v-.194h-.194v-.194h-.194v0h-.194v-.581h-.194v-.194h.194v-.387l-.194-.194v-.194h-.194v-.194h-.194V547.3h-.194l-.194-.194v-.581h-.194v-.387h-.194v0h-.194v0H212.5v0h-.775v-.194h-.194v.194h-.194v.194h-.581v.194h-.387v.194h-.194v.387l-.194.194-.194.194h.194v.194h.194v.194l-.194.194v.387h0l.194.194v.194l-.194.194v.194h.194v.581h.194v.194l-.194.194h-.194v.194h.194l-.194.194v.387h-.194l.194.194h-.194v.194h-.194l-.194.194h-.194v.581h-.194l-.194.194v.387h0v.387h-.194v.387h-.387v.387h-.387v.194l-.194.194h-.194v.194l.194.194h-.194l-.194-.194v.194h-.581l-.194.387h-.387v.194h-.194v-.194h-.194v.387h-.387l-.581.194-.581-.194h-.581l-.387-.194-.194-.194.194-.194-.387-.581-.194-.194-.581-.194-.387-.388-.387-.194h-.581l-.194-.194h-.194l-.387.194-.194-.194h-1.356l-.387-.194-.194-.194-.387-.194h-1.162l-.194.194h-.194l-.581-.194-.194-.581-.194-.194-.194-.581-.194-.388h-.194V550.4h-.194l-.194-.194-.387-.194h-.387l-.387-.194-.194-.194h-.194l-.194-.387v-.387l-.194-.194v-.194l-.194-.194h.194l-.194-.194-.194-.194h-.387l-.194-.194h-.581l-.387-.194h-.969V547.3h-.387v-.775h.194l-.194-.194v-.194h.194v-.194l.194-.194-.194-.194v-.194h-.194l-.194-.194.194-.194v-1.162l.387-.387v-.775l-.194-.194h-.194v-.387l.194-.194v-1.162l-.194-.194.194-.388h-.194v-.775l-.194-.194-.194-.194v-.194h-.194v-.194h-.194V538.2H187.7v-.387h-.387v-.194h-.194l-.194-.194h-.194v0h-.194v0h-.194l-.194.194v-.194h-.194v-.387h-.194v-.194h-.775v-.194H184.8v.194Z" transform="translate(-184.35 -488.749)" fill="#6f9c76" stroke="#fff" stroke-linecap="round" stroke-linejoin="round" stroke-width="0.5"/>
</svg>
