<svg xmlns="http://www.w3.org/2000/svg" width="263.774" height="460.982" viewBox="0 0 263.774 460.982">
  <path id="CDKS" d="M426.578,846.036v-.194l.194-.194,1.162-.581-.581-.581.194-.194h.388l-.388-.387-.194-.581-.194-.387.194-.387-.194-.581-.194-.194v-1.55l-.581-.194-.387-.387.194-.387v-.194l.194-.194v-.387l-.194-.775.194-.581-.581-.194v-.194l-.194-.194.194-.581h-.775l-.194-1.937-.194-.387-.194-.194v-.194l-.194-.581-.581-.387-.581-.581-.581-.387h-.387l-.194-.387-.388-.969.194-.581v-.194l-.194-.194-.969-.194v-.969l-.194-.194v-.581h-.969v-.194h-.194l.194-.581v-.194l-.194-.194-.388-.387-.387-.387-.387-.194h-.388l-.194-.194-.194-.194v-.581h-.194l-.581-.194-.194-.194.194-.194v-.194l-.387-.581-.581-.775.194-.387-.194-.387-.387.194h-.388l-.194-.581v-.581l-.194-.194h-.388l-.194-.194V819.5l.194-.387v-.387H413.4v-.775l-.388-.194h-.194l-.581-.775-.388-.194-.194-.194-.581-.194-.194-.194.194-.387v-.194l-.581-.387-.194-.194-.194-.194h-.387l-.194-.775v-.194l-.581-.581-.387-.775-.194-.194-.194-.581v-.194l-.194-.194-1.162-.194-.387-.387-.194-.581-.581-.387h-.194l-.388-.387-.194-.775-.387-.581v-.388l-.194-.387-.194-.194-.194-.194v-.387l-.194-.194.194-.969v-.194l.194-.388v-.387h-.194l-.387-.194-.194-.194v-.969l.387-.581-.581-.969v-.387h.194l.581-.194v-.775l-.581-.581.194-.387h1.162l-.194-.387-.581-.581v-.194l.387-.387.194-.387-.194-.969v-.969l-.775-.775.194-.581h.387l.194-.194h.194l.194-.194v-.194l.194-.387v-.581l-.194-.387V791.8l-.388-.194v-.387h-.194l-.194-.194v-.194l-.194-.194v-.775l-.388-.581.194-.387-.388-.387-.194-.581-.194-.775v-1.937l-.581-.194-.194-.194v-.581l.581-.775-.194-.387-.194-.194h-.194l-.194-.194-.194-.194.194-.387.194-.387v-.388l-.194-.581.194-.194h.775l.194-.969-.775-.775-.194-.194v-.581l.775-1.356v-1.356l-.775-.581v-.194l-.194-.194-.387-.194-.194-.194.388-.775.194-.387.194-.775.194-.775v-.194l.581-.581v-.775l-.194-.969v-.581l1.162-1.744.194-.194h.775l.194-.194.581-1.356.194-.194h.969l.194-.194.388-1.356v-.387h.194l.194-.194h1.356l.194-.194.194-.194.387-.581.194-.194.969-.194.581-.969,1.162-.387.194-.194h.194l.194-.194.387-.969h.387l.969-.969.194-.387.194-.388.194-.194.581-.194h1.162l.387-.194.194-.194.775-.387,1.356-1.162.194-.387-.194-.969.194-.194.387.388.581.581.194.194v.194h.194l.194-.194.581-.969h.969l.969-.581h.775l.387.194.969.194.775-.581.388-1.162.387-.387h.387l.194-.194h.388l.581.194.194-.194.387-.387h.775l.194-.387.194-.387.194-.388v-.775l.581-.194h.581l.194-.194v-.194l.581-1.356-.194-.581.581-.581.387-.387-.194-1.356.581-.581.194-.387.581-1.356v-.387l.194-.387.194-.194.194-.194.388.194h.581l.581-.194.581-.194.581-.387h.581l.387-.581.194-.194.194-.194.775-.194h.194l.194-.388v-.581l-.194-.775V736l.388-1.744.969-.969,1.162-.775.194-.194.969-.387.388-.581-.194-.387.388-.775.194-.388.194-.194h.388l.581-.775-.194-.969v-.194l.194-.387v-.194l.194-.387-.194-.581v-.775l-.387-.775v-.194h.387l.388.194h.387l.194-.194-.194-.775.194-.581v-.581l-.581-.581v-.194l.194-.194h.194l.387-.194.194-.387-.194-.387-.194-.581.387-1.162.194-.194h.194v-.388l-.775-.969v-.387l-.194-.194-.581-.388-.581-.194h-.194l.194-.387.387-.194.194-.387-.969-.969h-.194l-.581-.387v-.388l-.194-.194.194-.194v-.581l.194-.387v-.387h-.194l-.387-.387.194-.194.388-.775v-.581l-.194-.194-.194.194-.387.194-.194.194-.194-.194.388-1.744.194-.387.194-.194.388-.194-.388-.581v-.775l-.194-.387.194-.387,1.162.194h1.162V705.2l-.388-.194-.581.194-.194-.194-.969.194-.194-.387-.194-.194v-.194l-.194-.969-.194-.194.194-1.55v-.775l-.194-.775v-.194h.194l.581-.194.194-.194.581-.388.388-.194v-.194l.194-.194h-.388l-1.356.969h-.387l-.194-.194h-.194l-.194-.775.194-.775v-.969l.388-.775.194-.194.775.194V695.9l-.581-.387v-.387l-.581-1.937.194-.194V692.8h.969v-.194h-.194l-.581-.194.387-.387v-.194l.194-.194.194-.387.581-.194h.194l.194-.194.775-.194.388.387h.387l-.387-.387h-.194v-.194l-.194-.194.581-.775-.969-1.356v-.194l.194-.581.194-.194h.775l1.55-.969.194-.775v-.581h-.194l-.775-.969V683.7l-.194-.581-.388-.581.194-.388.581-.194v-.194l.388-.387v-.581l-.194-.581v-.194l.194-.581-.194-.194-.387-.387v-.194l-.194-.194.194-.194.581-.194.194-.194-.194-.194-.388-.387-.581-.387v-.387l.194-.581.387-.969v-.775l-.387-.194v-.194l-.388-1.356-.194-.387-.387-.387-.194-.969.194-.194.194-1.162v-.388l-.194-.387h-.388l-.581-.387v-1.937l-.388-.387-.969-.387-.387-.194-.387-.775-.581-.775V662.2l.387-1.162v-.581l-.775-1.356-.388-.581-.194-.387v-.194l-.581-.387-.387-.387-.387-.581-.388-2.518-.194-2.518-.581-1.162v-1.937l-.969-1.744v-.581l-.194-.387-.387-.581V643.6l-.581-.388v-.194l-.194-.194-.775-1.937-.969-.581h-.194v-.581l.194-1.356v-.387l.194-.581v-.194l-.775-.775-.194-.387.581-.581.194-.387.194-.387V634.3l-.194-.194v-.194l-.387-.775-.194-.387.387-.969-.194-.388.194-.194h.581l.387-.194h.194v-.194l.194-.388v-.581l-.581-.581v-.194l-.388-.969.194-.194v-.194l.581-.775-.194-.581-.969-1.162.387-.581.388-.969-.194-.387v-.387l.581-.969.388-1.162.387-.194.194-.194.194-.194.388-.581v-1.55h.969l.581-1.162.581-.581.194-.194.194-.387v-.775l.581-.194.387-.388.194-.194-.194-.387v-.194l-.775-.775-.194-.388-.387-.387h-.775l-.775-.581-.194-.387.194-.969-.387-1.162.194-.194.388-.581-.581-1.55h-.194l-.969-1.55v-.194l-.194-1.162-.194-.194-.387-.387v-.387l-.194-.194-.194-.387-.969-.388-.388-.387v-.194l-.194-.194-.194-.387V599.43l-.194-.775.194-1.162.194-.387-.194-.194v-.194l-.581-.194-.387-.387v-1.162l.194-.387.194-.194h.194l1.55.387h1.55l.775-.194h.969l.581.194.388.194h2.131l.581.194.194.194.387.387.194.388.194.387.388.194.775.194h.194l.387.387.194.194.194.194v.775l.194.581.194.387.387.194h.388v-.194h.194l.387.194.969-.387.581-.387,1.356.387.388.194,1.162.775.194,1.162-.387.775.387,1.162,1.55.194.194.194.581.969.387.194h.387l.194-.194.388-.194.194-.194.581-.194h.387l.775-.194.387-.194.194-.194h1.162l1.162.775.581.194.581.387h1.162l.775-.581h.194v-.194l-.194-.581.775-.969.194-.194v-.194l.194-.194-.581-1.162-.388-.581.194-.775.387-.387.194-.387.581-1.937v-.194l.581-.775.388-.387h.969l.387-.194.581-.194.194-.194L469,594.2h.194l.969.387h1.743l1.162.581h.969l.387-.388.194-.194v-.194l.194-.194v-.194l.194-.969.194-.387h.194v-.194l.969-.194.969-.194.775-.387,1.937-.969,2.131-.775,1.162-.581,1.744-.581.194-.194.194-.194h1.162l.387-.388.387-.387,1.55-.581v-.387l-.387-.387v-.387l.775-.969v-1.356l.194-.388.969-.581.194-.194.581-.775.388-1.55v-.969l.194-1.55-.194-2.325v-1.937l-.388-2.518-.387-2.906-.775-2.518v-4.456l.194-2.906-.194-3.875v-3.875l-.194-3.487-.194-4.068V540.15l-.388-3.1v-3.293l-.194-3.1-.194-3.293v-6.78l-.194-1.937-.194-1.162V515.74l-.194-.775.388-1.743-.194-1.55v-2.325l-.194-1.937v-1.743l.194-.969,1.162-1.937,1.744-5.424v-.194l-.194-.194v-.581l.194-1.55.581-2.131v-.194l.194-1.356.388-1.744h.194l.194-.581.775-.581.387-1.744.194-.969.387-1.162.581-1.55.775-2.712.775-2.131.775-2.518.969-2.325.775-2.518.775-1.937,1.162-2.518.969-2.325.969-2.131.969-1.744.194-.775.581-1.743.969-1.356,1.162-.969.969-.969,1.55-.969.775-.775.194-1.162-.194-1.356V448.13l.388-.969.581-1.356,1.744-2.906.969-1.356,1.744-2.325,1.356-2.325,1.162-2.131.581-2.131v-1.937l.388-2.325,3.487.388,1.55.194,2.131.387,1.356-.581h.581l.775.194.194.194.775.388.194.194.387.194h.775l.775-.194,1.937-.581.969-.194.387.194,1.356.969.387.194h.194l1.55.388h1.937l.581-.194,1.744-.388,2.131-.387.581.194h1.744l.388-.194,2.712-1.744.775-.387h.969l2.131.194.775.194.581-.194.969-.388.775-.194,1.162-.194h.581l.388.194v.194l1.744.388.194.194.387.387,1.356.775-2.712-4.649v-1.162l-.194-.969v-3.487l-.194-1.356v-4.262l.194-1.356.581.581,1.55.387,1.937.775.969.775.581.194,1.356.775.775.194.775.194.969.581,2.131,1.356.969.194h.775l.194.194.387.194.388.387.581,1.55,1.162.969.969.775h.581l.581.194,1.356.581h.194l.775.387h1.162l.581.969,1.162.775.387.775.388.387.775.581,1.356.581.969.194,2.325.388,1.162.387.581.388h.388l1.162.581.581.775h.194l1.743.969,1.55.775.581.194,1.162.387,1.356,1.356.581,1.162,1.744,1.162.581.194,1.55.388.387.387.194.194h.194l1.55.194.194.387.387.581.969.775v.194l1.162.581,1.356,1.356.969,1.356h.194l.194.194,1.162.581h.387l1.744,2.131v1.162l.775,1.937.387.775.581,1.356,1.55,1.937.581.194.775.969.387.387.581.581.388.387v.581l.387,1.356.194.387,1.55,1.356.581,1.162,1.356,2.906.194.387.775.969.387.775.388.775v.194l.775.581.194.194.387.581.969,1.162.581.194.775.581.775-.194h1.55l.387-.194.388-.194.581.387-.194.194-.387.581-.581.194-.969.581-.969.388-.581.581-.581,1.55-.581,2.518-.387.969h-.194l-.194.581-1.162.581-.969.969-.969.775-1.744,1.937-.581,1.162v.581l.387.969.581.775.194.581v1.356l-.194,1.937-.388,2.712-.194.581-.387,1.162-.581,1.55-.775,1.356-1.356,1.162-1.55,1.55-1.937,1.743-.581.388-1.162.581-.969.581-.581.775-.194.581v5.424l-.194,1.744-.387,1.356-.194.581-.388.775-.581.775-.388.387-.387.194-2.712,1.55v.969l-.194.194v.581l-.194.194v.581l-.194.194v.581l-.194.194v.581l-.194.387v1.55l.581,1.162.194.387v.387l.194.387v.775l.194.194v1.162l-.194.194v.581l-.194.387v.581l.194.194v.194l.194.194v.194l.194.194.581.387.581.387v.387l.194.388h.387l.775.194v-.194l.194-.775,1.356-1.162h.194l.194-.194h.969l.969-.581,1.356.387h.194l.969-.581,1.744,1.162.194.194,2.131-.194,1.356-.581.775-.194.581.194.194-.194.194-.194h.388l.194.194.387.387.581,2.518.194.387v.581l.194,1.937v1.744l-.387,2.712v.194l-.194,2.131.387,1.937v1.162l.387,1.356v.387l-.775.969-.194.581.581.581.581.194.775.388.388.387v.775l-.388.581-.387.194-.775.581-.775.775-1.162.775-.969.775-.581.581-2.131,1.744-.969.775-.969.581-.969.387h-1.744l-.775.387-.775.969-.194.581-1.356.969-.581,1.937-.775.581-.387.581-.388.775-.387.775v.581l.387-.194v-.194l.775-.387.775-.581h.581l.969.581h1.356l.969.194,1.162.387h.581l.775.581,2.131.387.775.194h.194v.194h.194l.581.387.581,1.162v.194l.194.194.388.775.387.581.388.194h.387l.969.194.387.387.581.194.969.387.581.194.387-.194.969-.775h.581l.194-.194h.194l.388-.194.194-.194h.194l.387-.194.775-.581,1.162-.387.388-.194.775-.581.387-.387.775-.194h2.325v.194l.775.387h.194l.969.581.969,1.162.775,1.356.387,1.162.581.775.387,1.162.194.969.969.969,2.325.775.775.581.775,1.162h.387l.194.194.969,1.744.387.387.775.387H654.4l1.55.969.194.194.387.194,1.744-.387.388.387.581.775.388.194.969.581.194.194.775.581h.969l.969.969-.388,2.518.194.581.194.194.194.581.194.775v1.356l.194.581-.194.387.194.194.194.387-.194,1.162.388,1.162-.194,1.356v.194l-.387.775v.387l.194.581.388,1.162-.581,2.712.194,2.518-.194.387-.194,1.162v.194l.194,1.356-.387.775-.581.775-.581,1.162-1.162,1.162-.775.581-.387.387h-.775l-.775.388-.194.194-.387.387-.194.194-.388,1.55-.387.387-.194,1.356-.194.194-.194.581v.969l-.581.581.194.775-.775,1.356-.387.775L654.4,625l-.194.194v.194h-.387l-.581-.194-.194.194h-.581l-.581.194-.194.194-.775,1.162-.194.194-.775.194-.775.194-.387-.194-.194-.388h-.194l-.194-.194-.194-.194h-.581l-.387.387h-.194l-.194-.194h-.194l-.969.387-.581-.581h-.388l-.581.194h-.775l-.194-.194-.194-.194-.387-.194-.581-.194-.194-.194-.387.581v.387l-.194.581-.194.581-.387.581-.387.581-.775.387-.581.387-.194.194V631.2l-.194,1.356-.194.387-.581.387-.581.387h-.581l-.581.388-.581.194h-.775l-.388.194-.194.194v.969h.581l.194.194.194.194.194.581.194.775H636v.775H635.8l.388.388-.388.581v1.162l-1.55.387-.388.387h-.194l-.194.194-.581.775-.775.581-.387.387-.194.581-.581.387-1.55.388-.387.387-.775-.194-.581.194-.775.581h-.581l-.387.387-.194.387-.388.581-.581.387-.581.775-.775.775-.387.194-.388.581-.194.194.194.387v.775l.388.581.581.194.581.387.387.387.194.581v.581l-.194.969-.194.969.194.969.194.581.581.387.775.387.194.194.581.581-.194.194v.775l-.581.387-.387.581v.194l.194.775.194.775v.194h-.194l-.194.387-.775.969-.387.581-.388,2.325-.581,2.131-.194.194h-.194l-.775,1.55-.194.194-.387.388-1.744.775-.581.387-.969.581-.194.387-.194-2.906-.388-1.744-.194-.194-.581-1.55h-.581l-.387-.194h-.969l-.581.387-.581.194-1.743.581h-.775l-.969.194h-.775l-.775-.387-.969-.387h-.581l-.581-.388-1.356-.581-.969-.581-.387-.194-.581-.194-.387-.388v-.581l.194-.388.581-.194.387-.194.388-.387v-.581l-.194-.387-.387-.194h-.969l-.387.194h-.388L601.9,662l-.387-.194-.388.194-.194.194-.387.194-.194.387H599l-.194.387-.194.387-.581.387v.194l-.194.194v.194l-.194,1.162v.194l-.194.388.194.775-.775,1.162h-1.356l-.194-.194h-.387l-.581-.194-.969-.387-.581-.194-.388-.388h-.775l-.775-.387h-.194l-.775-.194-.388-.194-.775-.194-.581-.387H586.6l-.194,1.356v.969l.387,1.55V671.3l-.194,1.162-1.356,1.937-.194.969-.194.387-.581,1.356-.194.775v.387l-.388,1.162-.194.581-.581.775-1.162,1.162-.194,2.131.387,1.356v1.744l-.194.581-.194.581v.194l-.194.194-.388.194-.387.194v.581l.387.194.194.194.969.581h.581l.194-.194h.775l.387.387.194.194-.194.969.388,1.55-.969,1.356-.194.581v.581l.387.775.775.387h.775l.581-.194h.388l.194.581.194,1.162.194.194,1.162.387.388.581.194.387.387.194h.969l.581.387,1.356.194h.194l.581.194.388.581v1.55h.194l.387.387.775-.194h.581l1.162-.194h.194l.387-.194.388-.969h1.55l.194-.194.194-.194v-.775l-.388-.581v-.194l.194-.387.194-.387.387-.194,1.55-.581v.581l.387.581.194.581.775.581.194.387.775,1.356.194.581.194.581.387.581.969.969.387.387.969.581.581.775.581.775.194.194.581.387.581,1.55.387.775.388.581v1.162l.387.581.581.194.194.194.194.194.194.388v.194l.194.194.194.194.775.775.387.775.194,1.55.194.581-.194.969-.387.969-.388.775-.581,1.937v1.55l-.775,2.325-.581,1.356-.387.969-.581.581-1.162.775v.194l-1.55,1.356-.969,1.55-.969,1.162-.388.387v.387h-.194l-.194.969-.194.387.194,1.356v1.55l-.581.194h-.775l-1.162.194H598.8l-.581-.775-.387-.387-.581-.581-1.356-.775-.388-.775v-.194l-.387-.194v-.387l-.194-.387-.194-.194h-.581l-.388-.194-.387-.194-.775-.581-.194-.387v-.387l-.194-.387.387-.775v-.194l-.194-.194-.194-.194v-.581h-.775l-.194.194-.388.194-.387.387-.387.194-.388.387-.387.387-.581.775-.387.194-.581.194-.581.194-.194.388-.194.581-.194.775-.387.969v.581l-.194.775-.194.581-.194.581-.387.775-.388.194-.387.194v.194l-.194.194-.194,1.744-.387.387-.969,1.55-.969.581-.387.581-.194.388-.194.194v.194H580.2l-.388-.387h-.194l-.387.775-.194.194-.581.387-.581.969-.194.387-.387.194-.194.969-.387.194-.194,2.131-.775,3.1.581.969v.194l-.194.387.388.775.194.969v.194l-.194.194.387.581-.581.387V761h.581l.194.194-.775,1.744.387.775.387,2.325.194,1.744v1.743l.581.775v.388l-.387.194-.194.387v.388l.387.387.387.969-.581.969-.388,2.131.194.388.387.194.194.194v.581l.387.194h.194l.194.387-.194.194-.194.775v.581l.388.387v.581l-.194.387.581.581v.387l.388.194.194.775.194.194v.194l.194,1.356-.194.194.194.388.194.969-.194,1.55-.194,1.162-.194.194v.194h.194l-.194.194-.194.194v.969l-.194.387v.387l-.194.581-.194.194.194.388-.387.969v.581l-.194.388-.194.194v1.162l.194.387.387.581-.581.194-1.55.194H574l-.581.194-.387.194-.387.581v.581l.194,1.162.387.581h.581l.387.194.581.194.387.194.194.387v.387l-.194.581-.387.581-.581.387-.387.581.194.387v.581l-.194.581-.388.387v.581l.775.387.775-.194.387-.194h.388l.194-.387.581-.581.387-.387.775-.581.581-.387.388-.388v-.387l.387-.387.194,1.162v.387l.388.194-.194.387.581.387.194.194.388.581.194,1.356.194.194.194.194.388.581h.387l.194.194.194.387.194.388.387.387.194.194.581.194,1.162.581.775.581,1.162.194.388.969.194.194.194.387h.387l.194.581.581.194-.194.388-.387.194-.194.194h-.775l-.775-.194H584.66l-.581.194-.387.194-.387.387-.775.387-.775.194h-1.937l-.387.194-.194.387v.581l.388.775.581.969v1.55l-.387.194-.387-.387-.775-.581-.581-.387-.387-.194h-.969v.387l.387.775,1.162.775.388.581.194.775-.194.581-.581.387-.387.387-.775.194-.387.194-.581-.775-1.356-.387h-.775l-.581.581h-.581l-.775.194-.581.194H571.1l-3.487,1.55-.387.581-.388.194-.387.194v.194l-.387.775v.194l-.388.194-.387.194-.969-.194-.194.194-.388.387h-.581l-.969-.194H561.8l-.387.581-.194.194-.388.194-.387.388-.387.194-.194.581v.387l.194.194.194.194.969-.194.194.581v.387l.194.194.388.387.387.387.387.194h.388l.194.387.581.387.581,1.162.581.387.387.194.969.194.581.194.387.387H568l.387.775.194.387.775.581.388.387.194.581.194.194v.194l.775.581v.387l.581.581.388.581.194.194v.775l.194.387.194.387.388.581.194-.194.387.194v.194l.388.387v.775l.194.388v.194l.194.194.387.194.388.194.581.775h.194l.969.775.581.581v.581l.775.387.388.194.387.194.194.194h.194l.194.581.194.388.581-.388h.581l.194.194.194.194.581.387,1.55.969v.194l.387.388.194.969v1.55l.194.194-.194.387.194.581.775.581.775,1.162h.387l.194.194h.194l.581-.194.581-.194v.194l.194.581v.969l.194.387.194.775.387.581.194.387v.969l.194.387-.194.194v.387l.194.194h.194l.194.194,1.356,1.744.194.194.775.387.387.387v.581l.388.387.387.388.194.194h1.55v.387l.194.194.194.194h.194l.387.387v.194l-.194.775-.388.581-9.105.194-2.906.194H581.56l-5.812.387H550.564l-.387.194H480.823V871.8l-.194-1.356V868.7l-.194-.969v-.581l.387-1.356v-2.131l.194-2.906v-1.744l.388-1.162.194-1.55.194-.387.194-.581.969-1.162.775-1.744v-.969l.194-.969.775-1.937v-1.162l.194-.194.388-.775.775-.775h.969v-.194l.194-.581v-.387l.581-.969v-.387l.388-.969-.194-.194v-.194l.388-.775-.388-.969v-.387l-.969-.581h-.194l.388-.969H461.257l-.969.194-.775.581-.775,1.356-.387,1.356-.581,3.1.194,1.356H426.58Z" transform="translate(-400.95 -411.653)" fill="#1876d2" stroke="#fff" stroke-linecap="round" stroke-linejoin="round" stroke-width="0.5"/>
</svg>
