<svg xmlns="http://www.w3.org/2000/svg" width="300.19" height="292.245" viewBox="0 0 300.19 292.245">
  <path id="CDLO" d="M845.751,667.714l-.387-.969-.775.387-.969.387-.775.194h-1.162l-.775-1.162-.387-1.162-.388-.387-.969-.194h-.775l-.775-.194-.194-.387-.581-4.456-.387-.581h-.969l-.969.969-.775.387-.388,1.744v.969l-.194.387-.387,1.937-.388.194-1.162-.969-.581-.969-.387-.581V661.9l.387-1.356-.775-.581-.388-.581-.194-.194-1.162-.581-1.162-.969-.194-.194-1.55-.775-.969-.775-.581-.387-1.162-.194-.775-.581-.775-.775-.775-.194-.969-.194h-.194l-.194.194-1.356.388-.581.194-.194.194.194.194.194.194.775.581-.194,1.162h-.194l-.581.581-.194.194-.388.775-.581.387-.194.194-.969.387h-.775l-.194.194h-.581l-.775.581h-.581l-.194.194h-.581l-.194.194-.775.775-.581.194h-1.162l-.387.194-.194.581h-.194l-.194.194h-.775v.194h-.194v.194l-.387,1.356-.194.194v.194l-.387.194-.581.194-2.712.387-.581.581-2.131.194-.581-.387-.194.194-.194.194v.194h-1.356l-.775.194-1.55.387h-.194v.194l-.581.387h-.388l-.775.581-.387.775-2.325.194-.775.194-.775-.194-.194-.969-.581-.388-1.162.581-3.1,1.55-1.162.194h-1.162l-2.518-1.744-.194-.194h-.194l-.581.194-.775.194-6.78,2.325-.194.775.387,2.131.387,1.937.388,1.356v1.937l-.775.775-.969.775-.387.581-.969.387.194.387v.194l.387.194.194.581v.387h.775l.387.775.387.194h.775l.194.194.388.387.194.194v.775l.969,1.162.387.581h.194v.194l.775.581.581.581.581.581h.194v.194h.194l.194.194v.194l.969.581h.387l.581-.581.194-.194h.194l.581.194.387.581v.194l.194.387h.387l.387-.194h.387l.194.581v.969h.581l.581.581.387.581.194.194h.969l.388.194v.387l.194.194v.387l.775.194.194.194.581,1.162.194.581.194,1.162-.387,1.744v1.162l-.194.194v.194l-.194.387h-.194l-.581.581-.969,1.744.388.969v.387l-.388.388h-.194v.194l.194.387v.194l.775.775-.581.388-.387.194h-.194l-.387.194-.969,1.55-.581.581-.194.194-.387.194-.969.775-.387.194-.387.387-.387.194-.775.969-.969.388-1.162.387-.775.387-.387.194-.194.194-.194.194H773.3l-1.937.194-1.162-.194.388-1.356v-2.131l-.775-.387-.775-.775-.969-1.162-.775-1.162-.775-.581-1.55-.194-1.744-1.162-1.162-1.356-1.356-1.356-1.162-.775-.775.194-1.356.581-1.55.969h-.387l-.969-.194-.387-.194-1.356-.194-1.162-.775-1.55-.194-1.162-.194-.775-.387h-.387l-.387-.969-.581-.194-.775.194-.581.581-.388.969-.194,1.162-1.162.969h-2.712l-3.293.194-.969.387-.581.581.194,1.55.194,1.744-.581.388h-1.162l-1.744.194-1.744.581-2.518,2.325-.581,1.162.387,1.937.194.969-1.162.581-1.744.775-.775,1.162-.388.387-1.356.969-.194.581-.194,1.162-.194.194-.194.194h-.387l-2.518-.194-.775.775-.387.194-.194.194v.194l.194.387v.194h-.194l-.388.194-.194.194h-.194v.194l.194.194v.194h-.775l.194.581h-.387l-.194.194h-.581l-.194.388h-.194l.194.581-.194.194-.581.194v.387H714.6l-.194.387-.194.194-.581-.194h-.194l-.775.194h-.194l-.194.194-.775-.581-.387.194h-.194v.387h-.194v.194l-.581.194h-.194l-.194,1.356.194.387v.194l-2.325.194-6.005,2.712-.581-.194-.969-1.356-.775-.775h-.388l-.387.194-.387.581-.969,4.456-.775.387-1.356.581h-2.906l-1.744-.194-1.744-.387-1.356-.194-1.744,1.162-2.518-.194h-.194l-.388.194-1.55-.387-.388-.194-.194-.194-.387-.387-.194-.387h-.581l-.194-.581-.194-.194-.194-.194-.194.194h-.387l-.387-.388h-.581l-.387-.194-.387-.194h-.387l-.194-.194v-.194l-.581-.387h-1.162l-.387.387h-.388l-.387-.194h-.194l-.194.194-.194-.194h-.194l-.194-.387-.387.194h-.194v-.194l-.581-.387.194-.387.194-.194.194-.194h.194V733l.194-.194v-.387l-.194-.775v-.581l.194-.194v-.194l-.775-1.356-.194-.969h-.194l-.387-.387-.194-.194-.194-.775-.388-.775h-.194l-.969-.387v-.388l-.194-.194v-.581h-.775l-.194-.194v-.194l-1.744-.387h-.969l-.194.194.194.387-.194.775v.387l1.162.775-.194.388-.387.387-.387.581H662.1l-.387.387.194.581v.387l.194.194h.194l.775-.194.194.194h.194l.194.775v.387l.194.194.194.387.581.387v.194l-.387.387-1.162.581-.194.194-.194.194-.194.387.194.387.387.387.581.194.581.194-.194.581-.194.969-.194.581v.969l-1.356-.194-.194.194-.194.775v.387l-.194.387v.194l-.194.194-.581.194V739l-.388-.194h-.194l-.581.194-.194-.194H659l-.194.194-.387.194-.388.387-.581-.194h-.775l-.194.194-.388.387v.775l-.387.581-.581,1.937-.194.194-.194.194-1.356.775v.581L653,745.2l-.581,1.744-.581,1.356-.194.194-.388.194-.194.388-.194.194-1.356.581-.387.387-.194.194.387.775-.387.388v.194h-.387l-.387-.387-.387.387v.194l-.581.194v.194l-.194.194.194.194v.775l-.194.581.194.388.194.387v.194l.194.194.775.969.775,1.162h0l-.387.194-.194.387v.581l-.387.969v.387h-.194l.194.194.194.387-.194.387-.194.194.194.969-.581.194-.194.194-.387.387v.581l.387.581v.775h.194v.194l.194.194h.194l.194.194h.387l.775.194h.194l.581.387.194.581.388.387h.775v.581l-.194.387-.387.194-1.162.194-.581.388-.581.194.194.194-.388,1.356v.969l-.194.581v.581l-.194,1.937-.387.387v.194l-.194.388v.194l-.387.387.194.969-.194.388-.581.775.194.387-.194.387h-.194l-.194.194h-.194v.581l-.194.969-.775.387-.581.581-.194.194-.194.388.194.775.194.581.194.387v.581l-.194-.194-.387.581-.581.775v.194l.775.194v.194l.194.194-.194.775.387.581.194.581-.969,1.937v.194l.194.194v.581l-.194.581-.194.387v.194l.388,1.356.194.775.194.194v.387l-.194.387-.775.775h.194l.775.194v.194l-.387.581-.194,1.162-.194.194-.194.581-.194.581.194.194v.775l.969,1.55v.194l.387.581.387.775.775,1.162.194.194.194.194-.194.581.581.775V807l.194.387.194,1.162-.194.388v.387l-.775.581.387.581-1.55.775-1.55.969-1.162.581-.581.387-3.1.775-.969.194-2.518.969-.581.387-.581.775.387,2.712v1.937l-.194.775-.775.387v-.775h.194l-.194-.387.194-.775-.194-.775-.194-.581v-.775l-.387-1.937-.194-1.356-.194-1.162-.194-.194L631.88,813l-1.55-.969-.581-.581-.194-.581-.775-.581-.775-.581-.194.194-.388.387-.969,1.937-.194.581-.969.969-.387.581-.581.581v.581l.194.387v.387l-.194.775h.194v.387l-.387.387v.387l-.387.387-.194.194v.581l-.194.194h-.194v.194L622,820.946v.387l.194.194-.387.775v.775h-5.231l-.581-.194-3.1-1.744-.194-.388-.581-.581-.775.194h-.775l-.581.581-1.744.194-.775,1.162-.581.775-.775.387-.581.194h-.387l-.969.388h-.387l-.387-.775-.387-.194h-.194l-.387-.581-1.744-.387-.969-.775-.581-.581-.581.194-3.293.775-.194.194H594.3l-.581-.194-.387-.194-.388.194-3.293-.581-1.55-.194-1.162-.194-1.744,1.356-.969,1.162-1.162.581-.387-.387-.775-.387h-.775l-.387-.388-.581-.194-.194-.194-.581-.775-.387-.194-.775.581h-.194l-.387.194-.387-.388v-.387h-.194l-.387-.194v-.581l.194-.387-1.937-1.162-.388-1.162.194-.387-.194-.581-.194-1.162-.194-1.356.581-.388-.387-.581V813.2l.194-.387.969-.581.194-.969h-.194l-.387-.194v-.194l.387-.387-.194-.775.387-1.162h-.775l-.194-.775-.194-.387V806.8l.194-.387.387-.387v-.387h.387l-.194-.969v-1.162l.194-.387.581-.388.969-1.937.387-1.162.388-.194.194-.775.387-.387.194-.194V797.7h-.387l-.194-.194h-.194v-.194l.194-.194h.194v-.194l-.194-.194v-.387l.194-.194.387-.194v-.775l.581-.194v-.194l.387-.775-.194-.581.194-.388-.387-.581v-.194l.194-.194-.194-.194v-.194l-.581-.581v-.194l.194-.388v-.775l.387-.969H578.8l-.194-.194-.194-.581.194-.388.194-.194.194-.194v-.581l.387-.387v-.387l-.775-.969v-.581l-.194-.194-.387-.194.194-.387v-.194l-.581-.194v-1.162l.194-.775-.388-.581v-.194h.581v-.387h.387l.194-.387h.775l.194-.194.194-.387.387-.387-.194-.387.194-.581.194-.387h.387l.194-.194-.194-.387.194-.387.581-.388.387-1.162-.387-.581-.387-.581-.194-.387V773.1l.194-.387h-.194v-.194h-.387v.388l-.387-.194-.387-1.162v-.387l.387-.194.194-.388-.194-.387V770l.775-.388v-.194l.194-.194.194-.387v-.581l.194-.387.387-.387V766.9l-.775-.581.194-1.162-.194-.194h-.775l-.388-.194-.775-.387.387-.969-.194-.581.194-.581.194-.388v-.581l.194-1.356v-.969l.194-2.131v-.194l.194-.194v-.387l-.388.194-.194.194h-.194l.194-.581.387-.775v-.775l-.387-.194.194-.775v-.581l.194-.387-.387-.387-.194-.581v-.194l.194-1.162.194-.775v-.194l-.194-.194h-.387l-.388-.194H578.6l-.581-.194.194-.194-.194-.387h.194v-.775l.194-.969.194-.775.387-.387-.194-1.162.387-.194h.194v-.194l.194-.387v-.194l.194-.387-.387-.194v-.581l.194-.581v-.581l-.194-.194h.194l.194-.388-.194-.387.388-.775v-.387l.969-.388-.388-.194.388-.387.194-.194.581.387.194-.775h.387v.194l.194-.387-.194-.775v-.387l-.775-.581h.194l.194-.387-.388-.194v-.194l-.387-.194v-.387l.387-.581-.194-.581.194-.194.581-.194.194-.388.387-.775.581-.194-.581-.387.194-.194.387-.388.194-.194.194-.387-.194-.775v-.194l.775-1.162h-.387l-.388.194h-.387l.969-1.356v-.387l-.194-.194-.775-.388h-2.906l-.387.388-.387.194H578.6l-.775-.387-.581-.387-.387-.194h-.581l-.581-.194h-.387l-.387-.194-.194-.581v-.387l-.387-.387-.581-.194-.387-.387-.387-.387-.194-.387v-.581l-.387-.387-.387-.194-.387-.194-.387-.194h-2.325l-.969-.194-.969-.194-.775-.388-.969-.775-.581-.775-.194-1.162-.194-.387-.775-1.162-.581-.775-.387-.581-.581-.581-.775-.194-.581-.387-.388-.581V711.3l.969-1.356.194-.775.194-.194.387-.581.194-.194.388-.388,1.162-1.744.387-1.744.581-1.356.581-1.356-.194-.775.194-.581.194-.387v-.194l-.388-.581.969-.969.581-.581.194-.388.194-.194-.194-.194V696l-.194-.581v-.775l.194-.194-.194-.387.194-.387.194-.581.775-.969.194-.387-.388-.388.194-1.162.581-.969.387-.387,1.162-1.162.194-.775v-1.162l.969-1.356.194-1.55h.969l.194.194v.581l.194.775v.775l-.581.387.194.388.969.387v.194l.194.194.388.194v.194l-.194.194.194.387-.194.581v.387l.581.387v.775l-.194.387-.194.387.194.387v.387l.194.581.775.581-.581,1.356v.194l.194.775v.581l-.194.194V696l.581.581v-.194l.581-.194h.387l.387-.194h.194l.194-.194.387-.194.387-.194.194.194h.387l.387.194,1.162-.194.387-.194h.194l.969-.194.194-.194.581-.194.581-.194.581-.388.775-.581.194-.194.387-.194.194-.194.581-.387.194-.388.387-.194.387-.387.194-.194.194-.194.194-.194.194-.194.387-.387.194-.194.194-.194.387-.194.194-.194.581.194.775.194.775-.387.194-.194.969-.581.387-.194.194.194h.194l.969.775v.194l.581.194h.581l.581-.581.194-.194h.388l.775.387,1.162-.775.387.194.194.775.581-.387h.387v.387l-.194.775v.194h.581v.194l-.775.581-.387,1.162-.194.194h-.194v.194l-.194.388-.387.387h-.581v.387l.194.581V696l.775.775v.581l.387.581V699.1l.194.581.581.581.194-.194h.388l.387.194.581.969.969.194.581.581.388.388.194,1.356.775.581.581,1.356,1.162.969.581.194,1.937,1.744.581.387h.194l.581.387.969.387.969.581.775.581.775.387,1.162.387.775.194h.775l.194-.194.194-.775.194-.775.387-.388.969-.387.969.194.969-.194.969-.194.581-.194.581-.581.387-.387.387-.387h.388l.581.387.388,1.55.387.194.581-.581.387-.194.387-.387,1.162-.775-.581-.387-.194-.194v-.194l1.744-2.712v-.194l.194-.194.581-.969.387-.387.387-.194h.194l.581.194h.387l.581-.387h.194v-.387l-.194-.194-.387-.581-.581-.194H628.39l-.387-.194.581-.581.194-.194h-.194l-.387-.194h-.969l-.388-.194-.194-.388V698.9l.581-.775.194-.194-.194-.581.194-.581-.194-.969-.194-.387.387-1.356.581.387h.581l.387-.194.194-.194.194-.581-.387-.775.387-1.162v-.581l.194-.775.387-1.162.387-.194h.387l.194-.194-.194-.194-.969-.194-.194-.581h-.581v-.387l.194-.194.194-.194.194.194.194-.194V686.7l.387-.387.194-.194v-.581h-.194l-.194-.581v-.387l.969.194.194-.581.194-.194.194-.387v-.194l.387-.194.194-.969v-.194h-.194v-.581h.581l.194-.387v-.387l-.775-1.162-.581-.581.194-.387v-1.55l.194-.194h.387l.775.775h.581v-.387l-.581-.387v-.387l2.906-2.131.387.194v.194l.388.387-.194.775.387.387.194.387h.581l.387-.194h1.356l.194-.388.194-.194.969.387h.387l.775-.194.194.194.194.387v.581l-.194.387.581.194.387.387h.775l.194.194v-.581l.581.581h.775l.387-.194v-.194h.194l1.55-.775.388.194.387-.388.581.194h.581l.388-.581,1.55.194h.775l.581-.581h.387l.969.194.581-.388h.387l.775-.581h.969v-.387h.194l.775-.581v-.581l.581-.387h.387l.387-.388-.581-.581-.775-1.162-.775-.387-1.162-.581-.969-.581-2.325-1.356-.969-.387-.581-.387-.194-.581v-1.356l.194-1.744.194-2.518.194-1.162h.194l.387-.194h.194l.194-.194h.194l.387-.194h.194l.194-.194h.388l.194-.194h1.356l.194.194h.581l.194-.194.194-.194.194-.387v-.194l.194-.194h.775l.194-.194.194-.194.194-.194h.581l.194.194.387-.194h.194l.194.194h.969v-.194l.194-.194v-.194l.194-.388v-.194l.194-.194v-.194l2.325-2.712v-1.55l.194-.194v-.194l1.162-.581.775-.387.194-.194.775-.581v-.194l.194-.194-.775-1.356-.388-.194-.194-.969-.387-.388V646.6l-.194-.387-.194-.194h-.581l-.581.387-.775-.194v-.194h-.194l-.388.194h-.581l-.194-.194v-.387l-.387-.581-.387-.194-.194-.194h-.969l-.194.194-.581.388-.581.194-.387.194-.194-.194h-.387l-.387-.387-.194-.194h-.194l-.387-1.162-.194-.194h-.388l-.969.387h-.969l-.581-.194-.775-.775-.775-.387-.387.194-.581.387-.387-.194-.388-.387h.194l.581-.387.581-1.356.194-.969.194-1.55.387-.775.387-.775v-.969l-.387-.581-.581-.194h-2.131l-.581-.387-.194-.581v-1.744l-.194-.581V631.1l-.194-1.356v-.581l-.194-.194-.387-.194v-.194l-.194-.194-.194-.387v-.387l-.194-.194v-.969l.194-.387.194-.194-.194-.194-.194-.194-.194-.775v-.969l.194-.581h.387v.194l.194.194.775.194.194.194.775.388h.581l.388-.194h.387l.387.194.194.194h.387l.387-.387.194-.969.969-.387h.581l.969.194h.775l.581-.387.194-.387.387-.581.388-.194h.387l.775.194h1.55l.581-.387h.581l.775-.387h.775l.969-.194h.775l1.162.194.775.194.775.388.581.194h.775l.194-1.162.775-.969v-.387l-.581-.387-.194-.581.387-1.162-.969-.387-.194-.388-.194-1.162-.194-.194h-.194v-.387l-.194-.194-.194-.194.194-.387v-.775l-.194-.387.194-.387-.194-.194v-.581h.194l-.194-1.162V609.4l-.194-.194v-.387l-.775-.775-.969-.581-.387-.775-.581-.775-.969-.969-.387-.581-.969-.194-1.162-.581L659,603.4l-.775-.387-1.162-.194-.388-.387-.387-.775v-.969l-.194-1.55-.194-1.356-.194-.969-.194-1.356-.387-1.744-.388-1.55v-5.231l.388-1.162.194-.387.387-.969.775-.775.194-.194v-.194l.194.194.194.387v.194l.194.194.194.194v.775l.194.194v.775h.388l.194-.194v-.194l.194-.194h.387v.387l.194.387h.969l.387.194.194.194.969-1.162.194-.581v-.775l.194-.387.194-.581v-1.162l.969.194.775.388.387.194.775-.581.581-.194.969.194.775.194,1.356.387,2.712.581,1.162.194.969.387.581.194,1.937.775.775.387,1.162.194h.775l.969-.194h.775l1.356-.387,1.162-.581.775-.387.969-.387,1.162-.775.581-.194h1.937l.581-.194.387-.387.194-.969v-.969l.581-.775.581-.194.387.387.194.775.581,1.356.581.969.387.194,1.744.969h.581l.387.194h.969l.775-.387.581-.388.388-.387.387-.387,1.744-1.937.581-.387.387-.581.387-.775.194-.775-.194-.969-.194-.969V575.5l-.775-2.518-.194-.775-.387-.969-.194-.775-.194-.775-.581-1.356v-1.162l-.581-.969-.194-.581-.194-.969-.194-.581V563.1l.194-.194.387-.194.775.194h.194l.581-.194,1.356.194.581.581v-.775l.194-.581.194-.581.194-.387.194-.581.387-.581.194-.581.387-.775v-.775l-.194-.387-.194-.388v-.581l.194-.581.388-.387.194-.388.194-.387v-.387l-.194-.387v-.387l-.194-.388-.388-.581-.194-.388v-.581l.387-.388.969-.194.387-.194.775-.194.969-.388,1.55-.581.775-.388.775-.194.387-.387.775-.194.581-.581.969-.387h3.487l.388-.387.969-1.356.194-.388.194-.387.194-.387.388-.581.581-.581.388-.775.775-1.162.387-.387.194-.194.581-.194.775.194,1.162.581.387.194h.969l.775.194.581.387.581.581.581.194.581.387.388-.194.387-.581-.194-.581v-.387l-.194-.387v-.387l-.194-.388-.194-.969-.194-.387-.387-.581-.388-.581-.194-.388-.194-.387-.194-.387v-.194l.194-.194.387-.387.388-.581.387-.387.387-.388.387-.387h.581l.581.194h.581l.581.194.775.194,1.356.194h2.325l.775-.194.581-.387.388-.387.775-.775.194-.194.387-.194.775-.194.969-.194.581-.194.581-.194v.969l.194.387,1.162,1.162.387.388h.194l.194.194.388.581v.194l.387,1.356-.194,1.356-.194.194.194.387v.387l.581.581.387.194.387.194.194,1.356.775.969v.194l.194.581v.581l.581.581.194.194.194.387h.387l.388.387.194.194v.194l12.592.194h1.744l9.88.194,5.037.194,25.766.387h25.572l10.267.194H859.89l-.194.581-.194.969h-.194l-.194.387-.387.775-.387.581-.194.194-2.518,2.325-2.131,1.937v.194l-.194.194v.388l-.387,1.937-.387,1.55v.194l.194.387.194.387-.194,2.325v.194l.194.387.194.388v.581l.194.581-.194.969-.194.581-.387.775-.388.969-.387.581v.194l-.194.194-.388.388-.194.194h-.387v.194H850.4v.194H850.2l-.581.388h-.194l-.194.194-.387.387-.387.194v.194l-.387.969-.194,1.744h-.194l-.388,1.356v.775l-.387.581h-.194v.581l-.388.194-.581.581-.388.581-.194.194v.387l-.194.388.387,2.518.387,2.131.581,1.744.969,1.937-.194,1.356.194,1.55.194,2.131v.969l1.356,1.356v1.937l.969,1.356h1.162l.194.388-.387.969-.969.775-.387.581-.387.969-.194.387-.194.194h-1.162l-.581-.194-.387.194-.581.775-.194,1.356v.969l-.775,1.55-.387.775,1.55,2.131.581.969-.194,1.744-.194,1.162.775.775,1.937,1.356h.775l.387.387.194.194.387.194.387.194.775.387v1.55l.387,1.744.775.969.581.775.387.775v1.356l-.194.775-1.744.969-.775,1.162-.387,2.712.387,3.1.581.581.775-.194.387.387.775,1.356.969,2.131-.388.387-.775.581-1.55.387-.387.581v1.356l.387.194,1.55.969.775.775.969.194,3.1-.194L856.6,646.4l-1.356.194h-1.356l-.969.775-.581.775-.194,1.162.387,1.162.775.969,1.744,2.518v.581l-.387,1.356-.581,1.162-.581,1.162-.969,1.744-2.518,1.744-1.937.969-.775,1.55-1.55,3.487Z" transform="translate(-559.95 -532.051)" fill="#1876d2" stroke="#fff" stroke-linecap="round" stroke-linejoin="round" stroke-width="0.5"/>
</svg>
