<svg xmlns="http://www.w3.org/2000/svg" width="502.442" height="384.268" viewBox="0 0 502.442 384.268">
  <path id="CDLU" d="M507.249,666.5l.194.387.387,1.55.388.581,1.356.387,1.356.581.387.194,2.712.194,2.325.194,1.162.194.775.581,1.356.969.581.387.969-.581,1.356-.581v-.388l.387-.387.387-.581v-.387h.388l1.55.194.775.775.581,1.356.387,2.325.775,1.162.775.581.581.581.581.581.581.969.775.581.581.969,3.487,4.456.581.969.581,1.162.387.387.387.581.775.387.194.387.194.969h1.55l.581.194,1.55-.194,3.875-.581h.581l1.162-.194,2.325-.194,2.325-.775,1.162-.194,1.744-.775,4.456-2.518,1.356-.775L561.88,682l.581.194.194.775.194.194v.387l1.356.969,2.518,1.162.969.388,1.162-.194,1.356-1.55.969-.775.194-1.744,1.744-1.937.194-.581.194-.194.581-.775.581-.388.387-.194.581-.194h.969l.775-.387h.194l.775-.581.775-.194-.194-.581h-.581l.388-.387h.581v.775l.194.194h.387l.194.194.581.581h.387l.194.194.581.581.775.388.581.969v.194l-.194.194-.387.194-.388.388.194.194.194.387v.581l-.194.581.194.775-.194.388.194.581.194.194.194.194.387.194h.194l.581.775.775,1.162v.194h.387v.194l.194.194-.194.387-.775.581-.194,1.356-.387,1.356,2.518-1.162,2.906-2.131,2.131-2.131,1.356-.969.775-.775h.775l.194.194h2.131l1.55.194,1.744.775,5.231,3.1,2.325,1.55,2.131.775,2.131-1.55,1.937-.775,1.55.581,1.744-.194,2.325-.387.775.387,1.55.387,1.162.194.387-.969.194-.194.194-.969.581-1.356.581-.969.775-.775.775-.581,2.712-3.293.387-.194,1.162-.194.387-.387H632.2v.194l.194.969h-.387v.387l-.387.387-.194.387v.581l.194.387.194.775h.775l-.388,1.162.194.775-.387.387v.194l.387.194h.194l-.194.969-.969.581-.194.387v.194l.388.581-.581.388.194,1.356.194,1.162.194.581-.194.387.387,1.162,1.937,1.162-.194.387v.581l.387.194h.194v.387l.388.388.387-.194h.194l.775-.581.387.194.581.775.194.194.581.194.387.388h.775l.775.387.387.387,1.162-.581.969-1.162,1.744-1.356,1.162.194,1.55.194,3.293.581.387-.194.387.194.581.194h.775l.194-.194,3.293-.775.581-.194.581.581.969.775,1.744.387.388.581h.194l.387.194.388.775h.387l.969-.388h.387l.581-.194.775-.387.581-.775.775-1.162,1.744-.194.581-.581h.775l.775-.194.581.581.194.388,3.1,1.744.581.194H678.7l-.388.775-.194.387.194.581v.581l.581.581v.387l-1.55,2.325-.194.775-.387,1.162v.387l.581.581.194.194.194.387.387.775.581.775.387.581v.969l.194,1.55.388,1.162.194.775-.775,2.906-.387,1.55-.388.775V719l.388,1.162.387,1.356.775,2.131v.581l.194.387-.194,1.356-.775,2.712-.194.969v2.131l-.775,2.712-.581,4.068-.387.581-.194.775v.387l-.194.194v.194l-.194.194-.969.581-.387.387-.194.581-.194.387-.194.387-.194.581-.194,1.356.581,2.906.194,1.356.194.581.194.387.388.194v.194h.194l.581.388,1.162.775.969,1.356v.194l-.581.775-.194.387-.194,1.55.194.969.581,1.162.581.581v2.325l-.194,1.744.581,2.906,2.906,7.168,1.937-1.356.581.194.775.387.775.387h3.1l1.356.194,1.55.581h1.162l.775.194h1.162l.775-.194,1.162-.387.581-.194,1.162,1.162,1.162-1.162h.581l.194-.194.194-.194.194-.388h.194l.387.581.581.194h.969l.775-.194.581.194.387.775.194,1.55.194.194.775.581.387.775.581.194.194.387.387.194.194.194.387.194.387.387.387.387.387.387.387.387.775.581.387.194.387.581.581.387.387.581.387.194.388.581.387.194.387.387.775.194h.388l.581.194.581.387.581.581.387.581v.387l-.194.194-.388.387-.387.387-.387.775.194.581.775-.194,1.744.194,1.937.387,1.162.194.581.387h.969l.387.194,1.162.387h1.743l.387.194.388.387h.194l.194.581,1.937.775.387.387.194.387v.775l.194.775v.194l-.194.387,1.356,3.487.775,1.162.387.388.581.581.969.581.969.581.194.194.775.581.581,2.325,1.356,1.162.581.388h.581l.775.581,1.356.581.775.194.581.387.581.775,1.744,1.162,1.162.194.581.387.194.194.581.388.387.194.581.775.387.969h1.356l.387.194.194.194.581.775.387.194.194.194v1.55l.194.194.581.387.194.194.388.194.194.194h.775l.581.387h.388l.387.194h.581l.581-.194.194.194.969.194.194.194.194.387.581.387.387.194.388.581.194.194v.775l-.194.581-.194.194h-.581l-.581.194h-.775l-.387.194-.388.194h-7.943l-.387.194h-1.162l-.387.194h-2.131l-.194-.194-.388-.194-.194-.194-.194-.194V820.9l-.194-.194-.194-.194h-.775l-.194-.387-.775-.387-.581-.194-.775-.194-.969-.194-.581-.194-.969-.194h-1.937l-.581-.194-.775.194-.581.194-.581.194h-1.744l-.194.194-.194.387H731.2l-.581.388-.387.387-.194.387-.194.194-.194.581-.194.194-.581.581-.387.387H728.1l-.581.387-.194.194h-.387l-.387-.387-.387-.194-.194-.387-.581-.387-.387-.194h-.387l-.194.194-.387.194-.581.388-.387.581-.387.388-.387.387-.969.775-.194.387.194.388v.581l-.194.388-.775.194-.388.387.194.194h.194l.387,1.162-.194.969.194.387.775.969-.581,1.55v.581l.194.388.194.194.194.581.387.775.581.969v.581l-.581,2.131-.387.194v1.744l-.194.194-1.744,3.875-.775,2.131-.194.581v.581l-.194.775v.194l-.194.775.194.775.775,1.356.194.387.194,1.55-.194.581-.581,1.162-.387.387v.775l-.581,1.744v.775l-.194,1.55-.387.387-1.356.775-.969.581-.194.194-.775.775v.194l-.581.969-1.55,1.55-.194.194-.581.581-.775,1.744-.194.387v.194h-.194l-.581.581v.194l-.581,1.744.581.387h.775v.581l-.581,1.162-.194,1.937.194.581.387.581.581.581h2.712l.775.387.775.194.775.194,1.55.775v.581l.388.775-.194.581-.581.388-.581.387-.581.581-.194.581v3.487l.581.581h.194l.194.387.775.387.775.194.969.194h.969l.387-.388.194.194h.387l1.162.387h.775l.969-.387.775-.775,1.937.194.194-.194.969-.581.387-.194h.387l.581.194.581.194.581.194.581.387.775.194h.387l.194.194v.581l.387.387.387.581.387.387v.388l.387.387.581.387.194.387.581-1.162-.194-.581v-.387l.969-.581,1.162-1.55.387-.387.194-.387.388-.194h.969l.969-.194h.581l.388-.387.194.387v.775l.194.387.775,1.937-.194.775.387.775.387.387.387.194v.387l.387.775v1.744l.194.387.194.194.387.388.194.194.388.194.387.387.194.387v.194l.194.387.194.194.194.387v-.581l-.194-.581v-.969l-.194-.775v-.387l.194-.388v-.387l.194-.581.194-.194.387-.581.194-.194.387-.581.194-.194.581-.581.387-.969.581-.387.194-.387.387-.775.194-.581v-.388l.387-.387.194-.387V885.6l.194-.387h.194l.387.194.194.387.194.388.387.387.775.387.387.387.775.387.194.194.581.581.775.581.775.387.775.775.387.194.581.581.194.387.387.387.387.581.387.775.194.387.387.775.387.581.194.775.581.581h.581l.775-.387h.194v-.194l.775-.969.581-.581,1.55-1.162.775-.194.969-.387h2.518l1.55-.581h.388l.194-.194.581-1.356-.387-1.162v-.581l.581-.388.387-.581.194-.581.194-.581h.387l.387.581.581.387-.194.581-.194.775v.775l.581.581.194.581h.194l.387.387.775.969.581.581h.388l.581.194,1.744.387.387.194.775.387.388.194.969.581.581.194.775-.194.387-.581.387-.581.194-.194v-.194l.969-.387.194-.387v-.581l-.194-.969v-.387l-.194-.194-.387-.387h-.194v-.581l.581.194h.194l.194.194.969,1.162.581.581h.194l.581.581,1.55,1.162,1.162,1.744.194.581.194.581.388.969.387.581.387.969.581.581.581.194,1.162-.194.775-.194,1.162-.194,1.162-.387.387-1.162.969-.775.387-.387.387-.194,1.162-.581.775-.194.581-.387h1.162l1.162-.581h.387l.194-.387h.194l.194-.194.969-1.744-.969-.194-1.937-.388h-.194l-2.131-.387-.969.194h-.581l-.969-.194h-.581l-.194-.387v-.775l.194-.969.581-.194h2.712l.581-.194.581-.194.581-.194.775-.387.775-.581.581-.581.581-.387.581-.387.581-.387.581-.387.775.194.775.194.387.194h1.356l.581-.194.194-.581.581-.581.194-.387.581-.969.581-.775.775-.969.581-.775.387-.387.775-.387.775-.194.581-.194.969-.581,1.162-.194.775-.387,1.55-.581.969-.387,1.356-.775.969-.194.969-.387.581-.387.969-.388.581-.387.969-.387,1.356-.194,1.162-.581,1.356-.775,2.518-.969.581-.387.969-.581.969-.194.581-.194.581-.194h1.937l.387.388h.387l.387.194h.775l.581.194h.969l.388-.194.581-.387.969-.775.581-.194.387-.387.388-.194.775-.194h.387l.387-.388V867.2l.388-.969-.581-.969-.194-.194v-.387l.194-.194.194-.581.388-.387.194-.194v-.388l-.194-.194h-.581l-.194-.387-1.162-.581-.388-.775-.194-.775v-.581l.194-.194h.194l.387-.194.775.387h.969l-.194-.387.194-.387v-.387l-.194-.387h-.387l-.387.387-.388.194h-.387l-.194-.387-.194-.194.387-.969-.194-.581v-1.162l-.194-.581-.387-.194h-.775l-.775-.775-.387-.194-.775-.387-.194-.387v-.194l.387-.581h.194l.581.194.775.969.387.194h.581l.194-.194v-.387l-.387-.387v-.969l-.581-.387v-.194l-.581-1.162v-.194l.387-.387-.194-.388-.387-.387-.387-.194-.194-1.162-.194-.969v-.387l-.194-.581v-.581l.194-.194.194-.194.194-.581.581-2.518v-.581l-.388-.581h-.194l.387-.969.194.194h.775l-.194,1.356v.194l.581.194,1.356.194.581-.387.581.194h.581l.194.194h.194l.194.194h1.162l.969.581h.969l.969-.387.581-.581.387-.387.775-.581.581-.387h.775l.387-.194h.194l.387.194.194.581.388.969.194.388.194.581.775.775.775.775.387.581.775.969.969.775.581.581.775.387.775.775.581.387.387.387.775.581.581.387.775.387.775.388.581.194.775.194.969.581.387.194.581.194.775.194.581.194.775.387.581.387.388.581.387.581.387.387.387.387.387.388.388.194.775.387.581.388,1.162.581.194.581.775.387.581.194.775.387.387.387.775.388.969.194h1.744l1.356-.194,1.162-.388.969-.194.775-.387.581-.194.969-.194.581-.194h.775l.581-.387.387-.194.194.194v1.162l-.194.194v.581l-.194.581v.775l.194.581.387.194h.775l.775-.194.775-.194h.969l.969-.194.387-.194.969-.194h.969l.194.194.387.387.775.194h.581l.388-.388.387-.387.387-.194.387-.194.194-.194.581.388h.969l.775-.194h.194l.387-.387.387-.194.387-.194h.387l.388.194.387.387.387.388.581.194.775-.194.581-.581.581-.387h.194l.775-1.356.387-.387.194-.194h.194l.581-.388.194-.194.775.194,1.162-.387.969-.775.581-.387.388-.194.581-.387.581-.387.581-.194.581-.194.581-.194h.387l.387.194.387.194h.387l.194.194v.581l-.581.581-.387.387-.387.388-.194.194-.387.775-.194.387.194.387-.194.387.388.194v.387l.194.387.194.387.194.388v.775l-.194.194-.581.581-.387.194-.581.581-.775.775-.581.581-.775.775-.581.581-.194.387-.194.581-.194.581v1.162l-.387.775-.194.387-.387.581-.387.387-.388.581v1.937l.194.194v1.162h.194v.969l.194.194.194.581v.194l.387.387.387.194h.194l.581.194h.387l.387-.194.387-.387.194-.581.194-.387v-.581l.194-.194.581-.387h2.325l.581-.194h1.162l.194.194.194.194.194.387h.194l.194.194.387.194.387.194h1.356l.581.194.387.194v.194l.194.194.194.388.194.387.387.387.387.387.388.194.194.194h1.55l.775-.194.388-.194h.581l.581-.194h.387l.581-.194.581.194.194.194.581.194.581.194.581.194.194.387h.581l.388.194h2.906l.387.387.387.194h2.325l.581.387.387.194.581.194h1.743l.388-.194.581-.194.581-.194.581-.194.387-.194.581.194h2.131l.969-.194h2.131l.969.194h4.843l.388.387.194.194.194.388v.581l.194.581v3.681l-.194.387-.194.387-.194.387-.388.194-2.325,1.55.581.194h.194l.775-.194.581.387v.194l.387.388.775.194.581.581h.581l.581-.387h1.162l.581-.775h.969l.194-.387.194-.387V885.8l.388-.194h.387l.387-.194.581-.581h.581l.387.194h.194l.388.581h.194l.581-.581h.194l.194.581h.194l.194-.388-.387-1.356.194-.387.581.387h.194v-.194h.581l.775,1.162v-1.162h.387l.581.194.387.194v.194l.387.194.194.194.194-.969.387.194h.194l.194-.194v-.388h.194l.581-.581h.387l.194.387h.387l.387-.775h.194l.581.388,1.162.194-.194-.581.387-.194.194-.581.194-.387v.194h.387l.387.194.581.194.194-.388v-.387l.775-1.55.775.194.194-.581.581.581.194-.194.969-.581h1.162l.969.387.581.387v.581l-.194.194-.387.581-.194.581-.388.775v.581l.194.581v.581l.194.581.387.387.581.581.387.387.387.194.387,1.162.194.581.194.581.194.387.194.387.194.387v.388l-.387.387-.581.969-.194.581-.387.387-.388.581-.194.387-.581.581-.775.969-.775.775-.581.581-.387.775-.387.387-.581.969-.194.775-.388.581-.194.387-.194.581-.387.581-.194.581-.581.775-.194.387-.969,1.162-.387.581-.388.387-.194.775-.194.387-.387.387v.581l.194.775.581.775.388.581.581.581.581.388.194.387.387.387.194.194.775.387.387.387.387.194.775.581.581.388.581.387.388.581h.387l.194.194.775.387.775.388.387.387.775.581.581.387.775.387.194.387.387.581.581.581.194.387.581.387.194.387.581.775.387.581.387.581.581.969.387.775.387.581.387.581.194.194.194.194.581.775.194.387.387.387.387.388.388.387v.194l-.194.388-.581.387-.581.581-.387.387-.775,1.162-.581.388-.581.581-.581.581-.581.581-.387.581-.581.581-.387.581-.581.775-.581.387-.194.775-.387.194V938.3l-.194.194-.775.387-.387.387-.775.194-.581.387-.581-.194-.775-.194-.387-.388-.387-.194-.581-.194h-.969l-.387.387-.581.388-.775-.194h-3.1l-.775.194-.581.387-.387.387-.581.775-.194.775-.194.969-.194.581-.194.581h-.775l-.581-.194-.387-.387-.194-.775v-.969l-.194-.387-.194-.775-.194-.581v-1.356l.194-.581.194-.581v-.581l-.194-.775-.387-.581-.387-.387h-.194l-.194-.194-.581-.387-.581-.194-.581-.581-.387-.387-.387-.387-.775-.194-.775-.387-.775-.194-.775-.388-.775-.387-.581-.387-.581-.194-.581-.194H965.6l-.581.194H962.5l-.775.194h-1.937l-.775-.194-.969-.194-.387.194h-2.131l-.969-.194-.775-.194-.581-.194h-.969l-.775.194-.775.387-.581.194-.775.194H947l-1.162-.194-.969.194h-.581l-.387.194-.387.194-1.356.194-.775.194-.969-.194h-.194l-.969-.194-.581-.194-1.162.194h-.387l-.581.387-2.906,2.131h.194l.775.581h.775v.194l.194.194.194.775.387.387v.581l.387.387v.194l.194.581v.194l.969.194.194.194.969,1.162h.581l.388.581-.388.387.194.969.194.387h.194l.581.581h.969l1.356.581h.581l.581.194-.969,1.162-.194,1.356-.969,1.162-.775.581-.581.969-.581.387-.387.387v.194l-.387.387-.387.194v.387l.581.775,1.744.581,1.356.775.969.388.969.387.387.194.194.194.387.387.387.194.581.194.194.387H947l.194.194.194.194.194.387.194.387v.194l-.194.581-.194.581-.581.775v.775l-.775.775-.194.581-.387.387-.194.194-.387.388-.581.387-.387.775-.194.581-.194.969v2.518l.194.775v.581l.387.581v1.162h-.581l-.387.388-.387.775-.194.387h-.775l-.969-.194-.581-.194H938.48l-.775.387-.194.194-.581.194-.775.581-.581.194-.581.194-2.518-.387-1.162.775-.194.194-.581-.194-.969,1.162-.775,1.162-.387,1.162-.775.969-.581,1.162-.969,1.356-.969,1.55-.581,1.162-.581,1.162-.194.969-.194.775v.581l.387,1.162v.775l.388.775v.387l.194.387.194.775v.775l-.387.581.194.775.194.387v.969l-.194.775v.387l-.387.775-.194.969.194.581v.387l.194.969.387,1.356.194.969.194.581v.581l-.387-.194-.969-.388-1.356-.387-1.162-.387-.775-.387-.194-.387.581-1.162.581-.969V996.8l.194-.581-.194-.969-.388-.581.194-.775.194-1.162.194-.581-.387-.775-.387-.775v-.387l.581-.969.387-.775.194-.581.387-.775v-.581l-.387-.581-.194-.194-1.356-.387-.581-.969-.387-.969v-.194l-1.162-2.712-.194-.194h-.581v-.194h-.581v-.194l-.194-.387v-.581l-.194-.969-.194-.969-.194-.775-.581-.194-.194.194-.387-.194-.969-.581V975.1h-.194l-.194-.194h-.194l-.194-.581-.194-.194v-.194l.194-.194-.775-.775-.194-.387V972.2l.194-.194.194-.194v-.581h-.581l-.194-.387v-.581l-.194-.387h-.775l-.194-.194-.194-.194h-.194l-.194.194h-1.356l-.387.194-.581-.194h-.581v.194l-.388.194-.387.388-.194.194h-.194l-.194.194h-.194v.969l-.194.775-.581,1.162-1.744,2.131-.581.581-.969.194-.969.775-1.55.775-.969.387-.387.194-1.744-.194-.969-.194-.775-.194-.581-.388-1.356-.194-.969-.194h-.969l-.969-.194-1.162-.194-.775-.194-.387-.194-.194-.387-1.356.969-.581.969-4.456,4.068.387.194v.387l-.194.775v.194l-.194.387.194.194-.581.969-.581.969-1.162,1.356-.387,2.131-1.937,1.356-3.293,2.131-.194,2.518V999.9l.387,1.162,1.356,1.356.388,1.162v1.744l-.388,1.162-.581.969-1.356,1.162-1.744,1.356-1.356,2.518.194,2.131v.969l-.194.969v.387l.387.194.387.388-.194.194-.388.581.194.387h.969l.775-.194.194.581v.775l-.194.387.194.194-.387.581-.194.194v.387l.194,1.162v.581l-.194.581-.581.581-.775-.194-.581.194-.387.388-.775.387-.388.194-.194.194-.194.775-.194.969-.194,2.518-.581.581-.969,1.162h-.387l-.194-.194-.194.969-.775.581-.581-.194v.194h-.194l.194.194.194.388-.581.775v.387l-.194.194v.387l-.581.969.581,2.712-.775,1.162-1.55,1.356-1.744.387-.775.388h-.387l-.775-.388h-.387l-.387.194-.387.581-.388,1.356-1.55,1.162-.581.194-.194.969-.194.387-1.162.969-.775,1.356-.581.581-.581.194h-.194l-.581.387-2.131-.775-.775-.775-.194-.969-.775-1.937-1.356-1.162-1.55-.387-1.937-.194-2.131-.969-1.356-.775-2.325-.969-2.518-2.131-.581-2.712-.387-.775-1.356-1.937-.387-3.681.194-3.1-.194-2.518-1.356-3.487-.969-3.681.194-1.55.775-.581,1.162-1.356-.194-1.356-.775-1.744.775-1.162.969-.581.581-1.937v-1.356l.387-1.937,1.55-1.356-.194-.387-2.131.581v-.388l-.194-2.131-1.162-.969-2.906.387-8.718,4.456-5.618,1.162-1.356.194-11.817.969-1.55-.194-1.937-.194-.387.194h-.775l-2.518.969-.581-.194-1.162-.194-.969.194-.581.969-2.131,1.937H782.92l-1.162-.194h-4.843l-1.356.581-1.55,1.162h-.969l-3.487,1.55-.969.969-1.744,2.325-.775.775-.969.581-2.131.387-.775.387-.775.775-.581.775-.387.969-.387.969-.581.775h-.387l-.581.194h-.387l-.581-.194-.969.194-2.325.775-.581-.194-1.162-.194h-1.55l-1.356.581-1.162-.581-.581-1.356-1.162-.969h-1.937l-.581-.969-1.356-.969-.969-.581h-.969l-1.356.387h-1.356l-.775-1.162H737.2l-.581-.194h-1.55l-.387-.194.387-.969.969-.194,1.55-.775,1.744-.775.775-.775,1.937-.969.775-2.131,1.162-2.131.969-2.906.387-2.518-.194-3.681-.969-.969V996.8l.581-.581.194-.388-.194-.775-.194-.581.194-.775.194-.581-1.937-4.649-1.55-1.162-2.325-1.356-1.55-.387-1.55-.775-2.131-.775L731,984.6l-1.356-.775-1.55-.969-1.937-.775-1.356.194-1.162.581.387.969-.194.194h-1.162l-1.55.387-.775-.194-.581-.775-.194-.387.387-1.356.581-1.356.387-1.744-.194-.775-1.937-1.55-.194-.581.194-.775.387-.581.194-.969v-.194l-.388-.775-.775-.581h-1.55l-.775-.581-4.068-1.55-4.262-.775-3.1-.194-1.744.969-.775,1.744-.388,2.325-.775,1.937-.775.775-2.131,1.162-.775.775-.581.969-.775,2.131-.581.775-3.1,1.162-2.518-.387-.387-.387L687.22,981.3l-1.55-.775-1.744-.581-.775.194-.581.387-1.162.581h-.387l-1.744.194h-.969l-.775.194-1.356-.194-.969-.194-1.356-.969-.581-.194-2.518.194-2.906-.775-1.162-1.162-1.744-1.356h-.387l-2.712-1.162-4.262-.581-2.131-.194-.581.194-1.162.581-3.1,1.937-1.937,1.356-5.231,2.906L633.364,987.5l-7.555,1.356-8.911,1.55-.387-.194-.969-.194h-.194l-2.325.194-1.55-.194-1.937-.775-1.55-.387-1.55-.581-2.325-1.162-.194-.194-.387-.194-1.937-.969-2.131-.194-2.131,1.162-1.937,1.356-1.937,1.162-3.293.581-3.681-.387-2.906-.775-.194-.194-4.068-2.518-2.325-1.744-1.162-.581h-.969l-1.55.581-.387.194-.388-.194-3.293.581-.387.969-.775,1.744-1.744,4.843-2.712,2.131-9.3,3.293-1.356.969L549.093,1003l-1.162.581-.775-.969-.194-.581.194-.581.387-1.162.387-1.162-.194-1.356-.387-1.356-.969-1.744v-.194l-.969-6.393-.581-1.744-1.55-2.712-.194-1.744-.387-.387-.581-.387v-4.649l-.194-.775-.581-1.55-.194-.194-.194-.194-.775-.969-.387-.775v-1.162l-.194-.387-.194-.581-.387-.775.194-1.162.194-.194.387-.969.969-.775.775-.581.387-.194.969-.775,1.55-1.162.969-.775,2.131-.969,1.55-1.937,1.356.775h1.162l.194-.194,1.55-.775v-.194l.194-.387.194-.775.194-.387v-.581l-.194-.581-.387-.775v-2.712h-.194v-.581l-.194-.194.194-.194-.194-.194-.581-.775-.387-.775v-.194l.194-.581v-.194l.194-.775v-1.937l-.194-2.131v-3.1l.194-.387L552,939.07v-.194l.194-.969L552,937.52l-.388-.387-1.937-1.356h-.194l-.775-.387v-.775l.581-.387h.387l.388-.581.194-1.55V930.74h.194l.194-.387.775-.969v-.194l.194-.969v-.387l.194-.387.387-.388.387-.387v-.194l.194-.194.194-.581v-.194l.387-1.162v-1.356l-1.55-1.356v-.194l-.194-.969v-.387l-.194-2.325-.194-.194-.194-.194-.388-.581V916.6l-.194-.194-.581-.387-.387-.194h-.194l-2.712-.194-.775-.581-.581-.969,1.937-2.325-1.356-2.131-.194-.969v-.969l-.387-.387-.194-.194-.194-.581v-.387l.194-.581v-.387l-.194-.387V904.2l-.194-.194-.194-.388-.581-1.356-.194-.387v-2.131l-.387-.775.194-.387h.194v-.194l.194-.775v-.387l-.387-1.356-.194-.387v-.969l.387-.775v-.387l-.194-1.356-.969-1.55.194-.388v-.775l.194-.194h.194v-.581l-.194-.388v-.194l-.581.194-.194-.194v-.581l-.775-.387v-.581l.581-.194.194-.387-.387-.775v-.581l-.194-1.162-.969-1.937.194-.387v-.581l-.194-.387-.387-.387V879.4l-.194-.194v-.194l-.194-.194-.775-.388-.194-.387-.387-.194-.969-.775-.388-.194-.194-.194-.581-.194-.775.194h-.581l-.194-.387-.194-.387-.194-.194v-.194l-.581-.387h-.581l-1.356.775h-.387l-.581-.194h-.194l-.194-.194H530.3l-.387-.194-.387-.194v-.194l-.387-.969h-.194l-.775-.775h-.194l-.194-.581-.581-.775v-.194h-.194v-.194h-.194v-.194l-.194-.194h-.387l-.581.581-.387-.194-.194-.388v-.194h-.194l-.194-.194V869.33l-.194-.194-.194-.194V867.78l-.775-.775-.194-.581-.194-.194.388-1.162h.194l-.194-.388-.388-.581-.194-.194h-.387l-.775.969h-.387l-.387-.387-.194-.581-.387-.969v-.387l-.194-.775-.969-.387-.581-.969-.194-.194-.581-.194h-.194l-.194-.194v-1.162l-.194-.581h.194l-.388-.387h-.194l-.387-.194h-.581l-.387-.194-.581-.775-.194-.194h-.581l-.387-.194-.194-.194v-.194l.194-.194-.194-.194v-.194l-.388-.387-.775-.194-.581-.387v-.194l-.194-.581-.194-1.162-.194-.194h-.194l-.194-.194-.194-.194.387-.581.194-.581v-.387l-.194-.194-.194-.194-.194-.581-.194-.387.388-1.162v-1.356l-.194-.194-.194-.775-1.743-1.55-.194-.775-.194-.387-.581-.969-.194-1.55-.194-.969v-.581l-.969-3.1-1.162-.969-.969-.775v-.194l-.194-.581-.194-.194.194-.387.194-.387.387-.387.194-.775V830l.194-.387.194-.581h.387v-.194l-.194-.387.388-.775-.194-.388v-.581l.194-.194v-1.55l.387-.775.775-.775.194-1.744v-.387l.194-.194.969-1.744v-.775l.194-.387.194-.387.194-.387.775-1.162.194-.194v-.387l.387-3.1v-.194l-.194-1.356v-1.744l-.387-.775-.775-1.937-.194-.194-.194-1.744v-.387l-.194-.387v-.387l.194-1.937-.194-.775v-.775l.194-.194V799.4l1.356-1.356v-.194l.194-.194h-.194v-.194l-.775-1.55v-.775l.387-.969v-.581l-.194-.775v-.581l.388-1.937.194-.388-.194-.581v-.194l.581-1.356.194-.194v-1.744l-.194-.194-.387-.775.387-.775.388-.581.387-.969-.194-1.356-.194-.581.387-.581.194-.388.775-1.356v-.194H511.7V777.7l.775-.775.388-.387v-.194l.194-.581.194-.581v-.194l.194-.387.581-.969v-.194l-.387-.387v-.194l.194-.581.194-.581-.387-2.131v-.775l.194-.387v-1.356l-.388-.775.775-.581v-.775l.194-.581.775-1.55.194-.194-.387-1.55v-.387l-.194-.387.194-.387v-.194l.581-.775v-.194l.194-.194.969-.581.194-.194v-.387l.194-.387V756.2h-.194l-.581-.194h-.194l-.194-.194v-.194l.581-.194.194-.194-.194-.581v-.581l.194-.387.969-.775.194-1.744-.194-.581-.387-.387.194-.387v-.387l.194-.388.387-.581.194-.194.581-.581h.194v-.581l-.387-.775-.387-1.744.194-1.744v-1.162l-.581-1.744-.194-.387-.194-.581-.194-.387-.387-.387-.387-.387-.581-.388v-1.356l.194-.581-.194-.581v-.775l-.194-.969v-.194l.581-.387.388-.581.194-.387.194-.969v-.387l-.194-.194v-.194l-.194-.194-.194-.387-.388-.194-.194-.194-1.356-.387-.581-.388-.194-.194-.194-.194-.194-.581.194-2.712-.194-.581-.387-.775-.387-.775-.194-.775v-1.356l-.194-.387-.387-.969v-.194l.194-.387.387-.387.194-.194h.194v-.387l-.194-.581-1.744-1.55-.194-.194v-.581l-.775-.387-.388-.388-.194-1.162-.194-.387-.387-.388v-.194l-.194-.194v-.387l-.194-.387v-.194l-.194-.387-.387-.387-.194-.194-.194-.775-.194-1.162-.581-.775-.581-.581-.581-.581v-.387l-.194-.194v-.194l-.581-.388h-.194l-.387-.387-.969-.581h-.194v-.194l-.194-.194-.194-.969-.194-.387v-.387l-.581-.387-.581-.775-.388-.387-.194-.581.388-1.744-.194-.387v-.388l-.775-.969-.194-.581h-.194l-.194-.388v-.969l.775-.775,1.356-1.937.194-.581v-1.356l-.775-3.1.194-1.356h.194v-.775l-.194-.387.194-.581.387-.194v-.387l.194-.387v-.387l-.194-.194v-1.162l-.194-.581,1.162-1.162.194-.387.194-.581v-.775l.194-.388.387-.387.194-.194.194-.388v-.387l.194-1.162.969-1.937.194-.969.194-.969-.194-.969.194-.581,1.162-.194.387-1.55Z" transform="translate(-499.25 -666.25)" fill="#6f9c76" stroke="#fff" stroke-linecap="round" stroke-linejoin="round" stroke-width="0.5"/>
</svg>
