<svg xmlns="http://www.w3.org/2000/svg" width="388.324" height="462.536" viewBox="0 0 388.324 462.536">
  <path id="CDMA" d="M789.505,762.893H768.97L758.7,762.7H733.131l-25.766-.387-5.037-.194-9.88-.194h-1.744l-12.592-.194v-.194l-.194-.194-.388-.387h-.387l-.194-.387-.194-.194-.581-.581v-.581l-.194-.581v-.194l-.775-.969-.194-1.356-.388-.194-.387-.194-.581-.581v-.387l-.194-.387.194-.194.194-1.356-.387-1.356v-.194l-.387-.581-.194-.194h-.194l-.387-.387-1.162-1.162-.194-.387v-.969l-.194-.194V747.2l-.194-.194-.194-.194-.194-.775-.581-.581-.581-.581-.387-.581h-.969l-.194-.194-.581-.387-.775-.194-.194-.387-.194-.969v-.194l-.194-.194v-.194l-.194-.194-.969-.194h-.387V741l-.194-.194-.388-.388-.581-.969v-.969l-.581-.775v-.194l-.194-.194.194-.387v-.194h-.194v-.194h-.775l-.387-.581-.194-.581-.387-.194V735l-.387-.194v-.581l.775-.387-.387-.388-.194-.775-.194-.194-.581-.581v-.388l.194-.581v-.388l-.194-.387.581-.387-.388-.581h-.194v-.194l.387-.581h.194v-.194l.194-.775.387-.387h.194v-.194l-.194-.387v-.387h.388l.194-.194h.194v-.969l.194-.194h.581l.194-.194h.387l.194-.194.194-.194.194-.194v-.194h.194l.194-1.162h.387l.387.194h.388v.194l.194-.775-.194-.969v-.387h.969v-.387l-.581-.775.581-.581.194-.775,2.131-1.55.194-.194.194-.194.387-.194.388-1.162.194-.194.387.194.581-.969h.969l.387-.194h.194l.194-.194.194-.194V713.3h.194v-.581l-.194-.194v-.581h.387l.194-.194.194-.387-.775-.775-.194-.194-.388-.388-.194-.194.387-.775v-.194l-.581-.387-.969-.775V707.3l-.387-.581v-.387l-.194-.388,1.744-1.55.194-.775v-1.162l-.194-1.162V701.1l.194-.387v-1.162l.194-.388.387-.581,1.55-1.937.194-.194v-.194l.194-.581-.194-.387-.388-.387-.581-.775v-.969l.194-.194-.194-.194-.194-.194v-.194l-.194-.387-.194-.194.194-.581.194-.194-.194-.388-.194-.194-.194-.194v-.387l.194-.194.581-.387v-.194l.194-.388V688.5l-.194-.387-.388-.581H672.5v-.194l.775-.387.194-.194h.194v-.194l.194-.194-.194-.387L672.3,685.6l-.194-.194-.775-.194v-.194h-.194v-.194l-.194-.194v-.775l.969-.775.387-.388V682.5l.194-.194v-.969H672.3l-.194-.387h-.194l-.194-.388-1.55-.194v-.194h-.194l-.194-.388.194-.194.969-2.712V676.3l-.387-.388v-.387l.194-.387-.194-.194v-.194l-.775-.194-.194-.194-.388-.775h-.194v-.194h-.969l-.194-.194h-.387l-.194.194v.194l-.194.194-.194.775H666.1l-.387.194h-.387v-.194h-.194v-.194l-.194-.388V673.2l-.387-.775h-.194l-.387-.194-.387-.581-.581-.194-.194-.194v-.581l.387-1.55.194-.194v-.194l.388-.194v-.388l-.194-.194-.387-.387-1.162-.194v-.775l-.387-.194-1.162-1.162h-1.162l-.388-.387v-.387l-.194-.194.194-.387.194-.775.194-.387-.194-.194-.194-.775-.194-.194h-.194v.194h-.194l-.194.581-.194.194v.387h-.581l-.581-.194-.775-.775v-.387l-.194-.388-.194-.581v-.388l-.581-.581-.194-.194-.581-.581h-.194v-.581l.194-.775.194-.194h.194v-.194l.387.194.775.388v-.194l.194-.194-.194-.194v-.194l-2.325-.969h-1.162l-1.162-.388-.387-.194v-.194l1.162-.194.194-.194V654.6l-.194-.194-.581-.194-.581.194h-.387v-.194l.194-.581v-.387h-.194l-.194.194-.194.194h-.194v-.194h-.194l-.387-.581h-.581l-.194-.388v-.387l.194-.194-.775-.775-.194-.387-.194-.581v-.387l.194-.194h.581v.388l.194.194.194.194.388-.581.581-1.55.775-.388v-.194h.194v-.581h.194l-.194-.194-.775-.194h-.194l-.194-.194.387-.387.194-.194h.387l.194.194h.194V645.3l.194-.387v-.194l.194-.194.581-.387v-.581h.194v-.194h.194l1.55.387v-1.162l.194-.387v-.388h.194l-.194-.194-.387-.969.194-.194.775-.387.194-.388v-.194l-.194-.194V639.1l-.194-.194-.387-.194-.969.194-.387-.387.194-.387.775-.194.194-.387v-.387l-.775-.388-.194-.387.387-.388h-.969v-.194l-.194-.194.194-.387.388-.194h.194l.194-.388v-.194l-.581-.775V632.9h-1.356l-.194-.387h.194l.194-.194.388-.194h.194v-.969l-.194-.194-.194-.194-.194-.387.194-.194h.387l.194-.388-.581-1.162.194-.194h.194l.581.387h.194l.194-.194.387.387.194-.387v-.194l-.194-.388.194-.194h.194l.775-.194h.194v-.387h.194l-.387-.581-.194-.581-.194-.194-.194-1.356-.581-.581-.194-.387h-.194l-.387-.194h-.194v-.194l-.387-.194-.194-.194-.194-.387.194-.388v-.194l.387-.194.194-.388,1.162-.969.387-.194.387-.194.388.194.969.194h.775l.581-.387.194-.969V617.6l.388-.388h1.162l.194-.194.194-.194.388-.581v-.194l.194-.387v-.775l.194-.387.194-.969.194-.387v-.194l.194-.194.194-.194H663.2l.194-.194.388-.775V609.85l.387-1.162-.387-1.356.194-.581.775-.775v-.388l-.194-.194h-.775l-.388-.194-.387-.194-.194-.194.194-.775.387-.581v-.194l.194-.194.387-.388.387-.194,1.162-.194,1.356.194.387.194.388.194h.581l.388-.194.194-.194.194-.387v-.388l-.581-1.55v-.388l.194-.194.581-.775.194-.194v-.194l.194-.194v-.194l-.194-.388-.194-.581v-.388h-.194l.194-.387V596.1l.388-.194h.969l.969-.194.387-.194v-.194l.194-.194.194-1.162v-.194l-.194-.775.194-.387v-.581l.387-.194.387-.387.775-.194h.387l.194-.194v-.194l.194-.387v-.194l-1.356-.775-.194-.388v-.387l.969-.969.194-.581V586.6l-.194-.388-.387-.387-.387-.194-.387-.194h-.194l-.194-.194v-.387l.194-.387.581-.581h.387l.387.194,1.162,1.162h.387v-.194l.194-.194v-.775l-.581-.775-.387-.775v-.194h.194v-.194l.194-.387-.581-.194h-.581l-.194-.194-.194-.194h-.194l-.388-.387v-.775h.194l.581-.581.581-1.55v-.194l.194-1.162.387-.387v-.194l.388-.388.387-.775.581-1.162.581-2.131,1.356-2.325v-.388l.194-1.162.194-.969.194-.387.194-.581,1.356-2.325v-.969l.581-.775.775-.581.194-.581v-.194l.387-1.937v-.388l.388-.775-.194-1.162-1.162-1.744-.194-1.162-.775-2.518v-.581l-.387-1.55v-1.55l-.194-.581.194-.969-.194-.387-.388-.969-.194-2.906-1.55.194-.969-.581-1.162-1.162-2.518-1.937-.581-1.55.194-1.356,1.744-1.162,1.162-.775,1.162-1.162-.387-.194-.581-.388H675.4l-1.356.194-1.356-.581-.387-1.356.581-.775.775-.581,1.744-1.162,1.55-1.937-.194-1.162-1.937.194-2.712.581-.775.194-.969-.581-1.55-1.55H666.1v-2.325h-1.744l-4.068-.387h-7.749l-6.005-.388-1.356.388-.969-.581-.194-.969-.194-2.712-.581-7.943-.194-4.456-1.744-4.456-1.356-1.937-2.518-2.518-1.162-2.518-.387-4.068-.581-3.681h35.064l.194-.194.387-.194.581-.194.775-.194h.194l2.131-.388h.387l1.937.194.581.969,1.162-.387,1.744-.194,2.906.194,1.55.775h2.325l2.518-.388.775.194.387.969v.387l-.387,1.162.194.388.775.581.194.581-.581.581-.581.388-.581.387-.581.388-.581.581-.581.969.387.581v.775l.775.581,1.55.388.969-.194,1.937-.969.775,3.487,5.231-1.937,2.906-.969,8.524-2.518.387-.581.387-.969v-.388l.775-1.162h.194l.775-.969.775-.387,1.162-1.162.194-.388.194-.194.387-.581.969-.969.387-.387.194-.194.387-.194h.194l.775-.194.581-.194.194-.194,1.55-.387h.194v-.194l.969-.969.387-.387.387-.387.387-.194h.387L725,478.7l2.712-.194h.194l.194-.194.387-.388.387-.387.969-.581.388-.194h.581l.388-.194.194-.194.581-.194.969-.388.387-.581.581-.388.387-.581.194-1.937.194-.194.194-.194,1.55-.775.387-.194,1.356-1.356.581-.388h.969l1.162-.194,1.55-.194.194.194h.387l.581.388.581.581.775.969.194.194H746.3l.775-.194.387-.194.775-.387h1.937l.194-2.518.387-2.518.194-1.162-.387-5.231v-.388l.194-.581,1.162-2.712V453.9l.387-.775v-.388l.194-.387-.194-5.424-.387-1.744-.387-2.906-.194-.775-.194-1.356.194-1.162v-.194l.581-1.162.194-.775.194-.581-.387-1.162-.194-1.356v-2.325l.388.194.387.194.969.969.969.581v1.162l.194.581v.194l.388.388.387.387,1.744.775.775.775v1.162l.194.194.387.194h.775l1.356-.194,2.325.775h.775l.775-.194,1.55-1.162v-.775l-.194-.194v-.775l.194-.194h.194l.388-.194.581-.194.388-.387h.194V435.3l.387-.969v-.194l-.387-.969-.581-.581h-.194l-.775-1.162v-.387l.194-.581h.194l.194-.194.194-.194.387-.194,1.937.194h.969l.194-.194h.194l.194-.969v-.581l-.194-2.906.388-1.744-.388-1.356v-.388l.194-.775V420l.387-.194v-.194h.194l.581-.194v-.581l-.194-.969-1.937-.387.194-1.937,1.356-4.456.581-3.293.581-.775h2.131l1.937-.581.775-.775-.775-1.356-2.325-1.356-2.131-1.162-.969-11.817,3.681-.775h1.162l1.937-.387.194-.387,1.356-1.162.581-.194,1.356-.194,2.325-.581,1.744-.969,1.356-1.55,1.55-3.681-.581-.969-.387-.387-.388-1.162v-.581l-.775-4.262.194-5.812-.194-2.325-.581-1.744.581-.387v-.194l.387-1.162.969-1.162.387-1.162.194-.194v-4.068l.969-4.843.581-1.937-.194-.581-7.749-5.618-3.293-1.937-1.356-1.162-1.356-1.162-1.356-1.744.581-.581.775-.775.194-.194.387-.194.194-.387.969-1.55.581-.581.194-.387.194-.581.194-.387.194-.581.775-.775.581-1.162-.775-.581-.387-.581h-.194l-1.356-.775-.581-.581-.969-1.744-.387-.194-.581-.775-.581-.194H774.2l-.387-.388-.194-.194-.194-.387-.387-.388-.775-.969-.194-.194-.194-.387-.387-.581V318.1l-.194-.388-.387-.969-.194-.387-.194-.194-1.55-6.974-1.162-2.325-.194-1.162.581-.775.775-.387h.387l.387-.581.194-.581-.194-.775h.775l.194.387h.194l.387.387v.388l-.194.387h-.581v.194l.194.194h.969l.194.194.387-.194.387-.388h.387l-.194.581v.194l-.387.387v.194h-.194l-.387.387.194.194.969-.194.387.387v.581l.194.387.388.969h.775l.581.581.581-.194v.581h.969l.194-.969.387.194.388.387-.194.969h.775l1.356.581.387-.194v-.194h.387l.194.388.194.194.387.969h.581l.194-.194.194-.194h.194v.775l.194.194v.194l-.387.969v.194h.387l.775.194.387-.194.194-.194h.194v.969l.194.194h.194l.194-.194.194-.388h.387l.387.775.581.581v.194l.581.581h.969v.194l.194.194.194.969.387.194h.194l.194.194.194.194v.581l.194.775.194.387h.581l.387-.194h.388l.775-.194.581-.388.581.775.194.194-.194.581.194.194.194.969.194.194h.194v.194l.194.194.194.194v.969l.388,1.356v.194l.194.194.581.581.194.194.775-.581.969.581v.194l.775.387.581.388v.581l.194.194H799l.581.969.194.388v.194l.387.194h.194l.969.388.581-.194.194.581.775.387.194.194h.194l.581-.194.388.194.194.194-.194.194v.387h.194v.775l.194.194.194.194.194.194.194.194.194.194.581,1.937.387.581.194.581h.194v.194h.969l.194.194,1.937-.194.387-.194.194-.194.581.194h.194l.775.194h.969l1.356-.581,1.162.194h.775l.775-.194,1.162-.775.969-.581,1.162-.388.581-.387h.388l.194.387,4.456-2.712,1.937-.581,1.162-.194.969-.388.581-.194,1.162-.969,1.55-.969.387-.387.581-1.356,1.937-1.356.969-.388.387-.194h.387l.388.388h.387l.775.775.194.194h.194l.775-.194h.387l.194-.194.775-.194.194-.194.581-.775v-.387l-.775-.388-.581-.387-.194-.194-.194-.775-.194-.775.194-.194v-.388l.387-.387h.194l.969-.194V321h.387l.387-.194h.194v-.194l.387.388.969.581.194.194.194.194.969.581.194.194v.581l.387.194h.387l.194-.387.387-.775h.194l1.356,1.356.387.194h.387v.194l.194.194.387.387.194.194h.194l.388.194h.581l.194.194.387.581.581.194h.969l.194.194.194-.194h.194l.194-.388.388.775.775.194.775-.387.581.194h.194v.388l-.194.581.194.388,1.162.969.581.581h.387l.388.388h.969l.775.775.387.388.969.775v.581l-.775.775.581.194v.194l.387.194v.387l-.194.775v.969l.194.581.194.194.388.387h.194v.194l.581-.194.387.194h.387l.194.194h.194v-.194h.194l.194-.194.775.194h.388l.194.194.194.969v.388l.775,1.356.387.194.194.194h.387l3.293,1.55,1.55.581h3.1l.387.194h.581l1.356-.194.387.387.194.194.387-.194h.969l.194.194h.387l.387-.194.194-.194,1.356.194.775,1.162h1.162l.387.775h.581l.387-.194.387.194.387.388h.194l.194.387.194,1.55v.775l.775.775h.969l.581-.194.775.387h.775l.581-.387.775.194.775.194h.387l.581-.387h.775l1.162-.969.194-.194h.194l.387-.194.388-.388,1.162-.194h1.55l.581.194.194.194-.194.969.194,1.356.194.775,1.744,1.162.775-.581h.775l.387-.194.194-.194.581.387h.581l.194-.194h.387l.194.581.387.194.194.581.194.387.581.387,1.744.581.581.969.388-.194h1.356l.775.775.581.581.194.194h.194l.969.194.969.387,16.66.194-.581,1.162-.387.194-.387.581-.194.775-.194,2.518.388.194.194.581.194.388-.387.775-.969.581-.581.388-.194.194-.194.387-.194.388v.387l.194.387v2.131l.194.387-.194.387-.194.388v.194l.194.387v.388l-.388-.388-.194.194v.194l-.194.387-.387.387-.387.194-.194.387-.387.775v.194l-.194.581.194.969v.194l-.194.775-.194.387v.775l-.194.581-.775,1.162-.194.581.194.581.387,1.744v.387l-.194,1.162h-.194l-.194.388h-.581l-.775.387-.969.194-1.744.194h-.194l-.194.194H922.4l-.194-.194-.194-.194h-.194l-.775,2.131-.387.581-.194.194-.969.581-.969-.194h-.581l-.775.194h-.194l-.194-.194-.387-.194-.387.581-.194.194h-.194l-.194-.194-.581-.775h-.194l-.194-.194-.194.194h-.194l-.388-.194-.387-.387H913.1l-.194-.194h-.194l-1.55-.194-.388-.194-.194-.194-.194-.194-.581-.388-1.356.194h-.387l-.775.387H906.9l-.581-.387-.775-.194-.194-.194h-.581l-.194-.194h-.581l-.194.194h-.969l-1.356.388h-.194l-.969.581h-.387l-.388.194-.581.194-.775-.388-.194.194H897.6l-1.744.775-1.356.775-1.55,1.162-.581.194-1.162.194h-.581l-.969-.388H888.3l-.388.388-.194.194h-.775l-.581.387-.969.194-1.162,1.162v.194l-1.162.775-.194.194-.581-.194-.194.194v.581l.194.775-.581,1.162-.194.388v.581l.775,1.744.194,1.162v.194l-.194.194-.581.581-.194.194-.194.387.194.969.581.775.581.194.387.387v.969l.387,1.937v.581l.581.581h.194l.194.194.581.387h.194v.194l.387.194.775.775.194.388.194.387.387.388.387.387.387.969-.194.194v.194l-.194.194-.581.387h-.387l-1.937-1.162h-.581l-.775.387-.969.581v-.194H882.1l-.581-1.162v-.194l-.387-.194-.969.194h-.194l-.194.194h-.194l-1.356,1.162-.387.387-.194,1.162h.775l.387.581,1.356.969.581.775.387.775,1.744,1.162.387,1.162.775.775,1.162.581.581.388.194.194.387.775.581.387.581.194.775-.387.388.194.969.581h.581l.194.194-.775,1.744-.775,1.356-.194.775v1.162l.581.775.388.969.969,2.131,1.162,1.937,1.162,2.325.969.775h.775l.969-.581.775-.581,1.356.969.387.387.387.581.194,1.744.194.969,1.356,1.162.969.969.969,1.162.581.581.388,1.937.387,1.55-.194.775.194.581.775.969.387.194.388.581.194.969.194.194,1.162.581.194.581.194.194.194.194h.581l.581-.194.581.969h.387l.194-.194H910l.969,1.162h.194l.581.194h.194l.775.969.775.194.194.387v.388l.581.387,1.937.194.775.388.388.387.194.581-.387.387v.194l.387.194.775-.194.194.581.387.581.388.388v.387l-.388,1.356v.194l.581.581v1.162l.387.581.388.194.581-.194.194.194v.194l1.162-.388.194-.194h.775l.581.387.969.775v.194l.194.581.387-.194.387.194v.387l-.194.969-.194,1.162-.194.969v.387l.775.581.581.387v.194l-.387.969v.388l.387.387-.194.387-.387.581V475.4l.194,1.55-.775,1.937v1.162l.194,2.131.194,1.55-.387.775-.387,1.162-17.629-.387-15.3-.388-.581.775.194.581.581.581.969.388,2.325.775,1.356.388h2.131l1.356.387.194.775-.581,1.55-1.356,2.325-.581,2.131.581,1.356v.775l-.775.581-1.937.775-1.356.969-2.325,1.162-1.356-.387-1.55.194-.581.581-1.55,1.356-.969.969-.969,1.356-1.162,1.55-.775,1.162-.775-.194h-.775v-.194l-.194-.194v-.581h-.194l-.194-.194h-.387l-.387.387-.194.194v.194l-.194.581v.194h-.194l-.387.194-.194.387-.194.194v1.744h-.581l-.387-.194-.194-.194v-2.325l-.194-.194v-.194h-.387l-.194-.194h-.194l-.387-.194h-.194v.194l-.194.194v.194l-.194.194v.194l-.194-.194-.194-.194V506.4h-.387v.194l-.194.194v.388h-.194l-.194.194h-.194l-.194-.194-.194-.194v-.194l.194-.194.194-.194h.387l.194-.194v-.388h-.387l-.194.194h-.387l-.387.194v.387h-.194v1.356h-.581l-.194-.194v-.969l.194-.194.194-.387v-.388h-.387v-.194h-.194v.194h-.194v.581h-.387l-.194-.194h-.581l-.194.194v.969h-.387v-.194l-.194-.194.194-.194.194-.194V506.4l.194-.194v-.775h-.194l-.194-.194h-.775v.194l-.194.194h-.387v.194h-.388l-.194.194-.194.194h-.194l-.194.194.194.194v.194l.194.388v.387h-.387l-.194-.194-.194-.194-.194-.194-.194-.387L867,506.4v-.194l.194-.194.194-.194v-.194l.194-.194v-.194l-.194-.194H866.8l-.194-.194h-.194l-.387-.194-.194-.194h-.581v.194h-.387l-.387-.194-.194-.194H863.7v.194h-.194v.387h-.194l-.194.194h-.387l-.194-.194v-.194l-.194-.194v-1.937h-.194v-.194l-.194-.194h-.968l-.194-.194-.194-.194-.387-.194v-.581h-.387l-.194.194h-.194l-.194-.194h-.194l-.194-.194-.194-.194v-.969l-.194-.194h-.194v-.194l-.194-.194-.194.194v-.388l-.194-.194v-.387l-.194.194h-.194v.775l-.194.387h-.581l-.194-.194v-.194l-.194-.194v-.387l-.194-.194v-.388l-.194-.194-.194-.194-.387-.194-.194-.194-.194-.194H854.6l-.194.194v.387h.194v.775l.194.194.194.194v.194l.194.194.194.194v.387l-.194.194h-.194l-.194-.194H854.6l-.194-.194h-.194v-.194h-.194v-.388l-.194-.194.194-.194v-.581l-.194-.194-.194-.194h-.387v.387h-.194v.194l-.194.194-.194.194h-.387l-.194.194-.194.194v.194h-.194v.387h-.775v.387h-.194v.194h.194v.194h.194l.194.194-.194.194v.194h-.194v.194h-.194l-.194.194v.387l.194.194h.194v.194h.194v.388h-.387l-.194-.194-.194-.194h-.194v-.194l-.194-.194h-.194l-.194-.194h-.194v-.194l-.194-.194v-.387l-.194-.194v-.194h-.194l-.194-.194v.194H848.4v.194h-.581v-.194l-.194-.194h-.387v-.194h-.387l-.194.194H845.3l-.194.388-.194-.194h-.387l-.194.581v1.937l-.387,1.162-.194,1.356-.194,2.518-.581,4.456.194.581.581.581.388.969-.194.969-.387.775h-.194l-.387.194h-.194l-.387.581-.194-.194-.581-.194-.194.194v.194h-.387l-.387-.387h-.194l-.194.387H839.3l.387,1.162.581,1.162.387,1.162-.581,1.743.194,4.649.581,1.55,1.744,1.744.969,1.162.581,1.937.775,2.518v1.743l-.581.969-.969.581V540.3l.387.969h-.194v.388h.581l.194.194v.387l.775,1.356.775,1.55.775.969,1.356.969.387,1.162-.775.775.388.969,3.487,1.55.194,2.518-.581.775-.194,1.356-.194.387v.387l-.194.388-.387.581-.775.388v.387l-.387.194.194.388-.194.581v.388l2.712,1.162,1.162,1.55.387,2.325,1.356,3.681.387,2.518.194.387.775.775.581.387.387,1.162h.387v.194h.968l.194-.194v-.387l.194-.194v-.194l.194-.194h.194v.194l.194.194h-.194v.387l-.194.194.194.194v.194l.194.194.194.387h.194l.194.194.194.194h.387l.194.194h.387v.194h.387v.194l.194.194h.194v.194l.194.194.194.194v2.131h.194v.969h-.194v.194l-.194.194-.194.194v.581l.194.194v.194l.194.194.194.194v.194h.387v-.194l.194-.194h.581l.194.194.194.194.194.194v.194h.194v.194l.194.194h.194v.194l.194.194.194.194.194.194.194.194v.194h.387v.194H867l.194.194v-.194l.194.194v.194h.194v.194h.194v.775h-.194v.387h.194v.194h.194v.581l.194.194v.194l-.194.194v.581l.194.194v.581h-.194v.387l-.194.194-.194.194v.194h-.194v.387h-.194v.194l-.194.194v.194h.194v.194l.194.194h.968v.194l.194.194h.387l-.194.194.194.194v.581l-.194.194-.194.194V593h-.194v.194l-.194.194-.194.194v.194l-.194.194v1.356l.194.194h.194l-.194.194h.194v.387l-.194.194v.387h.387l.194.194v.388l-.194.194v.194h-.194v.387h-.194v.581l-.194.194V599h-.194v.969h-.194v.194h-.194v.194H867v.581h.387v.194h.194l.194.194h.194v.194l.194.194.194.194.194.194h.194l.194.194h.194v0h.387l.194.194h.194v.194h-.194v.194h-.194v.194h-.194v.194h-.194v.194l.194.194v.387h-.194v.194h-.194v.194l-.194.194v.194h-.194l-.194.194h-.194v.581h-.194v.387h-.581v.194h-.194v.194H867v.194H866.8l-.194.194h-.194v.194h-.194l-.194.194v.194h-.194v.581l-.194.194v.388l-.194.194v.969l.194.194v.388h.194l.194.387.194.194v.194l.194.388v.387l-.194.194-.194.194v.194h-.194l-.194.194-.194.194-.194.194v.581h.194v.194l.194.194v.194h.194l.194.194h.194l.194-.194v-.387h.194v-.194h.581v.194h.194v.387l.194.194v.775l.194.194v.775l-.194.194-.194.194-.194.194v.581h.194v.581h.581l.194-.194v-.194l.194-.194h.387l.194.194v1.162h-.194v.387h-.194v.194h-.194l-.194.194v.581h-.194l-.194.194v.387l.194.194-.194.194v.581l.194.194.194.194v.388l.194.194h.194l.194.194v.775l.194.194.194.387v.194l-.194.387-.387.775.194.775-.194.581v.388h-.194l-.194.387h-.194l-.194.194-.194.194.194.194v.387h.194v-.387l.194-.194.387.194v-.194l.387-.194h.387l-.194.194v.581h.194l-.194.194-.194.388v.194l.194.387v.194l-.194-.194-.194-.194h-.775v.387l.194.194.194.194v.387l.194.194v.194h-.387v.194l.194.194v.194h-.581l-.194.194v.194l-.194.194v.581h.194l-.194.194H867v.969l-.387.194v.387h.194v.387h-.387v.194h-.194v.194l.194.194v.194h-.387v.775h-.194v.387l.194.388-.194.194v.194l-.194.194.194.194h.194v.387l-.194.194v.388l.194.194v.775l-.194.194h-.194v.194l.194.194.194.194v.194l-.387.388h-.387l.194.194v.387h.194v-.194h.387l-.194.194h-.194l.194.194v.387h-.194v.194h.194v.194h-.387l-.194-.194-.194.194v.194l-.194.194.388.194v.194l-.194-.194-.194.194v.388l.194.194v.194l.194.194v.388h-.387l.194.194v.194h-.194v-.194h-.194v.194h.194l.194.194v.194l.194.194h-.387l.194.194.194.194h.194l.194.194v.194l.194.194v.194l.194.194v.194h-.387v.194h.194l.388-.194v.775h.387v-.194h.194v.387h-.194v.581h.581l-.194.194.194.194.194.194h.194v.194l-.194.194h-.194v.581h.387v.194h.194v-.194h.194v.581h.194v.387h.194l.194.194h.194l-.194.194.194.194v.194h-.194l.194.194v-.194h.194v.581h-.194l.194.194v-.194l.194-.194h.194l.194.194h.387v.194h.194v.194H869.9v.194h-.194v.388h.194v-.194h.581l.194.194h.194v.194h.194v.387h.194v.581l.194.194v.194h.581v.194h-.194v.388h.387v.194h-.194v-.194h-.194v.581h.194v-.194h.194v.194h-.194v.194l.194.194v.194h.194v0h.387v.194H873v-.194h.194v.194H873v.387l.194.194v.194l.194.194v.387l.194.194h.194v.194h.194v.581h.194v.194h-.194l.194.194v0h.194v.194h.194v0h.194v-.194h.194v.194h.387v.194h.194v.194h.194v.194h.387V661h0V660.8h.194V661h.194v0h.194v.194h.194V661h.194V660.8h.194V661l.194-.194h.194V661h.194V660.8h.387V661h.194v.194h.387v.194l.194-.194.194.194v-.194h.194v.194h.387v0h.775v0h.387v-.194h-.194V661h.194l.194.194h-.194v.194h.194v.194h.194v.194h.194v.194h.775v.387h.387v.194h-.194v.194H882.3v.194l.194-.194h.194v0h.775v.194h.194v0h.194l.194-.194h.581v0h.194v0h-.194l.194.194v-.194h.581l.194-.194v0h.194v.194h.194v0h.194v0l.194.194v.194l.194.194v-.194h.194v.194h.194v.194h.194v-.194h.581v.194h-.194v.194h.194v-.194h.194v.388h.194v.194h.194l.194.194h.194v.194h.194v-.194h.387l.194.194v-.194h.194v.194h.194v-.194h.194v.194l.194-.194.194.194v.194h.387v-.194h.775v.194h.194v-.194h.581v.388h.194l.194-.194.194.194h.194l.194.194h.194v.581h.194v.194l.194-.194v.194h.194l.194.194v.194h.387v.194h.387v.194h-.194v.194h.194v-.194l.194.194v.387h.387v.194h.194v.388h-.194v.194h.387v.194h.194v.194h.194v.194l.194.194v-.194h.387l.194.194h.194l.194.194h.194v.387h.194v.388h.194l.194.194v.194h.194l.581-1.55.387-.387H900.7l1.744.581,1.356.387,1.937.581h2.131l2.518.194,1.55,1.356.581.388,1.356.581,1.55.194,4.65-.775,3.293-.388,4.068-.581h2.906l1.937,1.55,1.744.194-.194.581-.775,1.55v.775l-.387.388v1.162l.969.775v.969h.194v.194h.194v.194h.194v-.194h.194v.387h.387l.194.194h-.194v.194h.581v.194h.194v.387h.387v.388h.194v.194h.194l.194.194h.194v-.194h.387v.194h.194v-.194l.194.194h-.194l.194.194h.194v-.194l.194.194h.581v.194h.194l.194.194.194-.194v.194h.194v.387l.194.194v-.194l.194-.194.194.194v-.194h.387v.194h.581v.194l.194.194v-.194h.194v-.194h.775v.194h.775l.194.194v-.194h.581v-.387l.194-.194v.194l2.131-1.55,1.744.194-.194.388,1.937.581h.387l1.55.194.969.194-.194.969-.194.387v.194h-.194v.194h-.387v.194h-.581l-.194.194v.194h.194v.194l.194.194.194.194v.581h.194v.581h-.387l-.194.194-.194.194v.194h.387v.387l-.194.194v.388h-.194v.387l.194.194v.194l.194-.194h.581v-.194h.194v-.194h.387v.194h.194l.194.194h.194l.194-.194.194-.194.194-.194.194-.194h.387l.194.194h.775v.194h.194v.194h.775v.194h.194v.194h-.194v.194l-.194.194h1.162v.194h.194v.194l.194.194.194.194v.194h.194v.194h.194l.194.194h.194l.194.194h.194v-.194h.387v.194h.194v.194h.194v.194h.194v.194h.194v.387l.194.194v.194h.387v-.194l.194-.194v-.387l.194-.194v-.194h.194l.194.194.194.194v.194h.194v.194h1.162l.194-.194h.194v-.194h.387v-.194h.194v-.194h.194v-.194h.194l-.194.194h.194v-.194h.387v-.194l.194-.194v-.194h.194v-.969h.194v-.194h.194v-.194h.194v-.581h.194l-.194-.388h-.194l.194-.194v0l.194-.194v-.194h.194v-.388l.194-.194V685.8h-.194l-.194-.194h.194v-.388h.194v-.194h.194l-.969-1.937.581-1.356.581-.388h.387l.775.194.581.581.388.969.387.775.194.581.194.775.581,1.55,1.744,2.131,1.937,1.356,2.518,1.744,1.55.775,3.875,3.293.775.387.969-.581.388-.194H984l.388,1.162.969,1.55.194.388.387.969-.387.387.387.581-.387.581.194.775.387,1.55v.387l.387.387.969.775,2.518.969,3.1.775.194.194.969.969v1.744l.194,2.518.969.775.775-.194h3.875v1.744l-.194,3.487v.581l.581.581.775,1.162.387,1.55.581,1.55.581,1.744.387,1.55.581,2.325.387,1.162v.194l.775,2.325.581.969.581.387.969.775h.194v-.194h.194v.387h1.162v.194h.387v.194l.194-.194h.194l.194.194h.194l.194.387h.194v.581l.194.194-.194.194h.194l.194.194v.194h.387l.194.194.194.194h-.194v.194h.194l.194.194v.387h.194v.194h.194v.194h.194l-.194.194v.387h-.194v.387l.194.194h.387v.194h.194v.387h-.194v.194l-.194.387v.387l.194.194v.194h.194l-.194.194v0l-.194.194h.194v.194h0v.387l.194.194v.775h.194v.581l.194-.194v.194h.387v.387h-.194l.194.194h-.194v.194h.581v.194l.194-.194v.194h.387v.194l.194.194h.194l.194.194h.194v.387l.194.194-.194.194h-.194v.194h-.194v.387h.194v.194l.194.194.194.194h.194v.194h.387v.194h.194v.194h.194l-.194.194.194.194v-.194h.194v.194h.387v.194h.194v.581l.194.194v.194h.194v.194h-.194v.387h.194v.387h.194v.194h-.194v.194l.194.194v.194h.194v.387l.194.194v.194h-.194l.194.194v.387h.194v.194h0v.387h.194l.194.194h0v.194h.387l.194.194h.194v.194h.194v.194h.194v.194h.194v.387h-.387v.194h-.387l-.194.194h-.194v.194l.194.194v.194h-.194l.194.194v.581h.194v.194h-.387v.194h-.194v0h-.194v.387l-.194-.194v.387l.194.194v.387l.194.194v.194l.194.194h.194v.194l.194-.194h.194v.194l.194.194.194.194h.581v0h.387l-.194.194v.387h-.387v.194l.194.194.194.194v.194l.194.194v.194h.194v.194l.194.194.194.194.194.194.194-.194h.581l.194.194.194.194v.194h.194v.194h.194v.775l.194.194h-.194l-19.373.387-17.048.387H975.468l-17.823-.387H946.409l-10.461-.194L918.9,763.86l-3.293.387-1.162-.194-2.131.388h-.581l-4.262-.194h-1.356l-11.43-.387h-7.555l-.775-.194h-5.231l-14.529-.387-1.744-.194-11.042-.194H789.491Z" transform="translate(-635.05 -302.349)" fill="#1876d2" stroke="#fff" stroke-linecap="round" stroke-linejoin="round" stroke-width="0.5"/>
</svg>
