<svg xmlns="http://www.w3.org/2000/svg" width="472.806" height="338.746" viewBox="0 0 472.806 338.746">
  <path id="CDMN" d="M276.807,441.9l1.356-.194,3.1-.581.775-.194-.194.969.194.775.194.775h.387v.194l.194.194.194.969.387.581.387.775.194,1.55.194.969.194.194.775,1.356,1.744,2.325.387.194.387.387.194.194h1.356l8.911.194h1.937l17.435.194-.194-12.592-1.55-.387-1.162-.581-.194.194h-2.712l-.194-.194-1.162-.581-1.162-.194-.194-.194-.194.194h-.194l-.387-.775-.581-.775-.387-.387-.388-.387h-.581l-.581.387-.581.387-.387.581-.581.194-.387-.194-.387-.581-.194-.775v-.775l.194-.969.194-.581.194-.387.581-.775.387-.581.581-.775.194-.194.387-.194.581.388,1.162,1.162h1.937l1.356-.388.969-.581h.194l.775-.388.969-.581,1.55-.388,1.744.388,1.55.194,1.356.387,1.162.194h.969l.775.387.775.775.581.775.775.387h2.131l.581.194.775.775.581-.194.581-.775.969-.969.581-.581.775.194.581.581h.581l6.78-5.231L366.889,407.8l2.518-2.325,1.162-.194,2.325.194.775-.388,2.131-1.162,1.356-.387h1.937l.775-.581,1.162-.387,3.487-.969,3.681-.775.775-.581.387-.387.775-.581.581-.194,3.875-.775,4.068-.775,5.424-1.162,2.518-.387,11.624-9.105,7.362-5.812.387-.194.581-.775v-.388l.194-1.55V377l.387-.969V373.9l-.194-2.131v-.581l.581-.387h1.743l1.356.387,1.356-.194,1.744.194,1.356.388h.388l1.937.387h2.131l1.744.194,2.518.194,1.356.388.387.194.581.387.581.775.581.581.775.581.581.194.775.194.969.775.775.775,1.162.775,1.356.388h.581l.775.194.194.194.388.194.387.194.194.388.388.775.581.581.388.581.387.581.581.581,1.937.969.775.581.969.775.775.387h.775l.969-.581h1.162l.775.388.388.194h.581l1.162-.387,1.162-.194,1.937-.581h.194l1.937-.969,1.162-.194.387-.194h.194l.581-.194h.194l.194-.194.581-.194,1.744-.581h1.162l1.55.194,2.325,1.162h.775l.194.194-1.356-1.744-2.518-3.293,1.162-3.487,1.162-2.518,4.843,2.518,3.1,3.681v-.194l3.681-1.55-.194-3.1-1.55-5.037-1.356-1.55-1.744-2.131-6.2-1.356-.775-.969.581-7.168.969-3.1.387-1.162.581-1.937,1.744-3.293.387-.969,7.168-.581h.969l1.55.194,1.356.387,1.356.387,1.937.194h.194l.194-.194h1.162l1.55-.387,1.55-.194.969-.194,1.55-1.55.969-.775,1.743-.387.194-.194.194-.194.775-.969.194-.387.775-1.744.194-1.356.775.581,1.162,1.356,1.744,1.744,1.744,1.937,1.356,2.325,1.356,2.712L524,349.686l.581,1.744.388,2.131.194,1.162.194,1.356.194,2.131v2.131l.388,2.906.194,1.744.387.775.581.387h5.037l.775.387.775.388.581.581.581.969.194.388v.387l.775,1.744.775,2.518.581,2.325.969,2.712,1.162,2.518.969,2.518,1.55,4.262.388,1.743.969,3.487,2.131,4.649,1.162,2.518.581.194V401.6l.387.581.387.387.388.581.194.581.194.581.388.775.194.387.194.775.387.775v.581l.194.775.194.581.387.969.388,1.356.387.775.387.387.581.775.387.775v1.356l-.387,1.356v.387l.194.194-.194.581-.194,1.937v.775l.387.969,1.55,1.356.387.387.194,1.162v.969l.194.581.194.775-.194.969v.581l.194.969-.194.969-.775.969-.194.969-.194.194-.194.387,2.131,1.55.388.387,1.162.388,3.487.194h1.937v-.194l.581-.581.581-.194.581-.387.775-.581.388-.387.387-.388.387-.775.194-.581v-.581l.194-.581v-1.55l.194-.775v-.775l.194-.581.194-.775.775-1.356h.388l1.356-1.356v-.387h.581l.387-.581.387-.775,1.55-3.293.387-.194.388-.388.775-.194.194-1.356v-.775l.194-.388.387.194h.194l.387.387.581.194.387.388.581.387.775.581.388.387.387.581.581.581.581.581.581.581.581.581.581.387.388.194h.581l.581.387.387.387.581.581.387.581.388.581v.775l.387.581.194.775.194.581.194.775.387,1.162.387,1.356.388,1.55.387.775.194,1.162.775,1.937.388,1.55.387,1.356.775,2.325v.387l.194.969.194,1.356.969,1.162,1.356.387.581-.194h2.131l1.162.194,1.162.194h1.162l1.744.194.775.194,1.162.194h.775l.775.194,1.162.194h.969l1.162.194h.775l.775.194h.775l.775.194h2.131l.969.387.581.388.387.969.194.194.775.775.775,1.162.581.387.387.194.388.194.969.194,1.356.581.387.388.775.775.581,1.162-.194.194-.194.387v1.162h.194l.194.387.194.387.194.194.775.388H623l.969.387h.775l.581.194.581.194.388.194.387.194.969.194.775.388.969,1.162,1.356,1.162.581.387.387.194.581.194,2.518,1.744.969,1.356h.194l.581-.387.388-.194.581-.194.388-.194.194-.387.581-.388.581-.387.775-.194h.581l.969-.194.581-.194h.581l.387-.194.388-.387.387-.388.387-.194.581-.387h.581l.581-.194.581-.388.387-.387.388-.194.194-.581.387-.581.581-.581.194-.581.581-.387h.581l.775-.194.775-.194h.581l.969-.194.969-.194,1.162-.194.775-.194.388-.194.581-.387.194-.194.194-.388.775-.581.387-.581.387-1.937.194-.387.194-.194.194-.194.387-.387,1.162,1.744,1.356,1.55.194.581v.194l.775.775,1.55,1.356.581.775.388,1.356.775,1.162v.194l.775,1.55,1.937,1.55.775,1.162.581.581.581.387.194.194.387.194.969,1.744.194.194.969.969.194.194,1.162.775.581.775,1.162,1.55.194.194.581.387.388.194.387.194,1.55.194.969.775.387.581.775,1.55.387.969,1.55,1.743.581.969.194.581v.581l.387.775.194.388.388.387,1.356,1.744.194,1.162v.194l.194.194v.387h.194l.581.775.194.194.388.387,1.162.969,2.325,1.162.388.775.194.388.194.387.194.194v.969l.194.388-.194.194v.581l-.194.775v2.906l-.194.581v1.55l-.194.581-1.55-.194-3.487-.387-.387,2.325v1.937l-.581,2.131-1.162,2.131-1.356,2.325-1.744,2.325-.969,1.356-1.744,2.906-.581,1.356-.388.969v1.744l.194,1.356-.194,1.162-.775.775-1.55.969-.969.969-1.162.969-.969,1.356-.581,1.744-.194.775-.969,1.744-.969,2.131-.969,2.325-1.162,2.518-.775,1.937-.775,2.518-.969,2.325-.775,2.518-.775,2.131-.775,2.712-.581,1.55-.388,1.162-.194.969-.387,1.744-.775.581-.194.581h-.194l-.388,1.744-.194,1.356v.194L660,565.109l-.194,1.55v.581l.194.194v.194l-1.743,5.424-1.162,1.937-.194.969V577.7l.194,1.937v2.325l.194,1.55-.388,1.744.194.775v1.744l.194,1.162.194,1.937v6.78l.194,3.293.194,3.1v3.293l.388,3.1v2.518l.194,4.068.194,3.487v3.875l.194,3.875-.194,2.906v4.456l.775,2.518.387,2.906.388,2.518v1.937l.194,2.325-.194,1.55v.969l-.388,1.55-.581.775-.194.194-.969.581-.194.388v1.356l-.775.969v.388l.388.387v.387l-1.55.581-.387.387-.388.388h-1.162l-.194.194-.194.194-1.744.581-1.162.581-2.131.775-1.937.969-.775.388-.969.194-.969.194v.194h-.194l-.194.388-.194.969v.194l-.194.194v.194l-.194.194-.388.388h-.969l-1.162-.581h-1.744l-.969-.387h-.194l-.387.581-.194.194-.581.194-.387.194h-.969l-.388.387-.581.775v.194l-.581,1.937-.194.388-.388.387-.194.775.388.581.581,1.162-.194.194v.194l-.194.194-.775.969.194.581v.194h-.194l-.775.581H630.55l-.581-.388-.581-.194-1.162-.775h-1.162l-.194.194-.387.194-.775.194h-.387l-.581.194-.194.194-.388.194-.194.194h-.387l-.388-.194-.581-.969-.194-.194-1.55-.194-.387-1.162.387-.775-.194-1.162-1.162-.775-.388-.194-1.356-.388-.581.388-.969.387-.387-.194h-.194v.194h-.388l-.387-.194-.194-.387-.194-.581v-.775l-.194-.194-.194-.194-.387-.388H613.5l-.775-.194-.388-.194-.194-.387-.194-.388-.388-.387-.194-.194-.581-.194h-2.131l-.387-.194-.581-.194h-.969l-.775.194H604.4l-1.55-.387-.581-1.162-.194-.388-.194-.775-.969-1.162v-1.356l-.194-.194-.194-.194-.387-.581-.388-.387-.194-.388-.194-.387h-.194l-.194-.388-.775-.194-.194-.194-.194-.194v-.581l-.194-.194-.194-.775-.194-.194-.388-.387-.581-.194-.194-.194-.581.194-.581.388-.194.194h-.581l-.194-.387-.194-.581-.194-.387-.388-.388-.969-.775-.775-.194-1.162-.194-.581-.194-.388-.388-.581-1.162-.581-.581-.581-1.162-1.55-1.937-.581-.194h-.387l-.387.194H582.7l-.775-.387-.775-.581-.194-.194-.388-.194-1.162-.775-.387-.194h-.969l-.581.194-.387.388h-.194l-.194-.388-1.937-.387-.194-.194-.194-.194h-1.55l-.581-.387h-.775l-.969.194h-1.55l-.581-.581h-.775l-2.131-.388-.388-.194-.581-.194-.581-.194h-1.162l-.775-.388-.387-.387-.388-.388-.387-.969-.775-.775-.387-.194-.194-.387h-.775l-.388-.194-.194-.194h-.581l-.194-.194-.581-.387h-.194l-.194-.387-.775-.388-1.162-.387-1.162-.581-.387-.581-1.356-1.162-.387-.194-.194-.194-1.356-.387h-.194l-.387.194V633.3H548.6l-.775-1.356-1.55-.581-.387-.194-1.356-.969-.969-.581-.581-.581-.581-.581h-.194l-.194-.194h-.969l-1.162-.969-.387-.581-2.906-1.744h-1.744l-.581-.387-.194-.194-.969-.581-.387-.581-.194-.194-1.162-.775-.388-.194h-.387l-.969-.194-1.162-.775-.194-.194-.969-.388H527.1l-1.356-.969-2.325-.581-1.162-.581-.581-.387-.194-.388-.194-.194h-.775l-.387-.387-.969-.388h-3.293l-.194-.194-.969-.387-.775-.388-.775-.194-.194-.194-.581-.194-.388-.581-.581-.581-.388-.388h-.194l-1.55-.581-.388-.194H508.7l-.387-.194-1.356-.969h-.387l-.581-.194-1.162-.969h-1.162l-.194-.194-.581-.194-.387-.194-.388-.194-.969-.581-.194-.388-.194-.194-1.356-.194-.969-.388-.194-.194-1.937-.775-1.356-.194h-.775l-.387-.194-.775-.581h-1.356l-.387-.194L490.1,605.6l-.581-.194h-.387l-.581-.388h-.581l-.581-.194H487l-.194-.194v-.194l-.969-.775-.387-.194h-2.131l-.581-.194-.194-.194-.775-.387h-.387l-.581.775h-.387l-1.162-.581-1.356-.581-.775-.194h-.194l-.581-.775v-.194h-.388l-.387-.387h-.194l-.969.194-.388.194-.581-.581-.194-.194-.387-.194-.581-.194h-.387l-.387-.581-.969-.775-.581-.194-.969-.194-.581.194-1.356,1.356h-1.356v-.194l-.194-.581-.194.194-.581.775h-.775l-.581-.581h-.194l-1.162-.194-.388-.194-.581-.194h-1.356l-.387.387-1.162-.581h-.581l-.775-.581-.581-.194-.581.581-.387-.194v-.775l-1.162-.581-.581-.581-.581-.581h-.194l-.387-.194h-.388l.194.581h-.194l-.581.194h-.194V596.1h-.194l.194-.194h.194l.194-.194v-.388h-.194l-.388.194v.194l-2.712-.775-.194-.387-.387-.388v-.581l-.775-.194-.581-1.55-.775-.194-.969-.581-.581-.194-.387-.194-.194-.194v-.194l-.387-.775-.387-.194-.581-.194h-.194l-.775-.775-.194-.194h-.969l.194-.581.194-.581-.387-.969-.388-.581-.387-.387h-.194l-.775-.388-.194-.194-.194-.194-.194-1.162-.194-.194-.194-.194h-.387l-.969.388h-2.131l-.194.194-.775.775-.387.194-.387.194H431.4l-.581.388-.194.194v.194l-.194.775-.194.387v.194l-.969.581-.581-.194-.775-.581-.387-.387-1.356-1.55-.969-.969-.388-.581-.581.194-.775.194-.775-.194-1.55-1.744-2.325-.581h-.775l-1.937.775h-.775l-.387-.194-.775-.194-1.937.581h-.194l-.194.194-.775.775h-.194l-.388.388H409.12l-.969.581h-.581l-.581.194h-1.162l-1.937.194H403.7l-.775.194-.969.581-.969.194H400.6l-1.162-.581-.581-.775v-.194l-.387-1.55-.387-.387-1.744-.387-1.55-.775-.387-.194H394.2l-1.55-.775-.388-.388-.387-.581-.969-.775h-.194l-.775-.969-.387-.387-.194-.194-.387-.387-.775-.387h-1.162l-.581.775h-.194l-.387.388h-.581l-.194-.194v-.194l-1.55-1.356-.387-.194-.969.194-1.162-1.162-.581-.194h-1.162l-.775.387-.387.194h-1.55l-1.162-.194-.581-.387-.581-.388h-.194l-2.518-2.712-.387-.194-2.131-1.162h-.387l-.194.194-.388.194h-.775l-.969-.775h-.969l-.194-.194-1.743-.581-.775-.581-.194-.387v-.775l-.194-.387-.387-.194h-1.744l-.194-.194-.194-.194-.194-.581-.194-.387-.387-.194-1.356-.194-.388-.194-.194.194-.581.387h-1.162l.194,1.55.194.387.969,1.356.775,1.356.388,1.55-1.356,3.681-.194.194-.387.581-.387.194-.775.581-.775.775v.387l.194.388.969.969.194.387.388.581v.387l-.194,1.356v.194l-.194.581-.581.388h-.194l-.194.194-.194-.194h-.581l-.194.194-.194.194v.194l-.387,1.937-.581,1.162v.194l-1.162.969-.581.194v.194h-.194l-1.162.969-.194.387-.388.775-.581.775v.969l.194.969.194.581v1.162l.194.969.194.581.194.194.194.194.387.581v.581l-.387,1.744v.194l.775,1.356.969.581.581,1.937.194.775v.387l.388.194v.194l.969.581.194.775.194.194v.388l-.387.581h-.581l-.775.194h-.194l-.387.194-.388.387v.775l.388,1.356-.194.388-.388.775-.387.194-.194.194-.775.387h-.194l-.581.581-.775,1.356-.194.581-.581,2.131-.194.581-1.744,1.55-.387,1.162-.194,1.162v.387l.194.581-.194.387-.775.775-.581.581v.194l-.194.387.194,2.131-.194,1.356v.581L341.7,630.2l-.775.775-.194.388-.387.969-.388.387H338.8l-.387.194-.194.194-1.356,1.937-1.55,1.356-.388,1.744-.581,1.162-.581.387-1.162.969-.581.194h-.194l-1.744-.388-.194-.194-1.744-1.356-1.55-.388H326.4l-.775-.581-.775-.969-.194-.194-.581-.194H321.75l-.581.388-.969-.581-1.356.194h-.387l-.775.194-.969.194h-.387l-1.55,1.55-.387,1.744-2.906,3.293-.581.388-.775.387-.387.194-.581.581-2.518,1.937h-.194l-.194.194h-.387l-2.131-1.162h-1.356l-.775.194-.581.581-.387.194-1.356.581-.581.581-.969.775-.387.194h-.969l-.387.388-.775,1.55-.387.581v.194h-.194l-.194.194h-.194l-.387.194-.581-.387-.194-.194-.387-.194h-1.162l-1.743-.581-.969-.387-1.356.387-.581-.194h-.387l-.775.387-.387.194h-.387l-.581.194-.387.194-.194.194-1.162.387-.387.388-.775.387-.581.581-2.712.969h-.387l-.194.194-.387.194-.194.194h-.775v.194l-.194.194v.581l.194.194v.969l-.194-.194-.194.194-.194.194v.387l-.194.194h-.194v.388l-.194.194v.194l-.387-.194h-.194l-.581-.194-.194-.194-.194-.581-.194-.388-.194-.194-.581-.775-.194-.387.194-.581.387-.194h.581l.387-.387v-.194l-.194-.388-1.356-.194-.387-.581v-.194l-.775-.581h-.581l-.581-.388-.194-.581-.194-.194h-.194l-.775-.969-3.1-1.937-3.1-1.937-3.1-1.937L255.3,642.6l-3.681-2.131-4.068-2.131-5.812-2.906-2.131-.969-.969-.388-1.162-.581-1.162-.388-.775-.194h-.775l-.387.581-.387.775-.387.581-.194.194-.387.194h-.194l-.581.194-.775.194-.194-.194-.581-.194v-.194H230.5v-.194h-.194v-.581h-.387l-.194-.194h-.194l-.194-.194h-.194v-.194h-.194l-.194.194v-.194l-.194-.194h-.387l-.194-.194h-.194v-.194H227.6v-.194H227.4v-.194h-.194v-.194h-.387v-.194h-.194l-.194-.194h-.194l-.194-.194h-.194v-.194h-.194l-.194-.194h-.194v.194h-.194l-.194.194h-.194v.194h.194l-.194.194H224.5v.194l-.194.194v.194h-.581v.194h-.194v.194h-.194v.194h-.194l-.194.194v.194h-.194l-.194.194v-.194h-.194v-.194l-.194-.194H221.4V633.3l.194-.581.194-.194.194-.194h.194v-.775l.387-.194.194-.581h.194l-.194-.194h.194V630.2l.194-.194v-.775l.194-.194v-.581l.194-.194v-.775l.387-.581v-.387l1.356-2.906.775-1.55.387-.775.581-.969.194-.194,1.162-2.712,1.162-3.293,1.356-1.356.775-2.131,2.906-6.2.194-.194.581-1.162.387-.969.775-.775,1.937-2.325,2.131-3.487.194-.194,1.162-2.906.387-.969.387-1.55,1.162-2.131,1.744-2.131,2.131-3.293.387-.969,1.162-2.518.581-1.744.969-3.875-.194-.581-1.937-1.356-.775-.775-.581-1.55.194-2.518.581-2.325-.194-1.744-.387-2.131-.581-1.744-.194-3.293-.387-2.518v-.194l.387-3.487.581-.775h.194l.775-.969V545.93l-.387-2.131-.194-.775-.581-1.162v-1.55l-.194-1.162v-4.843l.581-1.937.775-2.906.581-1.162.387-1.55v-.969l-.969-2.906v-3.1l1.937-3.487.581-2.325h.194l1.162-2.712-.194-2.131-1.55-5.231-.194-.387-.194-.581-.387-1.55v-.194l-1.356-6.393-.387-2.131-.194-.581-.194-1.55v-.194l-.194-1.356.194-5.037v-2.131l.194-.969v-.387l.194-1.55v-4.649l.775-1.937.194-.581,1.356-2.325,2.518-4.456,2.325-1.55,2.131-1.356.969-.775,2.131-1.356,3.875-3.487.194-.194.194-.194,2.325-2.325.969-.969,2.131-2.325.387-.581.387-.387v-.194l.194-.194,1.55-1.937.581-.581.387-.387.775-.775v-.194l.387-.387.775-.775L276.8,441.9Z" transform="translate(-221.149 -336.65)" fill="#1876d2" stroke="#fff" stroke-linecap="round" stroke-linejoin="round" stroke-width="0.5"/>
</svg>
