<svg xmlns="http://www.w3.org/2000/svg" width="403.45" height="241.108" viewBox="0 0 403.45 241.108">
  <path id="CDMO" d="M693.024,143.2l1.162.775.969.581.775.581.387.581v1.162l-.194.775-.387.581-.969.775-1.162,1.356-.969,1.356-.581,1.55-.969,1.162-.581.775-.969,2.131-.387.969.194.775.775.387.969.194,1.55.194H696.9l1.162.387.775.581,1.55.775h.387l1.356.581.969.775.969-.194,1.162-.194.969-.194.969.581.969,1.162v4.843l.775,1.162,2.131,1.55,1.356.387,1.55.387,1.356-.387.775-1.162,2.325-3.293,1.162-.775,1.55-.387h3.1l.969.387.969.775,1.356,1.356.775-.387.969-.969.194-.194.775-.194.194.387.581,1.55.969.581.775.775.387.194.775.194-2.518,4.068-1.162,2.712-.775,1.743-1.356,2.325-1.356,2.325-.775,1.162-.969,1.356-.775.969-.194,4.843-.387,2.325-.581-1.743-.969-.969-1.356-.581h-.969l-.969.581-.969.775v1.744l-.581,1.162v.581l.775,1.744,1.162,1.356L721.5,201.9l1.356,1.356.775.969,1.356,1.162,4.65,4.843,1.356,1.55,1.162.775.581.581,1.55.969.969.387h1.356l.775.581.387-.581.387-.194h1.356l3.293,1.744,1.162.581h.969l1.55.775,1.356.194h.194v.194h.194l1.744.387.581.194.387.194.969.581,1.55.969,2.325,1.937v.387h.194l-.387.387v.194l-.194.194-.388-.194-.387-.194v-.194h-.581l-.387.194v.387l.194-.194h.581l.387,1.162.387.387h1.55l.387-.194.194-.387.194-.194v-.775l-.194-.775.194-.581-.194-.775h.194l.194-.194.581.581h1.162v-.194h.194l.194-.387.194-.387v-.581l-.581-.969.194-.194v-.194l.775-.969.194-1.356v-.775l.581-.969V214.1h.194l.387.194.969,1.55.388.194h.581l.388.775.387.581.775-.387.387.194h.388v.194l.387.194.581.969.387.581.387.581.194-.581.194-.194h1.744l.581,1.162.388.387.387.194.581.387.581.387.194.194.194.194.387.387.387.194,2.518,1.55.194.194.775.194.775.194.581.581.194.581.194.194,1.744,1.937.581,1.744-1.162,3.293.581,3.681,1.162,11.817h-3.1l-.775.387-1.162.387h-3.681l-.969-.581-.387-.194-.387-.581-.581-.194-.194-.194h-.194v-.194l-.581-.581-.387-.194-.969-.775H768l-.388-.775h-1.162l-.387-.387-1.744-.969-1.162-.194-.581-.194-.387-.387-.194-.194-.194-.194v-.194l-.387-.194-1.162-.775-.969-.775-.194-.194H758.7l-.387.194h-.194l-.581.775-.194,1.162v1.55l.581,1.55v1.55l-.581.581-.194.581.387,1.356-.194,1.162,1.162,2.518-.387.387v.387l-.387,1.162.194,1.162.194.194h-.194l-.581.581-.194.775-3.875-1.55-1.356.581-1.162.775-.969.581h-2.131l-1.356-.581h-.581l-.969-.581-.194-.969-.194-.387-.387-.387-.194-.194h-1.162l-.387-.581-.387-.194-1.356-.775-.387-.387-.387-.775-.775-.581v-.387l-.388-.581-.194-.194-.387-.387-.388-.194-.194-.194H737l-.388-.194-1.356-1.356h-.194l-.775-.194-.581-.581-.775-.194v-.775h-.775v-.194l-.969-.387h-.969l-.388.194-.194.387v.194l-.581.387-.194.387-.194,1.162.194.387.194.581-.194.194-.194.194h-.194l-.387-.194-1.162-.969h-.581l-.581.581v.387l.194.581.194.775-.194.194h-1.55l-.387.194-.775.775-.387.194h-.194l-.387.387v.387h-.194l.194.194,1.162.581v.387l.194.194v.581h-.194v.194l-.388.194-.387.194h-.194l-.194.387-.194.581-.194.387-.194.194-.387.194h-.387l-.775-.581-.581-.387h-.581l-.388.194-.387.775.194.775v.969l-.387.387-.969-.194h-.388l-.194.194-.194.387-.775,1.55H715.3l-.194.194h-.969l-.388.194-.775.969-.194.194-.387.387-1.744-.775h-.581l-.969,1.162-.194.194-.387.387h-.194l-.194-.194-.194-.194-.581-.387-.775-.969-.581-.387h-.194l-.775-.775-.194-.194H702.9l-.775-.969-.194-.194h-1.162l-.581-.581-.775.387-.194.387v.387l-.387.581-3.293-3.293-.969-.581-.194-.194-.775-.194h-1.55l-2.712-.969-1.744-.387-.775-.194h-.194l-2.518-.581-.194-.194-.194-.194-1.356-.387-.194-.194-.775-.194-4.843-1.356h-.969l-2.518-.775-1.162.194-.194-.387h-1.356l-1.55-.387.969.581V254.4l-.194,2.712v.581l.194.387.194,1.55v.194l.194.387.194.581.387.581.387.581.194.194,2.906.581,2.906,3.487.387.194.194.194h.969l.581.581.775.581.387.775.194.581v.387l.194,1.744.194.387.387.775v1.744l-.775,1.937-.194.387-.581-.194h-.581l-.969.387-.969.775-.969.581-.388.581-.194.581v1.162l.194.969v.194l-.194.581-.387.775-.388.969-.387.194-.387.387-.387.194-1.356.194-.194.194h-.387l-.581.581v.194l-1.356.387H669.2v1.162l.388,1.55.969.969.387,1.937-.387,1.162-2.712-2.906-.969-.969-.775-.581-1.937.775-2.131,1.162h-.775l-1.937-.581-4.843-1.356-1.937-.387H644.98l-2.131.194-1.937.194-2.131.581-2.906.969-4.456,1.744-2.518.581-.194.194-1.937.194-.387.194-.387.581-1.356.194-.194,5.231v3.681l-.387,4.649v6.974l-.194,3.1v2.325l-.387,2.325-.194,4.068v.969l.194.775.387.194,1.55.581.775.581.581.775.581.775v.194l.194.581.194.194.387,1.162,1.937,4.262.194,2.325.194,5.812,5.231,1.356,2.131.387,2.518,2.712.775,1.162v.194l.581,1.356.581.969.194.775.775,1.162.387.581.387,1.356.387,1.744.581,1.55.581,1.744.194,1.937.194.775-1.55-.581-2.131-.387-2.712-.581-2.518-.387-2.131-.194h-1.744l-1.55.581-3.681,2.712-1.356,1.356-3.1,3.293-6.2.775-.775-.775-2.131-2.131-1.937-.969-1.356-.388-1.744.388-4.649,1.162v.387l.581,1.55v4.262l-.581,2.325-.969,3.487-1.356,2.906-.194-.194h-2.325l-.581-.388-.581-.387-.775-.581-.388-.194-.387-.194-.581-.194h-2.131l-.969.194-.581-.194-.775-.388-.969-.969-.775-.969-2.325-1.937-1.744-.775-.969-.194-3.293.387-.581-.194-.775-.775-.775-.581h-3.1l-1.356-.194-2.131-1.356-1.744-1.356-.775-.194-.969-.194-1.744-.194-1.744-.194-.969-.194-1.937-1.744-.581-.194-1.55-.388-1.356-.387-1.162-.775-1.356-.775-1.55-1.162-.969.581-.387.194-2.325-.969-4.068-1.744h-.387l-1.937-1.162-.775-.581-.581-.581-.387-.387-.194-.581v-.581l-.194-.581V358.43l.194-.775.194-.775.194-.387.387-1.162.775-1.162.581-1.356-.388-1.162-.387-.581.194-.387.194-.581.388-.969-.194-1.356-.388-2.712V342.35l-.194-.581-.387-.387-.387-.581-.194-.194-.387.581h-.388l-.387.581-.581-.387-.775.194-.581.194h-.775l-.387.194-.388.387-.387-.194-.194.194v.194h-.775v-.194l-.194-.194h-.775l-.194-.194h-.581l-.194.194-.194.387-.388.194h-.194l-.194-.194.194-.387-.775-.194h-.387l-.387.387v-.194l-.387.194v-.387l-.581-.194-.194-.194-.194.194v.194h-.581l-.194-.194h-.581l-.775-.387-.194-.194-.581.581-.194.194-.388-.194-.387.194-.387-.194v.194h-.387l-.387.581h-.194l-.194.194-.194-.194-.387-.194-.387.194-.387-.194.194-.194v-.194h-.194l-.194.194h-.194l-.194-.194h-.388l-.387.194-.194.194-.194.387H523.9v-.194l-.194-.194h-.387l-.194.194-.194.194h-.194l-.581-.387h-.387l-.581-.775-.969-.194-.775.194-.581.387h-.969l-.387.387h-.194l-.194-.194-.194-.194H515.57v-.194l-.194-.194.969-2.906.194-1.162.581-1.55.387-.581.194-.581v-.581l-.194-.581-.387-1.356-.581-.775-.194-.581-2.131-2.712-1.356-1.55-.775-1.162-.387-.581-.388-1.162-.387-1.55-.388-.969v-2.325l.388-1.937.581-1.55.581-.775v-.581l.387-.194.194-.387-.387-2.325.194-2.906v-1.744l.194-.387v-.194l.581-.581.775-.581.581-.581.581-1.162.388-1.55.387-1.744v-.969l.194-1.356v-2.325l-.194-.775-.194-.775v-.194l-.194-.194h-.581l-.775.387-.969.387-.969.194-.775.194-1.162-.194-1.162-.194H508.4l-.775.775-.775.775-.969.581-1.162.581-.387.194-.387.194h-.194l-.581-.387-.775-.387-.581-.194h-2.131l-1.162.194h-.775l-.969.194-.775-.194-1.356-.194-.581-.194-.387-.194H492.9l-.775.194-.775.387-.775.387-.388.194h-.581l-.194.194h-.775l-.388-.194-.775-.581-.969-.775-.969-.775-1.356-.969-.969-1.55-.581-.581-.775-.581h-2.712l-1.162-.581-1.356-.387-1.743-.581-1.162-.387h-.775l-1.356.194-1.162.194-1.162-.194h-1.356l-1.356-.387h-.969l-.969-.194h-2.712l-.969.194-1.162.387-1.356.581-1.356.581-1.356.581-2.131,1.162-.969.387-.581.194-1.55.194h-1.937l-.581.194-1.162.775-1.356.969-1.162.969-1.744.969-1.937.581-3.293.969-3.1.775-2.325.581-2.131.194h-1.937l-1.55.194-1.744.387-1.356.775-.969.775-2.518.969-1.162.387-.969.969-1.55,1.55-1.937,1.55-.775.775-.581.387-1.356.387-1.162.581-.969.194-.581.387-.775.581-1.162,1.162-1.55.969-1.356.969-3.1,2.325-.194.194h-.775l-.775.581-.969.387-1.162.581-.775.581-.775.581-.969.581-.969.581-.969.387-1.162.194-1.356.581-.969.387-.969.387-.969.387-1.356.775-1.162.581-.969.194-1.356.581-1.162.581-.775.387-.969.387L378.8,316l.581-9.3-.194-.194v-.194h-.194l.194-.194-.194-.387-.194-.581.194-1.55.387-2.518.581-.581.194-.387v-.194l.581-.775,1.162-.969.775-.581.969-.969.581-.194.387-.194.969-.969.969-.581.969-.775.581-.194h.194l.194-.387.387-.194,1.162-.387,1.356-.194.775-.194.194-.194v-.194l1.55-.581,1.162-.194.194-.194.581-.581,1.55-.775h.194l.194-.194.581-.194.388-.194.194-.194h.387l3.487-1.744.581-.581h.194l.194.194,2.518-.775.581-.387h.194l.581-.194,1.937-.387.969-.194,1.356-.387,1.162-.194h1.744v.194l.581-.194,2.518-.581,1.162-.194,1.55-.194,1.55-.387h2.712l.387.194h1.744l1.55-.387.387-.194,1.744-.194,2.518-.581h.194l1.937-.969.194-.775-.194-1.162-.194-.387-.194-1.744-.387-.969v-.387l.969-1.55.194-.969.387-.969.388-.387v-.194l.387-.194h.775l.775-.775.194-.194h.581l1.162.969h.387l.581-.387v-.194l.194-1.356.194-.194.388-.387.969-.581.194-.387-.194-.387-.194-.194v-1.356l.194-.387.194-.387.581-.581.194-.194.194-.194v.581h.581l.388-.194.194-.194.194-.387-.775-.387-.194-.387v-.194l-.194-.387.387-.969.388-.194.194-.194h.775l.194-.387-.194-.387v-.194l-.194-.387-.194-1.356.194-.194.387-.387V257.5l.387-.969.194-.387.194-.387.387-.581.388-.194.194-.194.194-.387v-.387l-.581-.387-.194-.387-.194-.387.194-.194.387-.387.388-.194,1.162-.387.387-1.162.194-.194.387-.387.387-.194.388-.387h.387v-.194h.581l.194.194.775.581.387-.194.194-.194.388-1.937,1.162-.581.194-.194v-.387l-.387-.969.194-.194.194-.969.194-.387.194-.387.387-.194.387-.387h.388v-.194l.194.194.387.194.388.194.387-.194.388-.581.581-.775.194-.194.194-.194.969-.194.387-.387v-.194l-.387-.775.194-.387v-.194l.194-.194h.194l.581-.194.194-.194-.194-.387-.388-.581.194-.387.194-.194v-.194l-.194-.387-.388-.387-.581-.387-.194-.194v-.194h.194v-.387l.387-.387h2.906l.775-.581h1.744l.194-.194.775-.775.194-.194.194-.194.775-.194.194-.194.194-.194.388-.387.194-.194.194-.775,1.162-.581,1.162-.387.969-.969h.581l.969.969.581.194.387-.194.194-.387-.387-1.162.775-.581h.581l.388-.194h.387l.387.387.388.775.194.194.194.194h.388l.194-.194.194-.194.775-.969.194-.194h.969l1.162.387.194.194.581-.194.969-.775.581-.581.387-.194h.581l.387.194.775.581.387.194h.388l.775-.775h.581l.969.194.387.387.581.194h.581l.387-.387.194-.194h.194l.388-.581.387.194.581.194,1.162.387H496l.581-.387.194-.194.581-.194.194.194.194.775.969.387v.387l-.194.581-.194.387.194.581.387.387.387-.194.388-.194.581-.969.775-.581h.775l.387.194.581.775h.194l.581-.581.387-.581v-.387h.581l.775.969h.581l.775-.387.969-.194.969-.581.581-.387h.194l1.162.194.194-.194v-.387l-.194-.194.194-.194h.969l.775-.387h.581l.194.194h.194v.194l.194.194v.387l-.387.387v.581l.194.387.194.194h.388l.387-.194.969-.387.775-.194h.194l.194-.194.387-.775.194-.581.194-.194h1.162l.388-.194.581-.194.388.194v.969l-.194.387.388.775.387.581h.387l.387-.194h.387v-.194h.581l.387.194h.581l.194-.387h.194V226.7l-.194-.775.194-.194.581-.194.581.387.387.194h.581l.194-.387.194-.775v-.194l.194-.387.388-1.162.581-.775.388-.194,1.743-1.55.388-.194h1.356l.388-.194h.194l.581-.775.581-.775.387-1.162.388-.387.194-.387.194-.387,1.162-1.937.581-.775.194-.194.387-.581-.194-.194-.387-1.162v-.194l-.194-1.162v-.194l-.194-.194-.388-.194-.194-.194-.387-.581-.194-.387-.194-.581-.969-.969-.775-1.743-.969-.775-.387-.387-.194-.387-.388-.387-.194-.387-.775-.581-.775-.387v-.581l-.194-.387-.194-.194-.194-.194-.387-1.162.194-.387-.387-.387-.581-.387-.775-.581-.194-.194-.194-.775V195.7l-.387-.969v-.581l.194-1.55-.194-.969v-1.55l-.194-.194-.194-.194h-.581l-.194.194h-1.744l-.387-.775v-.387h.194l.387-.387v-.387l-.387-.387-.775-.194-.194-.387.387-1.162h.194l-.194-.387-.387-.194h-1.55l-.194-.581.194-.194v-.194l.581-.387.194-.581v-.194l-.194-.387v-.194h-.581l-.775-.581v-.581l.581-.775.388-.387.194-.194v-.387l-.194-.194h-.969l-.194-.194-.194-.194H517.7l.388-.387.194-.775.194-.387V177.1l-.194-.387-.194-.194v-.387l.194-.581v-.194l-.387-.387v-.581h1.162l.194-.194.194-.194-.194-.194-.387-.387v-1.162l-.194-.387h-.581l-.194-.194.194-.581.194-.581-.387-.581-.969-1.55-.387-.387v-.387l.194-.387h.194v.194l.775.775h.194l.387-.581h-.194v-.387l-.581-.775v-.194l.581-.581.194-.775.387-.775.194-.581v-.387l-.775-.775v-.194h.194l.194-.194.194-.581v-.194l.194-.387v-.387l-.387-.581v-.581l.387-.581.387-.775.194-1.356.194-.387.581-.581.775-.775.775-.387h.387l.194-.387.194-.969.194-.775h.194l.581.581.194-.194h.194l.194-.581.194-.387.387-.387.387-.194h.194l.194-.194.581.387.581.969v.387l.775.775.194.969.387.387v.194l1.162.775.194.581.775.775.194.194h.194l1.162.581,1.55.581.388.387.387.775.194.194.194.194h.194l.775,2.131.775.775.969.581.581.969.581.387h.775l.581-.194.387-.387.387-.387.387-.194.775-.194h.581l.194.194.581.581,1.356,1.162.969.775.775.775.969.969.387.194.194.387.194.387.194.775v2.906l.194.581.581.775,2.325,1.744,1.744,1.356.969.969.969.969,1.356,1.162.581.387.581.387h.194l.194-.581v-1.55l.194-3.293.194-1.937.194-3.293v-3.1l.194-.387.387-.969.387-.775V161.6l.194-.775v-.581l.194-.581v-.775h1.162l.387,1.162.194.194.194.194h.194l.387-.194.581.194h.194l.194.194.194.387.194.194v.581l.194.194.775.775,1.356.387h.387l.194.194.194.194v-.387l.194-.194h.194l.388.775.969.387.387.194.194.194.387.387v.775h.581l.387.387.387.581.581.969h.194l.581-.387.194.194h.387V168h.387l.581.581.775.194v-.387l.387.194.194.969.194.194.969.194v.194l.387-.194h.387l.194.581.194.194.387.387.388.387.387.194h.387l.387.194,1.162.194h.387l.388-.194.194.194h.194v.581l.194.194.194.194h.387l.387-.194.194.194,1.162.775v.775l.194.194.194.581v.387h.387l.581.581.194.387h.581l.387.775.387.581.194.387.387.194.388.194.387-.194.194-.194v-.194h.387l.194.387.387.194.581.775h1.162l.581.581.581.387h.387l.387.194.969-.387,1.162.581.775-.387.387.194.194-.387h.387l.194.194v.194l.194.387v.194l.387.194h.581l.194.387.775-.387h.581l.194-.194.194.194.194.387h.194l.194-.194v-.194h.387l.581.387.194-.581.387-.387h.581l.581.194.581-.387.969.387.969.194.194-.194.775.194h.194l.387-.581.775.194.581-.194h1.744l1.55-.581.387-.194.388.194,1.743.387h.581l.581.194.387-.194V180.4l.194.194.388.194h.387l.194.387.387.194.775.387.775.194.194.194.581.387h1.356l.387.194.969.194h.194l1.356.581,1.55-.581h.387l.581.387.969-.387h.581l1.55.194h.581l.581.387.194-.194H632l.969-.969h.388l.969.581.194-.194.775-.194.581.194.581.194.775-.387,1.744-.775h.775v-.194l.388-.387h.387l.387-.194h.969l.581-.581.775-.387.969.194,1.162-.775.387-.194.387-.194h.775l1.55-.387h.969l.581-.387.387-.194.581-.581h.387l1.937-.194.581-.387,1.162-.387.581-.581h.969l.194-.194.581-.194.775-.387h.387l.775-.194.775-.194.581-.194h.388l.581-.194h.581l1.937-1.356h1.356l1.356-.969.775-.581,1.162-.581h.969l.775.775,2.712,1.162.775.194.581.194,1.55.387,1.744.194.775.194.581.194.194.194.387.194v.194l.194.581.387.387.581.194,2.131-3.487v-1.743l.194-.581.581-.969-.194-.387-.194-.775.194-.775.194-.581.387-.581.581-.581.387-.581h.775V164.7h.194l.581-.775.194-.581.387-.387.194-.581v-1.937l-.194-1.55v-.775l.388-.581.581-1.55.388-.969.775-1.356.387-.581.387-.969.581-1.162.969-1.937.194-.581.387-.581.581-.581.387-.775.194-.581v-.387l.194-.775-.194-.387-.388-.387-.194-.775Z" transform="translate(-378.549 -142.95)" fill="#1876d2" stroke="#fff" stroke-linecap="round" stroke-linejoin="round" stroke-width="0.5"/>
</svg>
