<svg xmlns="http://www.w3.org/2000/svg" width="255.634" height="278.885" viewBox="0 0 255.634 278.885">
  <path id="CDNK" d="M946.373,501.176l-.194.194h-.194v-.194h-.194v-.194h-.581V500.4h-.194v-.194h-.194v-.194h-.387v-.194l.194-.194h-.194v-.194h-.194v.194h-.581l-.194-.194h-.194v-.194h-.194l-.194-.194h-.194v-.194h-.387l-.194-.194h-.194v-.194h-1.162l-.194-.194h-.387v-.194h-.194l-.194-.194h-.194l-.194-.194h.194V497.5H939.4V497.3h0v-.194h-.194v-.387l-.194-.194v-.387h0v-.194h-.194v-.194h-.194v-.581h-.194v.194h-.387v.194h-.581v0h-.194v.194l-.194.194h-.387l-.194-.194h0v-.194H936.3v-.775h-.194v-.194h-.194v.194h-.775l-.194-.194h-.194v.194h-.194l-.194-.194h-.387V494.4h-.194l-.194-.194h-.581v-.194l-.194-.194-.194.194v-.194h-.194v-.194l-.194-.194v-.194h-.194v-.969h-.194v-.387h-.387v-.194h-.194v0h-.387V491.3h-.387V491.1H930.3v-.387h-.775l-.194-.194h-.194v.194h-.194l-.194-.194h-.387v.388h-.194v.387l-.194-.194-.194.194h-.194l.194.194h-.194v.388h-.194v.969h-.387v.581h.194v.194h-.194l-.194-.194v.388h.194v.194h-.194v-.194h-.387v-.194h-.194v.194h-.387v.194h.194v.581h.194V494.4h.387v.194h.387v.194h-.194v.581h-.194v1.744h-.194v.194h-.194v.388h-.194l-.194.194v.194h-.194v.387h-.194v.194h.194v.387l-.194-.194-.387.775-.969.581h-.194l-.387.388-.969,1.55-.387,1.937-.194.194-.775.775-3.1.388-1.356-.194-.387-.194-1.356-.775-1.744-.387-1.356-1.162-.581-.775-.387.581-.194.194-.388.775-.581.387v.194h-.194l-.775.775-.194.581-.194.194v.581l-.194.194-.387.581-.581.388H905.89l-1.356.387h-2.325l-.194.194-.581.581-.581.194-2.712-.194h-.387l-1.55-1.55-.775-1.356-.581-.581h-.775l-.775-.194-.194.387v.388l.194.387.388.969.387.775-.194.387v.194l-.387,1.55,2.325,1.162.194.775v.194l.387,1.162-1.937,3.1-.194.387-1.55.969-1.356.388v.194l-.194.194-.387.387h-.194l-.194-.194-.581-.387-1.162-.388h-1.162l-.581.194-.581.194-.581.387h-.194l-.387.194-.775.775-.194.388-.194.194h-.775l-1.55-.775h-1.55l-.194-.194h-.194l-.581-1.356-.194-.387h-.581l-.581.194-1.744-.194h-.581l-.194-.194-.775-.388-.387-.194-.775-.194h-.194l.194.387-.194.969.194,1.162-.969.387-.581.194h-.969l-4.843,2.131-.775.581-.387.581-.387.581-.387.388v.194l.387.194.387.194.194.194.387.194,1.162.581.388,1.55-.775,1.356h-2.325l-.969-.387-.969-1.162h-.194l-.775.194-1.162,1.162H859.2l-.969.194H856.3l-2.325-.194-4.456.194h-1.937l-1.162.581-.387.194v.775l-.387.969v.387l.387.194.581.775.581.969-.775.194h-1.162l-4.262,1.55v-1.55l-.581-2.131.581-1.55-1.162-.775h-.969l-3.1.387-2.906.775-1.356,1.937-.581-.775-.194-1.55-.387-.194-.969.388-1.162.581-1.162-1.55h-3.681l-2.131.194-2.325.969-2.131,1.937h-2.131l-2.712-.387-2.325-1.356-1.937-1.356.387-1.162.387-.775-.194-1.55-.194-2.131V522.1l.775-1.937-.194-1.55v-1.356l.387-.581.194-.387-.387-.388v-.387l.387-.969v-.194l-.581-.388-.775-.581v-.388l.194-.969.194-1.162.194-.969v-.387l-.387-.194-.387.194-.194-.581v-.194l-.969-.775-.581-.387h-.775l-.194.194-1.162.387v-.194l-.194-.194-.581.194-.387-.194-.387-.581v-1.162l-.581-.581v-.194l.387-1.356V503.5l-.387-.388-.387-.581-.194-.581-.775.194-.387-.194v-.194l.387-.388-.194-.581-.387-.388-.775-.387-1.937-.194-.581-.388v-.387l-.194-.387-.775-.194-.775-.969H794.5l-.581-.194h-.194l-.969-1.162h-.387l-.194.194h-.388l-.581-.969-.581.194h-.581l-.194-.194-.194-.194-.194-.581-1.162-.581-.194-.194-.194-.969-.387-.581-.387-.194-.775-.969-.194-.581.194-.775-.387-1.55-.387-1.937-.581-.581-.969-1.162-.969-.969-1.356-1.162-.194-.969-.194-1.744-.387-.581-.388-.387-1.356-.969-.775.581-.969.581h-.775l-.969-.775-1.162-2.325-1.162-1.937-.969-2.131-.387-.969-.581-.775v-1.162l.194-.775.775-1.356.775-1.743-.194-.194h-.581l-.969-.581-.387-.194-.775.387-.581-.194-.581-.388-.387-.775-.194-.194-.581-.387-1.162-.581-.775-.775-.387-1.162-1.744-1.162-.387-.775-.581-.775-1.356-.969-.388-.581H760.4l.194-1.162.387-.388,1.356-1.162h.194l.194-.194h.194l.969-.194.387.194v.194l.581,1.162h.194v.194l.969-.581.775-.388h.581l1.937,1.162h.387l.581-.388.194-.194v-.194l.194-.194-.387-.969-.387-.388-.388-.387-.194-.387-.194-.388-.775-.775-.387-.194v-.194h-.194l-.581-.387-.194-.194H766.8l-.581-.581v-.581l-.387-1.937v-.969l-.387-.387-.581-.194-.581-.775-.194-.969.194-.388.194-.194.581-.581.194-.194v-.194l-.194-1.162-.775-1.744v-.581l.194-.388.581-1.162-.194-.775v-.581l.194-.194.581.194.194-.194,1.162-.775v-.194l1.162-1.162.969-.194.581-.387h.775l.194-.194.387-.387h1.356l.969.387h.581l1.162-.194.581-.194,1.55-1.162,1.356-.775,1.744-.775h.387l.194-.194.775.387.581-.194.387-.194h.387l.969-.581h.194l1.356-.387h.969l.194-.194h.581l.194.194h.581l.194.194.775.194.581.388h.387l.775-.388h.387l1.356-.194.581.388.194.194.194.194.387.194,1.55.194h.194l.194.194h.194l.387.387.387.194h.194l.194-.194.194.194h.194l.581.775.194.194h.194l.194-.194.388-.581.387.194.194.194h.194l.775-.194h.581l.969.194.969-.581.194-.194.387-.581.775-2.131h.194l.194.194.194.194h.581l.194-.194h.194l1.744-.194.969-.194.775-.388h.581l.194-.387h.194l.194-1.162v-.388l-.388-1.743-.194-.581.194-.581.775-1.162.194-.581v-.775l.194-.388.194-.775v-.194l-.194-.969.194-.581v-.194l.387-.775.194-.388.387-.194.387-.387.194-.388v-.194l.194-.194.387.387v-.387l-.194-.387v-.194l.194-.387.194-.387-.194-.388v-2.131l-.194-.387v-.388l.194-.387.194-.387.194-.194.581-.387.969-.581.388-.775-.194-.388-.194-.581-.387-.194.194-2.518.194-.775.388-.581.387-.194.581-1.162h4.068l1.55-.194.775-.969,2.325-.775v-.581l.194-.775.194-.581.581-.388.387-.194.969.194.775-.581v-.581l.387-.775.388-.581v-.969l-.194-2.325.194-1.55-.388-.775-.194-.387-.194-1.162-1.162-1.162-.775-1.55-.581-.775.388-.581.194-.581v-.388l.194-.194,1.162-.969.581-.194,1.356-1.356.194-.194.387-1.744.387-1.162,1.356-.969,1.744-.581.581-.194h3.487l.387-.387.387-.387.387-.388.194-.194h.775l.387-.775.581-.194.581-.581h.581l1.356.194h.387l.194-.194.581-.581.387-.194.194-.194v-.194l.194-.581-.194-.388-.581-.581v-.194l-.194-.387v-.969l-.194-.387-.387-2.518-.581-1.162-.387-1.55-.775-1.55V356.85l-.581-2.131v-.194l.387-.969-.581-1.744-.194-2.131-.581-.581v-.194l.194-.775-.388-1.356-.194-.581-.581-1.356.775-.775v-.387l.194-.387V343.1l-.387-.387-.194-.387.581-.388v-.581l-.387-.388v-.387l.387-.581.387-1.356v-.581l-.581-.969V336.7l.581-.969v-.388l-.387-.387.194-.387,2.131-.775.194-.388-.194-.387.194-.387h.581l.387-.388-.194-.194.194-.387,1.162-.581.194-.581-.194-.581-1.162-2.131-.194-.194-.581-.387-.969.194-.194-.194.775-.581v-1.55l.581-.581v-.387l-.581-.775-.775-.387-.581-.194-.387.388-.194-.194h-.387l-.194-.194-.387-.969h-.775l-.387-.194-.388-.581-.194-.388v-.581l-.194-.194-.387.194h-.194l-.194-.388v-.387l.194-.388v-.194l-.581-.581-.388-.969-.194-.581-.194-.387.194-.969v-.775l.581-.388v-.194l-.581-.775.194-.969v-2.325l-.194-.387-.581-.194-.775.388-.194-.194.581-.969-.194-.388v-.194l-.775-.581.194-.194h.387l.387-.387.581.194v-.387l-.388-1.55h-.387l-.581-.194-.387-.581h-.581l-.194-.194.581-.775-.194-.387v-.581l-.194-.581h-.194l-.775.387h-.387l-.387-.969-.387-.387-1.356.194-.581.194h-.194l-1.356-.194-.387-.194h-.194l-.581-.581-1.162.194-.581-.194-.194-.194-.194-.388h-.581l-.194-.387h-.387l-.194.581-.194.387h-.775l-.194-.581-.194-.387h-.194l-.581.775-.581.194h-.387l-.969-.387-.581-.194h-.969l-.387-.194h-.387l-.194-.194-.194-.194-.387-.581-.387-.194-.387-.194-.387-.581-.388-.194-.387-.581h-.194l-.388-.194h-.194l-1.162-.775.387-.194,1.162-.581.581-.388.969-.194,1.162-.775,1.162-.387.775-.194,1.162-.194h1.55l.775-.969.194-.194,1.162-1.356.581-.969,1.744-1.356,1.356-.775h1.356l.581.775h.581l.581.194.388-.194.775-.775.194-.388.581-.581v-.194l.775-.194.194.194.194.194h.387l1.55-.581v-.969l.194-.194.387-.194.581-.388.581-.581h.581v-1.162l.388-.194,1.356.194.775.194h.775l1.162-.194.775-.387,1.356-.194,1.744-.194h2.131l4.262-.194h1.937l.969-.387h.969l4.068-.581h2.131l.581.194.581.775h.775l1.55.775v.388l.194.387v.775l.581-.194h.581l.194.581h.581l.387.388h.581l.775.775.581.969h.969l.775.581.387-.194v.775l.581.581.581.775,1.55,1.356v.581h.581l.387.775.969.387.775.581-.581.775.194.387-.387.194.194.388-.194.387v.194l.387.194.387.388.194.194.387-.194.387-.388.387-.194.194-.194h.387l.194.194h.194l.194-.194h1.937l.194.387-.194.775.387.194-.387.775v.194l1.356-.387.388-.387h.387l.194-.194,1.162-.969,1.162.194.387-.194.194-.581h.581l.969.194H890l.388-.387.194-.581.775-.387v-.581l.581-.581h.388l.387-.969,1.162.969h3.293l.969-.194h3.1l.775-.194h3.875l.775-.387h2.518l1.937-.388,1.356-.194h1.162l1.162-.194,1.356.194,1.55.387.387.194.388.194.775.194,1.162.775.969.387,1.744.194,1.356-.194.581-.969.387-.969,1.162-.194h.581l.387-.194.581-.194,1.55-1.55.387-.387.387-.581.194-.969.194-.194.969-.194,1.162-.581.387-.387.194-.969.581.387.581-.194.581-.388.387-.581h.581l2.131-1.356h.581l.194.581v.387l-.194.388.194.387.775.194.194.581.581-.581.194.581.194.387h.775l.194.388.581.194.194.387.775.775h.387l.387.388v.387l2.906-.194.194.387.387.775.387.387h.387l.194.194.581.387.581.775.194.194h.388l.194-.387v-.388l-.194-.581-.194-.194-.581-.969V287.5l.387-.775.194-.775.194-.194.581-.969v-1.162l.775-1.55.387-.194,1.55-.775.387.194-.387.969.387.388.581.775v.194l.387.387v.194l-.775.775v.388l-.388.775v.388l.194.194.387.194h.581l.775.194.969.581.775-.194v.194l-.194.194v.194l.969.969.581.388.969-.581h1.356l1.55-.387.969-.194,2.131-.581,1.55-.969-.387-2.131-3.487-.194-1.937-1.356-1.55-.581-.388-.969-1.162-1.356-1.356.388-1.162-.969-.194-.388-.194-.194.194-.194v-.194l.581-.194.581-.581.775-2.325.194-.581-.581-.969v-.969L958,271.8v-1.356l.194-.969L958,268.7l.775-.581.387.194.387.387.194.194.775.194.194.581h.581l.387-.387h.581l.194-.194.194-.581.581-.387.387-.194.581-.194.581-.194.194-.387.194-.775.387-.581.387-.581h.194l1.744.581.387.775.581.194.387,1.937.387,1.937,1.356.969h.969l1.55.194-.387-1.356v-.387l-.387-.581v-2.325l-.581-.775-.194-.775.194-.581h.581l.775-.194.969-.581,1.162-.387h.581l.581.194,1.162.969h1.356l.775.194.387.387.581.194h.387l.387-.387v-.581l-.194-.969.194-.775.581-.387.194-.775.387-.581h.775l.969-.581.387.194.581.775,1.744,1.937.775.775.775.387h.775l1.162-.194.775-.775h.581l.387-1.162-.194-.969.581-.387.194-.387.387-.194.581-.194,1.744.194h.581l.581.194.387-.387h.969l.387-.775.387-.581.387-.581.388-.194.387-.387.775-.387h.581l.775.194.194-.581.581-.775.194.387v1.744l-.194.581.194.969-.194.969v.581l.387.581.387.194.581-.194.194.194-.194,2.131.387.775.194.194.581.775.581.194.388.969v.969l.969.969-.194.194v.581h.387l.775.581h.387l.581-.387.581-.387.194-.194.581-.775h.387l.387.387.194-.194.194-.194-.194-.581.194-.194.581-.581.581-.194.581-.194h.969l.194.387-.194.387-1.162.969v.194h-.194v.194h-.194l-.194.581-.775,1.744.194.775-.194.388-.775.581v.194l-.194,1.356-.775.581v1.162l.194,1.356-.387,1.162-.581.581-.969.775-.194.387-.775,2.325v.775l1.744,1.162,1.162.581.581.388.775,1.356.581,1.937.581,1.162.194.388.387.969.387.969v.387l.775.969.194.969.194,3.1v1.55l-1.162,2.325-.775,2.131-.775,2.131-.387.194-.581.194H1010.5l-.969.194-.969.388-1.744.387-.969.387-.387.388-.388,1.162-.581,1.55v1.743l-1.162,3.293-.581,3.293-.581,4.068-.194,1.55-.581,2.131-.775.969-.581.581-.969.581-.969.194-1.356.581-.387.581-1.55,1.162-.387.388-.581.581-.581.775-.388.581v.775l.194.969-.194.775-.581.388-.581.387-.387.581.194.969v.969l.387,2.325.194.775.581.775,1.162,1.356.194.387v.775l-.581.581-.581.387-.194.581v.581l.387.387.387.387.387.969v.969l-.387.775-.387,1.162-.775.969.194.969.194,4.068-.969,4.262-1.937,8.33-.969,4.068-.581,3.1-1.162,4.262-.387,1.937.387.194v1.356l-.969,2.518v.194l.194.194v.194l-.581.775-.194.388.194.387-.194.387.387.388-.194.969v.581l-.194.581-.194.387v.194l.194.387h.581l.194.387.194.194.194.194v.387l-1.356,2.131-.387.388h-.387l-.775.387h.194v.387h.194v.388l.194.194v.387l.194.194v.194l.194.194v.775l-.581.969-.194.194-.194.387v.388l-.194.969-.387.581v.194l-.194.387v.194H982.6v.775l-.194.194v.194l-.194.969-.387.388-.194.194v.194l.194.388v.775l-.194.194h.194v.388l.194.387v.581h-.194l.194.194v.775h.194v.387h-.194v.581l-.194.194h.194v.387h0v.388h.194v.194h-.194v.194h.194v.194h-.194v.194l-.194.194v.194h.194v.387h-.194v.194h.194v.194h0v.194h-.194v.194l.387.388h.194v.194h-.194v.387h.194v.194h-.194l.581,1.162h0v.194h.194l-.194.194h.194v.194l-.194.194h.194v.581H982.8v.194h.194v.194H982.8v0H982.6v.388h-.194v.387l-.194.194-.194.194v.581h-.194v.775h.194v.387h0v.388h-.194v.387h0l.194.194v.194h.194v.194h0l-.194.194v.194h0v.194h.194v.194h.194l.194.194h-.194v.194h-.194v.194h-.194v.194l-.194.194h-1.162l-.581.194h-1.549l-.387.581.387,1.55v.387h.194v.194h.194l-.194.194v.194l.194.969v1.744l.194.194.194.194v.387h-.387v.194h.194v.194h.194v.775l-.194.194-.387-.194-.194,1.55v3.293l.194,2.131v1.162l-.194,1.744-.194.775-.194,2.131.194.775.388,1.356.194,1.162-.194,2.325-.581,1.162v.775l.194.194.388.387.581.388v.387l.194.194h.194l.581,1.55-.387.387v.194l-.194.775-.388.775v1.162l.194,2.906v.194l.387.969.194,1.55v2.712l-.581,1.744-.194.194v.194l-.387.387h-.581l-1.356.194-.969.969-1.162,1.356-.581-.194h-1.356l-.775.775-.969,1.743-2.325,2.712-1.937,3.487-.581.387-.194.388-1.356.581H961.1l-2.325-.194-2.712,1.744L954.9,488l-.969,2.131-.969.969-2.131,3.681-.775.581-1.937.581-.581,1.55-.387.194-.388,1.744-.387.969v.775Z" transform="translate(-760.154 -256.249)" fill="#6f9c76" stroke="#fff" stroke-linecap="round" stroke-linejoin="round" stroke-width="0.5"/>
</svg>
