<svg xmlns="http://www.w3.org/2000/svg" width="417.207" height="215.923" viewBox="0 0 417.207 215.923">
  <path id="CDNU" d="M685.856,151.138l1.744.775h.581l.387-.194h.387l.969.194.969.194,1.744-1.162.775-.194,1.937-.581h.969l.581.387.969.387.969.387,1.356.194,1.356-.581.581-.194h.775l.581.387.387.581.775.387.969-.387.581-.387h.775l.194,1.356.387,1.356.581.387.775.387.775-.775.581-.775h.387l.775,1.744,1.162.775h1.162l1.356,2.712-.194,1.356,1.55.194.969-.387v-.194l.581.581.581.775,1.162.194.581.581,1.744,2.325h-.775l-.581.387-1.162,1.55-.581,1.55-.581,1.162.387,1.55-.194.775v.194h-1.162l-.194.194-.194.194v1.937h.194l.194.194.387.194V174l.387.194v.387l1.162.775.194.194.388.387,1.162-.194v.194l.194.387h.194l.581-.775h1.162l.387.969.581.194h.194l.581.387.194-.194h.387l.581-.387.775.387.388.581v.194l.194.194h.387l.388-.194.775-.581h.775l.581-.581.775-.194h1.162l.387-.194.581-.387h1.162l.194.194v.387l.775.194v.387h.387v.581l.387.194h.194l1.162-1.162h.775l.775-.969h.581l.387.194.581-.194h.969l.775.581h.388l.581-.581.194.194v.194l.581.194.775-.194.194-.194h.194l.194-.194.581-.581v-.194h.387l.387-.387h.387l.388.387.387.194.969.194h.194l.194-.194h.387l.194.194.969-.969V174h.387v.194l-.194.387-.387,1.55.194.194.387.387h.194v.194l.194-.194h.775l.194.387h.387l.388-.194.969-.581h.969l.581-.775.194-.387h.775l.969.194.775.387v.194l.775.194.581.387h.581l-.194.387.194.194.775.387.387.194.194.194h1.55l.387.194.581.194.194-.194h.194l.969.194.775-.387h.387l-.194.194-.194.581.388.194,1.162-.194.775.969,1.162.387.388.387.194.581.387.387.388-.194h.194l.194-.194.581-.194.387-.387h.387l.969-1.55v-.775l.969.194h.387l.581.194.194.194.775.387h.969l.775-.581h.194l.194.387v.387l.194.194h.194l.194.194h.388l1.356.387.775-.194,1.55-.194h.581l.581.194.775-.387.387.581v.581l-.194.775.194.387v.387l-.194.581v.581l-.388.775-.194.194-1.162,1.162-.581.387v.194l-.387.194-.387.194-.775.969-.388.194h-1.356l-.581.387-.194.194-.194.387-.969.969-.387.194H777.1l-.194.194-.581.775-.387.581-.775.194h-.581l-1.937-.775h-.194l-2.906-1.356-.969-1.162-1.744-2.325-1.937-1.356-1.55-1.162-1.356-.387h-.775l-.581-.387-.581-.387-.581-.194-.581.581.388.194.581,1.162-3.293,1.55-1.937,2.131h-.387l-.387.581-.775.387-.581.194-.969.387-1.356.969-.194.387-1.55.387-.387.387-.969,1.356-.581,1.356-.194,1.162-.775.969-.775.194-.775.194h-1.162l-.581.194-.775,1.937-.969,1.162-1.162.775-2.712.969-2.712.387-2.906.969-3.293.194h-1.55l-1.356.387-2.325.387-1.162.775-.775,1.744-1.356.969-1.744,1.162-1.356.581-1.162.194-1.162.581-.969.581-.775.581-.581.775-.775.775-.775.775-.581.194-.969.194-.581.194-.775.775-.775.775-.581.969-.387.969-.969.969-1.162,1.162-.775.969-.581.387-.387.969v1.55l.387.969.194.775.387.387.194.387-.194.775v.387l-.194.581-.388.775-.581.581-.388.581-.194.581-.969,1.937-.581,1.162-.387.969-.387.581-.775,1.356-.387.969-.581,1.55-.387.581v.775l.194,1.55v1.937l-.194.581-.387.387-.194.581-.581.775h-.194v.194h-.775l-.387.581-.581.581-.387.581-.194.581-.194.775.194.775.194.387-.581.969-.194.581v1.744l-2.131,3.487-.581-.194-.387-.387-.194-.581v-.194l-.388-.194-.194-.194-.581-.194-.775-.194-1.744-.194-1.55-.387-.581-.194-.775-.194-2.712-1.162-.775-.775h-.969l-1.162.581-.775.581-1.356.969h-1.356l-1.937,1.356h-.581l-.581.194h-.388l-.581.194-.775.194-.775.194h-.387l-.775.387-.581.194-.194.194h-.969l-.581.581-1.162.387-.581.387-1.937.194H659.7l-.581.581-.388.194-.581.387h-.969l-1.55.387h-.775l-.387.194-.388.194-1.162.775-.969-.194-.775.387-.581.581h-.969l-.388.194h-.387l-.388.387v.194h-.775l-1.744.775-.775.387-.581-.194-.581-.194-.775.194-.194.194-.969-.581h-.388l-.969.969h-.581l-.194.194-.581-.387h-.581l-1.55-.194h-.581l-.969.387-.581-.387h-.387l-1.55.581-1.356-.581h-.194l-.969-.194-.388-.194H628.9l-.581-.387-.194-.194-.775-.194-.775-.387-.388-.194-.194-.387h-.387l-.388-.194-.194-.194v.194l-.387.194-.581-.194h-.581l-1.743-.387-.388-.194-.387.194-1.55.581h-1.744l-.581.194-.775-.194-.387.581h-.194l-.775-.194-.194.194-.969-.194-.969-.387-.581.387-.581-.194h-.581l-.388.387-.194.581-.581-.387h-.387v.194l-.194.194h-.194l-.194-.387-.194-.194-.194.194h-.581l-.775.387-.194-.387h-.581l-.388-.194v-.194l-.194-.387v-.194l-.194-.194h-.387l-.194.387-.387-.194-.775.387-1.162-.581-.969.387-.387-.194H601l-.581-.387-.581-.581h-1.162l-.581-.775-.387-.194-.194-.387h-.388v.194l-.194.194-.387.194-.388-.194-.387-.194-.194-.387-.388-.581-.387-.775h-.581l-.194-.387-.581-.581h-.387v-.387l-.194-.581-.194-.194v-.775l-1.162-.775-.194-.194-.387.194h-.388l-.194-.194-.194-.194v-.581h-.194l-.194-.194-.388.194h-.387l-1.162-.194-.388-.194h-.387l-.387-.194-.388-.387-.387-.387-.194-.194-.194-.581h-.387l-.387.194V251.1l-.969-.194-.194-.194-.194-.969-.387-.194v.387l-.775-.194-.581-.581h-.387v-.581h-.387l-.194-.194-.581.387h-.194l-.581-.969-.387-.581-.388-.387h-.581v-.775l-.388-.387-.194-.194-.387-.194-.969-.387-.388-.775h-.194l-.194.194v.387l-.194-.194-.194-.194h-.387l-1.356-.387-.775-.775-.194-.194v-.581l-.194-.194-.194-.387-.194-.194h-.194l-.581-.194-.387.194H570.2l-.194-.194-.194-.194-.387-1.162h-1.162v.775l-.194.581V242l-.194.775v3.487l-.387.775L567.1,248l-.194.387v3.1l-.194,3.293-.194,1.937-.194,3.293v1.55l-.194.581h-.194l-.581-.387-.581-.387-1.356-1.162-.969-.969-.969-.969-1.744-1.356-2.325-1.743-.581-.775-.194-.581v-2.906l-.194-.775-.194-.387-.194-.387-.387-.194-.969-.969-.775-.775-.969-.775-1.356-1.162-.581-.581-.194-.194h-.581l-.775.194-.387.194-.388.387-.387.387-.581.194h-.775l-.581-.387-.581-.969-.969-.581-.775-.775-.775-2.131h-.194l-.194-.194-.194-.194-.387-.775-.388-.387-1.55-.581-1.162-.581h-.194l-.194-.194-.775-.775-.194-.581-1.162-.775v-.194l-.387-.387-.194-.969-.775-.775v-.387l-.581-.969-.581-.387-.194.194h-.194l-.387.194-.388.387-.194.387-.194.581h-.194l-.194.194-.581-.581h-.194l-.194.775-.194.969-.194.387h-.387l-.775.387-.775.775-.581.581-.194.387-2.518,1.744-.581.387-.581.775-1.55,1.55-1.162.969-1.744,1.55-1.55,1.744-.775,1.162-1.356,1.744-1.162,1.55-1.356,1.55-.581.581-1.744,1.937-.194.194-5.812,6.005-4.068,4.649-3.1,3.293-1.55,1.937-1.162.969-.194-.387-.775-.387-3.1-1.55-1.356-.775-1.937-1.55-1.162-.775-.969-.775-.194-.194-1.356-1.356-2.906-1.744-.194-.387-.581-.387-.387-.775-.581-.775-.194-.775v-.969l-.194-.387-.194-.581-.388-.969-.581-.581-.775-1.162-.388-.581h-.194v-.969l-.387-.775v-.969l.194-.581.387-.775.581-.969.387-.775.581-1.162.387-.775.775-.969.388-.775.581-.581.194-.581.194-.387v-.581l.194-.387.387-.581.775-.581.581-.775.969-.581.775-.775.969-.581.775-.775v-4.262l-.194-.775-.194-.581-.194-.581v-1.55l.194-.387.194-.969v-.581l-.194-.775-.194-.775-.581-.775-.969-.775-1.162-.969-1.744-.969-.194-.387-.775-1.743-.387-.387-.388-.581-.194-1.744.194-.775v-.387l.194-.387.194-.581.387-.775.194-.775.194-.775-.194-.581-.194-.581-.194-.581-.388-.387L479.73,211l-.775-.387-1.937-1.162-2.325-1.55-.194-.194-1.356-.969-.969-.969-.969-1.55-.194-.194-.194-.775-.194-.387v-.194l.387-1.55.194-.387.775-.775.775-1.162.581-.775.194-.775.775-1.162-1.55-1.55v-.581l-.194-1.162.581-1.356-.194-.775.194-1.162-.581-1.937.969-.194,3.487-1.937,1.162-.775,2.325-.775v-.387l-.388-.775-.969-1.356-.581-.194-1.162-.194-.581-.387-.969-.194h-.775l-1.162-.194-.581-.194-.387-.194-.969-.969h-.387l-.388.194-.387-.387-.388-.387-.194-.581-.581-.387-.581-.194h-.581l-.969-.194-.969-.387-.775-.194-.388-.194H465.2l-.775-.387-1.162-.581-.775-.581h-1.744l-.581-.194-.581-.387-.969-.387-.581-.581-.581-.387-.775-.581-1.162-.969-.969-.775L452.22,167.8l-.387-.387-.581-.581-.581-.775-.388-.581-.194-.969v-.194l.388-1.55.775-1.744.194-1.744.387-.581.775-.387.194-.387v-.387l.194-.194-.581-.581h-.388l-.194-.194h-.194v-.387h-.581l-.387-.387-1.356.194-.194-.194-.581-.194h-.775l-.388-.194v-.194h-.387l-.387.194h-.581l-1.162-.194-.194.194h-.388l-.387-.581H443.5l-.194.194-.581-.194h-1.356l-.387.581h-.194l-.388.194-.387.387h-.387l-.194-.387-.581.194-.194-.194-.194-.387-.387.194h-.194l-.388.194-.194.194-.775.387-.194.387-.775.387h-.194l-.387-.194h-.388v.194l-.387.194v.194h-.387l-.775.194-.194-.387-.194-.194-.194-.775v-.194h-.194l-.775-.775H431.1l-.388.387-.194.969h-.194l-.581-.581h-.387v.387h-.194l-.388-.194v-.194l-.194-.387V155.4h-.194l-.387.194v.194h-.775l-.194-.194h-.388l-.194.194h-.387l-.194.194-.194.194-.969.387-.387.387-.387-.194h-.388l-.387.387h-.194l-.388-.387H421.8l-.581.387h-.581l-.581-.387h-.969l-.194.581.194.969v.387h-.388l-.387-.387-.194-.194h-.388l-.194.194-.194.194v-.194h-.388l-.581-.775v-.194l-.194-.194-.388-.194-.194.194h-.194l-.194.194v.969l-.194.194-.194.194h-.194l-.387.387v.775l-.581.387-.194.387-.775-.194-.194.194v.581h-.194l-.194.194-.194-.194h-.387v.194l-.194.194.387.775v1.356l-.194,1.356-.194.194-.581-.194h-.194l-.194.194.194.387.194.581v.387l-.194.387v.194h.969v.387l-.969.387h-.194l-.194.581v.194H409.6l-.388-1.55h-.194l-.387.581-.194.387v-.194l-.194-.581h-.775l-.388.387v.387h.194v.194h.775v.194l-.194.387v.387l.194.194-.581.194-.194.387.581.581v.387l-.387.969-.775.194v-.969l-.194-.387-1.744-1.162-.388-.387-.387-.387-.387-1.937-.194-.581-.775-.581-.388-.194-.387-.387-.388-.775-.387-.387-.194-.194-.387-.194H400.3l-.194-.194v-.194l-.581-.387-1.162-.775-.969.194-.387-.194h-.194l-.388.194-1.743-1.937-1.162-.387h-.194l-.581-.387v-.387l.387-.194.387-1.162v-1.162l-.194-.194-.387-.387v-.194l.194-.387.194-.194h2.325l.388-.194.581-.387.387-.969.194-.775,1.356-3.487.581-1.55.387-.194.388-.581.194-.969.387-.581.194-.581v-.194l.387-.581.581-1.55,1.356-3.293.775-1.744v-.387l.969-2.325,2.131-4.843,1.162-3.1,2.131-4.456.194-.969.194-.387v-.194l1.55-3.1.581-1.356.581-.969v-.775l1.937-3.681v-.775l.581-.387.194-.387v-1.356l-.581-.775v-.194l-.194-.194h-.775l-.969-.387-.581-.387v-.194L412.7,106l-.775-.581-.194-.387-.194-1.356.194-.969.194-.387.194-.194v-.775l-.388-.775-.581-.194-.581-.387-2.906-.194-.581.194-.387.775H406.5l-.969,1.162-.969.581-.194,1.162-.194.194v.194h-.194l-.194.387v.194l-.194.194h-.388l-.581-.775h-1.356l-.387-.194-.388-.581-.194-.194-.194-.194-.387.194h-.581l-.194-.194h-.194l-.194-1.162-.775-.194-.969-.194v-.194l-.194-.194.387-.387-.581-.194-.194-.775-.581-.194-.581.194v.581h-.581L394.3,99.8l-.387-.387V99.22l-.194-.387-1.937-.194-.387.387-.194.194h-.969l-.388-.194h-.387l-.194.194.194.194V99.8h-.194l-.194-.194-.194-.969H388.1l-.388-.581-.387.387-.194.194-1.356.194-.194-.194h-.194l.194-.194v-.387l-.194-.194-.581.194-1.55-.387v-.775l-.194-.194-.194-.387h-.387l-.194-.775v-.775h-.194l-.194.194-.194.194h-.969l-.581-.194-.388-.194v-.581l-.387-.581v-.775l-.581-.969h-1.55l-.194-.194-.581.194-.194.194-.388-.581-.581.581-.194.194h-.194l.194-.387v-.581l-.194-.387-.387.194h-.581l-.387.194v.387l-.581.387-.775.194-.194-.387h-.387l-.388-.194H369.5l.581-1.744.388-.581,1.743-2.518.388-.775,1.162-1.356V84.5l.387-1.55.194-.581v-.387l.194-.581.775-1.55.194-.194.581-.581.969-1.356.194-.387.775-.581.581-.387,2.131-.775h2.325l1.162.194h1.356l1.356-.194.775-.775.581-1.162.775-2.325.387-.775.388-.387.581-.581,1.356-.775.775-.194.581-.194,1.356-.581,1.162-.969,1.162-.969.775-.387.387-.387h.194l1.162-.581,1.937-1.162.969-.775.194-.387.387-.775.194-.387,1.162-1.162.194-.194.969-.775.969-.194.969-.387.581-.194h1.55l1.356.387,1.356.387h1.356l1.55-.387.775-.775,1.162-.387,1.743-.581.775-.194.969.194.969.581,1.356.387.969.194.969.387h2.131l4.262-.387h1.356l2.712,1.162,1.356.387,1.937.775,1.356.387,1.55.194,1.744.387h.387l.775.387.387.194,1.162.969.194.194.387.387.388.387.194.581.194.194.969,2.518.194.969.388.387v.194l.387.194,1.162,1.356h.194l.194.194.581.387,1.356,1.356.969.387h.194l.387.194.775.194h.775l1.162-.387.581-.194.387-.194,1.55.194.969.387.387.194.969.194.969.194,1.162.775L465.2,75.2l.775,1.162.775.775v.194l.581.387.775.581.775.581.388.194,1.162.581.969.387h.387l1.356.581h.194l.969.194.581.775.581.581.581,1.55.194.194,1.356,1.356.194.194.775.775.388.194.194.194.969.194v.194l2.325,1.356,1.55.969,1.55,1.162.581.387.194.194h1.162l1.356.194.581.194.387.194.194.194,1.356.969.775.387.194.194.194.387.969.775.581.775.194.387.581,1.356.388.581.581.775.581.581.387.194.581.581.387.194.969,1.162,1.356,1.55.969.969.581.194v.194l.194.194.194.194.194.194v.194l.387.969.194.194.194.581v.775l-.581,1.356-.194.969-.194.775V112.2l.194,1.55v.387l.387,1.162.388.775.194.387.194.194.581.581.581.581,1.162.387h.969l.775.387v.194l3.681,3.293.581.194,1.356.969,1.55.969h.194l.387.387,1.162.775.581.194h.969l.775-.387.387-.775.194-.194.775-.194.969-.387.194.387.581.581.581-.194,2.518-.194,2.712-.387h.581l1.162-.194h.969l.775.194H533.2l.581-.194,1.356.387.969-.581.581-.387,2.131-1.162.581-.387h.775l1.937.775h1.356l.969-.194,1.162.387.387.194.581.194,1.162.194.581-.194,1.55.194.775.387.969.194,1.937,1.356,1.356.581h2.712v.194h.194l1.55.581h.194l.969.775.194.387.194.194,1.162.775.387,1.162.775,1.356.194.194.194.387,1.937.969,1.162.387v.194l.387.194.581.387.775.581,1.356.194.969.194.581.581.775.387H573.3l.775-.581.581-.581.194-.194v-.194l.194-.194.775-1.55.581-.387h1.162l.775-.581h.387l.388.194.194.194.194.194.775.194.581.581.387.775,3.875,2.325.194.194,2.131.969,1.356.387h.775l.581-.194,1.162-.581,1.162-.194,1.356.581.194.581H595l1.356.194.775.581,1.162.387,4.262.969h.194l.775.194h1.162l1.162-.775.581-.387,1.356-1.162.775-.387,1.55-.775.581-.581.387-.387.775-.775.775-.581h.969l.581.387.969.775h.581l.775-.387.387.194h.775l1.55-.387h.775l.388-.194.969.387.581.775.388.581.387.387.194.387.969.775,1.356-.194h.581l1.162.194.969.775,1.162.194,1.937,1.356.775.387h1.55l1.937.387,1.55.194h1.937l1.937.969h.387l.581-.194,1.55-1.162.969-.194,1.356.194h.387l.581.775,1.162.775h2.325l.194.194h.387l.581.387h1.356l.387.194h.775l2.131,1.55.775.387,1.937,2.131.581.581.775.775.969.387,1.162.581,1.162.775,1.937.775,1.162.194h.775l2.325.969,1.356.194,2.325-.194h3.1l1.744-.387h2.712l.387-.194h.581l.969-.581,1.356.194h1.937Z" transform="translate(-369.248 -56.35)" fill="#1876d2" stroke="#fff" stroke-linecap="round" stroke-linejoin="round" stroke-width="0.5"/>
</svg>
