<svg xmlns="http://www.w3.org/2000/svg" width="303.098" height="384.272" viewBox="0 0 303.098 384.272">
  <path id="CDSA" d="M567.53,613.621l-.969-.969h-.969l-.775-.581-.194-.194-.969-.581-.387-.194-.581-.775-.387-.387-1.744.387-.387-.194-.194-.194-1.55-.969h-1.356l-.775-.388-.387-.387-.969-1.744-.194-.194h-.387l-.775-1.162-.775-.581-2.325-.775-.969-.969-.194-.969-.387-1.162-.581-.775-.387-1.162-.775-1.356-.969-1.162-.969-.581h-.194l-.775-.387v-.194h-2.325l-.775.194-.387.387-.775.581-.387.194-1.162.387-.775.581-.387.194h-.194l-.194.194-.387.194h-.194l-.194.194h-.581l-.969.775-.387.194-.581-.194-.969-.387-.581-.194-.388-.387-.969-.194h-.387l-.387-.194-.387-.581-.387-.775-.194-.194V595.8l-.581-1.162-.581-.387h-.194v-.194h-.194l-.775-.194-2.131-.387-.775-.581h-.581L522,592.5l-.969-.194h-1.356l-.969-.581h-.581l-.775.581-.775.387v.194l-.388.194v-.581l.388-.775.387-.775.387-.581.775-.581.581-1.937,1.356-.969.194-.581.775-.969.775-.387h1.744l.969-.387.969-.581.969-.775,2.131-1.744.581-.581.969-.775,1.162-.775.775-.775.775-.581.387-.194.387-.581v-.775l-.387-.387-.775-.387-.581-.194-.581-.581.194-.581.775-.969v-.387l-.387-1.356V570.42l-.387-1.937.194-2.131v-.194l.388-2.712V561.7l-.194-1.937v-.581l-.194-.387-.581-2.518-.388-.387-.194-.194h-.387l-.194.194-.194.194-.581-.194-.775.194-1.356.581-2.131.194-.194-.194-1.744-1.162-.969.581h-.194l-1.356-.387-.969.581h-.969l-.194.194h-.194l-1.356,1.162-.194.775v.194l-.775-.194h-.387l-.194-.387v-.387l-.581-.388-.581-.387-.194-.194v-.194l-.194-.194v-.194l-.194-.194v-.581l.194-.387v-.581l.194-.194v-1.162l-.194-.194v-.775l-.194-.387v-.388l-.194-.387-.581-1.162v-1.55l.194-.387v-.581l.194-.194V546.4l.194-.194v-.581l.194-.194v-.581l.194-.194v-.969l2.712-1.55.388-.194.387-.388.581-.775.387-.775.194-.581.387-1.356.194-1.744V530.9l.194-.581.581-.775.969-.581,1.162-.581.581-.387,1.937-1.744,1.55-1.55,1.356-1.162.775-1.356.581-1.55.387-1.162.194-.581.387-2.712.194-1.937v-1.356l-.194-.581-.581-.775-.387-.969v-.581l.581-1.162,1.744-1.937.969-.775.969-.969,1.162-.581.194-.581h.194l.387-.969.581-2.518.581-1.55.581-.581.969-.387.969-.581.581-.194.387-.581.194-.194-.581-.387-.387.194-.387.194h-1.55l-.775.194-.775-.581-.581-.194-.969-1.162-.387-.581-.194-.194-.775-.581v-.194l-.387-.775-.387-.775-.775-.969-.194-.387-1.356-2.906-.581-1.162-1.55-1.356-.194-.387-.387-1.356v-.581l-.387-.388-.581-.581-.387-.388-.775-.969-.581-.194-1.55-1.937-.581-1.356-.387-.775-.775-1.937v-1.162l-1.744-2.131h-.387l-1.162-.581-.194-.194h-.194l-.969-1.356-1.356-1.356-1.162-.581v-.194l-.969-.775-.387-.581-.194-.388-1.55-.194h-.194l-.194-.194-.388-.387-1.55-.388-.581-.194-1.744-1.162-.581-1.162-1.356-1.356,1.162.194.581-.387,1.356-1.356,1.162-.775.775-.775.581-.581.775-.581.775-.775.387-.581.581-.581.581-.775.969-.775.581-.775.775-.775.969-.775,1.162-1.162.581-.387.581-.387.581-.581.387-.581.387-.581.387-.581.387-.775.194-.387.387-.775.387-.387.194-.581L522,441.4l.581-.775.581-.775.387-.581.387-.387.388-.388.581-.194.581.194h1.937l.387.388v5.231l.388.387.194.194.581.581.387.388.775.775.775.581.194.387.194.581V450.7l.387.387.581.388.581.581h.581l.969-.581.581-.194.581-.387.581-.387.775-.388h.775l.387-.387.581-.388.387-.387.581-.387.194-.388V447.6l-.387-.581-.581-.581v-1.55l-.387-1.744V441.98l-.581-1.356-.581-3.487v-.388l-.194-.581-.387-.775.194-.775-.387-1.162v-.581l-.194-.581.581-1.55-.387-.969-.388-1.162V427.45l.194-.581-.194-.387-.194-.581V422.22l-.194-.775-.194-.775-1.356-2.712-.194-.775V416.02l.194-1.55-1.162-2.518-.388-.969-.194-.581.194-1.162v-1.162l.388-.775v-2.712l-.775-2.325-.194-.194V401.3l-.194-.581v-.387l-.194-.194v-.387l-.194-.387.194-.388,1.55-1.356.581-.775.969-.387.775-.969.388-.388.387-.775.387-.581.387-.581,1.937.581.775.194.775.194,1.744.775,1.744.581,2.518.969,3.487,1.162,1.55.581,2.131.775,2.131.775,1.937.775.387.194,1.356.387.581.194.969.387.969.387.775.388.581.194.775.194.387.194.387-.387.387-.581.387-.775.194-.581.387-.775.775-1.55.194-.581.387-.775.581-.969.387-.969.581-.775.387-.581.388-.969.775-1.162.387-.775.387-.969.388-.775.387-.388.775-.387.194-.387.194-.194h.388v.388l.194.387.581.388.387.387h.194v.387l.194.388.581-.194h.194l.387.194v.194l-.194.387-.194.194.194,1.55h.387l.194-.194h.194l.775,1.356h.387l.194.194.387-.581h.581l.194-.194.581-.194,1.162.194h1.744l.581.581.969.581h.387l.581.775,1.55.387.775.388.194.194.194.194.775,1.162.194.194h.775l.581.194v.194h.387l.581-.388h.775l1.162.388.387.387h.387l.775-.194h.387l.194.387-.194.194v.387l.194.194h1.162l1.937.775h.387l.194-.194h1.55l.581-.388.387.194h.387l.581-.194h2.131l.194.388h.194l1.162.194.387.387.775.581,1.744.581.387.194.581.387h1.55l.387.194h.194l.194.194h1.162l.969.194,3.1.194.387.194h.194l.387.194,1.744.388.387.194v.194h.194l3.487,1.55,2.906,1.55,2.131,1.55.388.387.581.581v.194l1.744,2.906.775.969.194.969.969.969.387.775h.194l.387.581.387.194.194.194.194.194.387.388h.194l.387.194.581.581,1.55-1.356,2.131-4.068,8.911-2.906,1.162,1.162.969,1.55,1.162.387,11.624-3.681-.194-.581v-.194l.194-.775-.194-.388-.194-.581.194-.969v-1.356l.194-.194h.194v-1.356l-.194-.388.194-.969v-.194l.387-1.162v-.775l-.387-1.162-.194-.388-.194-.194-.581-2.325-1.162-1.744-.387-1.937.194-.581h1.55l5.812,2.131,1.744.775,1.55-.387.775-.581.581-1.55.194-.581.775-.969.969-.775,1.356-.194,1.356-.194,1.162-.194,1.162-.194.775-.388.969-.775.969-.969,1.162-.581h2.325l3.681-.194,3.875.194,2.712.387.581-.194h.194v-1.937l.969-.581.194-.969,1.937-.194.581.387.388.194h.969l.969.194.194-.194h.581l.581.194.581.194,1.55-.194h.969l1.162.194h.194l.194.194.581-.387h.387l.388.194.194.194,1.744-.387h.387l.775.775h1.356l1.162-.388h.581l.194.194h1.744l.194.194.581.194,3.1-.194,1.55-.194,1.937-.194h1.937l2.518.194,5.037.194,3.1.194h3.681l.775,1.937,1.744,4.068,1.55,3.487L750.018,398l1.162,3.681,1.55.775,3.681,2.906,2.325,3.487.581,3.681.387,4.068,1.162,2.518,2.518,2.518,1.356,1.937,1.744,4.456.194,4.456.581,7.943.194,2.712.194.969.969.581,1.356-.388,6.005.388h7.749l4.068.387h1.744V447.4h2.712l1.55,1.55.969.581.775-.194,2.712-.581,1.937-.194.194,1.162-1.55,1.937-1.744,1.162-.775.581-.581.775.387,1.356,1.356.581,1.356-.194h.388l.581.388.388.194-1.162,1.162-1.162.775-1.744,1.162-.194,1.356.581,1.55,2.518,1.937,1.162,1.162.969.581,1.55-.194.194,2.906.387.969.194.387-.194.969.194.581v1.55l.387,1.55v.581l.775,2.518.194,1.162L806,480.919l.194,1.162-.387.775v.388l-.387,1.937v.194l-.194.581-.775.581-.581.775v.969l-1.356,2.325-.194.581-.194.387-.194.969-.194,1.162v.388l-1.356,2.325-.581,2.131-.581,1.162-.388.775-.387.388v.194l-.387.387-.194,1.162v.194l-.581,1.55-.581.581h-.194v.775l.387.387h.194l.194.194.194.194h.581l.581.194-.194.387v.194h-.194v.194l.387.775.581.775v.775l-.194.194v.194h-.387l-1.162-1.162-.387-.194h-.387l-.581.581-.194.387v.387l.194.194h.194l.388.194.387.194.387.387.194.388v.581l-.194.581-.969.969v.387l.194.387,1.356.775v.194l-.194.387v.194l-.194.194h-.388l-.775.194-.387.387-.387.194v.581l-.194.387.194.775v.194l-.194,1.162-.194.194v.194l-.387.194-.969.194h-.969l-.387.194v.194l-.194.387h.194v.387l.194.581.194.387v.194l-.194.194v.194l-.194.194-.581.775-.194.194v.388l.581,1.55v.388l-.194.387-.194.194-.387.194h-.581l-.387-.194-.387-.194-1.356-.194-1.162.194-.387.194-.387.387-.194.194v.194l-.387.581-.194.775.194.194.387.194.387.194h.775l.194.194v.388l-.775.775-.194.581.387,1.356-.387,1.162v1.744l-.387.775-.194.194H783.92l-.194.194-.194.194v.194l-.194.387-.194.969-.194.388v.775l-.194.387v.194l-.387.581-.194.194-.194.194h-1.162l-.387.387v1.356l-.194.969-.581.387h-.775l-.969-.194-.387-.194-.387.194-.387.194-1.162.969-.194.388-.387.194v.194l-.194.387.194.387.194.194.387.194v.194h.194l.387.194h.194l.194.387.581.581.194,1.356.194.194.194.581.387.581h-.194v.387h-.194l-.775.194h-.194l-.194.194.194.387v.194l-.194.387-.387-.387-.194.194h-.194l-.581-.387h-.194l-.194.194.581,1.162-.194.388h-.387l-.194.194.194.387.194.194.194.194v.969h-.194l-.387.194-.194.194h-.194l.194.387h1.356v.775l.581.775v.194l-.194.387h-.194l-.387.194-.194.387.194.194v.194h.969l-.387.387.194.387.775.388v.387l-.194.387-.775.194-.194.387.387.387.969-.194.388.194.194.194v.194l.194.194v.194l-.194.387-.775.387-.194.194.387.969.194.194h-.194v.388l-.194.387v1.162l-1.55-.387H775.4v.194H775.2v.581l-.581.387-.194.194v.194l-.194.388V571h-.194l-.194-.194h-.388l-.194.194-.387.387.194.194h.194l.775.194.194.194h-.194v.581h-.194v.194l-.775.388-.581,1.55-.387.581-.194-.194-.194-.194v-.387h-.581l-.194.194v.387l.194.581.194.387.775.775-.194.194v.387l.194.388h.581l.387.581h.194v.194h.194l.194-.194.194-.194h.194v.387l-.194.581v.194h.387l.581-.194.581.194.194.194v.194l-.194.194-1.162.194v.194l.387.194,1.162.387h1.162l2.325.969v.194l.194.194-.194.194v.194l-.775-.388-.387-.194v.194h-.194l-.194.194-.194.775v.581h.194l.581.581.194.194.581.581v.387l.194.581.194.387v.387l.775.775.581.194h.581v-.387l.194-.194.194-.581h.194V586.5h.194l.194.194.194.775.194.194-.194.387-.194.775-.194.387.194.194v.387l.387.387h1.162l1.162,1.162.387.194v.775l1.162.194.388.387.194.194v.387l-.387.194v.194l-.194.194-.387,1.55v.581l.194.194.581.194.387.581.387.194h.194l.387.775v.775l.194.388v.194h.194v.194h.387l.387-.194h.775l.194-.775.194-.194v-.194l.194-.194h.387l.194.194h.969v.194h.194l.387.775.194.194.775.194v.194l.194.194-.194.387v.387l.387.388v.581l-.969,2.712-.194.194.194.387h.194v.194l1.55.194.194.387h.194l.194.388h.194v.969l-.194.194v.194l-.387.388-.969.775v.775l.194.194v.194h.194v.194l.775.194.194.194,1.356.388.194.387-.194.194v.194H796.9l-.194.194-.775.387v.194h.194l.387.581.194.387v.194l-.194.388v.194l-.581.387-.194.194v.387l.194.194.194.194.194.388-.194.194-.194.581.194.194.194.387v.194l.194.194.194.194-.194.194v.969l.581.775.387.387.194.387-.194.581v.194l-.194.194-1.55,1.937-.387.581-.194.387v1.162l-.194.387v.194l.194,1.162v1.162l-.194.775-1.744,1.55.194.387v.388l.387.581v.388l.969.775.581.387v.194l-.388.775.194.194.387.388.194.194.775.775-.194.387-.194.194h-.387v.581l.194.194v.581h-.194v.194l-.194.194-.194.194h-.194l-.387.194H793.8l-.581.969-.387-.194-.194.194-.387,1.162-.387.194-.194.194-.194.194-2.131,1.55-.194.775-.581.581.581.775v.387h-.969v.387l.194.969-.194.775v-.194h-.387l-.387-.194h-.387l-.194,1.162h-.194v.194l-.194.194-.194.194-.194.194h-.388l-.194.194h-.581l-.194.194v.969H784.5l-.194.194h-.387v.387l.194.387v.194h-.194l-.387.387-.194.775v.194h-.194l-.388.581v.194h.194l.387.581-.581.387.194.387v.388l-.194.581v.388l.581.581.194.194.194.775.388.388-.775.387v.581l.387.194v.194l.388.194.194.581.387.581h.775v.194h.194v.194l-.194.387.194.194v.194l.581.775v.969l.581.969.387.388.194.194v.194h.387l.969.194.194.194v.194l.194.194v.194l.194.969.194.387.775.194.581.387.194.194h.969l.387.581.581.581.581.581.194.775.194.194.194.194v.194l.194.194-.581.194-.581.194-.969.194-.775.194-.388.194-.194.194-.775.775-.387.387-.581.387-.775.194H786.05l-1.356-.194-.775-.194-.581-.194h-.581l-.581-.194h-.581l-.387.388-.387.387-.388.387-.387.581-.387.387-.194.194v.194l.194.387.194.388.194.387.387.581.388.581.194.388.194.969.194.387v.387l.194.387v.387l.194.581-.388.581-.387.194-.581-.388-.581-.194-.581-.581-.581-.387-.775-.194h-.969l-.388-.194-1.162-.581-.775-.194-.581.194-.194.194-.387.388-.775,1.162-.387.775-.581.581-.387.581-.194.387-.194.388-.194.387-.969,1.356-.387.387H765.9l-.969.387-.581.581-.775.194-.387.387-.775.194-.775.387-1.55.581-.969.387-.775.194-.387.194-.969.194-.387.387v.581l.194.387.387.581.194.387v.387l.194.387v.387l-.194.388-.194.387-.387.387-.194.581v.581l.194.387.194.387v.775l-.387.775-.194.581-.387.581-.194.581-.194.387-.194.581-.194.581v.775l-.581-.581-1.356-.194-.581.194h-.194l-.775-.194-.388.194-.194.194v.969l.194.581.194.969.194.581.581.969v1.162l.581,1.356.194.775.194.775.388.969.194.775.775,2.518v.581l.194.969.194.969-.194.775-.387.775-.387.581-.581.387-1.744,1.937-.388.387-.387.388-.581.387-.775.387h-.969l-.387-.194h-.581l-1.744-.969-.388-.194-.581-.969-.581-1.356-.194-.775-.387-.387-.581.194-.581.775v.969l-.194.969-.387.387-.581.194h-1.937l-.581.194-1.162.775-.969.387-.775.387-1.162.581-1.356.387h-.775l-.969.194h-.775l-1.162-.194-.775-.387-1.937-.775-.581-.194-.969-.387-1.162-.194-2.712-.581-1.356-.387-.775-.194-.969-.194-.581.194-.775.581-.387-.194-.775-.387-.969-.194v1.162l-.194.581-.194.388v.775l-.194.581-.969,1.162-.194-.194-.388-.194h-.969l-.194-.387v-.387h-.387l-.194.194v.194l-.194.194h-.387V725.6l-.194-.194v-.775l-.194-.194-.194-.194v-.194l-.194-.387-.194-.194v.194l-.194.194-.775.775-.387.969-.194.387-.387,1.162v5.231l.387,1.55.388,1.744.194,1.356.194.969.194,1.356.194,1.55v.969l.387.775.387.387,1.162.194.775.387.969.194,1.162.581.969.194.387.581.969.969.581.775.387.775.969.581.775.775v.387l.194.194v.775l.194,1.162h-.194v.581l.194.194-.194.387.194.387v.775l-.194.387.194.194.194.194v.387h.194l.194.194.194,1.162.194.387.969.387-.387,1.162.194.581.581.388v.387l-.775.969-.194,1.162h-.775l-.581-.194-.775-.387-.775-.194-1.162-.194h-.775l-.969.194h-.775l-.775.387h-.581l-.581.387h-1.55l-.775-.194h-.388l-.387.194-.387.581-.194.387-.581.388H707.4l-.969-.194h-.581l-.969.387-.194.969-.387.387h-.387l-.194-.194-.387-.194h-.388l-.387.194h-.581l-.775-.387-.194-.194-.775-.194-.194-.194v-.194h-.387l-.775.387h-.194l-.194.581H698.1l-.387.387v.388l-.581.581-.581.194h-.387l-.387.194-.387.387-.387-.387-.194.194v.194h-.387v-2.518l-.775-.194-.969-1.162V762.4l-.775-.387h-1.55l-.775-.194-.969-.581v.194l-.387.194h-.194l-.194.194h-.194v-.387l-.194-.194.194-.194v-.581l.194-.194v-.388l.194-.194V759.5l.194-.194h.194l.194-.194v-.775l.194-.194h.387v-.581l.194-.194.194-.194h-.387l-.969-.581h-1.162l-.775.194-.194.194h-.194l-.194.194-.775.194-1.162.969h-.387l-.194.194-.581.581-.194.194-.388.775-.387-.194v-.194l-.194-.194h-.775l-.387-.194h-.194l-.387-.194-.194-.387-.194-.194-.387-.194v.194h-.969l-.387.194-.581-.194v-.969l.387-.194h.387l.194-.387.387-.775.387-1.162.387-1.162v-.775l.194-.969.194-.194-.388-.388-.194-.387-.387-.194h-.194l-.194-.388v-.194l.194-.194.387-.969,1.162-.969.194-.194h.194l.194-.194.194-.194v-.387l-.581-.775.969-.581.194-.194-.194-.387-.194-.581-.387-.387-.581-.194-.969-.387-.387-1.162-.388-1.356-.387-.581-.194-1.356-.194-.581h-.194l.388-.775v-.969l.194-.969-.387-2.325v-.969l-.775-1.937-.388-2.518.388-3.875v-.775l.194-.387V722.5l-.387-1.356-.969-.387-1.744-.387-3.487-.194-2.325-.387-2.131-.194L664,719.4l-2.131-.388-2.325-.775-1.744-.775-1.55-.969-.775-.194-1.162.194h-1.356L651.6,716.3l.194-.581-.194-.581-.387.388-.194-.388.194-.775-.194-.387-.387-.581.194-.387.387-.194v-.194l-.581-.581h-.194v-.387l.387-.775v-.387l-.387-.387-.194-.194-2.325,1.55-.775.194-.581.194h-.388l-.775-.194-.581-.194h-.387l-.387-.194-.969-.387h-1.55l-.581-.194-.581.194-.581.194h-.194l-.775.581-1.162.387-.775.194h-.194l-.581.388-.387.194h-.387l-.387.387-.194.388-.581.387-.194.194-.388.194-.969.194h-.194l-.775.194-2.131.969h-.194l-.775.775-.969-.775-1.55-3.487-.775-1.937-.775-.775-.775-.581-.581-.581-.581-.581-.581-.388-.194-.194-3.1-3.875-3.487-3.1-1.356-1.55-.194-.775-.775-.387-.387-.194-1.55-.969-.969-.969-.581-.581-.775-.387-.194-.194-.194-.194-.388-.387-.387-.969-.581-.581-.194-.194-.194-.194h-1.744l-1.356-.969h-.388l-.387-.194.775-1.937.194-2.325.581-1.162.387-.775,1.744-.775,1.162-.581.969-.775.581-.775-.387-.581-.969-.387-.969.194H605.3l-.775-.387-.194-1.162.775-.969.194-.388.775-1.55.969-.388,1.937-.775,6.005-1.937,2.131-1.162,1.356-.581,1.162-.388,1.55.194.969-.969.194-.775.387-.194h.775l.387-.387.581-.194h.581l.387.387h.775l.194.194h.775l.387-.775.387-.194v-.194h.194l.581-.194v-1.55l-.775-1.937-1.162-2.325-1.356-2.712-.969-2.131-.775-1.937-.387-.969-.388-.775-.775-2.518-.775-1.937-.775-1.744-.194-1.55-.775-.969h-1.162l-.194-.775-.775-.387-.581-.194h-.194l-1.162-.194-1.744-.387-1.356.387-1.162.388h-.775l-.581.194h-.387l-2.131.194h-3.487l-1.162-.387-1.162-.194-.969-.194-.581-.775-.194-.194-.194-.194-.387-.581-1.937-1.162L596,639.583l-.194-.194-.387-.387-.194-.387-.194-.581-.194-.194-.194-1.162-.194-.194-.194-.387-.194-.194-.194-.194-.581-.194-1.55-1.937-.388-.387-.969-.194-1.162-1.55-.387-.581v-.775l-.388-.387-.194-.387v-.387l-.194-.387-1.937-1.162-.387-.387-.194-.194-.387-.387-.194-.194-.581-.775h-.387l-1.744-2.325-.194-.387-.388-.581-.387-.969-.969-.969-.969-.387-.387-.194-.581-.581-.387-.775-.969-.387h-.969l-.775-.194-1.162-.969h-.775l-.388-.194-.194-.194h-.194l-1.937-.581-1.356-.387-1.744-1.744Z" transform="translate(-503.35 -382.45)" fill="#6f9c76" stroke="#fff" stroke-linecap="round" stroke-linejoin="round" stroke-width="0.5"/>
</svg>
