<svg xmlns="http://www.w3.org/2000/svg" width="238.182" height="317.047" viewBox="0 0 238.182 317.047">
  <path id="CDSK" d="M964.927,387.952v.387l-2.712,5.037-1.744,3.293-.775,1.744-.775,2.712-.581,2.131-.387,1.937-.194,1.55v2.325l.194,1.356.194,1.356v5.037l.388,2.131v6.587l-.775,3.1-.387,1.937-1.162,3.293-.969,1.744-1.55,3.1-1.162,1.937-.775,1.162-1.937.969-1.744.387-1.55-.775-1.55-.194-.969.388-.388.581v.581l-.581,1.162-1.356,2.518-1.744,1.744-1.162,1.162-1.162.581-.581.581-.581.581-.194.194h-.387v-.194l-.194-.194.194-.387V451.3l.194-.388.194-.194h.387l.194-.194v-.387l-.194-.194h-2.131l-.581.194-1.356.775-.969,1.356-.969,2.712v1.744l.194,1.356,1.162,1.162.388.581.194.581v.969h-.194v.581h-.194v.387h-.581v.194h-.581v.194h-.194v.194h-.194v.194h-.194l-.194.194h-.194v.194l-.194.194v.194h-.194v.775l.775.581,1.162.581.969.969.581,2.131v.581l.194.194h-.194v.194h0v.581h-.194v.387h0v.194h.194v.194h.194v.388h.194v.194h-.194v.969h-.194v.581h.194v.194h.194v-.194l.194.194-.194.194v.194h.194v.194h0v.194h-.194v.194h.194v1.162h-.387l-.194.194h-.387v.388h.194l.194.387.194.194h.194l.194.194h.387l.194.194h-.194l2.131,1.356h.581v.194h.194V479l.775.388,2.906.387h.387v.194l.581.194h.387v.194h.194v.194h.194l.194.194h.387v.194h.194v.194h.194v.388h.194l.194.194v.194h.387v.194h.194l.194.194v.194l.194.194h.194v.194l.194.194v.194h.194l.194.194h.194v.387h.194v.388h.194v.194h.194v.194h-.194v.775l-.194.194h.194v.194l-.194.194-.194-.194h-.775v.194h-.194l-.194.194v.194h-.194v.194l-.194.194-.194.194h-.194l-.194.194h-.194v.194h-.194v.194l-.194.194h-.194v.194h-.194v2.519l.194.194v.194h.194v.194l.194.194h.194l.194.194H944v.194h.194V491.4h.387v.194h.194l.194.194v.194h.581v-.194h.581V491.6h.387V491.4h.194v-.194l.194.194h.387v.581h.194v.194h.194l.194.194v.194l.194.194v.194l.194.194v.194h-.194v.194h.194v.194h.387l.194.194v.388h-.194v.387h.387v.194l-.194.194v.388h.775v.194h.194v.194h.387l.194.388h.194v-.194h.194l.194.194v.194l.194.194h-.194v.194h.194v.388l-.194.194v.194h-.194v1.356l.194.388v.387l.194.194.194.194v.387h.194v.194h.194v.194h.194v.194h.194l.194-.194h.387l.194.194h.194v.194h.387v.194h.194l.194.194h.194v-.194h.387v.194h.194v.387h.194v0l.194.194h.194v.194h.194v.194l.194.387.581.194h.194v-.194h.387v.194h.194l.194.194v.194h.194V504l.194.194h.387v.387h-.194v.387h.194v.194h.194v.194h-.194v.194l.194.194v.388h.194v.581h-.194v.194h-.194v.388h-.194l.194.194v.194h.387v-.194h.194l.194-.194h.194v.194h.194v.194h.194l.194.194v.194h.194v.194H959.5v.581h.968v.581h.194v.194h.194v.194h.194V510h.387v0h1.743v-.194h.194V510h.194v.388h.775v.387h-.194v.194h-.194v.194h.194v.194h.581v.194l-.194.194h.194v.194h.194l.194.194v.194h.387v.194h.194v.194h.194v.388H965.7v.387H965.5v.387h.581v.194h.194v.194h-.194v.194h.194v.387h-.194v.775l.194.194h.194v.194h-.194v.194H965.7v.194h.194v.387h-.581v.194h.194v.194h.387v.387H965.7v.387l.194.194.194.194v.194h.387v0l-.194.194h-.194v.388l-.194.194v.194H965.5l-.194-.194v.387l.194.194v.194l-.194-.194h-.194v.388l-.194.194v.194h.194v.194h-.387v.581h-.194v.387h-.387v.581h-.194l-.194.194h-.194v.388l.194.194h.194v.387l-.194.194v.194h-.194v.194l-.194.194h-.194v.387h.581v.581h-.581v.775l-.194.194v.194h.194v.194h.194v-.194h.194v.581h.194v.194h.194v.194h.194v.387h-.194l-.194.194.194.194v.194h-.387v.194h-.194v.969h.194v.581l.194.194v.969h.194v.775h.194v.194h.194v.194h.194v.194l.194.194v.194h-.194v.387h.194v.194l-.194.194h-.387l-.194.194v.194h-.387v.581l.194.388v.775l-.194.194v.194h-.194v.775l-.194.194v.775h-.194l-.194.194v.581H962.4v.194l-.194.194h-.194v.194l-.581.387-.194.194h-.581v3.487l.969,4.068.775,2.712,1.162,7.362.388.969.194.969v9.88l-.387,7.749-.581,7.555.194,6.005.387,5.037,3.875,2.131,2.712,2.518,2.518,5.037L975,610.741l2.518,8.33.581,6.005-.194,5.231.387,5.037-.387,5.037v1.162l-.194.194v.969l-.194,1.356v.775l-.194,1.937-.581,7.362-.387,1.55-.775,5.037L975,668.859v5.424l.194,5.424,1.162,9.686.387,4.262H939.932l-15.5.194-.194-.194v-.775h-.194v-.194h-.194v-.194l-.194-.194-.194-.194h-.581l-.194.194-.194-.194-.194-.194-.194-.194v-.194h-.194v-.194l-.194-.194v-.194l-.194-.194-.194-.194v-.194h.387v-.387l.194-.194h-.387v0h-.581l-.194-.194-.194-.194V689.2h-.194l-.194.194V689.2h-.194l-.194-.194v-.194l-.194-.194v-.387l-.194-.194v-.387l.194.194v-.387h.194v0h.194v-.194h.387v-.194h-.194v-.581l-.194-.194h.194V686.1l-.194-.194v-.194h.194l.194-.194h.387v-.194h.387v-.387h-.194v-.194h-.194v-.194h-.194v-.194h-.194l-.194-.194h-.387v-.194h0l-.194-.194H919.4v-.387h0V683.2H919.2v-.387l-.194-.194h.194v-.194l-.194-.194v-.387h-.194v-.194l-.194-.194v-.194h.194v-.194h-.194v-.387h-.194v-.387h.194V680.1h-.194V679.9l-.194-.194v-.581h-.194v-.194h-.387v-.194h-.194v.194l-.194-.194.194-.194h-.194v-.194h-.194v-.194h-.387v-.194h-.194l-.194-.194-.194-.194v-.194h-.194V677h.194v-.194h.194l.194-.194-.194-.194v-.387h-.194l-.194-.194h-.194l-.194-.194v-.194h-.387v-.194l-.194.194v-.194h-.581v-.194h.194l-.194-.194h.194v-.387h-.387v-.194l-.194.194V673.9h-.194v-.775l-.194-.194v-.387h0v-.194h-.194l.194-.194v0l.194-.194h-.194v-.194l-.194-.194v-.387l.194-.388v-.194h.194v-.387h-.194v-.194H913.2l-.194-.194v-.387h.194v-.387l.194-.194H913.2v-.194h-.194v-.194h-.194v-.387l-.194-.194h-.194V667.7h.194l-.194-.194-.194-.194h-.387v-.194l-.194-.194h-.194l.194-.194-.194-.194v-.581h-.194l-.194-.387h-.194l-.194-.194h-.194l-.194.194v-.194h-.387v-.194h-1.162V664.8h-.194v.194h-.194l-.969-.775-.581-.387-.581-.969-.775-2.325v-.194l-.387-1.162-.581-2.325-.387-1.55-.581-1.744-.581-1.55-.387-1.55-.775-1.162-.581-.581v-.581l.194-3.487v-1.744H897.51l-.775.194-.969-.775-.194-2.518v-1.744l-.969-.969-.194-.194-3.1-.775-2.518-.969-.969-.775-.388-.387v-.388l-.387-1.55-.194-.775.387-.581-.387-.581.387-.388-.387-.969-.194-.387-.969-1.55-.387-1.162h-.581l-.387.194-.969.581-.775-.387-3.875-3.293-1.55-.775-2.518-1.744-1.937-1.356-1.744-2.131-.581-1.55-.194-.775-.194-.581-.387-.775-.387-.969-.581-.581-.775-.194h-.387l-.581.388-.581,1.356.969,1.937h-.194v.194H866.9v.388h-.194l.194.194h.194v.194l-.194.194v.388h-.194v.194l-.194.194v0l-.194.194h.194l.194.388h-.194v.581h-.194v.194h-.194v.194h-.194v.969h-.194v.194l-.194.194v.194h-.387v.194h-.194l.194-.194h-.194v.194h-.194v.194h-.194v.194h-.387v.194H864l-.194.194H862.64v-.194h-.194v-.194l-.194-.194-.194-.194h-.194v.194l-.194.194v.387l-.194.194v.194h-.387v-.194l-.194-.194v-.387H860.7v-.194h-.194v-.194h-.194v-.194h-.194v-.194h-.387v.194h-.194l-.194-.194h-.194l-.194-.194h-.194v-.194h-.194v-.194l-.194-.194-.194-.194v-.194h-.194V618.5H856.83l.194-.194v-.194h.194v-.194h-.194v-.194h-.775v-.194h-.194v-.194h-.775l-.194-.194H854.7l-.194.194-.194.194-.194.194-.194.194h-.194l-.194-.194h-.194v-.194h-.387v.194h-.194v.194h-.581l-.194.194v-.194l-.194-.194v-.388h.194v-.387l.194-.194v-.388h-.387v-.194l.194-.194.194-.194h.387V615.2h-.194v-.581l-.194-.194-.194-.194v-.194h-.194v-.194l.194-.194h.581v-.194h.387v-.194h.194v-.194l.194-.387.194-.969-.969-.194-1.55-.194h-.388l-1.937-.581.194-.388-1.744-.194-2.131,1.55v-.194l-.194.194v.387h-.581v.194l-.194-.194h-.775v-.194H842.5v.194H842.3v.194l-.194-.194v-.194h-.581v-.194h-.387v.194l-.194-.194-.194.194v.194l-.194-.194v-.388h-.194v-.194l-.194.194-.194-.194h-.194v-.194H839.2l-.194-.194v.194h-.194l-.194-.194h.194l-.194-.194v.194h-.194v-.194h-.387v.194h-.194l-.194-.194h-.194v-.194h-.194v-.388h-.387v-.387h-.194v-.194H836.1v-.194h.194l-.194-.194h-.387v-.387h-.194V609h-.194v-.194h-.194v-.194h-.194v-.969l-.969-.775v-1.162l.387-.388v-.775l.775-1.55.194-.581-1.744-.194-1.937-1.55h-2.906l-4.068.581-3.293.387-4.649.775-1.55-.194-1.356-.581-.581-.387L811.7,599.9l-2.518-.194h-2.131l-1.937-.581-1.356-.388-1.744-.581h-1.162l-.387.387-.581,1.55h-.194V599.9l-.194-.194H799.3v-.387H799.1v-.387h-.194l-.194-.194h-.194l-.194-.194h-.387v.194l-.194-.194v-.194h-.194v-.194h-.194v-.194h-.387v-.194h.194v-.387h-.194v-.194h-.387V596.8l-.194-.194v.194H796.2v-.194h.194v-.194H796v-.194h-.387v-.194l-.194-.194h-.194v-.194l-.194.194v-.194h-.194v-.581h-.194l-.194-.194h-.194l-.194-.194-.194.194h-.194v-.387H793.1v.194h-.194v-.194h-.775v.194h-.387v-.194l-.194-.194-.194.194v-.194h-.194v.194h-.194v-.194h-.194v.194l-.194-.194h-.387v.194H790v-.194h-.194l-.194-.194h-.194v-.194h-.194v-.387h-.194v.194h-.194v-.194h.194v-.194h-.581v.194h-.194v-.194h-.194v-.194h-.194v.194l-.194-.194v-.194l-.194-.194v0h-.194v0H787.1v-.194H786.9v0l-.194.194h-.581v.194l-.194-.194h.194v0h-.194v0h-.581l-.194.194h-.194v0h-.194v-.194H784v0H783.8l-.194.194v-.194h.194v-.194H784v-.194h-.387v-.387h-.775v-.194h-.194v-.194h-.194v-.194h-.194v-.194h.194l-.194-.194h-.194v.194h.194v.194h-.387v0h-.775v0H780.7v-.194h-.194v.194l-.194-.194-.194.194v-.194h-.387v-.194h-.194v-.194h-.387v.194h-.194v-.194h-.194l-.194.194v-.194h-.194v.194h-.194v.194h-.194v-.194H777.8v0H777.6v-.194h-.194v.194h0v-.194h-.387V590.6h-.194v-.194h-.194v-.194h-.387v-.194h-.194v.194h-.194v0h-.194v-.194h-.194v0l-.194-.194h.194v-.194h-.194v-.581h-.194v-.194h-.194l-.194-.194v-.387l-.194-.194v-.194l-.194-.194v-.387h.194v-.194h-.194v.194h-.194v-.194h-.387v0h-.194v-.194l-.194-.194v-.194h.194v-.194h-.194v.194h-.194v-.581h.194v.194h.194v-.194h-.387v-.387h.194v-.194h-.581v-.194l-.194-.194V584.4h-.194v-.387h-.194v-.194h-.194l-.194-.194h-.581v.194h-.194v-.387h.194v-.194h.194v-.194h-.194v-.194h-.387l-.194-.194h-.194l-.194.194v.194l-.194-.194h.194v-.581h-.194v.194l-.194-.194h.194v-.194l-.194-.194.194-.194h-.194l-.194-.194h-.194v-.387h-.194v-.581h-.194v.194h-.194v-.194H768.5v-.581h.194l.194-.194v-.194H768.7l-.194-.194-.194-.194.194-.194h-.581v-.581h.194v-.388h-.194v.194h-.387v-.775l-.387.194h-.194v-.194h.387v-.194l-.194-.194v-.194l-.194-.194v-.194l-.194-.194h-.194l-.194-.194-.194-.194h.387l-.194-.194v-.194l-.194-.194h-.194V575.1h.194v.194h.194V575.1l-.194-.194h.387v-.387l-.194-.194v-.194l-.194-.194v-.387l.194-.194.194.194v-.194l-.387-.194.194-.194v-.194l.194-.194.194.194h.387v-.194h-.194v-.194h.194V572l-.194-.194h.194l.194-.194h-.387v.194h-.194v-.387l-.194-.194h.387l.387-.388v-.194l-.194-.194-.194-.194v-.194h.194l.194-.194v-.775l-.194-.194v-.387l.194-.194v-.388h-.194l-.194-.194.194-.194v-.194l.194-.194-.194-.388v-.387h.194v-.775h.387v-.194l-.194-.194v-.194h.194v-.194h.387v-.387h-.194v-.388l.387-.194V562.9h.387l.194-.194H768.7v-.581l.194-.194v-.194l.194-.194h.581v-.194l-.194-.194v-.194h.387v-.194l-.194-.194v-.387l-.194-.194-.194-.194v-.387h.775l.194.194.194.194V559.6l-.194-.387v-.194l.194-.387.194-.194h-.194v-.581l.194-.194h-.387l-.388.194v.194l-.387-.194-.194.194v.388h-.194v-.388l-.194-.194.194-.194.194-.194h.194l.194-.388h.194V556.7l.194-.581-.194-.775.388-.775.194-.388v-.194l-.194-.387-.194-.194v-.775l-.194-.194h-.194l-.194-.194v-.387l-.194-.194-.194-.194v-.581l.194-.194-.194-.194v-.388l.194-.194h.194v-.581l.194-.194h.194v-.194h.194v-.387h.194V547.4l-.194-.194h-.387l-.194.194v.194l-.194.194H768.7V547.2H768.5v-.581l.194-.194.194-.194.194-.194v-.775l-.194-.194V544.3l-.194-.194v-.387H768.5v-.194h-.581v.194h-.194v.387l-.194.194h-.194l-.194-.194h-.194v-.194l-.194-.194v-.194h-.194v-.581l.194-.194.194-.194.194-.194h.194v-.194l.194-.194.194-.194v-.387l-.194-.388v-.194l-.194-.194-.194-.388h-.194v-.387l-.194-.194v-.969l.194-.194V538.1l.194-.194v-.581h.194v-.194l.194-.194h.194v-.194h.194l.194-.194h.194v-.194h.194v-.194h.194v-.194h.581v-.387h.194V535h.194l.194-.194h.194v-.194l.194-.194v-.194h.194v-.194h.194v-.387l-.194-.194v-.194h.194v-.194h.194v-.194h.194v-.194h.194v-.194h-.194l-.194-.194h-.387v0h-.194l-.194-.194h-.194l-.194-.194-.194-.194-.194-.194v-.194h-.194l-.194-.194H768.7v-.194h-.387v-.581h.194v-.194h.194v-.194h.194v-.969h.194V528.8l.194-.194v-.581h.194v-.387h.194v-.194l.194-.194v-.387l-.194-.194h-.387v-.388l.194-.194V525.7h-.194l.194-.194h-.194l-.194-.194v-1.356l.194-.194v-.194l.194-.194.194-.194v-.194h.194v-.194l.194-.194.194-.194v-.581l-.194-.194.194-.194h-.387l-.194-.194v-.194H768.7l-.194-.194v-.194h-.194v-.194l.194-.194v-.194h.194v-.387h.194V519.5l.194-.194.194-.194v-.387h.194v-.581l-.194-.194v-.581l.194-.194v-.194l-.194-.194V516.2h-.194v-.194h-.194v-.387h.194v-.775h-.194v-.194H768.7v-.194l-.194-.194v.194l-.194-.194h-1.162v-.194h-.387v-.194l-.194-.194-.194-.194-.194-.194-.194-.194v-.194h-.194l-.194-.194v-.194H765.4v-.194l-.194-.194-.194-.194-.194-.194h-.581l-.194.194v.194h-.387v-.194l-.194-.194-.194-.194v-.194l-.194-.194v-.581l.194-.194.194-.194v-.194h.194v-.969h-.194v-2.131l-.194-.194-.194-.194v-.194h-.194l-.194-.194v-.194H762.3v-.194h-.387l-.194-.194h-.387l-.194-.194-.194-.194h-.194l-.194-.387-.194-.194v-.194l-.194-.194.194-.194v-.387h.194l-.194-.194v-.194h-.194l-.194.194v.194l-.194.194v.387l-.194.194h-.968v-.194h-.387l-.388-1.162-.581-.387-.775-.775-.194-.388-.388-2.518-1.356-3.681-.387-2.325-1.162-1.55-2.712-1.162v-.388l.194-.581-.194-.388.387-.194v-.387l.775-.388.387-.581.194-.388v-.387l.194-.388.194-1.356.581-.775-.194-2.518-3.487-1.55-.387-.969.775-.775-.387-1.162-1.356-.969-.775-.969-.775-1.55-.775-1.356v-.387l-.194-.194h-.581v-.387h.194l-.387-.969v-1.162l.969-.581.581-.969v-1.744l-.775-2.518-.581-1.937-.969-1.162-1.744-1.744-.581-1.55-.194-4.649.581-1.744-.387-1.162-.581-1.162-.387-1.162h.969l.194-.388h.194l.387.388h.388v-.194l.194-.194.581.194.194.194.387-.581h.194l.387-.194h.194l.388-.775.194-.969-.387-.969-.581-.581-.194-.581.581-4.456.194-2.518.194-1.356.387-1.162v-1.937l.194-.581h.387l.194.194.194-.388h1.356l.194-.194h.387v.194h.387l.194.194v.194h.581v-.194h.194v-.194l.194.194h.194v.194l.194.194v.387l.194.194v.194h.194l.194.194h.194l.194.194v.194h.194l.194.194.194.194h.387v-.388h-.194v-.194h-.194l-.194-.194v-.388l.194-.194h.194v-.194h.194v-.194l.194-.194-.194-.194h-.194v-.194h-.194V430h.194v-.387H753v-.388h.194v-.194l.194-.194.194-.194h.387l.194-.194.194-.194v-.194h.194v-.387h.387l.194.194.194.194v.581l-.194.194.194.194v.387h.194v.194h.194l.194.194h.194l.194.194h.194l.194-.194v-.388l-.194-.194-.194-.194v-.194l-.194-.194-.194-.194v-.775h-.194v-.388l.194-.194h.194l.194.194.194.194.387.194.194.194.194.194v.388l.194.194v.387l.194.194v.194l.194.194h.581l.194-.388v-.775h.194l.194-.194v.388l.194.194v.387l.194-.194.194.194v.194h.194l.194.194v.969l.194.194.194.194h.194l.194.194h.194l.194-.194h.387v.581l.387.194.194.194.194.194h.968l.194.194v.194h.194v1.937l.194.194v.194l.194.194h.387l.194-.194h.194v-.387h.194v-.194h.581l.194.194.388.194h.387v-.194h.581l.194.194.388.194h.194l.194.194h.581l.194.194v.194l-.194.194v.194L768.5,436l-.194.194v.194l.194.194.194.387.194.194.194.194.194.194h.387v-.388l-.194-.387v-.194l-.194-.194.194-.194h.194l.194-.194.194-.194h.387v-.194h.387l.194-.194v-.194h.775l.194.194h.194v.775l-.194.194v.194l-.194.194-.194.194.194.194v.194h.387v-.969l.194-.194h.581l.194.194h.387v-.581h.194v-.194h.194v.194h.387v.387l-.194.388-.194.194v.969l.194.194h.581v-1.356h.194V436.2l.387-.194h.388l.194-.194h.387v.387l-.194.194h-.387l-.194.194-.194.194v.194l.194.194.194.194h.194l.194-.194h.194v-.387l.194-.194v-.194h.387v1.356l.194.194.194.194v-.194l.194-.194v-.194l.194-.194v-.194h.194l.388.194h.194l.194.194h.387v.194l.194.194v2.325l.194.194.387.194h.581v-1.744l.194-.194.194-.388.388-.194h.194v-.194l.194-.581v-.194l.194-.194.388-.387h.387l.194.194h.194v.581l.194.194v.194h.775l.775.194.775-1.162,1.162-1.55.969-1.356.969-.969,1.55-1.356.581-.581,1.55-.194,1.356.387L795.812,430l1.356-.969,1.937-.775.775-.581V426.9l-.581-1.356.581-2.131,1.356-2.325.581-1.55-.194-.775-1.356-.387h-2.131l-1.356-.388-2.325-.775-.969-.387-.581-.581-.194-.581.581-.775,15.3.387,17.629.388,1.937,1.356,2.325,1.356,2.712.387h2.131l2.131-1.937,2.325-.969,2.131-.194H845.6l1.162,1.55,1.162-.581.969-.388.387.194.194,1.55.581.775,1.356-1.937,2.906-.775,3.1-.387h.969l1.162.775-.581,1.55.581,2.131v1.55l4.262-1.55h1.162l.775-.194-.581-.969-.581-.775-.388-.194V417.6l.388-.969v-.775l.387-.194,1.162-.581h1.937l4.456-.194,2.325.194h1.937l.969-.194h.581l1.162-1.162.775-.194h.194l.969,1.162.969.387h2.325l.775-1.356-.387-1.55-1.162-.581-.388-.194-.194-.194-.387-.194-.388-.194v-.194l.388-.388.387-.581.387-.581.775-.581,4.843-2.131h.969l.581-.194.969-.387-.194-1.162.194-.969-.194-.387h.194l.775.194.387.194.775.388.194.194h.581l1.744.194.581-.194h.581l.194.387.581,1.356h.194l.194.194h1.55l1.55.775h.775l.194-.194.194-.388.775-.775.387-.194h.194l.581-.387.581-.194.581-.194H907.2l1.162.388.581.387.194.194h.194l.388-.387.194-.194v-.194l1.356-.388,1.55-.969.194-.387,1.937-3.1-.387-1.162v-.194l-.194-.775-2.325-1.162.387-1.55v-.194l.194-.387-.388-.775-.387-.969-.194-.387v-.388l.194-.387.775.194h.775l.581.581.775,1.356,1.55,1.55h.387l2.712.194.581-.194.581-.581.194-.194h2.325l1.356-.387H925.8l.581-.388.388-.581.194-.194v-.581l.194-.194.194-.581.775-.775h.194v-.194l.581-.387.387-.775.194-.194.387-.581.581.775,1.356,1.162,1.744.387,1.356.775.387.194,1.356.194,3.1-.388.775-.775.194-.194.387-1.937.969-1.55.387-.388h.194l.969-.581.387-.775.194.194v-.387h-.194v-.194h.194v-.387h.194v-.194l.194-.194h.194v-.388h.194v-.194h.194v-1.744h.194v-.581h.194v-.194h-.387v-.194h-.387v.194h-.194v-.581H944.4V380.6h.387V380.4h.194v.194h.387v.194h.194V380.6h-.194v-.388l.194.194h.194v-.194h-.194v-.581h.387v-.969h.194v-.388h.194l-.194-.194h.194l.194-.194.194.194v-.387h.194V377.3h.387l.194.194h.194V377.3h.194l.194.194h.775v.387h.194v.194h.387v.388h.387v0h.194v.194h.387v.387h.194v.969h.194v.194l.194.194v.194h.194v.194l.194-.194.194.194v.194h.581l.194.194h.194v.194h.387l.194.194h.194v-.194h.194l.194.194h.775v-.194h.194v.194h.194v.775h.194v.194h0l.194.194h.387l.194-.194v-.194h.194v0h.581v-.194h.387v-.194h.194v.581h.194v.194h.194v.194h0v.387l.194.194v.387h.194v.194h0v.194h.194v.194h-.194l.194.194h.194l.194.194h.194v.194h.387l.194.194h1.162v.194h.194l.194.194h.387v.194h.194l.194.194h.194v.194h.194l.194.194h.581v-.194h.194v.194h.194l-.194.194v.194h.387v.194h.194v.194h.194v.581h.581v.194h.194v.194h.194l.194-.194Z" transform="translate(-740.358 -377.053)" fill="#1876d2" stroke="#fff" stroke-linecap="round" stroke-linejoin="round" stroke-width="0.5"/>
</svg>
