<svg xmlns="http://www.w3.org/2000/svg" width="262.419" height="265.905" viewBox="0 0 262.419 265.905">
  <path id="CDSU" d="M411.3,75.075h1.744l.388.194h.387l.194.387.775-.194.581-.387v-.387l.387-.194h.581l.387-.194.194.387v.581l-.194.387h.194l.194-.194.581-.581.387.581.194-.194.581-.194.194.194h1.55l.581.969v.775l.387.581v.581l.387.194.581.194h.969l.194-.194.194-.194h.194v.775l.194.775h.387l.194.387.194.194v.775l1.55.387.581-.194.194.194v.387l-.194.194h.194l.194.194,1.356-.194.194-.194.387-.387.388.581h.775l.194.969.194.194h.194v-.387l-.194-.194.194-.194h.387l.388.194H433l.194-.194.387-.387,1.937.194.194.387v.194l.387.387.194.387h.581v-.581l.581-.194.581.194.194.775.581.194-.388.387.194.194v.194l.969.194.775.194.194,1.162h.194l.194.194h.581l.387-.194.194.194.194.194.388.581.387.194h1.356l.581.775h.388l.194-.194v-.194l.194-.387h.194V87.28l.194-.194.194-1.162.969-.581.969-1.162h.194l.387-.775.581-.194,2.906.194.581.387.581.194.387.775v.775l-.194.194-.194.387-.194.969.194,1.356.194.387.775.581.194.194V89.8l.581.387.969.387h.775l.194.194v.194l.581.775v1.356l-.194.387-.581.387v.775l-1.937,3.681V99.1l-.581.969-.581,1.356-1.55,3.1v.194l-.194.387-.194.969-2.131,4.456-1.162,3.1-2.131,4.843-.969,2.325v.387l-.775,1.744-1.356,3.293-.581,1.55-.388.581v.194l-.194.581-.387.581-.194.969-.388.581-.387.194-.581,1.55L439,136.486l-.194.775-.388.969-.581.387-.388.194H435.13l-.194.194-.194.387v.194l.387.387.194.194v1.162l-.387,1.162-.388.194v.387l.581.387h.194l1.162.387,1.744,1.937.388-.194h.194l.387.194.969-.194,1.162.775.581.387v.194l.194.194h.194l.388.194.194.194.387.387.388.775.387.387.388.194.775.581.194.581.387,1.937.387.387.388.387,1.743,1.162.194.387v.969l.775-.194.387-.969v-.387l-.581-.581.194-.387.581-.194-.194-.194v-.387l.194-.387v-.194h-.775V151.6h-.194v-.387l.388-.387h.775l.194.581v.194l.194-.387.387-.581h.194l.388,1.55h.581v-.194l.194-.581h.194l.969-.387v-.387h-.969v-.194l.194-.387v-.387l-.194-.581-.194-.387.194-.194h.194l.581.194.194-.194.194-1.356v-1.356l-.388-.775.194-.194v-.194h.387l.194.194.194-.194h.194v-.581l.194-.194.775.194.194-.387.581-.387v-.775l.388-.387h.194l.194-.194.194-.194v-.969l.194-.194h.194l.194-.194.387.194.194.194v.194l.581.775h.388v.194l.194-.194.194-.194h.387l.194.194.387.387h.387v-.387l-.194-.969.194-.581h.969l.581.387h.581l.581-.387h.775l.387.387h.194l.387-.387h.387l.388.194.387-.387.969-.387.194-.194.194-.194h.387l.194-.194h.388l.194.194h.775V139l.387-.194h.194V139l.194.387v.194l.388.194h.194v-.387h.387l.581.581h.194l.194-.969.388-.387h.387l.775.775h.194v.194l.194.775.194.194.194.387.775-.194h.388v-.194l.387-.194v-.194h.388l.387.194h.194l.775-.387.194-.387.775-.387L479.3,139l.388-.194h.194l.387-.194.194.387.194.194.581-.194.194.387h.388l.387-.387.388-.194h.194l.387-.581h1.356l.581.194.194-.194h.388l.387.581h.388l.194-.194,1.162.194h.581l.387-.194h.387v.194l.388.194h.775l.581.194.194.194,1.356-.194.387.387h.581v.387h.194l.194.194h.387l.581.581-.194.194v.387l-.194.387-.775.387-.388.581-.194,1.744-.775,1.744-.387,1.55v.194l.194.969.388.581.581.775.581.581.387.387,2.325,2.518.969.775,1.162.969.775.581.581.387.581.581.969.387.581.387.581.194h1.744l.775.581,1.162.581.775.387h.194l.387.194.775.194.969.387.969.194h.581l.581.194.581.387.194.581.388.387.387.387.387-.194h.388l.969.969.387.194.581.194,1.162.194h.775l.969.194.581.387,1.162.194.581.194.969,1.356.388.775v.387l-2.325.775-1.162.775-3.487,1.937-.969.194.581,1.937-.194,1.162.194.775-.581,1.356.194,1.162v.581l1.55,1.55-.775,1.162-.194.775-.581.775-.775,1.162-.775.775-.194.387-.388,1.55v.194l.194.387.194.775.194.194.969,1.55.969.969,1.356.969.194.194,2.325,1.55,1.937,1.162.775.387.387.387.388.387.194.581.194.581.194.581-.194.775-.194.775-.388.775-.194.581-.194.387v.387l-.194.775.194,1.744.387.581.388.387.775,1.743.194.387,1.744.969,1.162.969.969.775.581.775.194.775.194.775v.581l-.194.969-.194.387v1.55l.194.581.194.581.194.775v4.262l-.775.775-.969.581-.775.775-.969.581-.581.775-.775.581-.387.581-.194.387v.581l-.194.387-.194.581-.581.581-.387.775-.775.969-.387.775-.581,1.162-.387.775-.581.969-.387.775-.194.581v.969l.387.775v.969h.194l.388.581.775,1.162.581.581.387.969.194.581.194.387v.969l.194.775.581.775.387.775.581.387.194.387,2.906,1.743,1.356,1.356.194.194.969.775,1.162.775,1.937,1.55,1.356.775,3.1,1.55.775.387.194.387,1.162-.969,1.55-1.937,3.1-3.293,4.068-4.649,5.812-6.006.194-.194,1.744-1.937.581-.581,1.356-1.55,1.162-1.55,1.356-1.743.775-1.162,1.55-1.743,1.743-1.55,1.162-.969,1.55-1.55.581-.775.581-.387,2.518-1.744-.194,1.356-.387.775-.388.581v.581l.388.581v.387l-.194.387v.194l-.194.581-.194.194h-.194v.194l.775.775v.387l-.194.581-.387.775-.194.775-.581.581v.194l.581.775v.387h.194l-.387.581h-.194l-.775-.775V231.8h-.194l-.194.387v.387l.388.387.969,1.55.387.581-.194.581-.194.581.194.194h.581l.194.387V238l.387.387.194.194-.194.194-.194.194h-1.162v.581l.387.387v.194l-.194.581v.387l.194.194.194.387v.387l-.194.387-.194.775-.388.387H569l.194.194.194.194h.969l.194.194v.387l-.194.194-.388.387-.581.775v.581l.775.581h.581v.194l.194.387v.194l-.194.581-.581.387v.194l-.194.194.194.581h1.55l.387.194.194.387H572.1l-.387,1.162.194.387.775.194.387.387v.387l-.387.387h-.194v.387l.387.775h1.744l.194-.194h.581l.194.194.194.194v1.55l.194.969-.194,1.55v.581l.388.969v.969l.194.775.194.194.775.581.581.387.388.387-.194.387.387,1.162.194.194.194.194.194.387v.581l.775.387.775.581.194.387.388.387.194.387.387.387.969.775.775,1.744.969.969.194.581.194.387.387.581.194.194.388.194.194.194v.194l.194,1.162v.194l.387,1.162.194.194-.387.581-.194.194-.581.775-1.162,1.937-.194.387-.194.387-.388.387-.387,1.162-.581.775-.581.775h-.194l-.387.194h-1.356l-.388.194-1.744,1.55-.387.194-.581.775-.387,1.162-.194.387v.194l-.194.775-.194.387h-.581l-.388-.194-.581-.387-.581.194-.194.194.194.775v.775h-.194l-.194.387h-.581l-.387-.194H572.1v.194h-.387l-.388.194h-.387l-.387-.581-.388-.775.194-.387v-.969l-.387-.194-.581.194-.387.194h-1.162l-.194.194-.194.581-.387.775-.194.194h-.194l-.775.194-.969.387-.387.194h-.388l-.194-.194-.194-.387v-.581l.387-.387v-.387l-.194-.194V290.3h-.194l-.194-.194h-.581l-.775.387h-.969l-.194.194.194.194v.387l-.194.194-1.162-.194H559.7l-.581.387-.969.581-.969.194-.775.387h-.581l-.775-.969h-.581v.387l-.387.581-.581.581H553.3l-.581-.775-.387-.194h-.775l-.775.581-.581.969-.388.194-.387.194-.388-.387-.194-.581.194-.387.194-.581v-.387l-.969-.387-.194-.775-.194-.194-.581.194-.194.194-.581.387h-.969l-1.162-.387-.581-.194-.387-.194-.388.581h-.194l-.194.194-.388.387h-.581l-.581-.194-.387-.387-.969-.194h-.581l-.775.775H538l-.387-.194-.775-.581-.388-.194h-.581l-.388.194-.581.581-.969.775-.581.194-.194-.194-1.162-.387h-.969l-.194.194-.775.969-.194.194-.194.194h-.387l-.194-.194-.194-.194-.388-.775-.387-.387h-.388l-.387.194h-.581l-.775.581.387,1.162-.194.387-.388.194-.581-.194-.969-.969h-.581l-.969.969-1.162.387-1.162.581-.194.775-.194.194-.387.387-.194.194-.194.194-.775.194-.194.194-.194.194-.775.775-.194.194h-1.743l-.775.581h-2.906l-.388.387v.387h-.194v.194l.194.194.581.387.387.387.194.387v.194l-.194.194-.194.387.388.581.194.387-.194.194-.581.194h-.194l-.194.194v.194l-.194.387.388.775v.194l-.388.387L510.3,306l-.194.194-.194.194-.581.775-.387.581-.387.194-.388-.194-.387-.194-.194-.194v.194H507.2l-.387.387-.388.194-.194.387-.194.387-.194.969-.194.194.387.969v.387l-.194.194-1.162.581-.388,1.937-.194.194-.387.194-.775-.581-.194-.194h-.581v.194h-.387l-.388.387-.387.194-.387.387-.194.194-.387,1.162-1.162.387-.388.194-.387.387-.194.194.194.387.194.387.581.387v.388l-.194.387-.194.194-.387.194-.387.581-.194.387-.194.387-.387.969v.194l-.388.387-.194.194.194,1.356.194.387v.194l.194.387-.194.387h-.775l-.194.194-.388.194-.387.969.194.387v.194l.194.387.775.387-.194.387-.194.194-.388.194H494.8v-.581l-.194.194-.194.194-.581.581-.194.387-.194.387H485.5l-8.911.194h-7.749l-3.487-.194-8.136-1.55-3.681-.969-1.937-.581-11.624-3.293-.969-.194-17.435-4.456-.581.194-.775.387-.969.194h-.194l-.387.194-1.162.775-.775.581h-.775l-.388.387-.194.775-.775.387-.387.581-.387.194-.388.194-.194.194-.387.387v.387l-.194.387-.387.387-.194.194h-.969l-.194.194-.388.194h-1.162l-.387.581.194.387v.194l-.194.194-.775.194-.775.387-.775.581-.387.581h-.775l-.387.387h-.581v-.194l-.969.581-.581.387-.387.194H402l-.581-.387h-.388l-.387.387v.387l-.387.194h-.581l-.581.194-.194.194h-.775l-.387.581h-.969l-.194.194-.194.194v.194h-.194L396,332.73l-.387.194h-.969l-.194.194-.581-.194-.194.387-.388-.387H392.9l-.387-.387h-.194l-.194.194-.194-.194h-.387l-.194.194-.388.194-.969.387-.194-.194-.194-.581-.581.775h-.775l-.581.581v.194l-.194.775-.194.194-1.162,1.162h-.194v.387h-.387v.387l-.194.581-.581,1.162-.581.194-.387.387-.194.194-.388.194-.581-.387h-.388l-.194.194h-.581l-.194.194h-.194l-1.162-.581-.388-.581-.194-.194-.387-.194-.969-.387h-.194l-.388-.775-.387-.194h-.775l-.387-.387h-.581l-.581-.775-.194-.194h-.969v-.194h-.194v-1.356l-.194-.194-.581-.775h-1.162l-1.55.194h-4.649l-3.875-.194h-5.812l-3.681-.194-4.649-.194-2.131-.194-8.718-.194-3.293-.194h-6.393l-.969.387V330.6l-.194-.387-.581-.581.387-5.037v-.581l.388-.581.387-.969v-1.356l.194-2.131v-7.943L328,306.384l.775-1.162.581-.194.581-.581.387-.387.775-.969.969-.387.388-.775.387-.581.387-.581.194-.194,1.162-1.162.387-.387v-.194l.388-1.162V296.7l.194-.581.969-.775.387-.581.194-.194.194-.581.194-.194v-1.55l.581-.775v-.194l.775-1.162.194-.969-.194-.969v-.194l.388-.969.194-.969.194-.969.194-.194.387-.969,2.131-2.325v-.194l.194-.194.775-.775,1.744-.775.387-.581.194-.194.969-1.162.581-.387h.194l.969-.581.775-1.162.194-1.162.194-.969.388-.775.581-.969v-.387l.581-.775,1.937-3.681.387-.775.775-.775.194-.775.194-.581.194-.775.969-.775.969-.969.775-1.55-.194-.387v-.581l.388-1.356.581-1.162.581-1.55L359,253.5l-.581-1.55.775-1.744,1.744-2.325.387-.969.388-2.131.387-.969,1.356-2.131.969-2.906L365,237.8l.581-.581.387-.969.194-1.162.194-.969.194-.969v-.387l.194-.387.194-.387.969-.969,2.518-1.162.581-.194.775-.194.969-.775.581-.775.194-.581.775-.775.581-1.55.194-.194v-.775l.969-2.131.581-6.587.194-4.068.581-.969.194-1.162.194-1.162-.194-1.356-.194-1.356-.581-1.162-.194-3.681-.194-3.487-.775-2.518-.775-4.649v-.581l-.194-.581V188.4l.194-1.162-.194-3.1-.387-2.518-.194-1.55-.194-.969-.194-1.55-.387-1.55-.581-.969v-.387l-.194-.387-.194-.775-.194-2.325v-.387l-.194-.775v-.969l.194-1.162.775-3.487v-2.131l-.194-1.55v-1.162l.194-.775.194-.581v-1.55l.194-.969.581-1.162.194-.194.969-1.162,1.356-1.356.775-1.356.387-.775.388-1.55V145.2l-.388-3.1V139l-.194-1.356-.387-1.55-.775-2.131h-.194l-.388-.969-.581-1.744-.194-.581-2.131-3.487-1.162-2.131-.387-.969-.775-.775-.581-1.356-.775-1.744-.387-.775-.581-1.356v-.387l.388-.775,1.162-1.162,1.55-1.55,1.937-.775.581-.387.581.194,1.356-.194h1.162l.775.775,1.55-.194.969-.194,2.131-1.55,1.356-.581,1.743-.969h.194l.775.387.581.194h.387v.194l.969-.775.194-.387.775-.581v-.387l.581-1.744.969-.194h.194l.581-1.55.194-.194.387-.969.581-.775.387-2.325v-.194l.194-.581V98.71l.194-.581.194-.969v-.194L394.06,96l.581-1.55.581-1.162.387-.387,1.162-1.356,1.744-1.162.775-1.162.581-.969.194-.581V87.28l.194-.387h.194l.581-.387.194-.387.194-.775.969-.194,1.356-.581.581-.775.775-2.131,3.487-3.487.969-.387.775-.775.194-.194h.194v-.194l.194-.194.387-1.356Z" transform="translate(-324.65 -74.05)" fill="#6f9c76" stroke="#fff" stroke-linecap="round" stroke-linejoin="round" stroke-width="0.5"/>
</svg>
