<svg xmlns="http://www.w3.org/2000/svg" width="448.974" height="317.433" viewBox="0 0 448.974 317.433">
  <path id="CDTA" d="M1039.656,855.393l-.387-1.356-1.162-.775h-.581l-.581-.194-.775-.194-1.356-.775-1.162-1.356-.581-1.162-.194-1.937-.194-1.55-1.162-1.356-.387-2.131-.581-1.744-.969-.969.194-1.744V836.02l.581-3.1h.388l.969,1.744.194.775,1.55.194,1.744-.775.388-.581-.969-3.487.194-.969.775-.969h.775l1.55-.581h.969l.969-.775h.581V827.3h.194l.775-1.356.387-1.744-.194-.775.194-.581.581-.969.194-1.356.387-.581.388-.388V818.2l-.194-.581-.194-.581.194-.775v-.387l-.194-.775-.194-1.356-.387-.581v-.194l.581-.387-.194-.194-.194-.387-.581.194-.969.581-.581.194h-.388l-.581-.387-.194-2.131-1.937-3.681-1.356-2.131-.387-1.356h-.387l-.194-.387-.387-.581v-.194l-.581-.194-.581.969-.387.387v.194l-1.744.581-.387.775-.581.387-.194.387-.387.775-.194.194-.969.387h-.969l-.387-.387-.775-1.162v-2.906l-.194-1.356-.194-.194-.581-.194-1.937.581.194-.581.775-1.356-.581-.581-.388.194-.387-.194H1023l-.387-.581-.387-1.744v-.775l.194-.387.194-.194.194-.194v-.387l-.194-.387v-.194l-.194-.387-.194-.194h-.387v.194l-.387.387-.581.194-.387-.388h-.194l-1.356.581-3.487,1.55-.581.194-.969-.387-.969-.388-.969-.969-1.162-.387-.775-.194h-.194l-1.55-.388h-2.325l-1.55,1.55-1.162.775-.581.775-1.162,1.162-.581.581-3.293-.969-.969-.969-1.162-1.937h-.581l-.775.969h-.969v.581h-.581l-.387-.581-.194.194-.194.581-.388.194-.581-.194v.194h-.194l-.194.775h.775l.194.194h.194v.388h.194l.194.387.194.194v.388l-.387.581-.969.775-.194.581.194.194.194.194.194.387v.194H992l-.194.387.194.194h.194l.194.194v.194l-.194.194.387.194-.775.581-.194.194v.581l.387-.194.194.194-.194.194h-.194v.387l.194.194.194,1.162-.387.194-1.162.194-.581-.194-.969.194-.775.194-1.55,1.162-1.356.581-1.356.194-.387-.387.581-.775v-.775l-.969-.194h-1.937l-1.937.194h-.581l-.581-.194-.387-.581-.194-.388-.581-.581-.387-.388-.775-.387-1.937-1.55-.581-.581h-.581v.775h.194l.194.194.194.194-.194.194v.194h-.194v.775h-.581v.387h-.194v.581h-.581v.387l-.194.194v.581l.194.194h-.194v.194h-.387v.387h-.194v.387h.194l-.194.194h.194v.194l-.194.194v.387l-.194.194-.194.194v.194H970.3v.194l.194.194H970.3v.194h-.194l.194.194v.581h-.194v.387h.194l.194.194v.194h-.387v.194l-.387.194v-.194l-.194-.194v.581h.387l-.194.194-.194.194h-.194v-.194h-.194l-.194.194v.387h-.194v.194h.194l.194.194-.387.194v.387l-.387.969-1.162,1.162-1.162.581h-2.131l-1.356.194-1.162-.194-.775-.581-.581-1.937-.581-2.131-.969-.969h-1.937l-.581-.194-.775-.581-.387-.387-.194-.387-1.356-.581-1.162.194-.581-.194h-1.356l.194-1.356,1.162-1.162.969-.969.387-.969v-.969l-1.744-.581-.775-.194-.969-.581.194-.969-.581-1.744-.581-1.744-.775-1.356-.581-.969v-2.131l.581-1.744V790.3l.194-.969-.581-.388-.581-.581-.581-.194L945.894,787l-.775-.581-.194-.194h-.581l-.194-.194-.969-.581v-.194l-.969-.194-.775-.387-1.356-1.162-1.356.194-.969.194v.194l-.194.194-.969-.194h-.581l-.194.194-.581.387-.194.194h-.775l-.387.387-.194.194.194.387-.194.194-.387.388-.194.194-.194.194.194.387.387.194-.194.194v.194h-.581l-.387.581-.194.387-1.937.775h-2.518l-.581.581-.969,2.712-1.744,1.937-.969.969-.969,1.937.388,1.162h1.55l.775.387,1.744.775,1.162.581.775.387.581,2.712,1.162.581,2.325,1.356,1.356.387,1.744.194.775.581,1.356.775.387.969-.387.775v.581l-.969,2.325-1.162,2.325-.775,1.937-1.356,3.1-2.325,1.55-1.356,1.356-.969.581v1.55l-.387,1.937v1.55l.387,1.937.775,1.356.194,1.356v.194l-.775,1.356-.969.581-1.162.775-1.55,1.55-3.293,2.906-1.744,1.356-.969.969-1.356,1.356-.775.969-1.356.194-1.55.194-.775-.388-.194-1.162v-1.356l-2.131-.388h-.581l-1.162.581-1.55,1.744-1.55.387-.194.194-.194.194-.581,1.356-.969,1.162-.387.775-2.712,1.744-1.55.194-.581.387-.581.969-.387.581h-.388l-.969-.387-1.55-1.162-.388.581.969,1.356,1.55,3.681-.775.194-.581.388-.387.194h-.387l-.388.194-.581-.581h-1.162l-.387-.194-.775-.387-.969-1.356-1.162-.969H890.1l-.194-.194-.775-.194-.387-.775-.387-.194h-.194v-.969l.194-.387L887.777,849l-.387-.969.194-.194.581-.969.194-.194.194-.775v-.581l.194-.775-.194-.387v-.194l-.387-.387.194-.775V842.6l-.387-1.356.194-.194.387-.581-.194-.581h-.581L887,841.247V842.6l-.388.581-.775.775-4.068-.775h-.387l-.581-.388-.387-.581-.194-.775-.775-.194-.194.387-.581.194-.387.194h-.194l-1.162-.387-.969-.194-1.744.194v-1.162l.387-.581.194-1.937v-2.518l-.581.194-.581.194-.775,1.162-.969.775-.581,1.162-.581.388-.581.581-.194.388-.194.387-.775,2.518-.194.581-.969.775-1.162.775-.775-.387.969-2.131.581-1.744-.194-.581h-.969l-1.162.969-1.162.387.775-1.55,1.937-2.325,3.487-2.712.387-.194,2.325-1.356,1.744-1.55,1.356-2.131-.387-.194-1.55.387-1.55.581-1.356.387-2.518.194-.387.194h-.581l-1.162-.775h-.387l-.388.194-1.356.969-.775.969-.194.194-.581-.775v-1.162l.969-.969.388-.581h.581l.194-.388.387-.581.194-1.162.581-.775,1.937-1.55.775-.775.581-.194.581-1.162.969-1.162.969-1.744.581-.775.969-1.744.194-.387.581-1.55.194-.194h.194l.387-.969V813.35l.388-.387v-.387l.194-.194.581-1.162-.194-.969v-.581l-.387-1.356-1.55-.388-2.131-.387-.194-.387.194-.775v-.194l-.194-.194v-.775l.194-.194v-.387l-.581-.194-1.162-.387-.581.775-.775,1.162-2.518.775-1.162.581h-.969l-1.55-.387h-.387l-.969-.775-1.162-1.162-3.681-4.456-.581-1.162-.387-.775V796.5l-.194-2.518.387-2.906.969-1.162,2.906-1.744-.387-.194-.194-.194-.194-.387-.387-1.162-.775-.775-.194-.194-1.162-1.55-.581-.581-.387-.194-.194-.387-.194-1.55-.387-.387-.388-.388v-.387l-.581-.194-1.356-.388-.194-.194-.387-1.162-.194-.194,1.162-2.325v-.775l-.388-.581-.775-.775-.969-.775-2.131-.387-2.131-1.356-.775-.194-.969-.194-.387.194-.581.194.194,1.744.194.969-.581.388-1.162.387-1.937.387-1.937.581v-2.325l.194-.387-.194-.581.194-.194.194-.581v-.194l-.194-.387v-.387l-.387-.581h-.775l-.194.387h-.194l-.387.194h-.388l-.194.194-.387.194v.194l-.581.581-.387.581-.581.194-.387.194h-.387l-.581.581-1.162.387-.387.387-.194.194-.194.194-.388.775-.194.969-1.937-.194-1.356.194-.969.194h-2.131l-.194-.194-.387-.388.194-.387-.194-.387-.387-.194-.581-.387-.194-.387v-.387l-.194-.194-.387-.387-.387-.775-.388-.194h-.581l-.775-.387v-.194l-.194-.387-.581.969-.387,1.55-.388,1.744v1.356l.581,1.356-.387,1.356-.194,1.55.194,1.356.387.387-.969.387h-2.325l-4.649.775-1.744.387-3.1.775-3.1-.581-2.325.194-2.906.581-1.55-.194-.969-.194-1.356-.775v1.162l-.387-.194h-.969l-.581.194-.969.387-1.55-.387h-1.937l-1.356-.387-.581-.194-.775-.194h-2.518l-.581-.194h-1.356l.581-2.712.775-.969.387-.581-.194-.388-1.356-.194-.194-.581v-1.55l-.388-.581-.969-.581-.775-.387-.969-.194-.969.194-.969.969-.775.387h-.775l-2.325-1.744-1.162-.775-.194.387.387.581-.194.387-.581.581-.194.194h-.387l-.387.388-.581-.194H766.7l-.581.581-.775-.969-.194-.388v-2.712l-.194-.194h-1.744l-.388-.387-.387-.387h-.775l-.969-.775-.581-.387-.775-.581-.194-.387-.194-.194-.194-.194-.387-.387-.581-.194h-1.937l-.387-.194h-.194l-.387-.194-.194-.194-.194-.194-.194-.194-.194-.581-.194-.581v-.969l-.194-.969v-.194l-.194-.194-.194-.194v-.194h-.387l-.194-.194-.581-.387h-1.356l-.387.194-.387.194-.194.387-.194.387v.387h-.194l-.194.194v.387l-.194.194h-.387l-.581-2.906-.387-1.744-.581-.969-.581-.581-.388-.388-.969-.387h-.581l-.581.387v1.162l.581,1.162.775,1.162.194.775-.388.775-.969.194h-.581l-.581-1.55-1.356-2.906h-.775l-1.356.387-1.356-3.293-.581-1.162v-.194l.581-.969.581-1.162L739,753.1h.194l.194-.581v-.581l.581-1.162.194-.194.387-.194V750.2l-.194-.194h-.388V748.26l.388-.387v-.581l-.194-.581.194-.194.194-.388.194-.387v-.581l.775-1.937,1.162-2.712,4.649-.775,1.162-.775v-.969l.581-1.55.387-1.162-.194-1.162.581-2.712-.969-.387-.581-.194-.969-.581-1.356-.387-.387-.387-.387-.194-.581-.194h-.775l-.387.194-.194.194v.387l-1.162.581h-.969l-.969-.194h-1.55l-2.131-.581-2.325-2.131-1.55-.775-.969,2.325-.775.581h-.775l-.775-.194-1.55-.581-.969-.387-.775-1.55-.194-.969-.581-.969-.194-.387-.194-.194.194-.581.194-.194.194-.581v-1.937l-.194-.775h-3.875l-2.325,1.744h-3.875l-.581-.194-.775-1.162.387-.581.388-.581.581-.387.388-.775v-.581l-.388-.581-1.744-.194-1.55-.194-1.937-.581-.969-.969-.387-.969.775-.775,2.131-.387.581-.194.581-.969-.194-.969.775-.581.581-1.55v-.969l1.744.387h1.937v-1.744h-.775l-.387-.387-.775.194-.581-.194-.581-.194h-.775l-.581-2.325-2.325-.387-2.131-.775-.387-.775v-.387l.194-1.356-.388-.969-1.937-.194-.387-.969.581-1.744.194-1.162.194-1.55-.581-.775-.969-1.937-.775-.969-.581-.775-1.744-.194h-1.162l-1.744-.194v-.969l.194-1.162-.194-1.55-.387-.581,1.162-.969.581-.775v-1.744L699.864,676l.194-.387,1.55.194h2.131v-.581l-.387-1.162.387-1.356.387-.581.581.194.581.387.775.581,1.356-.194,1.55-.969.969-.581.388-.775.387-2.131.387-.775,2.906-4.262.775-1.162,1.162-2.131,1.55-3.487.775-1.55,1.937-.969,2.518-1.744.969-1.744.581-1.162.581-1.162.387-1.356v-.581l-1.744-2.518-.775-.969-.387-1.162.194-1.162.581-.775.969-.775h1.356l1.356-.194,1.937-2.906-3.1.194-.969-.194-.775-.775-1.55-.969-.387-.194V632.8l.387-.581,1.55-.387.775-.581.387-.387-.969-2.131-.775-1.356-.387-.387-.775.194-.581-.581-.387-3.1.387-2.712.775-1.162,1.744-.969.194-.775v-1.356l-.387-.775-.581-.775-.775-.969-.387-1.744v-1.55l-.775-.388-.387-.194-.388-.194-.194-.194-.387-.388h-.775L717.3,608l-.775-.775.194-1.162.194-1.744-.581-.969-1.55-2.131.388-.775.775-1.55v-.969l.194-1.356.581-.775.388-.194.581.194h1.162l.194-.194.194-.387.387-.969.388-.581.969-.775.387-.969-.194-.387h-1.162l-.969-1.356v-1.937l-1.356-1.356v-.969l-.194-2.131-.194-1.55.194-1.356-.969-1.937-.581-1.744-.387-2.131-.387-2.518.194-.387v-.387l.194-.194.387-.581.581-.581.387-.194v-.581h.194l.387-.581v-.775l.387-1.356h.194l.194-1.744.387-.969v-.194l.388-.194.387-.387.194-.194h.194l.581-.387h.194v-.194h.194v-.194h.387l.194-.194.387-.387.194-.194v-.194l.387-.581.387-.969.387-.775.194-.581.194-.969-.194-.581v-.581l-.194-.387-.194-.387V555.5l.194-2.325-.194-.387-.194-.387v-.194l.387-1.55.388-1.937v-.387l.194-.194v-.194l2.131-1.937,2.518-2.325.194-.194.387-.581.388-.775.194-.387h.194l.194-.969.194-.581H794.4l11.042.194,1.744.194,14.529.387h5.231l.775.194h7.555l11.43.387h1.356l4.262.194h.581l2.131-.387,1.162.194,3.293-.387,17.048.194,10.461.194h11.236l17.823.387H927.1l17.048-.387,19.373-.387h.194l15.5-.194h36.808l.194.775,1.356,3.875.387.969.775,2.131.775,2.906,1.744,5.037.969,2.325,2.518,6.2.969,2.325,1.744,3.875.581.581,1.937,5.231.387.969.194.387,1.937,5.618.775,2.518.194.581.388.581.194,1.356.194.581.581,1.937,1.162,5.812.775,3.1.194.969.581,8.137.194,1.55v.969l-.194,2.906-.387,4.262-.969,4.456-.775,3.487-.387,1.937v12.98l.194,4.068v.775l.969,6.005.387,3.1.775,2.518.775,2.131.194.194.775,1.744.194,1.356,2.518,5.812.388,1.162.775,1.162,2.325,3.681,1.937,2.906.387.581,3.1,4.649,2.518,3.1,1.55,2.131,3.293,3.1,1.162.969,6.005,5.037,7.362,5.231,3.487,2.712,6.587,5.037.387.387,3.487,3.681,2.325,2.712,3.293,5.424,7.362,11.43,1.162,3.1,1.55,4.456,1.744,3.681,4.65,6.393,2.131,6.393,2.325,5.424,2.712,5.618,2.325,5.037,3.293,6.587,2.518,5.812,1.937,4.843,1.162,3.1,2.906,7.943,2.906,11.236,4.262,5.618,4.843,8.136,2.712,7.555,2.518,7.943-21.116,2.325h-.194l-86.208,9.105Z" transform="translate(-698.452 -539.949)" fill="#1876d2" stroke="#fff" stroke-linecap="round" stroke-linejoin="round" stroke-width="0.5"/>
</svg>
