<svg xmlns="http://www.w3.org/2000/svg" width="545.249" height="416.431" viewBox="0 0 545.249 416.431">
  <path id="CDTO" d="M645.64,187.8l-.194,1.743.581,2.131.387,1.356.194.194h.194v1.356l.969,1.55.969,1.55v.387l-.194.194v.581l.775,2.131-.194.387-.387.775-.387,1.937v.969l-.194.775-.581.969h1.744l.581-.194.387.194h3.1l.775.194,1.356.775h.581l1.162.387,1.162,1.162h.581l.387.194.969.969.969.581.387.194.969.581.775.775.775.194,1.162.194h1.162l.387-.194,1.937-.194h3.875l.775.194v.194l.775.387.387.775.194.194.194.969.387.387.387.581.387.387h.581l.194.194.581.194v.194l.969-.194,1.55.387,1.162-.194h.194v-.194l.194-.581v-.194l.387-.387.388-.581.194-1.162.387-.194.388-.194H684l.388-.387.775-.387.969-.387,1.162.387h.775l.387-.581.387-.387h.194l.387-.194H690l.387.194.969-.581.969-.775.581-.581-.775-.775-.775-.581-.775-.581-.194-.775V206.2l.581-.581.194-.194-.775-.194.194-.194.581-.387.775-.194.969.387.775.387.969.194.969-.387,1.744-.387,1.744-.194.775-.387h.969l2.131-.775.775-.775v-.775l.775-.775.387-.581L705.7,200h1.162l1.55.194.969.194h.775l.775-.387,1.162-.581.969-.581.581-.387h.775l1.162.387.581.194.969,1.356.387.969.387.581.775.387.581-.194,1.744-.969,1.744-.775h1.55l1.356-.969.581-.581.194-.387.775-.194,2.906.194,7.943.387.969.194,10.461.387,3.681.194,8.136.387h3.1l.194-.194v-.194l-.194-.581.194-.581.387-.194.194.387.387.194.387.194.194.387v.194l-.194.387.194.194.775.775v.194l.388.775.387.194v.194l.387-.194.194-.775h.194l.194-.194.581-.387.387-.194h.194v-.194l.194-.387.387-.194.775.581h.775l.581-.387v-.194l.194.194.194.775-.194.387v.387h.581l.194-.194.194-.194v-.775h.387l.581.581.194.194.387-.581.387-.194h.581l.194.194.194.194.581-.194h.775v-.194l.194-.387h.194v-.194l.194.194.194.194.194.581.387.194v-.581l.387-.194.194.194.194.387.194.387.194.194.194-.194.194-.194v-.194h.194l.388.775.387-.194v-.387l.194-.194.194-.194.194.194h.581l.194.194.387,1.356.194.194.969.969.194.194h.387l.194.194.194.194h.194l.194.194v.775h.969l.581-.194.387-.969.194-.581h.194V203.1h.194v-.581h.194v-.969l.194-.194.194-.387.775-.194.387-.387.388-.194.387-.194.387-.194.775-.775.194-.194h.194v-.581l.194-.194v-.387l.194-.194h.194l.194-.194h.194l.194-.387.194-.194.581-.194.387-.387,1.744-.194,3.487,1.743h1.356l1.744.969h.194l.388-.194h.194l.387-.194.775-.194h.194l.581.194.194.194.387.387.581.194h.775l.581.387v.387l.387.581.194.194v.581l.387.387.194.194v.194l.969.387.581.194.581.387.387.194.194.194.194.387,1.356.194v.194h.194l.194.194.969.194h.194v.387l-.194.194.194.194.387.194h.581l.969.581h1.356l.387-.194h.194l.387.194h.194v-.194h.775l.581.194h.969l.775.194h.194l.775.194.387.387.194.194.387.775.194.194.194.194h.194l.194.194h.775l.581.194.194-.194h.194l.775-.194h.969l.388.194.969-.194h.194l.194-.194.387.194H832l.194.194h.581l.388.581,1.55-.581h1.744l1.55-.387,1.937-1.162,1.162-.775,1.162-.775,1.356-1.162.775-.387,1.162-.194.969-1.356.969-1.55,1.356-.581,1.356-.969,1.356-.387.387.387.969.969h1.744l.969.194,1.356.775,1.356.194,1.356-.387,1.356,2.131.581,1.356.581.194h.969l1.937,1.162h.387l.775-.387.194-.387-.194-.387.387-.775.194-.581.387-.387.194-.387h.194v-.581l.388-1.162.581-1.162,1.937-.581h1.356l1.162-.775h1.356l1.162.387h.194l1.744.194.969-.387h.581l.775-.387.194-.387-.194-.387v-.387l1.162-.969.194-.194.969-.194.775-.775.387-.194.194-.194h.387l.775-.194.581.581h.387l1.356.969h.194l.194-.387.194-.581.775-.387.775-.969.387-.387h.969l1.162-.194h.387l.969-.387.581-.775.775-.581h2.712l1.55-.194.969,4.262v1.162l-.775.969-.581,2.325v1.937l1.55.969v1.162l-.194.969-.969.581.775,6.974v1.55H900v.969h.194l.194.775.387.194.194.194v.581l1.356,1.743,1.162.581,2.712.387,2.518-.581.775-1.937.969-.581,1.162-.969,1.356-.969.194-.194.775.194.387,1.162.194,1.356.387,1.937.194.581v.581l.775.581,5.618-.387.969-.194h.775l1.55-1.356.387-2.518-.387-.581-.194-.969.387-.581,1.162-.387.581.194.581.775-.194,1.356,1.55-.581,1.162-.969.775-.775,3.875-3.875,1.356-.969,1.356-.969.581-.387.387-.387h.581l.387-.194.775.194h.581l.388,1.356-.194.969.194.969.581.581.775.194.581.969.387.775.775.194.581-.194.581-1.356.581-.581h.969l.775.194.775.387.388-.194h.194l.387-.581.388-.969v-.969l.387.194h.194l.581.194.387.969.581.775.194.194v1.162l.194.194h.581l-.194.581.387.194h.194l.388.775h.387v.194l.387.969.387.969.194-.194h.194l.194.387-.194.194v.387h.194l.194.581-.194.194v.387l-.387.194.194.775.388.194v.194h.387v.387l-.194.194.387.581v.194l-.194.194.194.387v.194l.194.775-.194.581v.194l.194.194-.387.194v.581l.194.194v.194l.194.194v.194l.194.194.194.194h.581l.194.387v.194h.387l.194.387h.387l.194.387.388.194.387.775.387.194.387.194.194.194v.194l-.194.387v.194h1.55l.775.969.581-.194,1.356-.581v.387h.194v.387l.194.194.194.194h.775l.387,1.55.581.194.581.581,1.162.581.194.194,1.356-.387h.581l.775-.194.194-.194h.387l2.325.969.387.387.194.387h.581l.387-.387.581-.194h.194l.775-.194h.194l.775.194.581-.194.581-.581h1.55l.387-.969h.194l.387-.775-.194-.194.581-.581v-.581l-.194-.775.194-.387.387-.194,1.356.194.194-.387-.194-.581v-.387l.581-.387-.194-.387-.581-.387-.194-.775-.194-.387v-.194l-.194-.387h-.194l-.388-.194-.194-.194v-.969l.194-.387.194-.194,1.162-.387.387-.194.387-.581.194-.194v-.775h1.162l.581.581,1.356,1.162.581.581,1.937-1.356,1.162.775.194,1.356.387.194,1.162.775.969.775.194.581v.969l-.194.581v.969l.775.387,1.162.969.387.775v1.162l.969,1.55.775.775.581.775.194.775-.775.969-.581.194h-.969l-.969-.194h-.775l-1.356-.194,1.356,1.55v.387l-.581.194-.387.581-.194.581v.387l.194.775.387.775.194.775.194.387.581.387v.387l.194.775v.194l-.194.387-.194-.194-.194.194-.194.387h-.194l-.194.194-1.162-.194-.581.581-.581.969-.775.581-.581.775v.194h-.194v.581h-.388l-.581.969v.387l.194.194v.969l-.194.775-.194.194-.194-.194-.387.194v.581l-.194.387.194.387v.194l-.969.775v1.162l-.194.775-.194.194v.775l-.194.387.194.387v.194l.194.194-.775.775H986.4l-.387.194h-.194l-.775-.387h-.387l-.194-.194v-.775l-.194-.387-.387.194-.581.969-.194.194h-.194l-.387.194h-.581l-.194-.581h-.387l.194.969v.387l-.194.387h-.775v.194H980.2l-.387.387-.194.194,1.356.387,1.55.387.969.194.387.194,3.293.387.775.194.388.194.387.194.194.194h1.356l.775-.194.194-.194.194-.387.387-.194h.194l1.356-.194.581-.194h.194l1.162.387.581.387-.194.387v.775l.194.194.387.387.775-.194,1.356.194,1.937-.775,1.162.194.969.775.194.387.194.194v.194l.194.387v1.356l.194.194.387.775.581,1.55.387.194.387.581.775.581.194.387v.387l-.194.775.194,1.162v.387l.194.581v.387l.194.387.387.387v.194l.194.194.194.194v.194l.194.581.194.387.194.194v.194h.387l.194.194h.969l.194.194.194.387,1.162,1.937H1011l.775.775,1.162.581.775.969.194.194.194.194.194.387v1.162l.194.194h.194v.194l.194-.194h2.131v-.387l.775-1.162.194-.387.194-.194.194.194h.194l.387.194.194.969.194.387h.194v.194h.387l.194.194h1.162l.387-.387h1.356l.969-.581h.581l1.744.194.969,1.162.387.194.969.194.581.581.194.194.388.194h1.162l.387.775.775.387.387.194h.194l.387-.194.775.581-.581,1.937-1.162,2.325.387,1.162.387.387.969.969-.387.775-2.131.775v1.55l1.356,4.262-.388.387-2.518,2.131-.194,1.162.387.969-.194.581.194,2.131v.194h.581l.581-.581h.387l.969.775.194.194.194.387.969-.581h.387l.775.387h.969l.194-.194h1.55l.194.194.387.775h.194l.194.194.581.387h.194l.387.387.194.194.194.194.775-.194v-.194l.194-.387.581-.194.581-.194h.775l.969.194.387.194.581.194h.194l.387-.194h1.356l.775.387.194.387-.775,1.937-.581,1.162-4.068,5.424.775,1.356.581-.387.581.387.775.581.581-.194.388-.387.194-.194.194.194.194.387.581.387,1.356.194h.581l.194-.387.387-.194.775-.387.387-.387.387-.581h.775l.194.194.194.581.194.194h.581l.581-.194-.581.969-.775.969-2.131,4.262-.775,1.744L1048,336v1.162l.194,1.162.775.194-.387.581-.775.775.387.581,2.518,3.293,1.937,2.325,2.131,2.906.775,1.162-.775.194v.194l-.581.581-.194.387-.775.775-.387.194-.581-.194h-.581l-.581-.775h-1.356l-1.356.775-1.744,1.356-.581.969-1.162,1.356-.194.194-.775.969h-1.55l-1.162.194-.775.194-1.162.387-1.162.775-.969.194-.581.387-1.162.581-.387.194,1.162.775h.194l.387.194h.194l.387.581.387.194.388.581.387.194.387.194.387.581.194.194.194.194h.388l.387.194h.969l.581.194.969.388h.387l.581-.194.581-.775h.194l.194.387.194.581h.775l.194-.388.194-.581h.387l.194.387h.581l.194.388.194.194.581.194,1.162-.194.581.581h.194l.387.194,1.356.194h.194l.581-.194,1.356-.194.387.388.387.969h.387l.775-.388h.194l.194.581v.581l.194.387-.581.775.194.194h.581l.387.581.581.194h.387l.387,1.55v.388l-.581-.194-.388.387h-.387l-.194.194.775.581v.194l.194.387-.581.969.194.194.775-.388.581.194.194.388v2.325l-.194.969.581.775v.194l-.581.388v.775l-.194.969.194.388.194.581.387.969.581.581v.194l-.194.388v.387l.194.387h.194l.387-.194.194.194v.581l.194.387.387.581.388.194h.775l.387.969.194.194h.387l.194.194.387-.388.581.194.775.388.581.775v.387l-.581.581v1.55l-.775.581.194.194.969-.194.581.387.194.194,1.162,2.131.194.581-.194.581-1.162.581-.194.387.194.194-.387.387h-.581l-.194.388.194.387-.194.388-2.131.775-.194.388.387.387v.388l-.581.969v.387l.581.969v.581l-.387,1.356-.387.581v.387l.387.387v.581l-.581.387.194.388.387.387v.194l-.194.388v.387l-.775.775.581,1.356.194.581.387,1.356-.194.775v.194l.581.581.194,2.131.581,1.744-.387.969v.194l.581,2.131v1.744l.775,1.55.387,1.55.581,1.162.387,2.518.194.388v.969l.194.387v.194l.581.581.194.387-.194.581v.194l-.194.194-.387.194-.581.581-.194.194h-.387l-1.356-.194h-.581l-.581.581-.581.194-.387.775h-.775l-.194.194-.387.387-.387.388-.388.387h-3.487l-.581.194-1.744.581-1.356.969-.387,1.162-.387,1.744-.194.194-1.356,1.356-.581.194-1.162.969-.194.194v.387l-.194.581-.387.581.581.775.775,1.55,1.162,1.162.194,1.162.194.388.387.775-.194,1.55.194,2.325v.969l-.387.581-.387.775v.581l-.775.581-.969-.194-.388.194-.581.388-.194.581-.194.775v.581l-2.325.775-.775.969-1.55.194h-4.068l-16.66-.194-.969-.388-.969-.194h-.194l-.194-.194-.581-.581-.775-.775h-1.356l-.387.194-.581-.969-1.744-.581-.581-.387-.194-.388-.194-.581-.388-.194-.194-.581h-.387l-.194.194h-.581l-.581-.387-.194.194-.387.194h-.775l-.775.581-1.744-1.162-.194-.775-.194-1.356.194-.969-.194-.194-.581-.194h-1.55l-1.162.194-.387.387-.387.194h-.194l-.194.194-1.162.969h-.775l-.581.387h-.388l-.775-.194-.775-.194-.581.387h-.775l-.775-.387-.581.194h-.969l-.775-.775v-.775l-.194-1.55-.194-.388h-.194l-.387-.387-.387-.194-.388.194h-.581l-.388-.775h-1.162l-.775-1.162-1.356-.194-.194.194-.388.194h-.387l-.194-.194h-.969l-.388.194-.194-.194-.387-.388-1.356.194h-.581l-.388-.194h-3.1l-1.55-.581-3.293-1.55h-.387l-.194-.194-.387-.194-.775-1.356v-.387l-.194-.969-.194-.194h-.387l-.775-.194-.194.194H970.9v.194h-.194l-.194-.194h-.387l-.387-.194-.581.194v-.194h-.194l-.387-.388-.194-.194-.194-.581v-.969l.194-.775v-.388l-.387-.194v-.194l-.581-.194.775-.775v-.581l-.969-.775-.387-.387-.775-.775h-.969l-.387-.387h-.387l-.581-.581-1.162-.969-.194-.387.194-.581v-.387h-.194l-.581-.194-.775.387-.775-.194-.387-.775-.194.387h-.194l-.194.194-.194-.194h-.969l-.581-.194-.388-.581-.194-.194h-.581l-.387-.194h-.194l-.194-.194-.388-.387-.194-.194v-.194h-.387l-.388-.194-1.356-1.356h-.194l-.388.775-.194.388h-.387l-.388-.194v-.581l-.194-.194-.969-.581-.194-.194-.194-.194-.969-.581-.387-.387v.194h-.194l-.388.194h-.387v-.775l-.969.194H946.3l-.388.387v.387l-.194.194.194.775.194.775.194.194.581.388.775.387v.388l-.581.775-.194.194-.775.194-.194.194h-.387l-.775.194h-.194l-.194-.194-.775-.775H943.2l-.387-.387h-.387l-.388.194-.969.387-1.937,1.356-.581,1.356-.388.388-1.55.969-1.162.969-.581.194-.969.387-1.162.194-1.937.581-4.456,2.712-.194-.388h-.387l-.581.388-1.162.387-.969.581-1.162.775-.775.194h-.775l-1.162-.194-1.356.581h-.969l-.775-.194h-.194l-.581-.194-.194.194-.387.194-1.937.194-.194-.194h-.969v-.194h-.194l-.194-.581-.387-.581-.581-1.937-.194-.194-.194-.194-.194-.194-.194-.194-.194-.194v-.775H909.1v-.387l.194-.194-.194-.194-.387-.194-.581.194h-.194l-.194-.194-.775-.387-.194-.581-.581.194-.969-.387h-.194l-.387-.194v-.194l-.194-.387-.581-.969h-.194l-.194-.194v-.581l-.581-.387-.775-.388v-.194l-.969-.581-.775.581-.194-.194-.581-.581-.194-.194v-.194l-.387-1.356v-.969l-.194-.194-.194-.194v-.194h-.194l-.194-.194-.194-.969-.194-.194.194-.581-.194-.194-.581-.775-.581.387-.775.194h-.387l-.387.194h-.581l-.194-.388-.194-.775V425.5l-.194-.194-.194-.194h-.194l-.387-.194-.194-.969-.194-.194v-.194h-.969l-.581-.581v-.194l-.581-.581-.387-.775h-.388l-.194.387-.194.194h-.194l-.194-.194v-.969h-.194l-.194.194-.387.194-.775-.194h-.387v-.194l.387-.969v-.194l-.194-.194v-.775h-.194l-.194.194-.194.194h-.581l-.387-.969-.194-.194-.194-.387h-.387v.194l-.387.194-1.356-.581h-.775l.194-.969-.387-.388-.387-.194-.194.969h-.969V416.2l-.581.194-.581-.581h-.775l-.387-.969-.194-.387v-.581l-.387-.387-.969.194-.194-.194.388-.388h.194v-.194l.387-.387v-.194l.194-.581h-.387l-.387.387-.388.194-.194-.194h-.969l-.194-.194v-.194h.581l.194-.388v-.387l-.388-.387h-.194l-.194-.388h-.775l.194.775-.194.581-.387.581h-.387l-.775.388-.581.775.194,1.162,1.162,2.325,1.55,6.974.194.194.194.387.387.969.194.387v.388l.388.581.194.388.194.194.775.969.387.387.194.388.194.194.387.387h.387l.581.194.581.775.387.194.969,1.744.581.581,1.356.775h.194l.388.581.775.581-.581,1.162-.775.775-.194.581-.194.387-.194.581-.194.387-.581.581L881.6,441l-.194.388-.387.194-.194.194-.775.775-.581.581,1.356,1.744,1.356,1.162,1.356,1.162,3.293,1.937,7.749,5.618.194.581-.581,1.937-.969,4.843v4.068l-.194.194-.387,1.162-.969,1.162-.388,1.162v.194l-.581.388.581,1.744.194,2.325-.194,5.812.775,4.262v.581l.387,1.162.387.388.581.969-1.55,3.681-1.356,1.55-1.744.969-2.325.581-1.356.194-.581.194-1.356,1.162-.194.388-1.937.387h-1.162l-3.681.775.969,11.817,2.131,1.162L881.6,511.9l.775,1.356-.775.775-1.937.581h-2.131l-.581.775-.581,3.293-1.356,4.456-.194,1.937,1.937.388.194.969v.581l-.581.194h-.194v.194l-.388.194v1.162l-.194.775v.387l.387,1.356-.387,1.744.194,2.906v.581l-.194.969H875.4l-.194.194h-.969l-1.937-.194-.388.194-.194.194-.194.194h-.194l-.194.581v.387l.775,1.162h.194l.581.581.387.969v.194l-.387.969v.387h-.194l-.387.388-.581.194-.387.194h-.194l-.194.194v.775l.194.194V546l-1.55,1.162-.775.194h-.775l-2.325-.775-1.356.194h-.775l-.387-.194-.194-.194v-1.162l-.775-.775-1.744-.775-.387-.388-.387-.387v-.194l-.194-.581v-1.162l-.969-.581-.969-.969-.387-.194-.387-.194v2.325l.194,1.356.387,1.162-.194.581-.194.775-.581,1.162v.194l-.194,1.162.194,1.356.194.775.387,2.906.388,1.744.194,5.424-.194.388v.387l-.388.775v1.356l-1.162,2.712-.194.581v.387l.387,5.231-.194,1.162-.387,2.518-.194,2.518h-1.937l-.775.388-.388.194-.775.194h-1.162l-.194-.194-.775-.969-.581-.581-.581-.387H847.5l-.194-.194-1.55.194-1.162.194h-.969l-.581.387-1.356,1.356-.388.194-1.55.775-.194.194-.194.194-.194,1.937-.388.581-.581.387-.388.581-.969.387-.581.194-.194.194-.387.194H835.1l-.387.194-.969.581-.387.387-.388.387-.194.194h-.194l-2.712.194-.581.387H828.9l-.387.194-.388.388-.387.387-.969.969v.194h-.194l-1.55.388-.194.194-.581.194-.775.194h-.194l-.387.194-.194.194-.388.387-.969.969-.387.581-.194.194-.194.387-1.162,1.162-.775.388-.775.969h-.194l-.775,1.162v.387l-.388.969-.387.581-8.524,2.518-2.906.969-5.231,1.937-.775-3.487-1.937.969-.969.194-1.55-.387-.775-.581v-.775l-.387-.581.581-.969.581-.581.581-.387.581-.388.581-.387.581-.581-.194-.581-.775-.581-.194-.387.387-1.162v-.388l-.387-.969-.775-.194-2.518.387h-2.325l-1.55-.775-2.906-.194-1.744.194-1.162.387-.581-.969-1.937-.194H779.5l-2.131.387h-.194l-.775.194-.581.194-.387.194-.194.194H740.177l-2.325-3.487-3.681-2.906-1.55-.775-1.162-3.681-1.356-4.068-1.55-3.487-1.744-4.068-.775-1.937-1.937-4.456-1.744-1.356.387-2.518-1.162-10.655L720.611,540l-1.55-2.712-.775-6.2h-8.718l-12.98-.194-4.843-1.356v-.194l-.388.388-.775.775-1.162.775-2.131.388-.387.194h-.194l-.387.387-.387.388-.194.387-.194.388-.581.194h-2.518l-.194.387-.387.387-.194.388-.194.194-.387.194-.194.388-.387.194-1.55.194-2.325-3.681-.387-1.744-.581-.775-.775-.194-2.325-1.162-1.356-.775-.775-.775-.194-1.937-.194-1.162-1.356-.775-1.744-2.131v-2.131l-.387-.387-2.906-1.162-.969-.388-.194-.194-1.55-.775h-.969L657.65,515l-2.325-.194-1.744.388-.775-.388-.194-.969,1.162-3.293.969-2.518-.581-2.712-2.518-3.293h-2.518l-2.712-.194-1.937-.969-2.131-.581-2.518-.581-1.162-.969-2.518-1.937-2.906-2.518-1.356-.969-1.937-1.356-1.55-.387-1.55-2.712-1.162-1.356-.387-.194-.775-.775L621.23,484.4l-.387-.775-.387-1.937L619.1,481.1l-.194-.194-2.518-1.937.194-.775,1.937-.581,1.744.194,1.162.969v-.194h.194l.194-.581.581-.387.194-.581v-.775l.387-.969.194-1.55.387-1.162.387-.194.969-.581,1.162-.387.969-.387.969-.194.194-.194h.194l.194-.194.387-1.162.581-.581h2.712l1.162-.581,1.55-.581,1.162-.387.775-.194,1.744-.581,1.937-.388,1.55-.581.387-1.744-.969-.775-1.744-.969-.581-.581-1.744-1.356-.969-.969-.775-2.325-.775-2.518-.194-3.681-.775-.387-.387-.387-.969-.969-.775-1.356-.387-.387H631.3l-.581-.388-1.162.194-2.518,1.162-1.356-.194-.194.194-.387.194-.775.581-.387.194-.388.194-.387.194h-1.744l-1.937.969-.775.194-3.293.581-2.712,1.55-.969.969-.387.581-.581.581-.387.194-1.162.581-1.744,1.55-3.1,1.162-.387.581h-.194l-.194.194-.194.194v.194l-.775.775-.581.194-.194-.969v-.581l.194-.194.775-1.55v-1.162l.581-1.162v-.969l.387-1.937.581-.969.387-.581-.194-.969.388-1.162v-.194l.387-1.162-2.325-.388-1.55-.194h-1.937l-2.325-.194h-9.493l.387-.581,1.55-1.937.969-.775.194-.194.194-.194.388-.775.775-.387.581-.969.581-.388.194-.194v-.194l.194-.194,1.162-.775v-.194l.194-.194h.387l.194-.194.775-.387.194-.194.387-.194.194-.194.581-.581h.387l1.356-1.162h.194l.969-.775,2.906.775,1.937.387,2.325-.194h2.712l7.749.775v-.969l.194-.194.194-.194.775-.194.194-.387h.194l1.162-1.937,1.162-1.55.194-.194.387-.581.194-.969,2.712-2.906-.581-1.162h-.194v-.387l-.194-.581-2.325-1.937-1.162-1.744h-.194l-1.162-.194-.581-.969-.581-.194-.581-.775-.388-.387-.581-.581-.581-.387-.194-.194-1.162-.969-.388-.194-.775.194-.581-.387-2.906-3.1-3.1-3.293-.581-.775-.969-.387-2.131-1.744L601.469,404l-.581-1.162-1.744-1.937-1.162-1.937-.387-.581-.194-3.487-.387-.581h-.194v-.194l-.581-.387-.194-.775-.194-.194v-.194h-.194v-.194H594.5l-.194-.194-.194-.194-.775-.775-.969-1.356v-.194l-.775-.775-.581-2.325-.194-.969-.581-1.162-1.356-1.356-1.55-2.712-.775-2.518h-.194v-.775l2.712-.775V376.1l.388-.194.387-.194.387-.969-.194-.775v-.581l-.969-1.937h-.194l-.388-.581v-.194l.194-.775-.194-1.744V367l-.969-.969-.969-2.131-.194-.581-.194-.775.775-3.1v-1.356l.194-.194.775-1.356-.194-.194-.775-.388v-1.162l-.388-.387-.775-.194v-.194l-.775-.775-.388-.194-.387-.581-.387-.581-.581-.775-.775-.387-1.162-1.162v-.775l-.387-.969-.194-.194-.581-.581-1.55-2.712.387-.387v-.194H578.8l-.194-.194.194-.194v-.194l-.194-.194.194-.969.388-.387-.194-.775.387-.581v-.387L579,339.3l.194-.387-.194-.581.775-1.162-.387-.969V336l-.194-.194.194-.581L579,334.065v-.581l-.194-.194v-.581l-.387-.194-.387-.194v-.387l-.387-.775-.387-.775V329.8l.194-.387-.194-.581-.194-.581h-.194l-.387-.775-.194-1.162v-.387l.194-.194.775-.775.194-.387-.194-.194h-.388l-.194-.194v-.194l-.194-.387-.194-.387.194-.194v-.581l-.194-.387.194-.387V320.7l.387-.387-.194-.387-.194-.387v-.387l.194-.194v-.194l-.194-.387-.387-.969-.581-.581-.387-.387-.194-.387-.194-.387v-.194l-.581-1.162h-.387l-.581-.775-.194-.387-.194-.581.194-.194v-.194l.387-1.162v-.387l-.581-.194v-.775l-.775-.775.387-.387-.387-.775h-.581l-.775-.194-.387-.387-.194-.194v-.194l-.387-.581V305.2l-.775-.775v-1.162l-.388-.194v-.387l.194-.387.194-.581-.581-.969h-.387l-.194.194-.387-.194-.194-.775.387-.387v-.194h-.775l-.581-.775.387-.775-.194-.387-.194-.387h-.581l-.194-.194-.194-.581h-.969l-.194-.194h-.194l.387-.387-.194-.194v-.194l-.581-.194v-.194l.194-.194-.387-.387h.581v-.194l-.387-.194-.581-.387v-.194l.387-.581v-.194l.194-.387-.387-.387-.388-.194v-.581l-.387-.194v-.387l.194-.387h-.194l-.387-.194h-.581l-.387-.387v-.581l-.387-.387-.194-.194.387-.387.194-.194v-.194l-.581-.581-.194-.387.194-.194v-.194h-.194l-.388-.387h-.387v-.387l.194-.387v-.194l-.194-.194-.775-.387h-.194l.194-.387V283.7l-.387-.775v-.194l-.388-.194-.387.387H557.3l-.775-.194v-.194h-.194v-.387l-.194-.194-.387-.194v-.581l-.194-.194-.194-.194V280.4l-.194-.194v-.194h-.194l-.387-.194-.194.194-.581.194-.194-.581-.194-.194-.194-.194-.775-.387v-.775l-.194-.194V277.5l-.387-.387-.581-.194v-.194l-.194-.194-.581-.194-.194-.194-.387-.194h-.775l-.194-.194v-.194l-.194-.194H548l-.194-.194v-.194l-.194-.387-.581-.387-.581-.194-.194.581h-.194l-.194-.387h-.194l-.387-.194v-.387l-.387-.194v-.387h-.194l-.194-.194v.581l-.194.194h-.387l-.581-.581.194-.581v-.194l-.194-.194h-.194v.387l-.194.194-.194.194H542l-.387.194-.194-.194h-.775l-.388-.581-.581.581h-.388l-.194-.194-.387-.581-.388-.194-.194-.194-.581.194h-.387l-.194-.194-.194-.194.387-.581v-.194l-.969-.194-.194.194v.194l.194.581-.194.194H535.8l-.388-.194-.581-.775-.581-.387-.194.387h-.775l-.194.387v.194h-.194l-.387.194-.775-.387-.194-.387v-.194l-.194-.194-.581.194-.194-.387-.194.581h-.194l-.387.387h-.388l-1.162-.387-.387.194h-.388l-.387-.581h-.194l-.388.194h-.387l-.194-.387v-.387l-.388-.194h-.581l-.388-.387-.775.194-.194-.775L523.4,268l.387-.387.194-.581.387-.969-.387-1.55v-.581l.775-1.162V261.8l.194-.387.194-.387v-.775l.194-.581-.387-.969.194-.387.194-.775.194-.194.194-.194.387-.775.775-1.744,2.325-.775,2.131-1.356,1.162-.581,2.518-.775.387-1.162-.387-1.937-.969-.969-.387-1.55v-1.162h.775l1.356-.387v-.194l.581-.581h.388l.194-.194,1.356-.194.388-.194.387-.387.387-.194.387-.969.387-.775.194-.581v-.194l-.194-.969v-1.162l.194-.581.387-.581.969-.581.969-.775.969-.387h.581l.581.194.194-.387.775-1.937v-1.744l-.387-.775-.194-.387-.194-1.744v-.387l-.194-.581-.387-.775-.775-.581-.581-.581h-.969l-.194-.194-.387-.194-2.906-3.487-2.906-.581-.194-.194-.387-.581-.388-.581-.194-.581-.194-.387v-.194l-.194-1.55-.194-.387v-.581l.194-2.712v-2.518l-.969-.581,1.55.387h1.356l.194.387,1.162-.194,2.518.775h.969l4.843,1.356.775.194.194.194,1.356.387.194.194.194.194,2.518.581h.194l.775.194,1.744.387,2.712.969h1.55l.775.194.194.194.969.581,3.293,3.293.387-.581V218.8l.194-.387.775-.387.581.581h1.162l.194.194.775.969h1.937l.194.194.775.775h.194l.581.387.775.969.581.387.194.194.194.194h.194l.387-.387.194-.194.969-1.162h.581l1.744.775.387-.387.194-.194.775-.969.387-.194h.969l.194-.194h.194l.775-1.55.194-.387.194-.194h.387l.969.194.388-.387v-.969l-.194-.775.387-.775.387-.194h.581l.581.387.775.581h.387l.388-.194.194-.194.194-.387.194-.581.194-.387h.194l.387-.194.387-.194v-.194h.194v-.581l-.194-.194V212.4l-1.162-.581-.194-.194h.194v-.387l.387-.387h.194l.388-.194.775-.775.387-.194h1.55l.194-.194-.194-.775-.194-.581v-.387l.581-.581h.581l1.162.969.387.194h.194l.194-.194.194-.194-.194-.581-.194-.387.194-1.162.194-.387.581-.387v-.194l.194-.387.387-.194h.969l.969.387v.194h.775v.775l.775.194.581.581.775.194h.194l1.356,1.356.387.194h.387l.194.194.387.194.387.387.194.194.387.581v.387l.775.581.387.775.387.387,1.356.775.387.194.388.581h1.162l.194.194.387.387.194.387.194.969.969.581h.581l1.356.581h2.131l.969-.581,1.162-.775,1.356-.581,3.875,1.55.194-.775.581-.581h.194l-.194-.194-.194-1.162.388-1.162v-.387l.387-.387-1.162-2.518.194-1.162-.387-1.356.194-.581.581-.581v-1.55l-.581-1.55v-1.55l.194-1.162.581-.775h.194l.387-.194h.388l.194.194.969.775,1.162.775.387.194v.194l.194.194.194.194.387.387.581.194,1.162.194,1.744.969.387.387h1.162l.387.775h.388l.969.775.387.194.581.581v.194h.194l.194.194.581.194.387.581.387.194.969.581h3.681l1.162-.387.775-.387h3.1l-1.162-11.817-.581-3.681,1.162-3.293Z" transform="translate(-523.151 -187.55)" fill="#6f9c76" stroke="#fff" stroke-linecap="round" stroke-linejoin="round" stroke-width="0.5"/>
</svg>
