<svg xmlns="http://www.w3.org/2000/svg" width="462.535" height="396.67" viewBox="0 0 462.535 396.67">
  <path id="CDTU" d="M389.5,511.882l.194-.581.194-.775.387-.387.388-.775.194-.387.581-1.162.387-.775.581-1.162.194-.387.387-.969.581-.969.581-1.162.388-.969.581-.775.388-.775.581-.969.194-.969.194-.387.194-.388.194-.775.969-.969.969-.775.388-.775.387-.194h.194l1.162-1.55,2.518-2.131.387-.387.775-.581.775-.387h.194l.194-.194.194-.969-.194-2.325.388-2.325-.388-1.55h-.194l-.194-.969.581-3.293h-.388l-.194-.388v-.194l.194-.194.194-.388v-1.743L405,470.812l.387-.194.387-.194h.969l.969.194h.969l.969.194.581.194h.581l.581.194.581.194.581.194v.194l.388.194v1.55l-1.162,1.937-.194.581-.194,1.356v.775l.194.969.388,1.55.194.388v.194l.387.969v.581l-.194.581-.194.775v.581l.387,1.356-.194.969,1.356.387.194.194.387.194.775.581,1.162.194.969-.388.581-.194.775-.387,1.162-.388h7.943l1.356-1.744.969-.387.775-.387,1.937-1.744.581-.388h1.744l.775-.194.775-.581h.388l.581-.194h.194l1.356.194.775-.194.581-.194h1.162l.581.194.581-.387,3.487-.969.581-.387.581-.388h.775l.969-.581.969-.194.775-.581h.194l.775-.775.194-.194.194-.194.387-.194.387-.194,1.162-.194,1.162-.581.775-.581.581-.775-.387-.581-1.356-1.356-.194-.194-.387-.775-.194-.775v-.581l.194-.969-.194-.775V468.1l.194-.387,1.55-1.356.581-.775.194-.969.388-.775.969-.969.969-1.162.387-.775v-.387l-.194-.581v-.194l.387-.969-.194-.775.194-.581.581-.775,1.55-1.356.194-.194v-.194l.194-.194.194-1.162.194-.387,1.744-1.55.581-.775.387-.387.194-.969.775-2.518v-1.356l.581-1.162v-.775l.194-.581v-.581l.194-.194.388-.194.387-.194-.387-.581-.775-.775h-1.162l-.388-.194v-.775l-.387-.388-.194-.194-.194-.969-.581-.581-.581-.388-.194-.194-.581-.775h-.194l-.194.775h-.387l-.194-.194-.969-.969H460.4v-.194h-.581l-.388-.388h-.387l-.388.581-.387.194v-.194l-.387-.194-.194-.388v-.775l.194-.581-.194-.194-.194-.194-.581-.581-.775-.581v-.387l.387-.388.194-.194V431.1l-.581-.387-.194-.194-.194-.387.194-.775-.388-.194h-.387l-.388-.581L453.624,428l-.581-.388-.194-.387v-.581l-.194-.387.194-.194v-.581l-.581-.194-.388-.387v-.194l-.775.388-.388-.194-.194-.775-.194-.581.194-.775v-.387l-.194-.775v-.194h.194l.387-.387.581-1.937v-.194l.387-.581-.194-1.55-1.937-1.744-.969-.581-.581-.388v-1.356l-.581-.581v-.194l.194-.194.194-.387-.581-.388-.581-.387-.194-1.162-.194-.581h-.194l-.581.387H445.1l-.581-.387h-.388l-.969.581-.387-.194-1.162-.581-.388-.388v-.387h-.387l-.387-.194v-.194l-.194-.388-.581-.969-.388-.194v.194l-.581.581h-.194l-.581-.775h-1.162l-.194-.194-.387-1.162-.581-.194h-.775l-.194-.194.194-.775-.194-.194v-.387l.388-.581.194-.581-.387-.388-.388-.581-.194-.388-.194-.775v-.194l-.194-.194-.194-.969h-.194l-.194-.194-.581,1.356h-.194l-.194.194h-.387l-.194-.581-.388-.969-.194-.388h-.194v.194l-.775,1.162h-.969l-.387-.388-.194-.775V397.2l-.387-.387-.969.194-1.162-.775-.775-.387,1.356-2.712h-.387l-.387.194h-.194l-.194-.194v-.581l.194-.387.775-.581,1.356.194,1.356-2.325h.194l1.356-.387.775-.194.581.388.775-.194.194.194.387.194h.194l.387.194v.194l.194.581.388.194h.775l.969-.581.388-.194.775.388h.775l.581.194h1.744l.387.194h.194l.388.388.387.387.388.581.194.969.194.581.194.388.194.194.388.387h.387l1.356-.387.775.194h.194l1.743,1.744.194.194.387.194h.775l.775-.387.194-1.356-.194-.387-.581-.194-.194-.194-.194-.194-.194.194-.194.194h-.387l-.194-.388v-.387l.194-.581.387-.387h.194l.775-.194,2.712-.388.775.194h.194l.194-.194.388-.194.387-.194h.581l1.743.581h.388l.581.194h.194l.194-.194.969-.388h.581l.388.194.775.969.194.194v.581l-.194.581v.775l-.775,1.356-.388.581-.194.387-.194.969.194.969.388.581.194.194.775.969.581.194.194.387.388.581v.581h.194l.194.194v.775l.194,1.55.388.388.194.194h.387l.775.194.194-.194.388-.387.194-.775v-.194l.387-.581.775-.387.194-.388.388.194.969.775.581.388.581.194h.775l.581-.581.581-.581.581-.581.387-.194v.194h.387v.194l.775.581.388-.775-.194-.581-.194-.581v-.388l-.194-.581v-1.162l-.194-.581v-.969l.194-.775v-.969l.194-.581.194-.775.194-.775.194-.581.194-.387,2.518-1.55.581-.775.581-.387.581-.194.581-.194,1.162-.969,1.162-.194.969-1.162.775-.387.388-.194h.581l.194.387.775-.194.775-.194.775-.194h.969l1.55-.387,1.743-.194h1.937l.388-.969,1.162-1.744.581-.775.387-.581-.969-1.356-.387-.194-1.356-.387h-.969l-.775-.194h-1.162l-.969-.194h-.969l-1.162.194-.969-.194-.387-.194-.194-.581-.194-.387v-.969l.194-.581.581-.581.387-.388.775-.387.581-.387.775-.581.775-.387.969-.581.775-.581.969-.775.969-.387.775-.387.775-.388.581-.581.194-.581.387-.581v-1.356l-.194-.581-.387-.387-.581-.194-.969-.581-.581-.194-1.55-.194-.581-.194-.581-.194-.194-.194-.775-.387-1.162-.969-2.518-2.325L483.845,360l-.969-1.743-1.55-.775-.387-.388V356.9l-.194-.581-.775-.775-.388-.388-1.162-1.55-.581-.194v-.194l-1.162-.775v-.388h-.194l-.194-.387-.194-.194-.194-.194-.387-.387-.387-.194-.388-.581-.387-1.744L473,347.408l-2.518-.969-.775-.194h-.194l-.581-.387.581-1.937-.388-.969.388-.969-.194-.775.194-.387.581-.388.388-.387.387-.194.388-.194.775-.969.388-.581.387-2.325.194-.194.194-.387.194-.194.387-.194.388-.387.194-.194.387-.969.581-1.937v-.194l-.194-.194-.194-.581-.387-.775v-1.356l.194-.581L475.9,325.9l2.712-3.293,1.162-1.356.581-.969.775-.969v-.387l.194-.581v-.581l-.194-.581-.194-.775-.388-.581-.194-.581-.775-2.325-.387-3.293V303.82l-.388-1.55-.194-.969.388-1.356V298.2l.969-1.744.387-.388.194-.194.581-1.162.387-.194v-.194l.194-.388v-.194l.388-.194.194-1.356-.581-.581-.194-.194v-6.2l.194-.387v-.194l.388-1.937.387-.775.581-.387.969-.387.969-1.162.387-.581.194-.387.388-.387.775-.387.775-1.356.388-.969.387-.775,3.293-5.812,1.162-2.325.194-.387.387.581h.581l.194.194.581-.194v.775h.194l.194-.194.388.194.387-.194v.775h.581l.387.194h.194l.194.194h.388l.775.194.194-.194.194.194h.194l.194.387h.388l.387-.387.194-.194h.581l.194.581.581.194.387.581.387.194.388.194h.194l.387-.194.194.194.969.581.969.194.194.194v.194H506.9l.194.194.194.194h.194l.387-.387h.969l.581-.387.775-.194.969.194.581.775h.388l.581.387h.194l.194-.194.194-.194h.387l.194.194v.194h.194l.194-.387.194-.194.387-.194h.388l.194.194h.194l.194-.194H516v.194l-.194.194.388.194.387-.194.388.194.194.194.194-.194h.194l.388-.581h.387v-.194l.387.194.388-.194.387.194.194-.194.581-.581.194.194.775.387h.581l.194.194h.581v-.194l.194-.194.194.194.581.194v.387l.388-.194v.194l.387-.387h.387l.775.194-.194.387.194.194h.194l.388-.194.194-.387.194-.194h.581l.194.194h.775l.194.194v.194h.775v-.194l.194-.194.387.194.388-.387.387-.194h.775l.581-.194.775-.194.581.387.387-.581h.388l.387-.581.194.194.388.581.387.387.194.581v2.712l.388,2.712.194,1.356-.387.969-.194.581-.194.387.388.581.387,1.162-.581,1.356-.775,1.162-.388,1.162-.194.387-.194.775-.194.775v1.162l.194.581v.581l.194.581.387.387.581.581.775.581,1.937,1.162h.387l4.068,1.744,2.325.969.387-.194.969-.581,1.55,1.162,1.356.775,1.162.775,1.356.387,1.55.388.581.194,1.937,1.744.969.194,1.744.194,1.744.194.969.194.775.194,1.743,1.356,2.131,1.356,1.356.194h3.1l.775.581.775.775.581.194,3.293-.387.969.194,1.744.775,2.325,1.937.775.969.969.969.775.387.581.194.969-.194h2.131l.581.194.388.194.387.194.775.581.581.388.581.387h2.325l.194.194,1.356-2.906.969-3.487.581-2.325V300.72l-.581-1.55v-.388l4.649-1.162,1.744-.387,1.356.387,1.937.969,2.131,2.131.775.775,6.2-.775,3.1-3.293,1.356-1.356,3.681-2.712,1.55-.581h1.743l2.131.194,2.518.388,2.712.581,2.131.388,1.55.581-.194-.775-.194-1.937-.581-1.744-.581-1.55-.387-1.743L633.6,285.8l-.387-.581-.775-1.162-.194-.775-.581-.969-.581-1.356v-.194L630.3,279.6l-2.518-2.712-2.131-.387-5.231-1.356-.194-5.812-.194-2.325L618.1,262.75l-.387-1.162-.194-.194-.194-.581v-.194l-.581-.775-.581-.775-.775-.581-1.55-.581-.387-.194-.194-.775v-.969l.194-4.068.387-2.325v-2.325l.194-3.1v-6.974l.387-4.649v-3.681l.194-5.231,1.356-.194.387-.581.388-.194,1.937-.194.194-.194,2.518-.581,4.456-1.744,2.906-.969,2.131-.581,1.937-.194,2.131-.194h7.555l1.937.387,4.843,1.356,1.937.581H652l2.131-1.162,1.937-.775.775.581.969.969,2.712,2.906-2.518.775-1.162.581-2.131,1.356-2.325.775-.775,1.744-.387.775-.194.194-.194.194-.194.775-.194.387.387.969-.194.581v.775l-.194.387-.194.387v.969l-.775,1.162v.581l.387,1.55-.387.969-.194.581-.387.387.194.581.194.775.775-.194.388.387h.581l.388.194v.387l.194.387H652l.388-.194h.194l.387.581h.388l.387-.194,1.162.387h.388l.387-.387h.194l.194-.581.194.387.581-.194.194.194v.194l.194.387.775.387.387-.194h.194V242.8l.194-.387h.775l.194-.387.581.387.581.775.388.194h.194l.194-.194-.194-.581v-.194l.194-.194.969.194v.194l-.387.581.194.194.194.194h.387l.581-.194.194.194.388.194.387.581.194.194h.388l.581-.581.388.581h.775l.194.194.387-.194h.775l.194-.194.194-.194v-.387h.194l.194.194v.194l-.194.581.581.581h.387l.194-.194v-.581l.194.194h.194v.387l.387.194v.387l.387.194h.194l.194.387h.194l.194-.581.581.194.581.387.194.387v.194l.194.194h.775l.194.194v.194l.194.194h.775l.387.194.194.194.581.194.194.194v.194l.581.194.387.387v.387l.194.194v.775l.775.387.194.194.194.194.194.581.581-.194.194-.194.387.194h.194v.194l.194.194v.387l.194.194.194.194v.581l.387.194.194.194v.387h.194v.194l.775.194h.194l.387-.387.388.194v.194l.387.775v.194l-.194.387h.194l.775.387.194.194v.194l-.194.387v.387h.387l.388.387h.194v.194l-.194.194.194.387.581.581v.194l-.194.194-.387.387.194.194.387.387v.581l.387.387h.581l.387.194h.194l-.194.387v.387l.387.194v.581l.388.194.387.387-.194.387v.194l-.387.581v.194l.581.387.387.194v.194h-.581l.387.387-.194.194v.194l.581.194v.194l.194.194-.387.387h.194l.194.194h.969l.194.581.194.194h.581l.194.387.194.387-.388.775.581.775h.775v.194l-.388.387.194.775.387.194.194-.194h.387l.581.969-.194.581-.194.387v.387l.387.194v1.162l.775.775v.969l.387.581v.194l.194.194.387.387.775.194h.581l.388.775-.388.387.775.775v.775l.581.194v.387l-.388,1.162v.194l-.194.194.194.581.194.387.581.775h.387l.581,1.162v.194l.194.387.194.387.387.387.581.581.387.969.194.387v.194l-.194.194v.387l.194.387.194.387-.387.387v.969l-.194.388.194.387v.581l-.194.194.194.387.194.388v.194l.194.194h.388l.194.194-.194.388-.775.775-.194.194v.387l.194,1.162.387.775h.194l.194.581.194.581-.194.388v.581l.387.775.387.775v.387l.387.194.387.194v.581l.194.194v.581l.387,1.162-.194.581.194.194v.194l.387.969-.775,1.162.194.581-.194.387.387.581v.387l-.387.581.194.775-.388.387-.194.969.194.194v.194l-.194.194.194.194h.194v.194l-.387.387,1.55,2.712.581.581.194.194.387.969v.775l1.162,1.162.775.388.581.775.387.581.388.581.387.194.775.775v.194l.775.194.388.387v1.162l.775.387.194.194-.775,1.356-.194.194v1.356l-.775,3.1.194.775.194.581.969,2.131.969.969v1.162l.194,1.744-.194.775v.194l.387.581h.194l.969,1.937v.581l.194.775-.387.969-.387.194-.388.194v.194l-2.712.775v.775h.194l.775,2.518,1.55,2.712,1.356,1.356.581,1.162.194.969.581,2.325.775.775v.194l.969,1.356.775.775.194.194.194.194h1.162v.194h.194v.194l.194.194.194.775.581.387v.194h.194l.387.581.194,3.487.387.581,1.162,1.937,1.744,1.937.581,1.162,2.325,1.937,2.131,1.744.969.388.581.775,3.1,3.293,2.906,3.1.581.387.775-.194.388.194,1.162.969.194.194.581.387.581.581.388.387.581.775.581.194.581.969,1.162.194h.194l1.162,1.744,2.325,1.937.194.581v.387h.194l.581,1.162-2.712,2.906-.194.969-.387.581-.194.194-1.162,1.55-1.162,1.937h-.194l-.194.387-.775.194-.194.194-.194.194v.969l-7.749-.775h-2.712l-2.325.194-1.937-.387-2.906-.775-.969.775h-.194l-1.356,1.162h-.387l-.581.581-.194.194-.387.194-.194.194-.775.387-.194.194h-.387l-.194.194v.194l-1.162.775-.194.194v.194l-.194.194-.581.388-.581.969-.775.387-.388.775-.194.194-.194.194-.969.775-1.55,1.937-.387.581h9.493l2.325.194h1.937l1.55.194,2.325.388-.387,1.162v.194l-.388,1.162.194.969-.387.581-.581.969-.387,1.937v.969l-.581,1.162v1.162l-.775,1.55-.194.194v.581l.194.969.581-.194.775-.775v-.194l.194-.194.194-.194h.194l.387-.581,3.1-1.162,1.744-1.55,1.162-.581.387-.194.581-.581.387-.581.969-.969,2.712-1.55,3.293-.581.775-.194,1.937-.969h1.744l.387-.194.388-.194.387-.194.775-.581.387-.194.194-.194,1.356.194,2.518-1.162,1.162-.194.581.388H757l.387.387.775,1.356.969.969.387.387.775.387.194,3.681.775,2.518.775,2.325.969.969,1.744,1.356.581.581,1.744.969.969.775-.387,1.744-1.55.581-1.937.387-1.744.581-.775.194-1.162.387-1.55.581-1.162.581h-2.712l-.581.581-.387,1.162-.194.194H753.7l-.194.194-.969.194-.969.387-1.162.388-.969.581-.387.194-.387,1.162-.194,1.55-.387.969v.775l-.194.581-.581.387-.194.581h-.194v.194l-1.162-.969-1.744-.194-1.937.581-.194.775L744.4,452.6l.194.194,1.356.581.387,1.937.387.775,3.293,2.131.775.775.387.194,1.162,1.356,1.55,2.712,1.55.387L757.385,465l1.356.969,2.906,2.518,2.518,1.937,1.162.969,2.518.581,2.131.581,1.937.969,2.712.194h2.518l2.518,3.293.581,2.712-.969,2.518-1.162,3.293.194.969.775.388,1.744-.388,2.325.194,2.325.775h.969l1.55.775.194.194.969.388,2.906,1.162.387.387v2.131l1.744,2.131,1.356.775.194,1.162.194,1.937.775.775,1.356.775,2.325,1.162.775.194.581.775.387,1.744,2.325,3.681,1.55-.194.387-.194.194-.388.387-.194.194-.194.194-.387.387-.388.194-.387h2.518l.581-.194.194-.388.194-.387.387-.388.387-.387h.194l.387-.194,2.131-.388,1.162-.775.775-.775.387-.388v.194l4.843,1.356,12.98.194h8.718l.775,6.2,1.55,2.712.969,8.137,1.162,10.655L847.854,533l1.744,1.356,1.937,4.456h-3.681l-3.1-.194-5.037-.194-2.518-.194h-1.937l-1.937.194-1.55.194-3.1.194-.581-.194-.194-.194h-1.744l-.194-.194h-.581l-1.162.387h-1.356l-.775-.775H821.7l-1.744.387-.194-.194-.387-.194h-.387l-.581.387-.194-.194h-.194l-1.162-.194h-.969l-1.55.194-.581-.194-.581-.194H812.6l-.194.194-.969-.194h-.969l-.388-.194-.581-.387-1.937.194-.194.969-.969.581v1.937H806.2l-.581.194-2.712-.388-3.875-.194-3.681.194H793.03l-1.162.581-.969.969-.969.775-.775.387-1.162.194-1.162.194-1.356.194-1.356.194-.969.775-.775.969-.194.581-.581,1.55-.775.581-1.55.387-1.744-.775-5.812-2.131h-1.55l-.194.581.387,1.937,1.162,1.744.581,2.325.194.194.194.388.387,1.162v.775l-.387,1.162v.194l-.194.969.194.387v1.356H772.3l-.194.194V560.7l-.194.969.194.581.194.387-.194.775v.194l.194.581-11.624,3.681-1.162-.388-.969-1.55-1.162-1.162-8.911,2.906-2.131,4.068-1.55,1.356-.581-.581-.387-.194h-.194l-.387-.387-.194-.194-.194-.194-.387-.194-.388-.581h-.194L741.5,570l-.969-.969-.194-.969-.775-.969-1.744-2.906v-.194l-.581-.581-.387-.387-2.131-1.55-2.906-1.55-3.487-1.55h-.194v-.194l-.387-.194L726,557.6l-.388-.194h-.194l-.387-.194-3.1-.194-.969-.194H719.8l-.194-.194h-.194l-.387-.194h-1.55l-.581-.387-.387-.194-1.744-.581-.775-.581-.387-.387-1.162-.194h-.194l-.194-.388h-2.131l-.581.194h-.387l-.388-.194-.581.388h-1.55l-.194.194h-.387l-1.937-.775h-1.162l-.194-.194v-.388l.194-.194-.194-.387h-.387l-.775.194h-.387l-.387-.387-1.162-.388h-.775l-.581.388h-.387v-.194l-.581-.194h-.775l-.194-.194-.775-1.162-.194-.194-.194-.194-.775-.387-1.55-.387-.581-.775h-.387l-.969-.581-.581-.581h-1.744l-1.162-.194-.581.194-.194.194H685.9l-.387.581-.194-.194h-.387l-.775-1.356h-.194l-.194.194h-.387l-.194-1.55.194-.194.194-.387v-.194l-.387-.194H683l-.581.194-.194-.388v-.387h-.194l-.387-.388-.581-.387-.194-.387V542.1h-.387l-.194.194-.194.388-.775.387-.388.388-.387.775-.387.969-.387.775-.775,1.162-.387.969-.387.581-.581.775-.387.969-.581.969-.387.775-.194.581-.775,1.55-.387.775-.194.581-.387.775-.387.581-.387.387-.388-.194-.775-.194-.581-.194-.775-.388-.969-.387-.969-.388-.581-.194-1.356-.387-.387-.194-1.937-.775-2.131-.775-2.131-.775-1.55-.581-3.487-1.162-2.518-.969-1.744-.581-1.744-.775-.775-.194-.775-.194-1.937-.581-.388.581-.387.581-.387.775-.388.387-.775.969-.969.388-.581.775-1.55,1.356-.194.387.194.388v.387l.194.194v.388l.194.581v.775l.194.194.775,2.325v2.712l-.388.775v1.162l-.194,1.162.194.581.388.969,1.162,2.518-.194,1.55v1.162l.194.775,1.356,2.712.194.775.194.775v3.681l.194.581.194.388-.194.581v1.162l.387,1.162.388.969-.581,1.55.194.581v.581l.388,1.162-.194.775.388.775.194.581v.388l.581,3.487.581,1.356v1.162l.388,1.744v1.55l.581.581.388.581v.581l-.194.387-.581.388-.387.387-.581.388-.388.387h-.775l-.775.387-.581.388-.581.387-.581.194-.969.581h-.581l-.581-.581-.581-.387-.387-.387v-2.712l-.194-.581-.194-.387-.775-.581-.775-.775-.388-.387-.581-.581-.194-.194-.388-.387v-5.231l-.387-.387h-1.937l-.581-.194-.581.194-.388.387-.387.388-.388.581-.581.775-.581.775-.775.969-.194.581-.387.387-.388.775-.194.387-.387.775-.388.581-.387.581-.387.581-.581.581-.581.388-.581.387-1.162,1.162-.969.775-.775.775-.581.775-.969.775-.581.775-.581.581-.388.581-.775.775-.775.581-.581.581-.775.775-1.162.775-1.356,1.356-.581.387-1.162-.194-1.162-.387-.581-.194-1.55-.775-1.744-.969h-.194l-.581-.775-1.162-.581h-.388l-.581-.387-1.162-.388-2.325-.387-.969-.194-1.356-.581-.775-.581-.387-.388-.388-.775-1.162-.775-.581-.969h-1.162l-.775-.388h-.194l-1.356-.581-.581-.194h-.581l-.969-.775-1.162-.969-.581-1.55-.388-.388-.387-.194-.194-.194h-.775l-.969-.194-2.131-1.356-.969-.581-.775-.194-.775-.194-1.356-.775-.581-.194-.969-.775-1.937-.775-1.55-.388-.581-.581-.194,1.356v4.262l.194,1.356V604.1l.194.969v1.162l2.712,4.649-1.356-.775-.387-.388-.194-.194-1.744-.387v-.194l-.387-.194h-.581l-1.162.194-.775.194-.969.387-.581.194-.775-.194-2.131-.194h-.969l-.775.387-2.712,1.744-.388.194h-1.744l-.581-.194-2.131.388-1.744.387-.581.194H550.1l-1.55-.387h-.194l-.387-.194-1.356-.969-.388-.194-.969.194-1.937.581-.775.194h-.775l-.388-.194-.194-.194-.775-.387-.194-.194-.775-.194h-.581l-1.356.581-2.131-.387.194-.581v-1.55l.194-.581v-2.906l.194-.775v-.581l.194-.194-.194-.387v-.969l-.194-.194-.194-.388-.194-.387-.387-.775-2.325-1.162-1.162-.969-.387-.388-.194-.194-.581-.775h-.194v-.387l-.194-.194v-.194l-.194-1.162-1.356-1.743-.388-.388-.194-.387-.387-.775v-.581l-.194-.581-.581-.969-1.55-1.744-.387-.969-.775-1.55-.387-.581-.969-.775-1.55-.194-.387-.194-.388-.194-.581-.387-.194-.194-1.162-1.55-.581-.775-1.162-.775-.194-.194-.969-.969-.194-.194-.969-1.744-.387-.194-.194-.194-.581-.388-.581-.581-.775-1.162-1.937-1.55-.775-1.55v-.194l-.775-1.162-.387-1.356-.581-.775-1.55-1.356-.775-.775v-.194l-.194-.581-1.356-1.55-1.162-1.744-.388.388-.194.194-.194.194-.194.388-.388,1.937-.387.581-.775.581-.194.387-.194.194-.581.388-.387.194-.775.194-1.162.194-.969.194-.969.194h-.581l-.775.194-.775.194h-.581l-.581.387-.194.581-.581.581-.387.581-.194.581-.387.194-.388.388-.581.387-.581.194h-.581l-.581.387-.388.194-.387.387-.388.387-.387.194h-.581l-.581.194-.969.194h-.581l-.775.194-.581.388-.581.387-.194.387-.387.194-.581.194-.387.194-.581.387h-.194l-.969-1.356-2.518-1.744-.581-.194-.388-.194-.581-.388-1.356-1.162-.969-1.162-.775-.387-.969-.194-.387-.194-.387-.194-.581-.194-.581-.194h-.775l-.969-.388h-.194l-.775-.387-.194-.194-.194-.388-.194-.387H463.7v-1.162l.194-.388.194-.194L463.5,563.8l-.775-.775-.388-.387-1.356-.581-.969-.194-.387-.194-.388-.194-.581-.387-.775-1.162-.775-.775-.194-.194-.388-.969-.581-.387-.969-.388h-2.131l-.775-.194H451.3l-.775-.194h-.775l-1.162-.194h-.969l-1.162-.194-.775-.194h-.775l-1.162-.194-.775-.194-1.744-.194h-1.162l-1.162-.194-1.162-.194h-2.131l-.581.194-1.356-.387-.969-1.162-.194-1.356-.194-.969v-.387l-.775-2.325-.387-1.356-.387-1.55-.775-1.937-.194-1.162-.388-.775-.387-1.55-.388-1.356-.387-1.162-.194-.775-.194-.581-.194-.775-.387-.581v-.775l-.387-.581-.388-.581-.581-.581-.388-.388-.581-.387h-.581l-.387-.194-.581-.388-.581-.581-.581-.581-.581-.581-.581-.581-.387-.581-.387-.387-.775-.581-.581-.387-.387-.387-.581-.194-.387-.387H417.4l-.388-.194-.194.387v.775l-.194,1.356-.775.194-.387.387-.388.194-1.55,3.293-.388.775-.387.581h-.581v.387l-1.356,1.356h-.387l-.775,1.356-.194.775-.194.581v.775l-.194.775v1.55l-.194.581v.581l-.194.581-.388.775-.387.387-.387.387-.775.581-.581.387-.581.194-.581.581v.194h-1.937l-3.487-.194-1.162-.387-.387-.388-2.131-1.55.194-.388.194-.194.194-.969.775-.969.194-.969-.194-.969V539.2l.194-.969-.194-.775-.194-.581V535.9l-.194-1.162-.388-.388L394.924,533l-.387-.969v-.775l.194-1.937.194-.581-.194-.194v-.387l.388-1.356v-1.356l-.388-.775-.581-.775-.388-.388-.387-.775-.387-1.356-.388-.969-.194-.581-.194-.775v-.581l-.388-.775-.194-.775-.194-.387-.387-.775-.194-.581-.194-.581-.387-.581-.388-.387-.387-.581v-1.162Z" transform="translate(-389.25 -217.75)" fill="#6f9c76" stroke="#fff" stroke-linecap="round" stroke-linejoin="round" stroke-width="0.5"/>
</svg>
